<?xml version="1.0" encoding="UTF-8" standalone="no"?>
<!DOCTYPE svg PUBLIC "-//W3C//DTD SVG 1.1//EN" "http://www.w3.org/Graphics/SVG/1.1/DTD/svg11.dtd">
<svg width="100%" height="100%" viewBox="0 0 1920 1080" version="1.1" xmlns="http://www.w3.org/2000/svg" xmlns:xlink="http://www.w3.org/1999/xlink" xml:space="preserve" xmlns:serif="http://www.serif.com/" style="fill-rule:evenodd;clip-rule:evenodd;stroke-linecap:round;stroke-miterlimit:10;">
    <path d="M235.487,1040.13L237.647,1047.87L240.779,1047.87L233.363,1022.13L229.439,1022.13L222.023,1047.87L225.155,1047.87L227.315,1040.13L235.487,1040.13ZM234.767,1037.54L228.035,1037.54L231.419,1025.41L234.767,1037.54Z" style="fill-rule:nonzero;"/>
    <path d="M245.675,1024.72L245.675,1047.87L248.771,1047.87L248.771,1024.72L255.611,1024.72L255.611,1022.13L238.871,1022.13L238.871,1024.72L245.675,1024.72Z" style="fill-rule:nonzero;"/>
    <path d="M263.279,1024.72L263.279,1047.87L266.375,1047.87L266.375,1024.72L273.215,1024.72L273.215,1022.13L256.475,1022.13L256.475,1024.72L263.279,1024.72Z" style="fill-rule:nonzero;"/>
    <path d="M284.771,1040.13L286.931,1047.87L290.063,1047.87L282.647,1022.13L278.723,1022.13L271.307,1047.87L274.439,1047.87L276.599,1040.13L284.771,1040.13ZM284.051,1037.54L277.319,1037.54L280.703,1025.41L284.051,1037.54Z" style="fill-rule:nonzero;"/>
    <path d="M296.381,1046.74C297.857,1047.8 299.615,1048.34 301.655,1048.34C303.959,1048.34 305.909,1047.54 307.505,1045.94C309.101,1044.35 310.151,1042.01 310.655,1038.94L307.451,1038.94C307.331,1040.12 307.013,1041.23 306.497,1042.27C305.981,1043.32 305.303,1044.16 304.463,1044.79C303.623,1045.43 302.687,1045.75 301.655,1045.75C299.423,1045.75 297.767,1044.8 296.687,1042.9C295.607,1041.01 295.067,1038.37 295.067,1034.98C295.067,1031.62 295.619,1029 296.723,1027.12C297.827,1025.23 299.471,1024.29 301.655,1024.29C303.143,1024.29 304.367,1024.93 305.327,1026.22C306.287,1027.5 306.887,1029.07 307.127,1030.91L310.331,1030.91C309.875,1028.06 308.903,1025.81 307.415,1024.16C305.927,1022.52 303.995,1021.7 301.619,1021.7C298.523,1021.7 296.123,1022.87 294.419,1025.21C292.715,1027.55 291.863,1030.81 291.863,1034.98C291.863,1037.77 292.247,1040.15 293.015,1042.15C293.783,1044.14 294.905,1045.67 296.381,1046.74Z" style="fill-rule:nonzero;"/>
    <path d="M320.195,1037.39L327.683,1047.87L331.319,1047.87L322.067,1034.77L330.923,1022.13L327.323,1022.13L318.251,1035.38L318.251,1022.13L315.155,1022.13L315.155,1047.87L318.251,1047.87L318.251,1040.2L320.195,1037.39Z" style="fill-rule:nonzero;"/>
    <path d="M712.398,47.394L719.886,57.87L723.522,57.87L714.27,44.766L723.126,32.13L719.526,32.13L710.454,45.378L710.454,32.13L707.358,32.13L707.358,57.87L710.454,57.87L710.454,50.202L712.398,47.394Z" style="fill-rule:nonzero;"/>
    <path d="M726.582,32.13L726.582,57.87L740.118,57.87L740.118,55.278L729.678,55.278L729.678,45.63L738.966,45.63L738.966,43.11L729.678,43.11L729.678,34.722L740.118,34.722L740.118,32.13L726.582,32.13Z" style="fill-rule:nonzero;"/>
    <path d="M758.622,32.13L755.274,32.13L750.378,44.478L745.446,32.13L742.098,32.13L748.83,47.934L748.83,57.87L751.926,57.87L751.926,47.934L758.622,32.13Z" style="fill-rule:nonzero;"/>
    <path d="M770.322,32.13L770.322,57.87L773.418,57.87L773.418,47.538L777.306,47.538C778.842,47.538 780.252,47.202 781.536,46.53C782.82,45.858 783.834,44.916 784.578,43.704C785.322,42.492 785.694,41.106 785.694,39.546C785.694,37.074 784.92,35.22 783.372,33.984C781.824,32.748 779.802,32.13 777.306,32.13L770.322,32.13ZM777.162,44.946L773.418,44.946L773.418,34.722L777.162,34.722C778.866,34.722 780.18,35.136 781.104,35.964C782.028,36.792 782.49,37.986 782.49,39.546C782.49,41.226 782.022,42.546 781.086,43.506C780.15,44.466 778.842,44.946 777.162,44.946Z" style="fill-rule:nonzero;"/>
    <path d="M789.654,32.13L789.654,57.87L792.75,57.87L792.75,46.854L796.71,46.854C798.438,46.854 799.632,47.244 800.292,48.024C800.952,48.804 801.282,49.902 801.282,51.318L801.282,53.73C801.282,54.666 801.336,55.398 801.444,55.926C801.552,56.454 801.714,57.102 801.93,57.87L805.17,57.87C804.954,57.174 804.792,56.556 804.684,56.016C804.576,55.476 804.522,54.738 804.522,53.802L804.522,50.742C804.522,49.206 804.234,48.03 803.658,47.214C803.082,46.398 802.194,45.786 800.994,45.378L800.994,45.27C802.098,44.79 803.04,44.034 803.82,43.002C804.6,41.97 804.99,40.626 804.99,38.97C804.99,36.834 804.27,35.16 802.83,33.948C801.39,32.736 799.494,32.13 797.142,32.13L789.654,32.13ZM796.818,44.298L792.75,44.298L792.75,34.722L796.638,34.722C798.27,34.722 799.542,35.136 800.454,35.964C801.366,36.792 801.822,37.986 801.822,39.546C801.822,40.938 801.384,42.078 800.508,42.966C799.632,43.854 798.402,44.298 796.818,44.298Z" style="fill-rule:nonzero;"/>
    <path d="M810.03,32.13L810.03,57.87L823.566,57.87L823.566,55.278L813.126,55.278L813.126,45.63L822.414,45.63L822.414,43.11L813.126,43.11L813.126,34.722L823.566,34.722L823.566,32.13L810.03,32.13Z" style="fill-rule:nonzero;"/>
    <path d="M830.982,57.222C832.326,58.014 833.922,58.41 835.77,58.41C837.186,58.41 838.536,58.128 839.82,57.564C841.104,57 842.154,56.142 842.97,54.99C843.786,53.838 844.194,52.434 844.194,50.778C844.194,49.314 843.9,48.12 843.312,47.196C842.724,46.272 841.962,45.552 841.026,45.036C840.09,44.52 838.902,44.046 837.462,43.614L835.122,42.894C833.682,42.438 832.578,41.886 831.81,41.238C831.042,40.59 830.658,39.678 830.658,38.502C830.658,37.182 831.09,36.156 831.954,35.424C832.818,34.692 833.886,34.326 835.158,34.326C836.454,34.326 837.51,34.776 838.326,35.676C839.142,36.576 839.622,37.926 839.766,39.726L842.862,39.726C842.742,37.206 842.04,35.22 840.756,33.768C839.472,32.316 837.618,31.59 835.194,31.59C833.85,31.59 832.584,31.884 831.396,32.472C830.208,33.06 829.254,33.87 828.534,34.902C827.814,35.934 827.454,37.086 827.454,38.358C827.454,40.518 828.048,42.108 829.236,43.128C830.424,44.148 831.978,44.934 833.898,45.486L836.634,46.278C838.29,46.758 839.43,47.358 840.054,48.078C840.678,48.798 840.99,49.734 840.99,50.886C840.99,52.494 840.468,53.694 839.424,54.486C838.38,55.278 837.114,55.674 835.626,55.674C834.042,55.674 832.722,55.104 831.666,53.964C830.61,52.824 829.962,51.246 829.722,49.23L826.626,49.23C826.722,51.006 827.136,52.584 827.868,53.964C828.6,55.344 829.638,56.43 830.982,57.222Z" style="fill-rule:nonzero;"/>
    <path d="M851.43,57.222C852.774,58.014 854.37,58.41 856.218,58.41C857.634,58.41 858.984,58.128 860.268,57.564C861.552,57 862.602,56.142 863.418,54.99C864.234,53.838 864.642,52.434 864.642,50.778C864.642,49.314 864.348,48.12 863.76,47.196C863.172,46.272 862.41,45.552 861.474,45.036C860.538,44.52 859.35,44.046 857.91,43.614L855.57,42.894C854.13,42.438 853.026,41.886 852.258,41.238C851.49,40.59 851.106,39.678 851.106,38.502C851.106,37.182 851.538,36.156 852.402,35.424C853.266,34.692 854.334,34.326 855.606,34.326C856.902,34.326 857.958,34.776 858.774,35.676C859.59,36.576 860.07,37.926 860.214,39.726L863.31,39.726C863.19,37.206 862.488,35.22 861.204,33.768C859.92,32.316 858.066,31.59 855.642,31.59C854.298,31.59 853.032,31.884 851.844,32.472C850.656,33.06 849.702,33.87 848.982,34.902C848.262,35.934 847.902,37.086 847.902,38.358C847.902,40.518 848.496,42.108 849.684,43.128C850.872,44.148 852.426,44.934 854.346,45.486L857.082,46.278C858.738,46.758 859.878,47.358 860.502,48.078C861.126,48.798 861.438,49.734 861.438,50.886C861.438,52.494 860.916,53.694 859.872,54.486C858.828,55.278 857.562,55.674 856.074,55.674C854.49,55.674 853.17,55.104 852.114,53.964C851.058,52.824 850.41,51.246 850.17,49.23L847.074,49.23C847.17,51.006 847.584,52.584 848.316,53.964C849.048,55.344 850.086,56.43 851.43,57.222Z" style="fill-rule:nonzero;"/>
    <path d="M578.103,1022.13L578.103,1047.87L583.143,1047.87C585.567,1047.87 587.691,1047.32 589.515,1046.21C591.339,1045.11 592.743,1043.59 593.727,1041.64C594.711,1039.7 595.203,1037.49 595.203,1035.02C595.203,1032.55 594.711,1030.33 593.727,1028.38C592.743,1026.42 591.339,1024.89 589.515,1023.79C587.691,1022.68 585.567,1022.13 583.143,1022.13L578.103,1022.13ZM583.143,1045.28L581.199,1045.28L581.199,1024.72L583.143,1024.72C584.967,1024.72 586.545,1025.15 587.877,1026C589.209,1026.85 590.229,1028.05 590.937,1029.6C591.645,1031.15 591.999,1032.94 591.999,1034.98C591.999,1037.02 591.645,1038.82 590.937,1040.36C590.229,1041.91 589.209,1043.12 587.877,1043.98C586.545,1044.85 584.967,1045.28 583.143,1045.28Z" style="fill-rule:nonzero;"/>
    <path d="M599.703,1022.13L599.703,1047.87L613.239,1047.87L613.239,1045.28L602.799,1045.28L602.799,1035.63L612.087,1035.63L612.087,1033.11L602.799,1033.11L602.799,1024.72L613.239,1024.72L613.239,1022.13L599.703,1022.13Z" style="fill-rule:nonzero;"/>
    <path d="M621.177,1046.74C622.653,1047.8 624.411,1048.34 626.451,1048.34C628.755,1048.34 630.705,1047.54 632.301,1045.94C633.897,1044.35 634.947,1042.01 635.451,1038.94L632.247,1038.94C632.127,1040.12 631.809,1041.23 631.293,1042.27C630.777,1043.32 630.099,1044.16 629.259,1044.79C628.419,1045.43 627.483,1045.75 626.451,1045.75C624.219,1045.75 622.563,1044.8 621.483,1042.9C620.403,1041.01 619.863,1038.37 619.863,1034.98C619.863,1031.62 620.415,1029 621.519,1027.12C622.623,1025.23 624.267,1024.29 626.451,1024.29C627.939,1024.29 629.163,1024.93 630.123,1026.22C631.083,1027.5 631.683,1029.07 631.923,1030.91L635.127,1030.91C634.671,1028.06 633.699,1025.81 632.211,1024.16C630.723,1022.52 628.791,1021.7 626.415,1021.7C623.319,1021.7 620.919,1022.87 619.215,1025.21C617.511,1027.55 616.659,1030.81 616.659,1034.98C616.659,1037.77 617.043,1040.15 617.811,1042.15C618.579,1044.14 619.701,1045.67 621.177,1046.74Z" style="fill-rule:nonzero;"/>
    <path d="M650.535,1040.13L652.695,1047.87L655.827,1047.87L648.411,1022.13L644.487,1022.13L637.071,1047.87L640.203,1047.87L642.363,1040.13L650.535,1040.13ZM649.815,1037.54L643.083,1037.54L646.467,1025.41L649.815,1037.54Z" style="fill-rule:nonzero;"/>
    <path d="M670.911,1022.13L667.563,1022.13L662.667,1034.48L657.735,1022.13L654.387,1022.13L661.119,1037.93L661.119,1047.87L664.215,1047.87L664.215,1037.93L670.911,1022.13Z" style="fill-rule:nonzero;"/>
    <path d="M1101.22,827.222C1102.57,828.014 1104.16,828.41 1106.01,828.41C1107.43,828.41 1108.78,828.128 1110.06,827.564C1111.35,827 1112.39,826.142 1113.21,824.99C1114.03,823.838 1114.43,822.434 1114.43,820.778C1114.43,819.314 1114.14,818.12 1113.55,817.196C1112.96,816.272 1112.2,815.552 1111.27,815.036C1110.33,814.52 1109.14,814.046 1107.7,813.614L1105.36,812.894C1103.92,812.438 1102.82,811.886 1102.05,811.238C1101.28,810.59 1100.9,809.678 1100.9,808.502C1100.9,807.182 1101.33,806.156 1102.19,805.424C1103.06,804.692 1104.13,804.326 1105.4,804.326C1106.69,804.326 1107.75,804.776 1108.57,805.676C1109.38,806.576 1109.86,807.926 1110.01,809.726L1113.1,809.726C1112.98,807.206 1112.28,805.22 1111,803.768C1109.71,802.316 1107.86,801.59 1105.43,801.59C1104.09,801.59 1102.83,801.884 1101.64,802.472C1100.45,803.06 1099.5,803.87 1098.78,804.902C1098.06,805.934 1097.69,807.086 1097.69,808.358C1097.69,810.518 1098.29,812.108 1099.48,813.128C1100.66,814.148 1102.22,814.934 1104.14,815.486L1106.88,816.278C1108.53,816.758 1109.67,817.358 1110.3,818.078C1110.92,818.798 1111.23,819.734 1111.23,820.886C1111.23,822.494 1110.71,823.694 1109.66,824.486C1108.62,825.278 1107.36,825.674 1105.87,825.674C1104.28,825.674 1102.96,825.104 1101.91,823.964C1100.85,822.824 1100.2,821.246 1099.96,819.23L1096.87,819.23C1096.96,821.006 1097.38,822.584 1098.11,823.964C1098.84,825.344 1099.88,826.43 1101.22,827.222Z" style="fill-rule:nonzero;"/>
    <path d="M1120.77,825.764C1122.31,827.528 1124.49,828.41 1127.32,828.41C1130.11,828.41 1132.27,827.504 1133.8,825.692C1135.34,823.88 1136.11,821.306 1136.11,817.97L1136.11,802.13L1132.9,802.13L1132.9,817.97C1132.9,820.658 1132.43,822.626 1131.48,823.874C1130.53,825.122 1129.15,825.746 1127.32,825.746C1123.56,825.746 1121.67,823.154 1121.67,817.97L1121.67,802.13L1118.47,802.13L1118.47,817.97C1118.47,821.402 1119.24,824 1120.77,825.764Z" style="fill-rule:nonzero;"/>
    <path d="M1144.5,827.222C1145.84,828.014 1147.43,828.41 1149.28,828.41C1150.7,828.41 1152.05,828.128 1153.33,827.564C1154.62,827 1155.67,826.142 1156.48,824.99C1157.3,823.838 1157.71,822.434 1157.71,820.778C1157.71,819.314 1157.41,818.12 1156.83,817.196C1156.24,816.272 1155.48,815.552 1154.54,815.036C1153.6,814.52 1152.41,814.046 1150.98,813.614L1148.63,812.894C1147.19,812.438 1146.09,811.886 1145.32,811.238C1144.56,810.59 1144.17,809.678 1144.17,808.502C1144.17,807.182 1144.6,806.156 1145.47,805.424C1146.33,804.692 1147.4,804.326 1148.67,804.326C1149.97,804.326 1151.02,804.776 1151.84,805.676C1152.65,806.576 1153.13,807.926 1153.28,809.726L1156.38,809.726C1156.26,807.206 1155.55,805.22 1154.27,803.768C1152.99,802.316 1151.13,801.59 1148.71,801.59C1147.36,801.59 1146.1,801.884 1144.91,802.472C1143.72,803.06 1142.77,803.87 1142.05,804.902C1141.33,805.934 1140.97,807.086 1140.97,808.358C1140.97,810.518 1141.56,812.108 1142.75,813.128C1143.94,814.148 1145.49,814.934 1147.41,815.486L1150.15,816.278C1151.8,816.758 1152.94,817.358 1153.57,818.078C1154.19,818.798 1154.5,819.734 1154.5,820.886C1154.5,822.494 1153.98,823.694 1152.94,824.486C1151.89,825.278 1150.63,825.674 1149.14,825.674C1147.56,825.674 1146.24,825.104 1145.18,823.964C1144.12,822.824 1143.48,821.246 1143.24,819.23L1140.14,819.23C1140.24,821.006 1140.65,822.584 1141.38,823.964C1142.11,825.344 1143.15,826.43 1144.5,827.222Z" style="fill-rule:nonzero;"/>
    <path d="M1164.94,804.722L1164.94,827.87L1168.04,827.87L1168.04,804.722L1174.88,804.722L1174.88,802.13L1158.14,802.13L1158.14,804.722L1164.94,804.722Z" style="fill-rule:nonzero;"/>
    <path d="M1186.43,820.13L1188.6,827.87L1191.73,827.87L1184.31,802.13L1180.39,802.13L1172.97,827.87L1176.1,827.87L1178.26,820.13L1186.43,820.13ZM1185.71,817.538L1178.98,817.538L1182.37,805.406L1185.71,817.538Z" style="fill-rule:nonzero;"/>
    <rect x="1195.15" y="802.13" width="3.096" height="25.74" style="fill-rule:nonzero;"/>
    <path d="M1220.85,802.13L1217.76,802.13L1217.76,823.514L1207.82,802.13L1204,802.13L1204,827.87L1207.1,827.87L1207.1,806.486L1217.04,827.87L1220.85,827.87L1220.85,802.13Z" style="fill-rule:nonzero;"/>
    <path d="M1538.52,1022.13L1538.52,1047.87L1541.61,1047.87L1541.61,1036.85L1545.57,1036.85C1547.3,1036.85 1548.49,1037.24 1549.15,1038.02C1549.81,1038.8 1550.14,1039.9 1550.14,1041.32L1550.14,1043.73C1550.14,1044.67 1550.2,1045.4 1550.31,1045.93C1550.41,1046.45 1550.58,1047.1 1550.79,1047.87L1554.03,1047.87C1553.82,1047.17 1553.65,1046.56 1553.55,1046.02C1553.44,1045.48 1553.38,1044.74 1553.38,1043.8L1553.38,1040.74C1553.38,1039.21 1553.1,1038.03 1552.52,1037.21C1551.94,1036.4 1551.06,1035.79 1549.86,1035.38L1549.86,1035.27C1550.96,1034.79 1551.9,1034.03 1552.68,1033C1553.46,1031.97 1553.85,1030.63 1553.85,1028.97C1553.85,1026.83 1553.13,1025.16 1551.69,1023.95C1550.25,1022.74 1548.36,1022.13 1546,1022.13L1538.52,1022.13ZM1545.68,1034.3L1541.61,1034.3L1541.61,1024.72L1545.5,1024.72C1547.13,1024.72 1548.4,1025.14 1549.32,1025.96C1550.23,1026.79 1550.68,1027.99 1550.68,1029.55C1550.68,1030.94 1550.25,1032.08 1549.37,1032.97C1548.49,1033.85 1547.26,1034.3 1545.68,1034.3Z" style="fill-rule:nonzero;"/>
    <path d="M1558.89,1022.13L1558.89,1047.87L1572.43,1047.87L1572.43,1045.28L1561.99,1045.28L1561.99,1035.63L1571.28,1035.63L1571.28,1033.11L1561.99,1033.11L1561.99,1024.72L1572.43,1024.72L1572.43,1022.13L1558.89,1022.13Z" style="fill-rule:nonzero;"/>
    <path d="M1576.75,1022.13L1576.75,1047.87L1588.84,1047.87L1588.84,1045.28L1579.84,1045.28L1579.84,1022.13L1576.75,1022.13Z" style="fill-rule:nonzero;"/>
    <path d="M1592.62,1022.13L1592.62,1047.87L1606.16,1047.87L1606.16,1045.28L1595.72,1045.28L1595.72,1035.63L1605.01,1035.63L1605.01,1033.11L1595.72,1033.11L1595.72,1024.72L1606.16,1024.72L1606.16,1022.13L1592.62,1022.13Z" style="fill-rule:nonzero;"/>
    <path d="M1621.6,1040.13L1623.76,1047.87L1626.89,1047.87L1619.48,1022.13L1615.56,1022.13L1608.14,1047.87L1611.27,1047.87L1613.43,1040.13L1621.6,1040.13ZM1620.88,1037.54L1614.15,1037.54L1617.54,1025.41L1620.88,1037.54Z" style="fill-rule:nonzero;"/>
    <path d="M1632.87,1047.22C1634.22,1048.01 1635.81,1048.41 1637.66,1048.41C1639.08,1048.41 1640.42,1048.13 1641.71,1047.56C1642.99,1047 1644.04,1046.14 1644.86,1044.99C1645.67,1043.84 1646.08,1042.43 1646.08,1040.78C1646.08,1039.31 1645.79,1038.12 1645.2,1037.2C1644.61,1036.27 1643.85,1035.55 1642.91,1035.04C1641.98,1034.52 1640.79,1034.05 1639.35,1033.61L1637.01,1032.89C1635.57,1032.44 1634.47,1031.89 1633.7,1031.24C1632.93,1030.59 1632.55,1029.68 1632.55,1028.5C1632.55,1027.18 1632.98,1026.16 1633.84,1025.42C1634.71,1024.69 1635.78,1024.33 1637.05,1024.33C1638.34,1024.33 1639.4,1024.78 1640.22,1025.68C1641.03,1026.58 1641.51,1027.93 1641.65,1029.73L1644.75,1029.73C1644.63,1027.21 1643.93,1025.22 1642.64,1023.77C1641.36,1022.32 1639.51,1021.59 1637.08,1021.59C1635.74,1021.59 1634.47,1021.88 1633.29,1022.47C1632.1,1023.06 1631.14,1023.87 1630.42,1024.9C1629.7,1025.93 1629.34,1027.09 1629.34,1028.36C1629.34,1030.52 1629.94,1032.11 1631.12,1033.13C1632.31,1034.15 1633.87,1034.93 1635.79,1035.49L1638.52,1036.28C1640.18,1036.76 1641.32,1037.36 1641.94,1038.08C1642.57,1038.8 1642.88,1039.73 1642.88,1040.89C1642.88,1042.49 1642.36,1043.69 1641.31,1044.49C1640.27,1045.28 1639,1045.67 1637.52,1045.67C1635.93,1045.67 1634.61,1045.1 1633.56,1043.96C1632.5,1042.82 1631.85,1041.25 1631.61,1039.23L1628.52,1039.23C1628.61,1041.01 1629.03,1042.58 1629.76,1043.96C1630.49,1045.34 1631.53,1046.43 1632.87,1047.22Z" style="fill-rule:nonzero;"/>
    <path d="M1650.22,1022.13L1650.22,1047.87L1663.76,1047.87L1663.76,1045.28L1653.32,1045.28L1653.32,1035.63L1662.61,1035.63L1662.61,1033.11L1653.32,1033.11L1653.32,1024.72L1663.76,1024.72L1663.76,1022.13L1650.22,1022.13Z" style="fill-rule:nonzero;"/>
    <path d="M1767.47,1024.72L1767.47,1047.87L1770.56,1047.87L1770.56,1024.72L1777.4,1024.72L1777.4,1022.13L1760.66,1022.13L1760.66,1024.72L1767.47,1024.72Z" style="fill-rule:nonzero;"/>
    <rect x="1780.9" y="1022.13" width="3.096" height="25.74" style="fill-rule:nonzero;"/>
    <path d="M1811.06,1022.13L1806.6,1022.13L1800.41,1044.99L1794.22,1022.13L1789.75,1022.13L1789.75,1047.87L1792.81,1047.87L1792.81,1027.03L1798.64,1047.87L1802.17,1047.87L1808,1027.03L1808,1047.87L1811.06,1047.87L1811.06,1022.13Z" style="fill-rule:nonzero;"/>
    <path d="M1816.46,1022.13L1816.46,1047.87L1830,1047.87L1830,1045.28L1819.56,1045.28L1819.56,1035.63L1828.85,1035.63L1828.85,1033.11L1819.56,1033.11L1819.56,1024.72L1830,1024.72L1830,1022.13L1816.46,1022.13Z" style="fill-rule:nonzero;"/>
    <path d="M29.466,308.604L55.206,308.604L55.206,296.508L52.614,296.508L52.614,305.508L29.466,305.508L29.466,308.604Z" style="fill-rule:nonzero;"/>
    <path d="M29.466,292.728L55.206,292.728L55.206,279.192L52.614,279.192L52.614,289.632L42.966,289.632L42.966,280.344L40.446,280.344L40.446,289.632L32.058,289.632L32.058,279.192L29.466,279.192L29.466,292.728Z" style="fill-rule:nonzero;"/>
    <path d="M29.466,259.32L29.466,262.488L51.858,268.248L29.466,274.044L29.466,277.212L55.206,270.228L55.206,266.304L29.466,259.32Z" style="fill-rule:nonzero;"/>
    <path d="M29.466,256.26L55.206,256.26L55.206,242.724L52.614,242.724L52.614,253.164L42.966,253.164L42.966,243.876L40.446,243.876L40.446,253.164L32.058,253.164L32.058,242.724L29.466,242.724L29.466,256.26Z" style="fill-rule:nonzero;"/>
    <path d="M29.466,238.404L55.206,238.404L55.206,226.308L52.614,226.308L52.614,235.308L29.466,235.308L29.466,238.404Z" style="fill-rule:nonzero;"/>
    <path d="M45.234,214.068C50.562,214.068 55.806,212.676 60.966,209.892L60.966,207.552C57.87,208.752 55.2,209.622 52.956,210.162C50.712,210.702 48.138,210.972 45.234,210.972C42.33,210.972 39.75,210.696 37.494,210.144C35.238,209.592 32.562,208.728 29.466,207.552L29.466,209.892C34.626,212.676 39.882,214.068 45.234,214.068Z" style="fill-rule:nonzero;"/>
    <path d="M29.466,197.724L29.466,201.468C30.834,201.612 32.052,202.02 33.12,202.692C34.188,203.364 34.89,204.264 35.226,205.392L38.358,205.392C38.19,204.432 37.77,203.55 37.098,202.746C36.426,201.942 35.562,201.276 34.506,200.748L55.206,200.748L55.206,197.724L29.466,197.724Z" style="fill-rule:nonzero;"/>
    <path d="M54,189.228C55.116,187.956 55.674,186.468 55.674,184.764C55.674,183.036 55.158,181.536 54.126,180.264C53.094,178.992 51.576,178.014 49.572,177.33C47.568,176.646 45.15,176.304 42.318,176.304C39.486,176.304 37.074,176.646 35.082,177.33C33.09,178.014 31.584,178.992 30.564,180.264C29.544,181.536 29.034,183.036 29.034,184.764C29.034,186.468 29.586,187.956 30.69,189.228C31.794,190.5 33.348,191.484 35.352,192.18C37.356,192.876 39.678,193.224 42.318,193.224C44.958,193.224 47.286,192.876 49.302,192.18C51.318,191.484 52.884,190.5 54,189.228ZM50.256,180.822C52.092,181.698 53.01,183.012 53.01,184.764C53.01,186.516 52.092,187.83 50.256,188.706C48.42,189.582 45.774,190.02 42.318,190.02C38.886,190.02 36.258,189.582 34.434,188.706C32.61,187.83 31.698,186.516 31.698,184.764C31.698,183.012 32.61,181.698 34.434,180.822C36.258,179.946 38.886,179.508 42.318,179.508C45.774,179.508 48.42,179.946 50.256,180.822Z" style="fill-rule:nonzero;"/>
    <path d="M54,168.708C55.116,167.436 55.674,165.948 55.674,164.244C55.674,162.516 55.158,161.016 54.126,159.744C53.094,158.472 51.576,157.494 49.572,156.81C47.568,156.126 45.15,155.784 42.318,155.784C39.486,155.784 37.074,156.126 35.082,156.81C33.09,157.494 31.584,158.472 30.564,159.744C29.544,161.016 29.034,162.516 29.034,164.244C29.034,165.948 29.586,167.436 30.69,168.708C31.794,169.98 33.348,170.964 35.352,171.66C37.356,172.356 39.678,172.704 42.318,172.704C44.958,172.704 47.286,172.356 49.302,171.66C51.318,170.964 52.884,169.98 54,168.708ZM50.256,160.302C52.092,161.178 53.01,162.492 53.01,164.244C53.01,165.996 52.092,167.31 50.256,168.186C48.42,169.062 45.774,169.5 42.318,169.5C38.886,169.5 36.258,169.062 34.434,168.186C32.61,167.31 31.698,165.996 31.698,164.244C31.698,162.492 32.61,161.178 34.434,160.302C36.258,159.426 38.886,158.988 42.318,158.988C45.774,158.988 48.42,159.426 50.256,160.302Z" style="fill-rule:nonzero;"/>
    <path d="M39.564,150.834C40.68,149.934 41.238,148.776 41.238,147.36C41.238,145.944 40.68,144.786 39.564,143.886C38.448,142.986 36.99,142.536 35.19,142.536C33.39,142.536 31.926,142.986 30.798,143.886C29.67,144.786 29.106,145.944 29.106,147.36C29.106,148.776 29.67,149.934 30.798,150.834C31.926,151.734 33.39,152.184 35.19,152.184C36.99,152.184 38.448,151.734 39.564,150.834ZM29.466,135.048L55.206,149.916L55.206,146.892L29.466,132.024L29.466,135.048ZM37.836,145.686C38.52,146.082 38.862,146.64 38.862,147.36C38.862,148.08 38.52,148.638 37.836,149.034C37.152,149.43 36.27,149.628 35.19,149.628C34.11,149.628 33.222,149.43 32.526,149.034C31.83,148.638 31.482,148.08 31.482,147.36C31.482,146.64 31.83,146.082 32.526,145.686C33.222,145.29 34.11,145.092 35.19,145.092C36.27,145.092 37.152,145.29 37.836,145.686ZM53.892,138.054C55.008,137.154 55.566,135.996 55.566,134.58C55.566,133.164 55.008,132.006 53.892,131.106C52.776,130.206 51.318,129.756 49.518,129.756C47.718,129.756 46.254,130.206 45.126,131.106C43.998,132.006 43.434,133.164 43.434,134.58C43.434,135.996 43.998,137.154 45.126,138.054C46.254,138.954 47.718,139.404 49.518,139.404C51.318,139.404 52.776,138.954 53.892,138.054ZM52.164,132.906C52.848,133.302 53.19,133.86 53.19,134.58C53.19,135.3 52.848,135.858 52.164,136.254C51.48,136.65 50.598,136.848 49.518,136.848C48.438,136.848 47.55,136.65 46.854,136.254C46.158,135.858 45.81,135.3 45.81,134.58C45.81,133.86 46.158,133.302 46.854,132.906C47.55,132.51 48.438,132.312 49.518,132.312C50.598,132.312 51.48,132.51 52.164,132.906Z" style="fill-rule:nonzero;"/>
    <path d="M52.956,123.906C55.2,124.446 57.87,125.316 60.966,126.516L60.966,124.176C55.806,121.392 50.562,120 45.234,120C39.882,120 34.626,121.392 29.466,124.176L29.466,126.516C32.562,125.34 35.238,124.476 37.494,123.924C39.75,123.372 42.33,123.096 45.234,123.096C48.138,123.096 50.712,123.366 52.956,123.906Z" style="fill-rule:nonzero;"/>
    <path d="M76.5,131.404L90,122.404L103.5,131.404" style="fill:none;stroke:black;stroke-width:4px;"/>
    <path d="M90,990L90,122.404" style="fill:none;stroke:black;stroke-width:4px;stroke-linejoin:round;stroke-miterlimit:1.5;"/>
    <path d="M1818.6,976.5L1827.6,990L1818.6,1003.5" style="fill:none;stroke:black;stroke-width:4px;"/>
    <path d="M90,990L1827.6,990" style="fill:none;stroke:black;stroke-width:4px;stroke-linejoin:round;stroke-miterlimit:1.5;"/>
    <path d="M90,78L90,102" style="fill:none;stroke:black;stroke-width:4px;"/>
    <path d="M1482,78L1482,102" style="fill:none;stroke:black;stroke-width:4px;"/>
    <path d="M90,92C88.896,92 88,91.104 88,90C88,88.896 88.896,88 90,88L94.058,88C95.162,88 96.058,88.896 96.058,90C96.058,91.104 95.162,92 94.058,92L90,92ZM114.35,92C113.246,92 112.35,91.104 112.35,90C112.35,88.896 113.246,88 114.35,88L122.467,88C123.571,88 124.467,88.896 124.467,90C124.467,91.104 123.571,92 122.467,92L114.35,92ZM142.759,92C141.655,92 140.759,91.104 140.759,90C140.759,88.896 141.655,88 142.759,88L150.875,88C151.979,88 152.875,88.896 152.875,90C152.875,91.104 151.979,92 150.875,92L142.759,92ZM171.167,92C170.063,92 169.167,91.104 169.167,90C169.167,88.896 170.063,88 171.167,88L179.282,88C180.386,88 181.282,88.896 181.282,90C181.282,91.104 180.386,92 179.282,92L171.167,92ZM199.574,92C198.47,92 197.574,91.104 197.574,90C197.574,88.896 198.47,88 199.574,88L207.691,88C208.795,88 209.691,88.896 209.691,90C209.691,91.104 208.795,92 207.691,92L199.574,92ZM227.983,92C226.879,92 225.983,91.104 225.983,90C225.983,88.896 226.879,88 227.983,88L236.1,88C237.204,88 238.1,88.896 238.1,90C238.1,91.104 237.204,92 236.1,92L227.983,92ZM256.392,92C255.288,92 254.392,91.104 254.392,90C254.392,88.896 255.288,88 256.392,88L264.508,88C265.612,88 266.508,88.896 266.508,90C266.508,91.104 265.612,92 264.508,92L256.392,92ZM284.798,92C283.694,92 282.798,91.104 282.798,90C282.798,88.896 283.694,88 284.798,88L292.914,88C294.018,88 294.914,88.896 294.914,90C294.914,91.104 294.018,92 292.914,92L284.798,92ZM313.207,92C312.103,92 311.207,91.104 311.207,90C311.207,88.896 312.103,88 313.207,88L321.323,88C322.427,88 323.323,88.896 323.323,90C323.323,91.104 322.427,92 321.323,92L313.207,92ZM341.616,92C340.512,92 339.616,91.104 339.616,90C339.616,88.896 340.512,88 341.616,88L349.733,88C350.837,88 351.733,88.896 351.733,90C351.733,91.104 350.837,92 349.733,92L341.616,92ZM370.022,92C368.919,92 368.022,91.104 368.022,90C368.022,88.896 368.919,88 370.022,88L378.138,88C379.242,88 380.138,88.896 380.138,90C380.138,91.104 379.242,92 378.138,92L370.022,92ZM398.432,92C397.328,92 396.432,91.104 396.432,90C396.432,88.896 397.328,88 398.432,88L406.548,88C407.652,88 408.548,88.896 408.548,90C408.548,91.104 407.652,92 406.548,92L398.432,92ZM426.841,92C425.737,92 424.841,91.104 424.841,90C424.841,88.896 425.737,88 426.841,88L434.957,88C436.061,88 436.957,88.896 436.957,90C436.957,91.104 436.061,92 434.957,92L426.841,92ZM455.247,92C454.143,92 453.247,91.104 453.247,90C453.247,88.896 454.143,88 455.247,88L463.363,88C464.467,88 465.363,88.896 465.363,90C465.363,91.104 464.467,92 463.363,92L455.247,92ZM483.656,92C482.552,92 481.656,91.104 481.656,90C481.656,88.896 482.552,88 483.656,88L491.772,88C492.876,88 493.772,88.896 493.772,90C493.772,91.104 492.876,92 491.772,92L483.656,92ZM512.064,92C510.961,92 510.064,91.104 510.064,90C510.064,88.896 510.961,88 512.064,88L520.181,88C521.285,88 522.181,88.896 522.181,90C522.181,91.104 521.285,92 520.181,92L512.064,92ZM540.472,92C539.369,92 538.472,91.104 538.472,90C538.472,88.896 539.369,88 540.472,88L548.59,88C549.694,88 550.59,88.896 550.59,90C550.59,91.104 549.694,92 548.59,92L540.472,92ZM568.882,92C567.778,92 566.882,91.104 566.882,90C566.882,88.896 567.778,88 568.882,88L576.999,88C578.103,88 578.999,88.896 578.999,90C578.999,91.104 578.103,92 576.999,92L568.882,92ZM597.288,92C596.184,92 595.288,91.104 595.288,90C595.288,88.896 596.184,88 597.288,88L605.404,88C606.507,88 607.404,88.896 607.404,90C607.404,91.104 606.507,92 605.404,92L597.288,92ZM625.697,92C624.593,92 623.697,91.104 623.697,90C623.697,88.896 624.593,88 625.697,88L633.812,88C634.916,88 635.812,88.896 635.812,90C635.812,91.104 634.916,92 633.812,92L625.697,92ZM654.104,92C653.001,92 652.104,91.104 652.104,90C652.104,88.896 653.001,88 654.104,88L662.221,88C663.325,88 664.221,88.896 664.221,90C664.221,91.104 663.325,92 662.221,92L654.104,92ZM682.511,92C681.408,92 680.511,91.104 680.511,90C680.511,88.896 681.408,88 682.511,88L690.628,88C691.732,88 692.628,88.896 692.628,90C692.628,91.104 691.732,92 690.628,92L682.511,92ZM710.922,92C709.818,92 708.922,91.104 708.922,90C708.922,88.896 709.818,88 710.922,88L719.037,88C720.141,88 721.037,88.896 721.037,90C721.037,91.104 720.141,92 719.037,92L710.922,92ZM739.33,92C738.226,92 737.33,91.104 737.33,90C737.33,88.896 738.226,88 739.33,88L747.447,88C748.551,88 749.447,88.896 749.447,90C749.447,91.104 748.551,92 747.447,92L739.33,92ZM767.736,92C766.632,92 765.736,91.104 765.736,90C765.736,88.896 766.632,88 767.736,88L775.852,88C776.956,88 777.852,88.896 777.852,90C777.852,91.104 776.956,92 775.852,92L767.736,92ZM796.145,92C795.041,92 794.145,91.104 794.145,90C794.145,88.896 795.041,88 796.145,88L804.261,88C805.365,88 806.261,88.896 806.261,90C806.261,91.104 805.365,92 804.261,92L796.145,92ZM824.555,92C823.452,92 822.555,91.104 822.555,90C822.555,88.896 823.452,88 824.555,88L832.672,88C833.776,88 834.672,88.896 834.672,90C834.672,91.104 833.776,92 832.672,92L824.555,92ZM852.964,92C851.86,92 850.964,91.104 850.964,90C850.964,88.896 851.86,88 852.964,88L861.081,88C862.185,88 863.081,88.896 863.081,90C863.081,91.104 862.185,92 861.081,92L852.964,92ZM881.371,92C880.267,92 879.371,91.104 879.371,90C879.371,88.896 880.267,88 881.371,88L889.488,88C890.592,88 891.488,88.896 891.488,90C891.488,91.104 890.592,92 889.488,92L881.371,92ZM909.777,92C908.673,92 907.777,91.104 907.777,90C907.777,88.896 908.673,88 909.777,88L917.893,88C918.997,88 919.893,88.896 919.893,90C919.893,91.104 918.997,92 917.893,92L909.777,92ZM938.189,92C937.085,92 936.189,91.104 936.189,90C936.189,88.896 937.085,88 938.189,88L946.305,88C947.408,88 948.305,88.896 948.305,90C948.305,91.104 947.408,92 946.305,92L938.189,92ZM966.593,92C965.489,92 964.593,91.104 964.593,90C964.593,88.896 965.489,88 966.593,88L974.71,88C975.813,88 976.71,88.896 976.71,90C976.71,91.104 975.813,92 974.71,92L966.593,92ZM995.003,92C993.899,92 993.003,91.104 993.003,90C993.003,88.896 993.899,88 995.003,88L1003.12,88C1004.22,88 1005.12,88.896 1005.12,90C1005.12,91.104 1004.22,92 1003.12,92L995.003,92ZM1023.41,92C1022.31,92 1021.41,91.104 1021.41,90C1021.41,88.896 1022.31,88 1023.41,88L1031.53,88C1032.63,88 1033.53,88.896 1033.53,90C1033.53,91.104 1032.63,92 1031.53,92L1023.41,92ZM1051.82,92C1050.71,92 1049.82,91.104 1049.82,90C1049.82,88.896 1050.71,88 1051.82,88L1059.93,88C1061.04,88 1061.93,88.896 1061.93,90C1061.93,91.104 1061.04,92 1059.93,92L1051.82,92ZM1080.23,92C1079.12,92 1078.23,91.104 1078.23,90C1078.23,88.896 1079.12,88 1080.23,88L1088.34,88C1089.45,88 1090.34,88.896 1090.34,90C1090.34,91.104 1089.45,92 1088.34,92L1080.23,92ZM1108.63,92C1107.53,92 1106.63,91.104 1106.63,90C1106.63,88.896 1107.53,88 1108.63,88L1116.75,88C1117.86,88 1118.75,88.896 1118.75,90C1118.75,91.104 1117.86,92 1116.75,92L1108.63,92ZM1137.04,92C1135.94,92 1135.04,91.104 1135.04,90C1135.04,88.896 1135.94,88 1137.04,88L1145.16,88C1146.26,88 1147.16,88.896 1147.16,90C1147.16,91.104 1146.26,92 1145.16,92L1137.04,92ZM1165.45,92C1164.35,92 1163.45,91.104 1163.45,90C1163.45,88.896 1164.35,88 1165.45,88L1173.57,88C1174.67,88 1175.57,88.896 1175.57,90C1175.57,91.104 1174.67,92 1173.57,92L1165.45,92ZM1193.86,92C1192.76,92 1191.86,91.104 1191.86,90C1191.86,88.896 1192.76,88 1193.86,88L1201.98,88C1203.08,88 1203.98,88.896 1203.98,90C1203.98,91.104 1203.08,92 1201.98,92L1193.86,92ZM1222.27,92C1221.16,92 1220.27,91.104 1220.27,90C1220.27,88.896 1221.16,88 1222.27,88L1230.38,88C1231.49,88 1232.38,88.896 1232.38,90C1232.38,91.104 1231.49,92 1230.38,92L1222.27,92ZM1250.68,92C1249.57,92 1248.68,91.104 1248.68,90C1248.68,88.896 1249.57,88 1250.68,88L1258.79,88C1259.9,88 1260.79,88.896 1260.79,90C1260.79,91.104 1259.9,92 1258.79,92L1250.68,92ZM1279.08,92C1277.98,92 1277.08,91.104 1277.08,90C1277.08,88.896 1277.98,88 1279.08,88L1287.2,88C1288.3,88 1289.2,88.896 1289.2,90C1289.2,91.104 1288.3,92 1287.2,92L1279.08,92ZM1307.49,92C1306.39,92 1305.49,91.104 1305.49,90C1305.49,88.896 1306.39,88 1307.49,88L1315.61,88C1316.71,88 1317.61,88.896 1317.61,90C1317.61,91.104 1316.71,92 1315.61,92L1307.49,92ZM1335.9,92C1334.8,92 1333.9,91.104 1333.9,90C1333.9,88.896 1334.8,88 1335.9,88L1344.02,88C1345.12,88 1346.02,88.896 1346.02,90C1346.02,91.104 1345.12,92 1344.02,92L1335.9,92ZM1364.31,92C1363.2,92 1362.31,91.104 1362.31,90C1362.31,88.896 1363.2,88 1364.31,88L1372.43,88C1373.53,88 1374.43,88.896 1374.43,90C1374.43,91.104 1373.53,92 1372.43,92L1364.31,92ZM1392.72,92C1391.61,92 1390.72,91.104 1390.72,90C1390.72,88.896 1391.61,88 1392.72,88L1400.84,88C1401.94,88 1402.84,88.896 1402.84,90C1402.84,91.104 1401.94,92 1400.84,92L1392.72,92ZM1421.12,92C1420.02,92 1419.12,91.104 1419.12,90C1419.12,88.896 1420.02,88 1421.12,88L1429.24,88C1430.35,88 1431.24,88.896 1431.24,90C1431.24,91.104 1430.35,92 1429.24,92L1421.12,92ZM1449.53,92C1448.43,92 1447.53,91.104 1447.53,90C1447.53,88.896 1448.43,88 1449.53,88L1457.65,88C1458.75,88 1459.65,88.896 1459.65,90C1459.65,91.104 1458.75,92 1457.65,92L1449.53,92ZM1477.94,92C1476.84,92 1475.94,91.104 1475.94,90C1475.94,88.896 1476.84,88 1477.94,88L1482,88C1483.1,88 1484,88.896 1484,90C1484,91.104 1483.1,92 1482,92L1477.94,92Z"/>
    <path d="M92.316,984.507L440,160C440,160 566.922,640 820,640L1482,640C1482,640 1584.04,988 1740,988" style="fill:none;stroke:black;stroke-width:8px;stroke-linejoin:round;stroke-miterlimit:1.5;"/>
    <path d="M438,160C438,158.896 438.896,158 440,158C441.104,158 442,158.896 442,160L442,164.089C442,165.193 441.104,166.089 440,166.089C438.896,166.089 438,165.193 438,164.089L438,160ZM438,184.532C438,183.428 438.896,182.532 440,182.532C441.104,182.532 442,183.428 442,184.532L442,192.71C442,193.813 441.104,194.71 440,194.71C438.896,194.71 438,193.813 438,192.71L438,184.532ZM438,213.152C438,212.049 438.896,211.152 440,211.152C441.104,211.152 442,212.049 442,213.152L442,221.33C442,222.434 441.104,223.33 440,223.33C438.896,223.33 438,222.434 438,221.33L438,213.152ZM438,241.774C438,240.67 438.896,239.774 440,239.774C441.104,239.774 442,240.67 442,241.774L442,249.951C442,251.055 441.104,251.951 440,251.951C438.896,251.951 438,251.055 438,249.951L438,241.774ZM438,270.394C438,269.29 438.896,268.394 440,268.394C441.104,268.394 442,269.29 442,270.394L442,278.572C442,279.676 441.104,280.572 440,280.572C438.896,280.572 438,279.676 438,278.572L438,270.394ZM438,299.016C438,297.912 438.896,297.016 440,297.016C441.104,297.016 442,297.912 442,299.016L442,307.193C442,308.297 441.104,309.193 440,309.193C438.896,309.193 438,308.297 438,307.193L438,299.016ZM438,327.636C438,326.532 438.896,325.636 440,325.636C441.104,325.636 442,326.532 442,327.636L442,335.813C442,336.917 441.104,337.813 440,337.813C438.896,337.813 438,336.917 438,335.813L438,327.636ZM438,356.256C438,355.152 438.896,354.256 440,354.256C441.104,354.256 442,355.152 442,356.256L442,364.433C442,365.537 441.104,366.433 440,366.433C438.896,366.433 438,365.537 438,364.433L438,356.256ZM438,384.876C438,383.772 438.896,382.876 440,382.876C441.104,382.876 442,383.772 442,384.876L442,393.053C442,394.157 441.104,395.053 440,395.053C438.896,395.053 438,394.157 438,393.053L438,384.876ZM438,413.496C438,412.393 438.896,411.496 440,411.496C441.104,411.496 442,412.393 442,413.496L442,421.674C442,422.777 441.104,423.674 440,423.674C438.896,423.674 438,422.777 438,421.674L438,413.496ZM438,442.119C438,441.015 438.896,440.119 440,440.119C441.104,440.119 442,441.015 442,442.119L442,450.295C442,451.399 441.104,452.295 440,452.295C438.896,452.295 438,451.399 438,450.295L438,442.119ZM438,470.739C438,469.635 438.896,468.739 440,468.739C441.104,468.739 442,469.635 442,470.739L442,478.916C442,480.02 441.104,480.916 440,480.916C438.896,480.916 438,480.02 438,478.916L438,470.739ZM438,499.359C438,498.256 438.896,497.359 440,497.359C441.104,497.359 442,498.256 442,499.359L442,507.537C442,508.64 441.104,509.537 440,509.537C438.896,509.537 438,508.64 438,507.537L438,499.359ZM438,527.98C438,526.877 438.896,525.98 440,525.98C441.104,525.98 442,526.877 442,527.98L442,536.158C442,537.262 441.104,538.158 440,538.158C438.896,538.158 438,537.262 438,536.158L438,527.98ZM438,556.601C438,555.497 438.896,554.601 440,554.601C441.104,554.601 442,555.497 442,556.601L442,564.779C442,565.882 441.104,566.779 440,566.779C438.896,566.779 438,565.882 438,564.779L438,556.601ZM438,585.221C438,584.117 438.896,583.221 440,583.221C441.104,583.221 442,584.117 442,585.221L442,593.398C442,594.501 441.104,595.398 440,595.398C438.896,595.398 438,594.501 438,593.398L438,585.221ZM438,613.843C438,612.739 438.896,611.843 440,611.843C441.104,611.843 442,612.739 442,613.843L442,622.02C442,623.124 441.104,624.02 440,624.02C438.896,624.02 438,623.124 438,622.02L438,613.843ZM438,642.464C438,641.36 438.896,640.464 440,640.464C441.104,640.464 442,641.36 442,642.464L442,650.641C442,651.745 441.104,652.641 440,652.641C438.896,652.641 438,651.745 438,650.641L438,642.464ZM438,671.084C438,669.98 438.896,669.084 440,669.084C441.104,669.084 442,669.98 442,671.084L442,679.261C442,680.365 441.104,681.261 440,681.261C438.896,681.261 438,680.365 438,679.261L438,671.084ZM438,699.705C438,698.601 438.896,697.705 440,697.705C441.104,697.705 442,698.601 442,699.705L442,707.882C442,708.986 441.104,709.882 440,709.882C438.896,709.882 438,708.986 438,707.882L438,699.705ZM438,728.325C438,727.221 438.896,726.325 440,726.325C441.104,726.325 442,727.221 442,728.325L442,736.502C442,737.606 441.104,738.502 440,738.502C438.896,738.502 438,737.606 438,736.502L438,728.325ZM438,756.945C438,755.841 438.896,754.945 440,754.945C441.104,754.945 442,755.841 442,756.945L442,765.123C442,766.227 441.104,767.123 440,767.123C438.896,767.123 438,766.227 438,765.123L438,756.945ZM438,785.567C438,784.463 438.896,783.567 440,783.567C441.104,783.567 442,784.463 442,785.567L442,793.744C442,794.848 441.104,795.744 440,795.744C438.896,795.744 438,794.848 438,793.744L438,785.567ZM438,814.187C438,813.084 438.896,812.187 440,812.187C441.104,812.187 442,813.084 442,814.187L442,822.365C442,823.468 441.104,824.365 440,824.365C438.896,824.365 438,823.468 438,822.365L438,814.187ZM438,842.809C438,841.705 438.896,840.809 440,840.809C441.104,840.809 442,841.705 442,842.809L442,850.986C442,852.09 441.104,852.986 440,852.986C438.896,852.986 438,852.09 438,850.986L438,842.809ZM438,871.428C438,870.325 438.896,869.428 440,869.428C441.104,869.428 442,870.325 442,871.428L442,879.606C442,880.71 441.104,881.606 440,881.606C438.896,881.606 438,880.71 438,879.606L438,871.428ZM438,900.049C438,898.946 438.896,898.049 440,898.049C441.104,898.049 442,898.946 442,900.049L442,908.227C442,909.331 441.104,910.227 440,910.227C438.896,910.227 438,909.331 438,908.227L438,900.049ZM438,928.67C438,927.566 438.896,926.67 440,926.67C441.104,926.67 442,927.566 442,928.67L442,936.847C442,937.951 441.104,938.847 440,938.847C438.896,938.847 438,937.951 438,936.847L438,928.67ZM438,957.291C438,956.187 438.896,955.291 440,955.291C441.104,955.291 442,956.187 442,957.291L442,965.468C442,966.572 441.104,967.468 440,967.468C438.896,967.468 438,966.572 438,965.468L438,957.291ZM438,985.911C438,984.807 438.896,983.911 440,983.911C441.104,983.911 442,984.807 442,985.911L442,990C442,991.104 441.104,992 440,992C438.896,992 438,991.104 438,990L438,985.911Z"/>
    <path d="M818,640C818,638.896 818.896,638 820,638C821.104,638 822,638.896 822,640L822,644.167C822,645.27 821.104,646.167 820,646.167C818.896,646.167 818,645.27 818,644.167L818,640ZM818,665C818,663.896 818.896,663 820,663C821.104,663 822,663.896 822,665L822,673.334C822,674.437 821.104,675.334 820,675.334C818.896,675.334 818,674.437 818,673.334L818,665ZM818,694.167C818,693.063 818.896,692.167 820,692.167C821.104,692.167 822,693.063 822,694.167L822,702.5C822,703.604 821.104,704.5 820,704.5C818.896,704.5 818,703.604 818,702.5L818,694.167ZM818,723.333C818,722.229 818.896,721.333 820,721.333C821.104,721.333 822,722.229 822,723.333L822,731.667C822,732.77 821.104,733.667 820,733.667C818.896,733.667 818,732.77 818,731.667L818,723.333ZM818,752.5C818,751.396 818.896,750.5 820,750.5C821.104,750.5 822,751.396 822,752.5L822,760.833C822,761.937 821.104,762.833 820,762.833C818.896,762.833 818,761.937 818,760.833L818,752.5ZM818,781.667C818,780.563 818.896,779.667 820,779.667C821.104,779.667 822,780.563 822,781.667L822,790C822,791.104 821.104,792 820,792C818.896,792 818,791.104 818,790L818,781.667ZM818,810.833C818,809.729 818.896,808.833 820,808.833C821.104,808.833 822,809.729 822,810.833L822,819.167C822,820.27 821.104,821.167 820,821.167C818.896,821.167 818,820.27 818,819.167L818,810.833ZM818,840C818,838.896 818.896,838 820,838C821.104,838 822,838.896 822,840L822,848.333C822,849.437 821.104,850.333 820,850.333C818.896,850.333 818,849.437 818,848.333L818,840ZM818,869.167C818,868.063 818.896,867.167 820,867.167C821.104,867.167 822,868.063 822,869.167L822,877.5C822,878.604 821.104,879.5 820,879.5C818.896,879.5 818,878.604 818,877.5L818,869.167ZM818,898.333C818,897.229 818.896,896.333 820,896.333C821.104,896.333 822,897.229 822,898.333L822,906.666C822,907.77 821.104,908.666 820,908.666C818.896,908.666 818,907.77 818,906.666L818,898.333ZM818,927.5C818,926.396 818.896,925.5 820,925.5C821.104,925.5 822,926.396 822,927.5L822,935.833C822,936.937 821.104,937.833 820,937.833C818.896,937.833 818,936.937 818,935.833L818,927.5ZM818,956.667C818,955.563 818.896,954.667 820,954.667C821.104,954.667 822,955.563 822,956.667L822,965C822,966.104 821.104,967 820,967C818.896,967 818,966.104 818,965L818,956.667ZM818,985.833C818,984.73 818.896,983.833 820,983.833C821.104,983.833 822,984.73 822,985.833L822,990C822,991.104 821.104,992 820,992C818.896,992 818,991.104 818,990L818,985.833Z"/>
    <path d="M1480,640C1480,638.896 1480.9,638 1482,638C1483.1,638 1484,638.896 1484,640L1484,644.167C1484,645.27 1483.1,646.167 1482,646.167C1480.9,646.167 1480,645.27 1480,644.167L1480,640ZM1480,665C1480,663.896 1480.9,663 1482,663C1483.1,663 1484,663.896 1484,665L1484,673.334C1484,674.437 1483.1,675.334 1482,675.334C1480.9,675.334 1480,674.437 1480,673.334L1480,665ZM1480,694.167C1480,693.063 1480.9,692.167 1482,692.167C1483.1,692.167 1484,693.063 1484,694.167L1484,702.5C1484,703.604 1483.1,704.5 1482,704.5C1480.9,704.5 1480,703.604 1480,702.5L1480,694.167ZM1480,723.333C1480,722.229 1480.9,721.333 1482,721.333C1483.1,721.333 1484,722.229 1484,723.333L1484,731.667C1484,732.77 1483.1,733.667 1482,733.667C1480.9,733.667 1480,732.77 1480,731.667L1480,723.333ZM1480,752.5C1480,751.396 1480.9,750.5 1482,750.5C1483.1,750.5 1484,751.396 1484,752.5L1484,760.833C1484,761.937 1483.1,762.833 1482,762.833C1480.9,762.833 1480,761.937 1480,760.833L1480,752.5ZM1480,781.667C1480,780.563 1480.9,779.667 1482,779.667C1483.1,779.667 1484,780.563 1484,781.667L1484,790C1484,791.104 1483.1,792 1482,792C1480.9,792 1480,791.104 1480,790L1480,781.667ZM1480,810.833C1480,809.729 1480.9,808.833 1482,808.833C1483.1,808.833 1484,809.729 1484,810.833L1484,819.167C1484,820.27 1483.1,821.167 1482,821.167C1480.9,821.167 1480,820.27 1480,819.167L1480,810.833ZM1480,840C1480,838.896 1480.9,838 1482,838C1483.1,838 1484,838.896 1484,840L1484,848.333C1484,849.437 1483.1,850.333 1482,850.333C1480.9,850.333 1480,849.437 1480,848.333L1480,840ZM1480,869.167C1480,868.063 1480.9,867.167 1482,867.167C1483.1,867.167 1484,868.063 1484,869.167L1484,877.5C1484,878.604 1483.1,879.5 1482,879.5C1480.9,879.5 1480,878.604 1480,877.5L1480,869.167ZM1480,898.333C1480,897.229 1480.9,896.333 1482,896.333C1483.1,896.333 1484,897.229 1484,898.333L1484,906.666C1484,907.77 1483.1,908.666 1482,908.666C1480.9,908.666 1480,907.77 1480,906.666L1480,898.333ZM1480,927.5C1480,926.396 1480.9,925.5 1482,925.5C1483.1,925.5 1484,926.396 1484,927.5L1484,935.833C1484,936.937 1483.1,937.833 1482,937.833C1480.9,937.833 1480,936.937 1480,935.833L1480,927.5ZM1480,956.667C1480,955.563 1480.9,954.667 1482,954.667C1483.1,954.667 1484,955.563 1484,956.667L1484,965C1484,966.104 1483.1,967 1482,967C1480.9,967 1480,966.104 1480,965L1480,956.667ZM1480,985.833C1480,984.73 1480.9,983.833 1482,983.833C1483.1,983.833 1484,984.73 1484,985.833L1484,990C1484,991.104 1483.1,992 1482,992C1480.9,992 1480,991.104 1480,990L1480,985.833Z"/>
    <path d="M1145.36,651.404L1158.86,642.404L1172.36,651.404" style="fill:none;stroke:black;stroke-width:4px;"/>
    <path d="M1158.86,781.59L1158.86,642.404" style="fill:none;stroke:black;stroke-width:4px;stroke-linejoin:round;stroke-miterlimit:1.5;"/>
    <path d="M1158.86,990L1158.86,848.41" style="fill:none;stroke:black;stroke-width:4px;stroke-linejoin:round;stroke-miterlimit:1.5;"/>
    <path d="M92,1023L92,1047" style="fill:none;stroke:black;stroke-width:4px;"/>
    <path d="M92,1035L202.023,1035" style="fill:none;stroke:black;stroke-width:4px;stroke-linejoin:round;stroke-miterlimit:1.5;"/>
    <path d="M1484,1023L1484,1047" style="fill:none;stroke:black;stroke-width:4px;"/>
    <path d="M1484,1035L1518.52,1035" style="fill:none;stroke:black;stroke-width:4px;stroke-linejoin:round;stroke-miterlimit:1.5;"/>
    <path d="M428.596,1021.5L437.596,1035L428.596,1048.5" style="fill:none;stroke:black;stroke-width:4px;"/>
    <path d="M351.319,1035L437.596,1035" style="fill:none;stroke:black;stroke-width:4px;stroke-linejoin:round;stroke-miterlimit:1.5;"/>
    <path d="M440,1035L558.103,1035" style="fill:none;stroke:black;stroke-width:4px;stroke-linejoin:round;stroke-miterlimit:1.5;"/>
    <path d="M808.596,1021.5L817.596,1035L808.596,1048.5" style="fill:none;stroke:black;stroke-width:4px;"/>
    <path d="M690.911,1035L817.596,1035" style="fill:none;stroke:black;stroke-width:4px;stroke-linejoin:round;stroke-miterlimit:1.5;"/>
    <path d="M1728.6,1021.5L1737.6,1035L1728.6,1048.5" style="fill:none;stroke:black;stroke-width:4px;"/>
    <path d="M1683.76,1035L1737.6,1035" style="fill:none;stroke:black;stroke-width:4px;stroke-linejoin:round;stroke-miterlimit:1.5;"/>
</svg>
