<?xml version="1.0" encoding="UTF-8" standalone="no"?>
<!DOCTYPE svg PUBLIC "-//W3C//DTD SVG 1.1//EN" "http://www.w3.org/Graphics/SVG/1.1/DTD/svg11.dtd">
<svg width="100%" height="100%" viewBox="0 0 2973 1164" version="1.1" xmlns="http://www.w3.org/2000/svg" xmlns:xlink="http://www.w3.org/1999/xlink" xml:space="preserve" xmlns:serif="http://www.serif.com/" style="fill-rule:evenodd;clip-rule:evenodd;stroke-linecap:round;stroke-linejoin:round;stroke-miterlimit:1.5;">
    <g transform="matrix(1,0,0,1,-267.681,-506.046)">
        <g transform="matrix(1.66621,0,0,1.66621,-2573.3,-1802.1)">
            <path d="M1800.89,1569.58C1801.65,1569.58 1802.37,1569.88 1802.9,1570.41C1803.43,1570.94 1803.73,1571.66 1803.73,1572.41C1803.73,1602.34 1803.73,1859.64 1803.73,1889.56C1803.73,1890.32 1803.43,1891.04 1802.9,1891.57C1802.37,1892.1 1801.65,1892.4 1800.89,1892.4C1793.4,1892.4 1773.11,1892.4 1765.61,1892.4C1764.86,1892.4 1764.14,1892.1 1763.6,1891.57C1763.07,1891.04 1762.77,1890.32 1762.77,1889.56C1762.77,1859.64 1762.77,1602.34 1762.77,1572.41C1762.77,1571.66 1763.07,1570.94 1763.6,1570.41C1764.14,1569.88 1764.86,1569.58 1765.61,1569.58C1773.11,1569.58 1793.4,1569.58 1800.89,1569.58Z" style="fill:none;stroke:rgb(70,70,70);stroke-width:2.5px;"/>
        </g>
        <g transform="matrix(1.66621,0,0,1.66621,-2394.07,-1802.1)">
            <path d="M1800.89,1569.58C1801.65,1569.58 1802.37,1569.88 1802.9,1570.41C1803.43,1570.94 1803.73,1571.66 1803.73,1572.41C1803.73,1602.34 1803.73,1859.64 1803.73,1889.56C1803.73,1890.32 1803.43,1891.04 1802.9,1891.57C1802.37,1892.1 1801.65,1892.4 1800.89,1892.4C1793.4,1892.4 1773.11,1892.4 1765.61,1892.4C1764.86,1892.4 1764.14,1892.1 1763.6,1891.57C1763.07,1891.04 1762.77,1890.32 1762.77,1889.56C1762.77,1859.64 1762.77,1602.34 1762.77,1572.41C1762.77,1571.66 1763.07,1570.94 1763.6,1570.41C1764.14,1569.88 1764.86,1569.58 1765.61,1569.58C1773.11,1569.58 1793.4,1569.58 1800.89,1569.58Z" style="fill:none;stroke:rgb(70,70,70);stroke-width:2.5px;"/>
        </g>
        <g transform="matrix(1.66621,0,0,1.66621,-2214.85,-1802.1)">
            <path d="M1800.89,1569.58C1801.65,1569.58 1802.37,1569.88 1802.9,1570.41C1803.43,1570.94 1803.73,1571.66 1803.73,1572.41C1803.73,1602.34 1803.73,1859.64 1803.73,1889.56C1803.73,1890.32 1803.43,1891.04 1802.9,1891.57C1802.37,1892.1 1801.65,1892.4 1800.89,1892.4C1793.4,1892.4 1773.11,1892.4 1765.61,1892.4C1764.86,1892.4 1764.14,1892.1 1763.6,1891.57C1763.07,1891.04 1762.77,1890.32 1762.77,1889.56C1762.77,1859.64 1762.77,1602.34 1762.77,1572.41C1762.77,1571.66 1763.07,1570.94 1763.6,1570.41C1764.14,1569.88 1764.86,1569.58 1765.61,1569.58C1773.11,1569.58 1793.4,1569.58 1800.89,1569.58Z" style="fill:none;stroke:rgb(70,70,70);stroke-width:2.5px;"/>
        </g>
        <g transform="matrix(1.66621,0,0,1.66621,-1944.4,-1802.1)">
            <path d="M1800.89,1569.58C1801.65,1569.58 1802.37,1569.88 1802.9,1570.41C1803.43,1570.94 1803.73,1571.66 1803.73,1572.41C1803.73,1602.34 1803.73,1859.64 1803.73,1889.56C1803.73,1890.32 1803.43,1891.04 1802.9,1891.57C1802.37,1892.1 1801.65,1892.4 1800.89,1892.4C1793.4,1892.4 1773.11,1892.4 1765.61,1892.4C1764.86,1892.4 1764.14,1892.1 1763.6,1891.57C1763.07,1891.04 1762.77,1890.32 1762.77,1889.56C1762.77,1859.64 1762.77,1602.34 1762.77,1572.41C1762.77,1571.66 1763.07,1570.94 1763.6,1570.41C1764.14,1569.88 1764.86,1569.58 1765.61,1569.58C1773.11,1569.58 1793.4,1569.58 1800.89,1569.58Z" style="fill:none;stroke:rgb(70,70,70);stroke-width:2.5px;"/>
        </g>
        <g transform="matrix(1.66621,0,0,1.66621,-1743.38,-1802.1)">
            <path d="M1800.89,1569.58C1801.65,1569.58 1802.37,1569.88 1802.9,1570.41C1803.43,1570.94 1803.73,1571.66 1803.73,1572.41C1803.73,1602.34 1803.73,1859.64 1803.73,1889.56C1803.73,1890.32 1803.43,1891.04 1802.9,1891.57C1802.37,1892.1 1801.65,1892.4 1800.89,1892.4C1793.4,1892.4 1773.11,1892.4 1765.61,1892.4C1764.86,1892.4 1764.14,1892.1 1763.6,1891.57C1763.07,1891.04 1762.77,1890.32 1762.77,1889.56C1762.77,1859.64 1762.77,1602.34 1762.77,1572.41C1762.77,1571.66 1763.07,1570.94 1763.6,1570.41C1764.14,1569.88 1764.86,1569.58 1765.61,1569.58C1773.11,1569.58 1793.4,1569.58 1800.89,1569.58Z" style="fill:none;stroke:rgb(70,70,70);stroke-width:2.5px;"/>
        </g>
        <g transform="matrix(1.66621,0,0,1.66621,-2573.3,-1802.1)">
            <path d="M1756.25,1895.87C1756.25,1897.44 1757.51,1898.7 1759.07,1898.71C1765.79,1898.73 1782.64,1898.78 1789.36,1898.8C1790.92,1898.81 1792.18,1900.08 1792.18,1901.64C1792.18,1922.94 1792.18,2057.96 1792.18,2079.29C1792.18,2080.85 1790.91,2082.12 1789.35,2082.12C1776.31,2082.12 1722.18,2082.12 1709.14,2082.12C1707.57,2082.12 1706.3,2080.85 1706.3,2079.29C1706.3,2040.29 1706.3,1611.41 1706.3,1572.41C1706.3,1571.66 1706.6,1570.94 1707.13,1570.41C1707.66,1569.88 1708.38,1569.58 1709.14,1569.58C1717.92,1569.58 1744.62,1569.58 1753.41,1569.58C1754.16,1569.58 1754.88,1569.88 1755.41,1570.41C1755.95,1570.94 1756.25,1571.66 1756.25,1572.41C1756.25,1602.68 1756.25,1865.65 1756.25,1895.87Z" style="fill:none;stroke:rgb(70,70,70);stroke-width:2.5px;"/>
        </g>
        <g transform="matrix(1.66621,0,0,1.66621,-1944.08,-1802.1)">
            <path d="M1755.25,1895.87C1755.25,1897.44 1756.51,1898.7 1758.07,1898.71C1765.1,1898.73 1783.32,1898.78 1790.36,1898.8C1791.92,1898.81 1793.18,1900.08 1793.18,1901.64C1793.18,1922.94 1793.18,2057.96 1793.18,2079.29C1793.18,2080.85 1791.91,2082.12 1790.35,2082.12C1777.1,2082.12 1721.38,2082.12 1708.14,2082.12C1707.38,2082.12 1706.66,2081.82 1706.13,2081.29C1705.6,2080.76 1705.3,2080.04 1705.3,2079.29L1705.3,1572.41C1705.3,1571.66 1705.6,1570.94 1706.13,1570.41C1706.66,1569.88 1707.38,1569.58 1708.14,1569.58C1716.92,1569.58 1743.62,1569.58 1752.41,1569.58C1753.16,1569.58 1753.88,1569.88 1754.41,1570.41C1754.95,1570.94 1755.25,1571.66 1755.25,1572.41C1755.25,1602.68 1755.25,1865.65 1755.25,1895.87Z" style="fill:none;stroke:rgb(70,70,70);stroke-width:2.5px;"/>
        </g>
        <g transform="matrix(-1.66621,0,0,1.66621,4199.57,-1802.1)">
            <path d="M1756.25,1895.87C1756.25,1897.44 1757.51,1898.7 1759.07,1898.71C1765.95,1898.73 1783.48,1898.78 1790.36,1898.8C1791.92,1898.81 1793.18,1900.08 1793.18,1901.64C1793.18,1922.94 1793.18,2057.96 1793.18,2079.29C1793.18,2080.85 1791.91,2082.12 1790.35,2082.12C1777.2,2082.12 1722.28,2082.12 1709.14,2082.12C1708.38,2082.12 1707.66,2081.82 1707.13,2081.29C1706.6,2080.76 1706.3,2080.04 1706.3,2079.29C1706.3,2040.29 1706.3,1611.41 1706.3,1572.41C1706.3,1571.66 1706.6,1570.94 1707.13,1570.41C1707.66,1569.88 1708.38,1569.58 1709.14,1569.58C1717.92,1569.58 1744.62,1569.58 1753.41,1569.58C1754.16,1569.58 1754.88,1569.88 1755.41,1570.41C1755.95,1570.94 1756.25,1571.66 1756.25,1572.41C1756.25,1602.68 1756.25,1865.65 1756.25,1895.87Z" style="fill:none;stroke:rgb(70,70,70);stroke-width:2.5px;"/>
        </g>
        <g transform="matrix(-1.66621,0,0,1.66621,3727.39,-1802.1)">
            <path d="M1756.25,1895.87C1756.25,1897.44 1757.51,1898.7 1759.07,1898.71C1765.79,1898.73 1782.64,1898.78 1789.36,1898.8C1790.92,1898.81 1792.18,1900.08 1792.18,1901.64C1792.18,1922.94 1792.18,2057.96 1792.18,2079.29C1792.18,2080.85 1790.91,2082.12 1789.35,2082.12C1776.2,2082.12 1721.28,2082.12 1708.14,2082.12C1707.38,2082.12 1706.66,2081.82 1706.13,2081.29C1705.6,2080.76 1705.3,2080.04 1705.3,2079.29C1705.3,2040.29 1705.3,1611.41 1705.3,1572.41C1705.3,1571.66 1705.6,1570.94 1706.13,1570.41C1706.66,1569.88 1707.38,1569.58 1708.14,1569.58C1717.06,1569.58 1744.49,1569.58 1753.41,1569.58C1754.98,1569.58 1756.25,1570.85 1756.25,1572.41C1756.25,1602.68 1756.25,1865.65 1756.25,1895.87Z" style="fill:none;stroke:rgb(70,70,70);stroke-width:2.5px;"/>
        </g>
        <g transform="matrix(1.66621,0,0,1.66621,-2418.5,-1802.1)">
            <path d="M1771.25,1895.88C1771.25,1897.44 1772.51,1898.71 1774.07,1898.71C1778.48,1898.74 1786.95,1898.78 1791.36,1898.8C1792.92,1898.81 1794.18,1900.07 1794.18,1901.63C1794.18,1922.91 1794.18,2057.96 1794.18,2079.29C1794.18,2080.85 1792.91,2082.12 1791.35,2082.12C1778.1,2082.12 1722.38,2082.12 1709.14,2082.12C1708.38,2082.12 1707.66,2081.82 1707.13,2081.29C1706.6,2080.76 1706.3,2080.04 1706.3,2079.29C1706.3,2057.96 1706.3,1922.94 1706.3,1901.61C1706.3,1900.86 1706.6,1900.14 1707.13,1899.61C1707.66,1899.08 1708.38,1898.78 1709.14,1898.78L1714.47,1898.78C1715.22,1898.78 1715.94,1898.48 1716.47,1897.95C1717,1897.42 1717.3,1896.69 1717.3,1895.94C1717.3,1865.67 1717.3,1602.68 1717.3,1572.41C1717.3,1570.85 1718.57,1569.58 1720.14,1569.58L1768.41,1569.58C1769.98,1569.58 1771.25,1570.85 1771.25,1572.41C1771.25,1602.68 1771.25,1865.68 1771.25,1895.88Z" style="fill:none;stroke:rgb(70,70,70);stroke-width:2.5px;"/>
        </g>
        <g transform="matrix(1.66621,0,0,1.66621,-1786.85,-1802.1)">
            <path d="M1782.25,1895.89C1782.25,1897.45 1783.5,1898.71 1785.05,1898.73C1786.69,1898.75 1788.74,1898.77 1790.38,1898.78C1791.93,1898.8 1793.18,1900.06 1793.18,1901.62C1793.18,1922.85 1793.18,2057.95 1793.18,2079.29C1793.18,2080.85 1791.91,2082.12 1790.35,2082.12C1777.1,2082.12 1721.38,2082.12 1708.14,2082.12C1706.57,2082.12 1705.3,2080.85 1705.3,2079.29C1705.3,2057.96 1705.3,1922.95 1705.3,1901.62C1705.3,1900.05 1706.57,1898.78 1708.14,1898.78C1709.77,1898.78 1711.83,1898.78 1713.47,1898.78C1714.22,1898.78 1714.94,1898.49 1715.47,1897.95C1716,1897.42 1716.3,1896.7 1716.3,1895.95C1716.3,1865.68 1716.3,1602.68 1716.3,1572.41C1716.3,1571.66 1716.6,1570.94 1717.13,1570.41C1717.66,1569.88 1718.38,1569.58 1719.14,1569.58C1729.96,1569.58 1768.59,1569.58 1779.41,1569.58C1780.98,1569.58 1782.25,1570.85 1782.25,1572.41C1782.25,1602.69 1782.25,1865.77 1782.25,1895.89Z" style="fill:none;stroke:rgb(70,70,70);stroke-width:2.5px;"/>
        </g>
        <g transform="matrix(-1.66621,0,0,1.66621,3570.39,-1802.1)">
            <path d="M1770.25,1895.88C1770.25,1897.44 1771.51,1898.71 1773.07,1898.71C1777.48,1898.74 1785.95,1898.78 1790.36,1898.8C1791.92,1898.81 1793.18,1900.07 1793.18,1901.63C1793.18,1922.91 1793.18,2057.96 1793.18,2079.29C1793.18,2080.85 1791.91,2082.12 1790.35,2082.12C1777.1,2082.12 1721.38,2082.12 1708.14,2082.12C1707.38,2082.12 1706.66,2081.82 1706.13,2081.29C1705.6,2080.76 1705.3,2080.04 1705.3,2079.29C1705.3,2057.97 1705.3,1923.03 1705.3,1901.71C1705.3,1900.14 1706.57,1898.87 1708.14,1898.87C1709.49,1898.87 1711.11,1898.87 1712.47,1898.87C1714.03,1898.87 1715.3,1897.6 1715.3,1896.04C1715.3,1865.77 1715.3,1602.69 1715.3,1572.41C1715.3,1570.85 1716.57,1569.58 1718.14,1569.58C1727.59,1569.58 1757.96,1569.58 1767.41,1569.58C1768.98,1569.58 1770.25,1570.85 1770.25,1572.41C1770.25,1602.68 1770.25,1865.68 1770.25,1895.88Z" style="fill:none;stroke:rgb(70,70,70);stroke-width:2.5px;"/>
        </g>
        <g transform="matrix(1.66621,0,0,1.66621,-1476.48,-1802.1)">
            <path d="M1800.89,1569.58C1801.65,1569.58 1802.37,1569.88 1802.9,1570.41C1803.43,1570.94 1803.73,1571.66 1803.73,1572.41C1803.73,1602.34 1803.73,1859.64 1803.73,1889.56C1803.73,1890.32 1803.43,1891.04 1802.9,1891.57C1802.37,1892.1 1801.65,1892.4 1800.89,1892.4C1793.4,1892.4 1773.11,1892.4 1765.61,1892.4C1764.86,1892.4 1764.14,1892.1 1763.6,1891.57C1763.07,1891.04 1762.77,1890.32 1762.77,1889.56C1762.77,1859.64 1762.77,1602.34 1762.77,1572.41C1762.77,1571.66 1763.07,1570.94 1763.6,1570.41C1764.14,1569.88 1764.86,1569.58 1765.61,1569.58C1773.11,1569.58 1793.4,1569.58 1800.89,1569.58Z" style="fill:none;stroke:rgb(70,70,70);stroke-width:2.5px;"/>
        </g>
        <g transform="matrix(1.66621,0,0,1.66621,-1297.25,-1802.1)">
            <path d="M1800.89,1569.58C1801.65,1569.58 1802.37,1569.88 1802.9,1570.41C1803.43,1570.94 1803.73,1571.66 1803.73,1572.41C1803.73,1602.34 1803.73,1859.64 1803.73,1889.56C1803.73,1890.32 1803.43,1891.04 1802.9,1891.57C1802.37,1892.1 1801.65,1892.4 1800.89,1892.4C1793.4,1892.4 1773.11,1892.4 1765.61,1892.4C1764.86,1892.4 1764.14,1892.1 1763.6,1891.57C1763.07,1891.04 1762.77,1890.32 1762.77,1889.56C1762.77,1859.64 1762.77,1602.34 1762.77,1572.41C1762.77,1571.66 1763.07,1570.94 1763.6,1570.41C1764.14,1569.88 1764.86,1569.58 1765.61,1569.58C1773.11,1569.58 1793.4,1569.58 1800.89,1569.58Z" style="fill:none;stroke:rgb(70,70,70);stroke-width:2.5px;"/>
        </g>
        <g transform="matrix(1.66621,0,0,1.66621,-1118.03,-1802.1)">
            <path d="M1800.89,1569.58C1801.65,1569.58 1802.37,1569.88 1802.9,1570.41C1803.43,1570.94 1803.73,1571.66 1803.73,1572.41C1803.73,1602.34 1803.73,1859.64 1803.73,1889.56C1803.73,1890.32 1803.43,1891.04 1802.9,1891.57C1802.37,1892.1 1801.65,1892.4 1800.89,1892.4C1793.4,1892.4 1773.11,1892.4 1765.61,1892.4C1764.86,1892.4 1764.14,1892.1 1763.6,1891.57C1763.07,1891.04 1762.77,1890.32 1762.77,1889.56C1762.77,1859.64 1762.77,1602.34 1762.77,1572.41C1762.77,1571.66 1763.07,1570.94 1763.6,1570.41C1764.14,1569.88 1764.86,1569.58 1765.61,1569.58C1773.11,1569.58 1793.4,1569.58 1800.89,1569.58Z" style="fill:none;stroke:rgb(70,70,70);stroke-width:2.5px;"/>
        </g>
        <g transform="matrix(1.66621,0,0,1.66621,-847.579,-1802.1)">
            <path d="M1800.89,1569.58C1801.65,1569.58 1802.37,1569.88 1802.9,1570.41C1803.43,1570.94 1803.73,1571.66 1803.73,1572.41C1803.73,1602.34 1803.73,1859.64 1803.73,1889.56C1803.73,1890.32 1803.43,1891.04 1802.9,1891.57C1802.37,1892.1 1801.65,1892.4 1800.89,1892.4C1793.4,1892.4 1773.11,1892.4 1765.61,1892.4C1764.86,1892.4 1764.14,1892.1 1763.6,1891.57C1763.07,1891.04 1762.77,1890.32 1762.77,1889.56C1762.77,1859.64 1762.77,1602.34 1762.77,1572.41C1762.77,1571.66 1763.07,1570.94 1763.6,1570.41C1764.14,1569.88 1764.86,1569.58 1765.61,1569.58C1773.11,1569.58 1793.4,1569.58 1800.89,1569.58Z" style="fill:none;stroke:rgb(70,70,70);stroke-width:2.5px;"/>
        </g>
        <g transform="matrix(1.66621,0,0,1.66621,-646.565,-1802.1)">
            <path d="M1800.89,1569.58C1801.65,1569.58 1802.37,1569.88 1802.9,1570.41C1803.43,1570.94 1803.73,1571.66 1803.73,1572.41C1803.73,1602.34 1803.73,1859.64 1803.73,1889.56C1803.73,1890.32 1803.43,1891.04 1802.9,1891.57C1802.37,1892.1 1801.65,1892.4 1800.89,1892.4C1793.4,1892.4 1773.11,1892.4 1765.61,1892.4C1764.86,1892.4 1764.14,1892.1 1763.6,1891.57C1763.07,1891.04 1762.77,1890.32 1762.77,1889.56C1762.77,1859.64 1762.77,1602.34 1762.77,1572.41C1762.77,1571.66 1763.07,1570.94 1763.6,1570.41C1764.14,1569.88 1764.86,1569.58 1765.61,1569.58C1773.11,1569.58 1793.4,1569.58 1800.89,1569.58Z" style="fill:none;stroke:rgb(70,70,70);stroke-width:2.5px;"/>
        </g>
        <g transform="matrix(1.66621,0,0,1.66621,-1476.48,-1802.1)">
            <path d="M1756.25,1895.87C1756.25,1897.44 1757.51,1898.7 1759.07,1898.71C1765.79,1898.73 1782.64,1898.78 1789.36,1898.8C1790.92,1898.81 1792.18,1900.08 1792.18,1901.64C1792.18,1922.94 1792.18,2057.96 1792.18,2079.29C1792.18,2080.85 1790.91,2082.12 1789.35,2082.12C1776.31,2082.12 1722.18,2082.12 1709.14,2082.12C1707.57,2082.12 1706.3,2080.85 1706.3,2079.29C1706.3,2040.29 1706.3,1611.41 1706.3,1572.41C1706.3,1571.66 1706.6,1570.94 1707.13,1570.41C1707.66,1569.88 1708.38,1569.58 1709.14,1569.58C1717.92,1569.58 1744.62,1569.58 1753.41,1569.58C1754.16,1569.58 1754.88,1569.88 1755.41,1570.41C1755.95,1570.94 1756.25,1571.66 1756.25,1572.41C1756.25,1602.68 1756.25,1865.65 1756.25,1895.87Z" style="fill:none;stroke:rgb(70,70,70);stroke-width:2.5px;"/>
        </g>
        <g transform="matrix(1.66621,0,0,1.66621,-847.261,-1802.1)">
            <path d="M1755.25,1895.87C1755.25,1897.44 1756.51,1898.7 1758.07,1898.71C1765.1,1898.73 1783.32,1898.78 1790.36,1898.8C1791.92,1898.81 1793.18,1900.08 1793.18,1901.64C1793.18,1922.94 1793.18,2057.96 1793.18,2079.29C1793.18,2080.85 1791.91,2082.12 1790.35,2082.12C1777.1,2082.12 1721.38,2082.12 1708.14,2082.12C1707.38,2082.12 1706.66,2081.82 1706.13,2081.29C1705.6,2080.76 1705.3,2080.04 1705.3,2079.29L1705.3,1572.41C1705.3,1571.66 1705.6,1570.94 1706.13,1570.41C1706.66,1569.88 1707.38,1569.58 1708.14,1569.58C1716.92,1569.58 1743.62,1569.58 1752.41,1569.58C1753.16,1569.58 1753.88,1569.88 1754.41,1570.41C1754.95,1570.94 1755.25,1571.66 1755.25,1572.41C1755.25,1602.68 1755.25,1865.65 1755.25,1895.87Z" style="fill:none;stroke:rgb(70,70,70);stroke-width:2.5px;"/>
        </g>
        <g transform="matrix(-1.66621,0,0,1.66621,5296.39,-1802.1)">
            <path d="M1756.25,1895.87C1756.25,1897.44 1757.51,1898.7 1759.07,1898.71C1765.95,1898.73 1783.48,1898.78 1790.36,1898.8C1791.92,1898.81 1793.18,1900.08 1793.18,1901.64C1793.18,1922.94 1793.18,2057.96 1793.18,2079.29C1793.18,2080.85 1791.91,2082.12 1790.35,2082.12C1777.2,2082.12 1722.28,2082.12 1709.14,2082.12C1708.38,2082.12 1707.66,2081.82 1707.13,2081.29C1706.6,2080.76 1706.3,2080.04 1706.3,2079.29C1706.3,2040.29 1706.3,1611.41 1706.3,1572.41C1706.3,1571.66 1706.6,1570.94 1707.13,1570.41C1707.66,1569.88 1708.38,1569.58 1709.14,1569.58C1717.92,1569.58 1744.62,1569.58 1753.41,1569.58C1754.16,1569.58 1754.88,1569.88 1755.41,1570.41C1755.95,1570.94 1756.25,1571.66 1756.25,1572.41C1756.25,1602.68 1756.25,1865.65 1756.25,1895.87Z" style="fill:none;stroke:rgb(70,70,70);stroke-width:2.5px;"/>
        </g>
        <g transform="matrix(-1.66621,0,0,1.66621,4824.2,-1802.1)">
            <path d="M1756.25,1895.87C1756.25,1897.44 1757.51,1898.7 1759.07,1898.71C1765.79,1898.73 1782.64,1898.78 1789.36,1898.8C1790.92,1898.81 1792.18,1900.08 1792.18,1901.64C1792.18,1922.94 1792.18,2057.96 1792.18,2079.29C1792.18,2080.85 1790.91,2082.12 1789.35,2082.12C1776.2,2082.12 1721.28,2082.12 1708.14,2082.12C1707.38,2082.12 1706.66,2081.82 1706.13,2081.29C1705.6,2080.76 1705.3,2080.04 1705.3,2079.29C1705.3,2040.29 1705.3,1611.41 1705.3,1572.41C1705.3,1571.66 1705.6,1570.94 1706.13,1570.41C1706.66,1569.88 1707.38,1569.58 1708.14,1569.58C1717.06,1569.58 1744.49,1569.58 1753.41,1569.58C1754.98,1569.58 1756.25,1570.85 1756.25,1572.41C1756.25,1602.68 1756.25,1865.65 1756.25,1895.87Z" style="fill:none;stroke:rgb(70,70,70);stroke-width:2.5px;"/>
        </g>
        <g transform="matrix(1.66621,0,0,1.66621,-1321.69,-1802.1)">
            <path d="M1771.25,1895.88C1771.25,1897.44 1772.51,1898.71 1774.07,1898.71C1778.48,1898.74 1786.95,1898.78 1791.36,1898.8C1792.92,1898.81 1794.18,1900.07 1794.18,1901.63C1794.18,1922.91 1794.18,2057.96 1794.18,2079.29C1794.18,2080.85 1792.91,2082.12 1791.35,2082.12C1778.1,2082.12 1722.38,2082.12 1709.14,2082.12C1708.38,2082.12 1707.66,2081.82 1707.13,2081.29C1706.6,2080.76 1706.3,2080.04 1706.3,2079.29C1706.3,2057.96 1706.3,1922.94 1706.3,1901.61C1706.3,1900.86 1706.6,1900.14 1707.13,1899.61C1707.66,1899.08 1708.38,1898.78 1709.14,1898.78L1714.47,1898.78C1715.22,1898.78 1715.94,1898.48 1716.47,1897.95C1717,1897.42 1717.3,1896.69 1717.3,1895.94C1717.3,1865.67 1717.3,1602.68 1717.3,1572.41C1717.3,1570.85 1718.57,1569.58 1720.14,1569.58L1768.41,1569.58C1769.98,1569.58 1771.25,1570.85 1771.25,1572.41C1771.25,1602.68 1771.25,1865.68 1771.25,1895.88Z" style="fill:none;stroke:rgb(70,70,70);stroke-width:2.5px;"/>
        </g>
        <g transform="matrix(1.66621,0,0,1.66621,-690.038,-1802.1)">
            <path d="M1782.25,1895.89C1782.25,1897.45 1783.5,1898.71 1785.05,1898.73C1786.69,1898.75 1788.74,1898.77 1790.38,1898.78C1791.93,1898.8 1793.18,1900.06 1793.18,1901.62C1793.18,1922.85 1793.18,2057.95 1793.18,2079.29C1793.18,2080.85 1791.91,2082.12 1790.35,2082.12C1777.1,2082.12 1721.38,2082.12 1708.14,2082.12C1706.57,2082.12 1705.3,2080.85 1705.3,2079.29C1705.3,2057.96 1705.3,1922.95 1705.3,1901.62C1705.3,1900.05 1706.57,1898.78 1708.14,1898.78C1709.77,1898.78 1711.83,1898.78 1713.47,1898.78C1714.22,1898.78 1714.94,1898.49 1715.47,1897.95C1716,1897.42 1716.3,1896.7 1716.3,1895.95C1716.3,1865.68 1716.3,1602.68 1716.3,1572.41C1716.3,1571.66 1716.6,1570.94 1717.13,1570.41C1717.66,1569.88 1718.38,1569.58 1719.14,1569.58C1729.96,1569.58 1768.59,1569.58 1779.41,1569.58C1780.98,1569.58 1782.25,1570.85 1782.25,1572.41C1782.25,1602.69 1782.25,1865.77 1782.25,1895.89Z" style="fill:none;stroke:rgb(70,70,70);stroke-width:2.5px;"/>
        </g>
        <g transform="matrix(-1.66621,0,0,1.66621,4667.21,-1802.1)">
            <path d="M1770.25,1895.88C1770.25,1897.44 1771.51,1898.71 1773.07,1898.71C1777.48,1898.74 1785.95,1898.78 1790.36,1898.8C1791.92,1898.81 1793.18,1900.07 1793.18,1901.63C1793.18,1922.91 1793.18,2057.96 1793.18,2079.29C1793.18,2080.85 1791.91,2082.12 1790.35,2082.12C1777.1,2082.12 1721.38,2082.12 1708.14,2082.12C1707.38,2082.12 1706.66,2081.82 1706.13,2081.29C1705.6,2080.76 1705.3,2080.04 1705.3,2079.29C1705.3,2057.97 1705.3,1923.03 1705.3,1901.71C1705.3,1900.14 1706.57,1898.87 1708.14,1898.87C1709.49,1898.87 1711.11,1898.87 1712.47,1898.87C1714.03,1898.87 1715.3,1897.6 1715.3,1896.04C1715.3,1865.77 1715.3,1602.69 1715.3,1572.41C1715.3,1570.85 1716.57,1569.58 1718.14,1569.58C1727.59,1569.58 1757.96,1569.58 1767.41,1569.58C1768.98,1569.58 1770.25,1570.85 1770.25,1572.41C1770.25,1602.68 1770.25,1865.68 1770.25,1895.88Z" style="fill:none;stroke:rgb(70,70,70);stroke-width:2.5px;"/>
        </g>
        <g transform="matrix(1.66621,0,0,1.66621,-379.338,-1802.1)">
            <path d="M1800.89,1569.58C1801.65,1569.58 1802.37,1569.88 1802.9,1570.41C1803.43,1570.94 1803.73,1571.66 1803.73,1572.41C1803.73,1602.34 1803.73,1859.64 1803.73,1889.56C1803.73,1890.32 1803.43,1891.04 1802.9,1891.57C1802.37,1892.1 1801.65,1892.4 1800.89,1892.4C1793.4,1892.4 1773.11,1892.4 1765.61,1892.4C1764.86,1892.4 1764.14,1892.1 1763.6,1891.57C1763.07,1891.04 1762.77,1890.32 1762.77,1889.56C1762.77,1859.64 1762.77,1602.34 1762.77,1572.41C1762.77,1571.66 1763.07,1570.94 1763.6,1570.41C1764.14,1569.88 1764.86,1569.58 1765.61,1569.58C1773.11,1569.58 1793.4,1569.58 1800.89,1569.58Z" style="fill:none;stroke:rgb(70,70,70);stroke-width:2.5px;"/>
        </g>
        <g transform="matrix(1.66621,0,0,1.66621,-200.112,-1802.1)">
            <path d="M1800.89,1569.58C1801.65,1569.58 1802.37,1569.88 1802.9,1570.41C1803.43,1570.94 1803.73,1571.66 1803.73,1572.41C1803.73,1602.34 1803.73,1859.64 1803.73,1889.56C1803.73,1890.32 1803.43,1891.04 1802.9,1891.57C1802.37,1892.1 1801.65,1892.4 1800.89,1892.4C1793.4,1892.4 1773.11,1892.4 1765.61,1892.4C1764.86,1892.4 1764.14,1892.1 1763.6,1891.57C1763.07,1891.04 1762.77,1890.32 1762.77,1889.56C1762.77,1859.64 1762.77,1602.34 1762.77,1572.41C1762.77,1571.66 1763.07,1570.94 1763.6,1570.41C1764.14,1569.88 1764.86,1569.58 1765.61,1569.58C1773.11,1569.58 1793.4,1569.58 1800.89,1569.58Z" style="fill:none;stroke:rgb(70,70,70);stroke-width:2.5px;"/>
        </g>
        <g transform="matrix(1.66621,0,0,1.66621,-20.888,-1802.1)">
            <path d="M1800.89,1569.58C1801.65,1569.58 1802.37,1569.88 1802.9,1570.41C1803.43,1570.94 1803.73,1571.66 1803.73,1572.41C1803.73,1602.34 1803.73,1859.64 1803.73,1889.56C1803.73,1890.32 1803.43,1891.04 1802.9,1891.57C1802.37,1892.1 1801.65,1892.4 1800.89,1892.4C1793.4,1892.4 1773.11,1892.4 1765.61,1892.4C1764.86,1892.4 1764.14,1892.1 1763.6,1891.57C1763.07,1891.04 1762.77,1890.32 1762.77,1889.56C1762.77,1859.64 1762.77,1602.34 1762.77,1572.41C1762.77,1571.66 1763.07,1570.94 1763.6,1570.41C1764.14,1569.88 1764.86,1569.58 1765.61,1569.58C1773.11,1569.58 1793.4,1569.58 1800.89,1569.58Z" style="fill:none;stroke:rgb(70,70,70);stroke-width:2.5px;"/>
        </g>
        <g transform="matrix(1.66621,0,0,1.66621,-379.338,-1802.1)">
            <path d="M1756.25,1895.87C1756.25,1897.44 1757.51,1898.7 1759.07,1898.71C1765.79,1898.73 1782.64,1898.78 1789.36,1898.8C1790.92,1898.81 1792.18,1900.08 1792.18,1901.64C1792.18,1922.94 1792.18,2057.96 1792.18,2079.29C1792.18,2080.85 1790.91,2082.12 1789.35,2082.12C1776.31,2082.12 1722.18,2082.12 1709.14,2082.12C1707.57,2082.12 1706.3,2080.85 1706.3,2079.29C1706.3,2040.29 1706.3,1611.41 1706.3,1572.41C1706.3,1571.66 1706.6,1570.94 1707.13,1570.41C1707.66,1569.88 1708.38,1569.58 1709.14,1569.58C1717.92,1569.58 1744.62,1569.58 1753.41,1569.58C1754.16,1569.58 1754.88,1569.88 1755.41,1570.41C1755.95,1570.94 1756.25,1571.66 1756.25,1572.41C1756.25,1602.68 1756.25,1865.65 1756.25,1895.87Z" style="fill:none;stroke:rgb(70,70,70);stroke-width:2.5px;"/>
        </g>
        <g transform="matrix(1.66621,0,0,1.66621,249.881,-1802.1)">
            <path d="M1790.59,1569.58C1791.34,1569.58 1792.07,1569.88 1792.6,1570.41C1793.13,1570.94 1793.43,1571.66 1793.43,1572.41C1793.41,1611.43 1793.2,2040.3 1793.18,2079.29C1793.18,2080.85 1791.91,2082.12 1790.35,2082.12C1777.1,2082.12 1721.38,2082.12 1708.14,2082.12C1707.38,2082.12 1706.66,2081.82 1706.13,2081.29C1705.6,2080.76 1705.3,2080.04 1705.3,2079.29C1705.3,2040.29 1705.3,1611.41 1705.3,1572.41C1705.3,1571.66 1705.6,1570.94 1706.13,1570.41C1706.66,1569.88 1707.38,1569.58 1708.14,1569.58C1721.41,1569.58 1777.32,1569.58 1790.59,1569.58Z" style="fill:none;stroke:rgb(70,70,70);stroke-width:2.5px;"/>
        </g>
        <g transform="matrix(-1.66621,0,0,1.66621,5921.35,-1802.1)">
            <path d="M1756.25,1895.87C1756.25,1897.44 1757.51,1898.7 1759.07,1898.71C1765.79,1898.73 1782.64,1898.78 1789.36,1898.8C1790.92,1898.81 1792.18,1900.08 1792.18,1901.64C1792.18,1922.94 1792.18,2057.96 1792.18,2079.29C1792.18,2080.85 1790.91,2082.12 1789.35,2082.12C1776.2,2082.12 1721.28,2082.12 1708.14,2082.12C1707.38,2082.12 1706.66,2081.82 1706.13,2081.29C1705.6,2080.76 1705.3,2080.04 1705.3,2079.29C1705.3,2040.29 1705.3,1611.41 1705.3,1572.41C1705.3,1571.66 1705.6,1570.94 1706.13,1570.41C1706.66,1569.88 1707.38,1569.58 1708.14,1569.58C1717.06,1569.58 1744.49,1569.58 1753.41,1569.58C1754.98,1569.58 1756.25,1570.85 1756.25,1572.41C1756.25,1602.68 1756.25,1865.65 1756.25,1895.87Z" style="fill:none;stroke:rgb(70,70,70);stroke-width:2.5px;"/>
        </g>
        <g transform="matrix(1.66621,0,0,1.66621,-224.547,-1802.1)">
            <path d="M1771.25,1895.88C1771.25,1897.44 1772.51,1898.71 1774.07,1898.71C1778.48,1898.74 1786.95,1898.78 1791.36,1898.8C1792.92,1898.81 1794.18,1900.07 1794.18,1901.63C1794.18,1922.91 1794.18,2057.96 1794.18,2079.29C1794.18,2080.85 1792.91,2082.12 1791.35,2082.12C1778.1,2082.12 1722.38,2082.12 1709.14,2082.12C1708.38,2082.12 1707.66,2081.82 1707.13,2081.29C1706.6,2080.76 1706.3,2080.04 1706.3,2079.29C1706.3,2057.96 1706.3,1922.94 1706.3,1901.61C1706.3,1900.86 1706.6,1900.14 1707.13,1899.61C1707.66,1899.08 1708.38,1898.78 1709.14,1898.78L1714.47,1898.78C1715.22,1898.78 1715.94,1898.48 1716.47,1897.95C1717,1897.42 1717.3,1896.69 1717.3,1895.94C1717.3,1865.67 1717.3,1602.68 1717.3,1572.41C1717.3,1570.85 1718.57,1569.58 1720.14,1569.58L1768.41,1569.58C1769.98,1569.58 1771.25,1570.85 1771.25,1572.41C1771.25,1602.68 1771.25,1865.68 1771.25,1895.88Z" style="fill:none;stroke:rgb(70,70,70);stroke-width:2.5px;"/>
        </g>
        <g transform="matrix(-1.66621,0,0,1.66621,5764.35,-1802.1)">
            <path d="M1770.25,1895.88C1770.25,1897.44 1771.51,1898.71 1773.07,1898.71C1777.48,1898.74 1785.95,1898.78 1790.36,1898.8C1791.92,1898.81 1793.18,1900.07 1793.18,1901.63C1793.18,1922.91 1793.18,2057.96 1793.18,2079.29C1793.18,2080.85 1791.91,2082.12 1790.35,2082.12C1777.1,2082.12 1721.38,2082.12 1708.14,2082.12C1707.38,2082.12 1706.66,2081.82 1706.13,2081.29C1705.6,2080.76 1705.3,2080.04 1705.3,2079.29C1705.3,2057.97 1705.3,1923.03 1705.3,1901.71C1705.3,1900.14 1706.57,1898.87 1708.14,1898.87C1709.49,1898.87 1711.11,1898.87 1712.47,1898.87C1714.03,1898.87 1715.3,1897.6 1715.3,1896.04C1715.3,1865.77 1715.3,1602.69 1715.3,1572.41C1715.3,1570.85 1716.57,1569.58 1718.14,1569.58C1727.59,1569.58 1757.96,1569.58 1767.41,1569.58C1768.98,1569.58 1770.25,1570.85 1770.25,1572.41C1770.25,1602.68 1770.25,1865.68 1770.25,1895.88Z" style="fill:none;stroke:rgb(70,70,70);stroke-width:2.5px;"/>
        </g>
    </g>
    <g transform="matrix(1,0,0,1,-228.671,-506.046)">
        <path d="M269.764,858.242L269.764,739.3" style="fill:none;stroke:rgb(70,70,70);stroke-width:4.17px;"/>
    </g>
    <g transform="matrix(1,0,0,1,-139.464,-506.046)">
        <path d="M269.764,858.242L269.764,739.3" style="fill:none;stroke:rgb(70,70,70);stroke-width:4.17px;"/>
    </g>
    <g transform="matrix(0.707107,-0.707107,0.707107,0.707107,-756.337,127.029)">
        <g transform="matrix(50,0,0,50,492.59,619.447)">
            <path d="M0.075,-0.715L0.075,-0L0.451,-0L0.451,-0.072L0.161,-0.072L0.161,-0.34L0.419,-0.34L0.419,-0.41L0.161,-0.41L0.161,-0.643L0.451,-0.643L0.451,-0.715L0.075,-0.715Z" style="fill-rule:nonzero;"/>
        </g>
        <g transform="matrix(50,0,0,50,517.39,619.447)">
            <path d="M0.543,-0.715L0.457,-0.715L0.457,-0.121L0.181,-0.715L0.075,-0.715L0.075,-0L0.161,-0L0.161,-0.594L0.437,-0L0.543,-0L0.543,-0.715Z" style="fill-rule:nonzero;"/>
        </g>
        <g transform="matrix(50,0,0,50,548.29,619.447)">
            <path d="M0.384,-0.215L0.444,-0L0.531,-0L0.325,-0.715L0.216,-0.715L0.01,-0L0.097,-0L0.157,-0.215L0.384,-0.215ZM0.364,-0.287L0.177,-0.287L0.271,-0.624L0.364,-0.287Z" style="fill-rule:nonzero;"/>
        </g>
        <g transform="matrix(50,0,0,50,575.34,619.447)">
            <path d="M0.075,-0.715L0.075,-0L0.288,-0C0.335,-0 0.376,-0.009 0.411,-0.028C0.446,-0.046 0.472,-0.071 0.491,-0.103C0.51,-0.134 0.519,-0.169 0.519,-0.208C0.519,-0.243 0.511,-0.274 0.496,-0.299C0.48,-0.324 0.461,-0.344 0.439,-0.358C0.416,-0.372 0.394,-0.382 0.371,-0.387L0.371,-0.39C0.4,-0.401 0.426,-0.421 0.449,-0.449C0.472,-0.476 0.483,-0.509 0.483,-0.546C0.483,-0.58 0.474,-0.61 0.457,-0.636C0.44,-0.661 0.416,-0.681 0.386,-0.695C0.356,-0.708 0.323,-0.715 0.286,-0.715L0.075,-0.715ZM0.274,-0.418L0.161,-0.418L0.161,-0.643L0.263,-0.643C0.307,-0.643 0.34,-0.633 0.362,-0.614C0.384,-0.595 0.395,-0.568 0.395,-0.535C0.395,-0.501 0.384,-0.473 0.363,-0.451C0.342,-0.429 0.312,-0.418 0.274,-0.418ZM0.276,-0.072L0.161,-0.072L0.161,-0.348L0.28,-0.348C0.325,-0.348 0.361,-0.336 0.389,-0.311C0.416,-0.286 0.43,-0.253 0.43,-0.212C0.43,-0.167 0.416,-0.132 0.387,-0.108C0.358,-0.084 0.321,-0.072 0.276,-0.072Z" style="fill-rule:nonzero;"/>
        </g>
        <g transform="matrix(50,0,0,50,603.04,619.447)">
            <path d="M0.075,-0.715L0.075,-0L0.411,-0L0.411,-0.072L0.161,-0.072L0.161,-0.715L0.075,-0.715Z" style="fill-rule:nonzero;"/>
        </g>
        <g transform="matrix(50,0,0,50,625.09,619.447)">
            <path d="M0.075,-0.715L0.075,-0L0.451,-0L0.451,-0.072L0.161,-0.072L0.161,-0.34L0.419,-0.34L0.419,-0.41L0.161,-0.41L0.161,-0.643L0.451,-0.643L0.451,-0.715L0.075,-0.715Z" style="fill-rule:nonzero;"/>
        </g>
        <g transform="matrix(50,0,0,50,649.89,619.447)">
            <path d="M0.075,-0.715L0.075,-0L0.215,-0C0.282,-0 0.341,-0.015 0.392,-0.046C0.443,-0.077 0.482,-0.119 0.509,-0.173C0.536,-0.227 0.55,-0.288 0.55,-0.357C0.55,-0.426 0.536,-0.487 0.509,-0.542C0.482,-0.596 0.443,-0.638 0.392,-0.669C0.341,-0.7 0.282,-0.715 0.215,-0.715L0.075,-0.715ZM0.215,-0.072L0.161,-0.072L0.161,-0.643L0.215,-0.643C0.266,-0.643 0.31,-0.631 0.347,-0.608C0.384,-0.584 0.412,-0.551 0.432,-0.508C0.451,-0.465 0.461,-0.415 0.461,-0.358C0.461,-0.301 0.451,-0.252 0.432,-0.209C0.412,-0.166 0.384,-0.132 0.347,-0.108C0.31,-0.084 0.266,-0.072 0.215,-0.072Z" style="fill-rule:nonzero;"/>
        </g>
    </g>
    <g transform="matrix(0.707107,-0.707107,0.707107,0.707107,-666.825,126.902)">
        <g transform="matrix(50,0,0,50,492.59,619.447)">
            <path d="M0.075,-0.715L0.075,-0L0.215,-0C0.282,-0 0.341,-0.015 0.392,-0.046C0.443,-0.077 0.482,-0.119 0.509,-0.173C0.536,-0.227 0.55,-0.288 0.55,-0.357C0.55,-0.426 0.536,-0.487 0.509,-0.542C0.482,-0.596 0.443,-0.638 0.392,-0.669C0.341,-0.7 0.282,-0.715 0.215,-0.715L0.075,-0.715ZM0.215,-0.072L0.161,-0.072L0.161,-0.643L0.215,-0.643C0.266,-0.643 0.31,-0.631 0.347,-0.608C0.384,-0.584 0.412,-0.551 0.432,-0.508C0.451,-0.465 0.461,-0.415 0.461,-0.358C0.461,-0.301 0.451,-0.252 0.432,-0.209C0.412,-0.166 0.384,-0.132 0.347,-0.108C0.31,-0.084 0.266,-0.072 0.215,-0.072Z" style="fill-rule:nonzero;"/>
        </g>
        <g transform="matrix(50,0,0,50,522.59,619.447)">
            <rect x="0.085" y="-0.715" width="0.086" height="0.715" style="fill-rule:nonzero;"/>
        </g>
        <g transform="matrix(50,0,0,50,535.39,619.447)">
            <path d="M0.161,-0.018C0.198,0.004 0.243,0.015 0.294,0.015C0.333,0.015 0.371,0.007 0.407,-0.009C0.442,-0.024 0.471,-0.048 0.494,-0.08C0.517,-0.112 0.528,-0.151 0.528,-0.197C0.528,-0.238 0.52,-0.271 0.504,-0.297C0.487,-0.322 0.466,-0.342 0.44,-0.357C0.414,-0.371 0.381,-0.384 0.341,-0.396L0.276,-0.416C0.236,-0.429 0.205,-0.444 0.184,-0.462C0.163,-0.48 0.152,-0.505 0.152,-0.538C0.152,-0.575 0.164,-0.603 0.188,-0.624C0.212,-0.644 0.242,-0.654 0.277,-0.654C0.313,-0.654 0.342,-0.642 0.365,-0.617C0.388,-0.592 0.401,-0.554 0.405,-0.504L0.491,-0.504C0.488,-0.574 0.468,-0.629 0.433,-0.67C0.397,-0.71 0.345,-0.73 0.278,-0.73C0.241,-0.73 0.206,-0.722 0.173,-0.706C0.14,-0.689 0.113,-0.667 0.093,-0.638C0.073,-0.609 0.063,-0.577 0.063,-0.542C0.063,-0.482 0.08,-0.438 0.113,-0.41C0.146,-0.381 0.189,-0.359 0.242,-0.344L0.318,-0.322C0.364,-0.309 0.396,-0.292 0.413,-0.272C0.43,-0.252 0.439,-0.226 0.439,-0.194C0.439,-0.149 0.425,-0.116 0.396,-0.094C0.367,-0.072 0.331,-0.061 0.29,-0.061C0.246,-0.061 0.209,-0.077 0.18,-0.109C0.151,-0.14 0.133,-0.184 0.126,-0.24L0.04,-0.24C0.043,-0.191 0.054,-0.147 0.075,-0.109C0.095,-0.07 0.124,-0.04 0.161,-0.018Z" style="fill-rule:nonzero;"/>
        </g>
        <g transform="matrix(50,0,0,50,563.39,619.447)">
            <path d="M0.384,-0.215L0.444,-0L0.531,-0L0.325,-0.715L0.216,-0.715L0.01,-0L0.097,-0L0.157,-0.215L0.384,-0.215ZM0.364,-0.287L0.177,-0.287L0.271,-0.624L0.364,-0.287Z" style="fill-rule:nonzero;"/>
        </g>
        <g transform="matrix(50,0,0,50,590.44,619.447)">
            <path d="M0.075,-0.715L0.075,-0L0.288,-0C0.335,-0 0.376,-0.009 0.411,-0.028C0.446,-0.046 0.472,-0.071 0.491,-0.103C0.51,-0.134 0.519,-0.169 0.519,-0.208C0.519,-0.243 0.511,-0.274 0.496,-0.299C0.48,-0.324 0.461,-0.344 0.439,-0.358C0.416,-0.372 0.394,-0.382 0.371,-0.387L0.371,-0.39C0.4,-0.401 0.426,-0.421 0.449,-0.449C0.472,-0.476 0.483,-0.509 0.483,-0.546C0.483,-0.58 0.474,-0.61 0.457,-0.636C0.44,-0.661 0.416,-0.681 0.386,-0.695C0.356,-0.708 0.323,-0.715 0.286,-0.715L0.075,-0.715ZM0.274,-0.418L0.161,-0.418L0.161,-0.643L0.263,-0.643C0.307,-0.643 0.34,-0.633 0.362,-0.614C0.384,-0.595 0.395,-0.568 0.395,-0.535C0.395,-0.501 0.384,-0.473 0.363,-0.451C0.342,-0.429 0.312,-0.418 0.274,-0.418ZM0.276,-0.072L0.161,-0.072L0.161,-0.348L0.28,-0.348C0.325,-0.348 0.361,-0.336 0.389,-0.311C0.416,-0.286 0.43,-0.253 0.43,-0.212C0.43,-0.167 0.416,-0.132 0.387,-0.108C0.358,-0.084 0.321,-0.072 0.276,-0.072Z" style="fill-rule:nonzero;"/>
        </g>
        <g transform="matrix(50,0,0,50,618.14,619.447)">
            <path d="M0.075,-0.715L0.075,-0L0.411,-0L0.411,-0.072L0.161,-0.072L0.161,-0.715L0.075,-0.715Z" style="fill-rule:nonzero;"/>
        </g>
        <g transform="matrix(50,0,0,50,640.19,619.447)">
            <path d="M0.075,-0.715L0.075,-0L0.451,-0L0.451,-0.072L0.161,-0.072L0.161,-0.34L0.419,-0.34L0.419,-0.41L0.161,-0.41L0.161,-0.643L0.451,-0.643L0.451,-0.715L0.075,-0.715Z" style="fill-rule:nonzero;"/>
        </g>
        <g transform="matrix(50,0,0,50,664.99,619.447)">
            <path d="M0.075,-0.715L0.075,-0L0.215,-0C0.282,-0 0.341,-0.015 0.392,-0.046C0.443,-0.077 0.482,-0.119 0.509,-0.173C0.536,-0.227 0.55,-0.288 0.55,-0.357C0.55,-0.426 0.536,-0.487 0.509,-0.542C0.482,-0.596 0.443,-0.638 0.392,-0.669C0.341,-0.7 0.282,-0.715 0.215,-0.715L0.075,-0.715ZM0.215,-0.072L0.161,-0.072L0.161,-0.643L0.215,-0.643C0.266,-0.643 0.31,-0.631 0.347,-0.608C0.384,-0.584 0.412,-0.551 0.432,-0.508C0.451,-0.465 0.461,-0.415 0.461,-0.358C0.461,-0.301 0.451,-0.252 0.432,-0.209C0.412,-0.166 0.384,-0.132 0.347,-0.108C0.31,-0.084 0.266,-0.072 0.215,-0.072Z" style="fill-rule:nonzero;"/>
        </g>
    </g>
</svg>
