<?xml version="1.0" encoding="UTF-8" standalone="no"?>
<!DOCTYPE svg PUBLIC "-//W3C//DTD SVG 1.1//EN" "http://www.w3.org/Graphics/SVG/1.1/DTD/svg11.dtd">
<svg width="100%" height="100%" viewBox="0 0 1920 1920" version="1.1" xmlns="http://www.w3.org/2000/svg" xmlns:xlink="http://www.w3.org/1999/xlink" xml:space="preserve" xmlns:serif="http://www.serif.com/" style="fill-rule:evenodd;clip-rule:evenodd;stroke-linecap:round;stroke-miterlimit:1.5;">
    <path d="M1920,0L1920,1920L0,1920L0,0L1920,0ZM1916,4L4,4L4,1916L1916,1916L1916,4Z"/>
    <path d="M0,0L1920,1920" style="fill:none;stroke:black;stroke-width:2px;"/>
    <path d="M1920,0L0,1920" style="fill:none;stroke:black;stroke-width:2px;"/>
    <rect x="811.85" y="934.25" width="296.3" height="51.5" style="fill:white;"/>
    <path d="M819.84,942.816L819.84,977.136L823.968,977.136L823.968,963.36L829.152,963.36C831.2,963.36 833.08,962.912 834.792,962.016C836.504,961.12 837.856,959.864 838.848,958.248C839.84,956.632 840.336,954.784 840.336,952.704C840.336,949.408 839.304,946.936 837.24,945.288C835.176,943.64 832.48,942.816 829.152,942.816L819.84,942.816ZM828.96,959.904L823.968,959.904L823.968,946.272L828.96,946.272C831.232,946.272 832.984,946.824 834.216,947.928C835.448,949.032 836.064,950.624 836.064,952.704C836.064,954.944 835.44,956.704 834.192,957.984C832.944,959.264 831.2,959.904 828.96,959.904Z" style="fill-rule:nonzero;"/>
    <path d="M845.616,942.816L845.616,977.136L861.744,977.136L861.744,973.68L849.744,973.68L849.744,942.816L845.616,942.816Z" style="fill-rule:nonzero;"/>
    <path d="M881.616,966.816L884.496,977.136L888.672,977.136L878.784,942.816L873.552,942.816L863.664,977.136L867.84,977.136L870.72,966.816L881.616,966.816ZM880.656,963.36L871.68,963.36L876.192,947.184L880.656,963.36Z" style="fill-rule:nonzero;"/>
    <path d="M897.096,975.624C899.064,977.048 901.408,977.76 904.128,977.76C907.2,977.76 909.8,976.696 911.928,974.568C914.056,972.44 915.456,969.328 916.128,965.232L911.856,965.232C911.696,966.8 911.272,968.28 910.584,969.672C909.896,971.064 908.992,972.184 907.872,973.032C906.752,973.88 905.504,974.304 904.128,974.304C901.152,974.304 898.944,973.04 897.504,970.512C896.064,967.984 895.344,964.464 895.344,959.952C895.344,955.472 896.08,951.976 897.552,949.464C899.024,946.952 901.216,945.696 904.128,945.696C906.112,945.696 907.744,946.552 909.024,948.264C910.304,949.976 911.104,952.064 911.424,954.528L915.696,954.528C915.088,950.72 913.792,947.72 911.808,945.528C909.824,943.336 907.248,942.24 904.08,942.24C899.952,942.24 896.752,943.8 894.48,946.92C892.208,950.04 891.072,954.384 891.072,959.952C891.072,963.664 891.584,966.848 892.608,969.504C893.632,972.16 895.128,974.2 897.096,975.624Z" style="fill-rule:nonzero;"/>
    <path d="M922.128,942.816L922.128,977.136L940.176,977.136L940.176,973.68L926.256,973.68L926.256,960.816L938.64,960.816L938.64,957.456L926.256,957.456L926.256,946.272L940.176,946.272L940.176,942.816L922.128,942.816Z" style="fill-rule:nonzero;"/>
    <path d="M945.936,942.816L945.936,977.136L950.064,977.136L950.064,961.104L963.168,961.104L963.168,977.136L967.296,977.136L967.296,942.816L963.168,942.816L963.168,957.648L950.064,957.648L950.064,942.816L945.936,942.816Z" style="fill-rule:nonzero;"/>
    <path d="M979.536,975.624C981.52,977.048 983.84,977.76 986.496,977.76C989.152,977.76 991.472,977.048 993.456,975.624C995.44,974.2 996.976,972.144 998.064,969.456C999.152,966.768 999.696,963.6 999.696,959.952C999.696,956.304 999.152,953.144 998.064,950.472C996.976,947.8 995.44,945.76 993.456,944.352C991.472,942.944 989.152,942.24 986.496,942.24C983.84,942.24 981.52,942.944 979.536,944.352C977.552,945.76 976.016,947.792 974.928,950.448C973.84,953.104 973.296,956.272 973.296,959.952C973.296,963.632 973.84,966.808 974.928,969.48C976.016,972.152 977.552,974.2 979.536,975.624ZM993.12,970.464C991.584,973.024 989.376,974.304 986.496,974.304C983.616,974.304 981.408,973.024 979.872,970.464C978.336,967.904 977.568,964.4 977.568,959.952C977.568,955.504 978.328,952.016 979.848,949.488C981.368,946.96 983.584,945.696 986.496,945.696C989.408,945.696 991.624,946.96 993.144,949.488C994.664,952.016 995.424,955.504 995.424,959.952C995.424,964.4 994.656,967.904 993.12,970.464Z" style="fill-rule:nonzero;"/>
    <path d="M1005.7,942.816L1005.7,977.136L1021.82,977.136L1021.82,973.68L1009.82,973.68L1009.82,942.816L1005.7,942.816Z" style="fill-rule:nonzero;"/>
    <path d="M1026.86,942.816L1026.86,977.136L1033.58,977.136C1036.82,977.136 1039.65,976.4 1042.08,974.928C1044.51,973.456 1046.38,971.424 1047.7,968.832C1049.01,966.24 1049.66,963.296 1049.66,960C1049.66,956.704 1049.01,953.752 1047.7,951.144C1046.38,948.536 1044.51,946.496 1042.08,945.024C1039.65,943.552 1036.82,942.816 1033.58,942.816L1026.86,942.816ZM1033.58,973.68L1030.99,973.68L1030.99,946.272L1033.58,946.272C1036.02,946.272 1038.12,946.84 1039.9,947.976C1041.67,949.112 1043.03,950.712 1043.98,952.776C1044.92,954.84 1045.39,957.232 1045.39,959.952C1045.39,962.672 1044.92,965.064 1043.98,967.128C1043.03,969.192 1041.67,970.8 1039.9,971.952C1038.12,973.104 1036.02,973.68 1033.58,973.68Z" style="fill-rule:nonzero;"/>
    <path d="M1055.66,942.816L1055.66,977.136L1073.71,977.136L1073.71,973.68L1059.79,973.68L1059.79,960.816L1072.18,960.816L1072.18,957.456L1059.79,957.456L1059.79,946.272L1073.71,946.272L1073.71,942.816L1055.66,942.816Z" style="fill-rule:nonzero;"/>
    <path d="M1079.47,942.816L1079.47,977.136L1083.6,977.136L1083.6,962.448L1088.88,962.448C1091.18,962.448 1092.78,962.968 1093.66,964.008C1094.54,965.048 1094.98,966.512 1094.98,968.4L1094.98,971.616C1094.98,972.864 1095.05,973.84 1095.19,974.544C1095.34,975.248 1095.55,976.112 1095.84,977.136L1100.16,977.136C1099.87,976.208 1099.66,975.384 1099.51,974.664C1099.37,973.944 1099.3,972.96 1099.3,971.712L1099.3,967.632C1099.3,965.584 1098.91,964.016 1098.14,962.928C1097.38,961.84 1096.19,961.024 1094.59,960.48L1094.59,960.336C1096.06,959.696 1097.32,958.688 1098.36,957.312C1099.4,955.936 1099.92,954.144 1099.92,951.936C1099.92,949.088 1098.96,946.856 1097.04,945.24C1095.12,943.624 1092.59,942.816 1089.46,942.816L1079.47,942.816ZM1089.02,959.04L1083.6,959.04L1083.6,946.272L1088.78,946.272C1090.96,946.272 1092.66,946.824 1093.87,947.928C1095.09,949.032 1095.7,950.624 1095.7,952.704C1095.7,954.56 1095.11,956.08 1093.94,957.264C1092.78,958.448 1091.14,959.04 1089.02,959.04Z" style="fill-rule:nonzero;"/>
</svg>
