<?xml version="1.0" encoding="UTF-8" standalone="no"?>
<!DOCTYPE svg PUBLIC "-//W3C//DTD SVG 1.1//EN" "http://www.w3.org/Graphics/SVG/1.1/DTD/svg11.dtd">
<svg width="100%" height="100%" viewBox="0 0 1920 1080" version="1.1" xmlns="http://www.w3.org/2000/svg" xmlns:xlink="http://www.w3.org/1999/xlink" xml:space="preserve" xmlns:serif="http://www.serif.com/" style="fill-rule:evenodd;clip-rule:evenodd;stroke-linecap:round;stroke-miterlimit:10;">
    <path d="M1767.47,1024.72L1767.47,1047.87L1770.56,1047.87L1770.56,1024.72L1777.4,1024.72L1777.4,1022.13L1760.66,1022.13L1760.66,1024.72L1767.47,1024.72Z" style="fill-rule:nonzero;"/>
    <rect x="1780.9" y="1022.13" width="3.096" height="25.74" style="fill-rule:nonzero;"/>
    <path d="M1811.06,1022.13L1806.6,1022.13L1800.41,1044.99L1794.22,1022.13L1789.75,1022.13L1789.75,1047.87L1792.81,1047.87L1792.81,1027.03L1798.64,1047.87L1802.17,1047.87L1808,1027.03L1808,1047.87L1811.06,1047.87L1811.06,1022.13Z" style="fill-rule:nonzero;"/>
    <path d="M1816.46,1022.13L1816.46,1047.87L1830,1047.87L1830,1045.28L1819.56,1045.28L1819.56,1035.63L1828.85,1035.63L1828.85,1033.11L1819.56,1033.11L1819.56,1024.72L1830,1024.72L1830,1022.13L1816.46,1022.13Z" style="fill-rule:nonzero;"/>
    <path d="M47.466,295.052L55.206,292.892L55.206,289.76L29.466,297.176L29.466,301.1L55.206,308.516L55.206,305.384L47.466,303.224L47.466,295.052ZM44.874,295.772L44.874,302.504L32.742,299.12L44.874,295.772Z" style="fill-rule:nonzero;"/>
    <path d="M29.466,265.388L29.466,269.852L52.326,276.044L29.466,282.236L29.466,286.7L55.206,286.7L55.206,283.64L34.362,283.64L55.206,277.808L55.206,274.28L34.362,268.448L55.206,268.448L55.206,265.388L29.466,265.388Z" style="fill-rule:nonzero;"/>
    <path d="M29.466,259.988L55.206,259.988L55.206,256.892L44.874,256.892L44.874,253.004C44.874,251.468 44.538,250.058 43.866,248.774C43.194,247.49 42.252,246.476 41.04,245.732C39.828,244.988 38.442,244.616 36.882,244.616C34.41,244.616 32.556,245.39 31.32,246.938C30.084,248.486 29.466,250.508 29.466,253.004L29.466,259.988ZM42.282,253.148L42.282,256.892L32.058,256.892L32.058,253.148C32.058,251.444 32.472,250.13 33.3,249.206C34.128,248.282 35.322,247.82 36.882,247.82C38.562,247.82 39.882,248.288 40.842,249.224C41.802,250.16 42.282,251.468 42.282,253.148Z" style="fill-rule:nonzero;"/>
    <path d="M29.466,240.656L55.206,240.656L55.206,228.56L52.614,228.56L52.614,237.56L29.466,237.56L29.466,240.656Z" style="fill-rule:nonzero;"/>
    <path d="M29.466,224.42L55.206,224.42L55.206,221.324L29.466,221.324L29.466,224.42Z" style="fill-rule:nonzero;"/>
    <path d="M32.058,211.028L55.206,211.028L55.206,207.932L32.058,207.932L32.058,201.092L29.466,201.092L29.466,217.832L32.058,217.832L32.058,211.028Z" style="fill-rule:nonzero;"/>
    <path d="M53.1,195.764C54.864,194.228 55.746,192.044 55.746,189.212C55.746,186.428 54.84,184.268 53.028,182.732C51.216,181.196 48.642,180.428 45.306,180.428L29.466,180.428L29.466,183.632L45.306,183.632C47.994,183.632 49.962,184.106 51.21,185.054C52.458,186.002 53.082,187.388 53.082,189.212C53.082,192.98 50.49,194.864 45.306,194.864L29.466,194.864L29.466,198.068L45.306,198.068C48.738,198.068 51.336,197.3 53.1,195.764Z" style="fill-rule:nonzero;"/>
    <path d="M29.466,175.136L55.206,175.136L55.206,170.096C55.206,167.672 54.654,165.548 53.55,163.724C52.446,161.9 50.922,160.496 48.978,159.512C47.034,158.528 44.826,158.036 42.354,158.036C39.882,158.036 37.668,158.528 35.712,159.512C33.756,160.496 32.226,161.9 31.122,163.724C30.018,165.548 29.466,167.672 29.466,170.096L29.466,175.136ZM52.614,170.096L52.614,172.04L32.058,172.04L32.058,170.096C32.058,168.272 32.484,166.694 33.336,165.362C34.188,164.03 35.388,163.01 36.936,162.302C38.484,161.594 40.278,161.24 42.318,161.24C44.358,161.24 46.152,161.594 47.7,162.302C49.248,163.01 50.454,164.03 51.318,165.362C52.182,166.694 52.614,168.272 52.614,170.096Z" style="fill-rule:nonzero;"/>
    <path d="M29.466,153.536L55.206,153.536L55.206,140L52.614,140L52.614,150.44L42.966,150.44L42.966,141.152L40.446,141.152L40.446,150.44L32.058,150.44L32.058,140L29.466,140L29.466,153.536Z" style="fill-rule:nonzero;"/>
    <path d="M76.5,101.404L90,92.404L103.5,101.404" style="fill:none;stroke:black;stroke-width:4px;"/>
    <path d="M90,990L90,92.404" style="fill:none;stroke:black;stroke-width:4px;stroke-linejoin:round;stroke-miterlimit:1.5;"/>
    <path d="M1818.6,976.5L1827.6,990L1818.6,1003.5" style="fill:none;stroke:black;stroke-width:4px;"/>
    <path d="M90,990L1827.6,990" style="fill:none;stroke:black;stroke-width:4px;stroke-linejoin:round;stroke-miterlimit:1.5;"/>
    <path d="M90,567C88.896,567 88,566.104 88,565C88,563.896 88.896,563 90,563L94.009,563C95.113,563 96.009,563.896 96.009,565C96.009,566.104 95.113,567 94.009,567L90,567ZM114.055,567C112.951,567 112.055,566.104 112.055,565C112.055,563.896 112.951,563 114.055,563L122.074,563C123.178,563 124.074,563.896 124.074,565C124.074,566.104 123.178,567 122.074,567L114.055,567ZM142.12,567C141.016,567 140.12,566.104 140.12,565C140.12,563.896 141.016,563 142.12,563L150.138,563C151.242,563 152.138,563.896 152.138,565C152.138,566.104 151.242,567 150.138,567L142.12,567ZM170.183,567C169.08,567 168.183,566.104 168.183,565C168.183,563.896 169.08,563 170.183,563L178.202,563C179.306,563 180.202,563.896 180.202,565C180.202,566.104 179.306,567 178.202,567L170.183,567ZM198.248,567C197.144,567 196.248,566.104 196.248,565C196.248,563.896 197.144,563 198.248,563L206.266,563C207.37,563 208.266,563.896 208.266,565C208.266,566.104 207.37,567 206.266,567L198.248,567ZM226.312,567C225.209,567 224.312,566.104 224.312,565C224.312,563.896 225.209,563 226.312,563L234.33,563C235.434,563 236.33,563.896 236.33,565C236.33,566.104 235.434,567 234.33,567L226.312,567ZM254.379,567C253.275,567 252.379,566.104 252.379,565C252.379,563.896 253.275,563 254.379,563L262.397,563C263.501,563 264.397,563.896 264.397,565C264.397,566.104 263.501,567 262.397,567L254.379,567ZM282.442,567C281.338,567 280.442,566.104 280.442,565C280.442,563.896 281.338,563 282.442,563L290.46,563C291.564,563 292.46,563.896 292.46,565C292.46,566.104 291.564,567 290.46,567L282.442,567ZM310.508,567C309.405,567 308.508,566.104 308.508,565C308.508,563.896 309.405,563 310.508,563L318.526,563C319.63,563 320.526,563.896 320.526,565C320.526,566.104 319.63,567 318.526,567L310.508,567ZM338.572,567C337.468,567 336.572,566.104 336.572,565C336.572,563.896 337.468,563 338.572,563L346.589,563C347.693,563 348.589,563.896 348.589,565C348.589,566.104 347.693,567 346.589,567L338.572,567ZM366.638,567C365.534,567 364.638,566.104 364.638,565C364.638,563.896 365.534,563 366.638,563L374.656,563C375.76,563 376.656,563.896 376.656,565C376.656,566.104 375.76,567 374.656,567L366.638,567ZM394.7,567C393.597,567 392.7,566.104 392.7,565C392.7,563.896 393.597,563 394.7,563L402.718,563C403.822,563 404.718,563.896 404.718,565C404.718,566.104 403.822,567 402.718,567L394.7,567ZM422.766,567C421.662,567 420.766,566.104 420.766,565C420.766,563.896 421.662,563 422.766,563L430.783,563C431.887,563 432.783,563.896 432.783,565C432.783,566.104 431.887,567 430.783,567L422.766,567ZM450.828,567C449.724,567 448.828,566.104 448.828,565C448.828,563.896 449.724,563 450.828,563L458.847,563C459.951,563 460.847,563.896 460.847,565C460.847,566.104 459.951,567 458.847,567L450.828,567ZM478.893,567C477.789,567 476.893,566.104 476.893,565C476.893,563.896 477.789,563 478.893,563L486.912,563C488.015,563 488.912,563.896 488.912,565C488.912,566.104 488.015,567 486.912,567L478.893,567ZM506.957,567C505.853,567 504.957,566.104 504.957,565C504.957,563.896 505.853,563 506.957,563L514.976,563C516.08,563 516.976,563.896 516.976,565C516.976,566.104 516.08,567 514.976,567L506.957,567ZM535.025,567C533.921,567 533.025,566.104 533.025,565C533.025,563.896 533.921,563 535.025,563L543.044,563C544.148,563 545.044,563.896 545.044,565C545.044,566.104 544.148,567 543.044,567L535.025,567ZM563.086,567C561.982,567 561.086,566.104 561.086,565C561.086,563.896 561.982,563 563.086,563L571.105,563C572.209,563 573.105,563.896 573.105,565C573.105,566.104 572.209,567 571.105,567L563.086,567ZM591.153,567C590.049,567 589.153,566.104 589.153,565C589.153,563.896 590.049,563 591.153,563L599.172,563C600.275,563 601.172,563.896 601.172,565C601.172,566.104 600.275,567 599.172,567L591.153,567ZM619.216,567C618.112,567 617.216,566.104 617.216,565C617.216,563.896 618.112,563 619.216,563L627.235,563C628.339,563 629.235,563.896 629.235,565C629.235,566.104 628.339,567 627.235,567L619.216,567ZM647.28,567C646.176,567 645.28,566.104 645.28,565C645.28,563.896 646.176,563 647.28,563L655.298,563C656.402,563 657.298,563.896 657.298,565C657.298,566.104 656.402,567 655.298,567L647.28,567ZM675.345,567C674.241,567 673.345,566.104 673.345,565C673.345,563.896 674.241,563 675.345,563L683.362,563C684.466,563 685.362,563.896 685.362,565C685.362,566.104 684.466,567 683.362,567L675.345,567ZM703.409,567C702.305,567 701.409,566.104 701.409,565C701.409,563.896 702.305,563 703.409,563L711.427,563C712.531,563 713.427,563.896 713.427,565C713.427,566.104 712.531,567 711.427,567L703.409,567ZM731.475,567C730.372,567 729.475,566.104 729.475,565C729.475,563.896 730.372,563 731.475,563L739.494,563C740.598,563 741.494,563.896 741.494,565C741.494,566.104 740.598,567 739.494,567L731.475,567ZM759.538,567C758.435,567 757.538,566.104 757.538,565C757.538,563.896 758.435,563 759.538,563L767.558,563C768.661,563 769.558,563.896 769.558,565C769.558,566.104 768.661,567 767.558,567L759.538,567ZM787.603,567C786.5,567 785.603,566.104 785.603,565C785.603,563.896 786.5,563 787.603,563L795.622,563C796.726,563 797.622,563.896 797.622,565C797.622,566.104 796.726,567 795.622,567L787.603,567ZM815.669,567C814.565,567 813.669,566.104 813.669,565C813.669,563.896 814.565,563 815.669,563L823.687,563C824.79,563 825.687,563.896 825.687,565C825.687,566.104 824.79,567 823.687,567L815.669,567ZM843.734,567C842.63,567 841.734,566.104 841.734,565C841.734,563.896 842.63,563 843.734,563L851.752,563C852.856,563 853.752,563.896 853.752,565C853.752,566.104 852.856,567 851.752,567L843.734,567ZM871.8,567C870.696,567 869.8,566.104 869.8,565C869.8,563.896 870.696,563 871.8,563L879.817,563C880.921,563 881.817,563.896 881.817,565C881.817,566.104 880.921,567 879.817,567L871.8,567ZM899.864,567C898.76,567 897.864,566.104 897.864,565C897.864,563.896 898.76,563 899.864,563L907.883,563C908.987,563 909.883,563.896 909.883,565C909.883,566.104 908.987,567 907.883,567L899.864,567ZM927.925,567C926.821,567 925.925,566.104 925.925,565C925.925,563.896 926.821,563 927.925,563L935.943,563C937.047,563 937.943,563.896 937.943,565C937.943,566.104 937.047,567 935.943,567L927.925,567ZM955.99,567C954.886,567 953.99,566.104 953.99,565C953.99,563.896 954.886,563 955.99,563L964.008,563C965.112,563 966.008,563.896 966.008,565C966.008,566.104 965.112,567 964.008,567L955.99,567ZM984.054,567C982.95,567 982.054,566.104 982.054,565C982.054,563.896 982.95,563 984.054,563L992.073,563C993.177,563 994.073,563.896 994.073,565C994.073,566.104 993.177,567 992.073,567L984.054,567ZM1012.12,567C1011.02,567 1010.12,566.104 1010.12,565C1010.12,563.896 1011.02,563 1012.12,563L1020.14,563C1021.24,563 1022.14,563.896 1022.14,565C1022.14,566.104 1021.24,567 1020.14,567L1012.12,567ZM1040.18,567C1039.08,567 1038.18,566.104 1038.18,565C1038.18,563.896 1039.08,563 1040.18,563L1048.2,563C1049.31,563 1050.2,563.896 1050.2,565C1050.2,566.104 1049.31,567 1048.2,567L1040.18,567ZM1068.25,567C1067.14,567 1066.25,566.104 1066.25,565C1066.25,563.896 1067.14,563 1068.25,563L1076.27,563C1077.37,563 1078.27,563.896 1078.27,565C1078.27,566.104 1077.37,567 1076.27,567L1068.25,567ZM1096.31,567C1095.21,567 1094.31,566.104 1094.31,565C1094.31,563.896 1095.21,563 1096.31,563L1104.33,563C1105.43,563 1106.33,563.896 1106.33,565C1106.33,566.104 1105.43,567 1104.33,567L1096.31,567ZM1124.38,567C1123.28,567 1122.38,566.104 1122.38,565C1122.38,563.896 1123.28,563 1124.38,563L1132.4,563C1133.5,563 1134.4,563.896 1134.4,565C1134.4,566.104 1133.5,567 1132.4,567L1124.38,567ZM1152.44,567C1151.34,567 1150.44,566.104 1150.44,565C1150.44,563.896 1151.34,563 1152.44,563L1160.46,563C1161.56,563 1162.46,563.896 1162.46,565C1162.46,566.104 1161.56,567 1160.46,567L1152.44,567ZM1180.51,567C1179.4,567 1178.51,566.104 1178.51,565C1178.51,563.896 1179.4,563 1180.51,563L1188.53,563C1189.63,563 1190.53,563.896 1190.53,565C1190.53,566.104 1189.63,567 1188.53,567L1180.51,567ZM1208.57,567C1207.47,567 1206.57,566.104 1206.57,565C1206.57,563.896 1207.47,563 1208.57,563L1216.59,563C1217.69,563 1218.59,563.896 1218.59,565C1218.59,566.104 1217.69,567 1216.59,567L1208.57,567ZM1236.63,567C1235.53,567 1234.63,566.104 1234.63,565C1234.63,563.896 1235.53,563 1236.63,563L1244.65,563C1245.76,563 1246.65,563.896 1246.65,565C1246.65,566.104 1245.76,567 1244.65,567L1236.63,567ZM1264.7,567C1263.6,567 1262.7,566.104 1262.7,565C1262.7,563.896 1263.6,563 1264.7,563L1272.72,563C1273.82,563 1274.72,563.896 1274.72,565C1274.72,566.104 1273.82,567 1272.72,567L1264.7,567ZM1292.76,567C1291.66,567 1290.76,566.104 1290.76,565C1290.76,563.896 1291.66,563 1292.76,563L1300.78,563C1301.89,563 1302.78,563.896 1302.78,565C1302.78,566.104 1301.89,567 1300.78,567L1292.76,567ZM1320.83,567C1319.72,567 1318.83,566.104 1318.83,565C1318.83,563.896 1319.72,563 1320.83,563L1328.85,563C1329.95,563 1330.85,563.896 1330.85,565C1330.85,566.104 1329.95,567 1328.85,567L1320.83,567ZM1348.89,567C1347.79,567 1346.89,566.104 1346.89,565C1346.89,563.896 1347.79,563 1348.89,563L1356.91,563C1358.02,563 1358.91,563.896 1358.91,565C1358.91,566.104 1358.02,567 1356.91,567L1348.89,567ZM1376.96,567C1375.86,567 1374.96,566.104 1374.96,565C1374.96,563.896 1375.86,563 1376.96,563L1384.98,563C1386.08,563 1386.98,563.896 1386.98,565C1386.98,566.104 1386.08,567 1384.98,567L1376.96,567ZM1405.02,567C1403.92,567 1403.02,566.104 1403.02,565C1403.02,563.896 1403.92,563 1405.02,563L1413.04,563C1414.15,563 1415.04,563.896 1415.04,565C1415.04,566.104 1414.15,567 1413.04,567L1405.02,567ZM1433.09,567C1431.98,567 1431.09,566.104 1431.09,565C1431.09,563.896 1431.98,563 1433.09,563L1441.1,563C1442.21,563 1443.1,563.896 1443.1,565C1443.1,566.104 1442.21,567 1441.1,567L1433.09,567ZM1461.15,567C1460.05,567 1459.15,566.104 1459.15,565C1459.15,563.896 1460.05,563 1461.15,563L1469.17,563C1470.27,563 1471.17,563.896 1471.17,565C1471.17,566.104 1470.27,567 1469.17,567L1461.15,567ZM1489.22,567C1488.11,567 1487.22,566.104 1487.22,565C1487.22,563.896 1488.11,563 1489.22,563L1497.24,563C1498.34,563 1499.24,563.896 1499.24,565C1499.24,566.104 1498.34,567 1497.24,567L1489.22,567ZM1517.28,567C1516.18,567 1515.28,566.104 1515.28,565C1515.28,563.896 1516.18,563 1517.28,563L1525.3,563C1526.4,563 1527.3,563.896 1527.3,565C1527.3,566.104 1526.4,567 1525.3,567L1517.28,567ZM1545.35,567C1544.24,567 1543.35,566.104 1543.35,565C1543.35,563.896 1544.24,563 1545.35,563L1553.37,563C1554.47,563 1555.37,563.896 1555.37,565C1555.37,566.104 1554.47,567 1553.37,567L1545.35,567ZM1573.41,567C1572.31,567 1571.41,566.104 1571.41,565C1571.41,563.896 1572.31,563 1573.41,563L1581.43,563C1582.53,563 1583.43,563.896 1583.43,565C1583.43,566.104 1582.53,567 1581.43,567L1573.41,567ZM1601.48,567C1600.37,567 1599.48,566.104 1599.48,565C1599.48,563.896 1600.37,563 1601.48,563L1609.5,563C1610.6,563 1611.5,563.896 1611.5,565C1611.5,566.104 1610.6,567 1609.5,567L1601.48,567ZM1629.54,567C1628.43,567 1627.54,566.104 1627.54,565C1627.54,563.896 1628.43,563 1629.54,563L1637.56,563C1638.66,563 1639.56,563.896 1639.56,565C1639.56,566.104 1638.66,567 1637.56,567L1629.54,567ZM1657.6,567C1656.5,567 1655.6,566.104 1655.6,565C1655.6,563.896 1656.5,563 1657.6,563L1665.62,563C1666.73,563 1667.62,563.896 1667.62,565C1667.62,566.104 1666.73,567 1665.62,567L1657.6,567ZM1685.67,567C1684.57,567 1683.67,566.104 1683.67,565C1683.67,563.896 1684.57,563 1685.67,563L1693.69,563C1694.79,563 1695.69,563.896 1695.69,565C1695.69,566.104 1694.79,567 1693.69,567L1685.67,567ZM1713.73,567C1712.63,567 1711.73,566.104 1711.73,565C1711.73,563.896 1712.63,563 1713.73,563L1721.75,563C1722.85,563 1723.75,563.896 1723.75,565C1723.75,566.104 1722.85,567 1721.75,567L1713.73,567ZM1741.8,567C1740.69,567 1739.8,566.104 1739.8,565C1739.8,563.896 1740.69,563 1741.8,563L1749.82,563C1750.92,563 1751.82,563.896 1751.82,565C1751.82,566.104 1750.92,567 1749.82,567L1741.8,567ZM1769.86,567C1768.76,567 1767.86,566.104 1767.86,565C1767.86,563.896 1768.76,563 1769.86,563L1777.88,563C1778.98,563 1779.88,563.896 1779.88,565C1779.88,566.104 1778.98,567 1777.88,567L1769.86,567ZM1797.93,567C1796.82,567 1795.93,566.104 1795.93,565C1795.93,563.896 1796.82,563 1797.93,563L1805.94,563C1807.05,563 1807.94,563.896 1807.94,565C1807.94,566.104 1807.05,567 1805.94,567L1797.93,567ZM1825.99,567C1824.89,567 1823.99,566.104 1823.99,565C1823.99,563.896 1824.89,563 1825.99,563L1830,563C1831.1,563 1832,563.896 1832,565C1832,566.104 1831.1,567 1830,567L1825.99,567Z"/>
    <path d="M90,140L500,140L500,990L910,990L910,140L1320,140L1320,990L1730,990" style="fill:none;stroke:black;stroke-width:8px;stroke-linejoin:round;stroke-miterlimit:1.5;"/>
</svg>
