<?xml version="1.0" encoding="UTF-8" standalone="no"?>
<!DOCTYPE svg PUBLIC "-//W3C//DTD SVG 1.1//EN" "http://www.w3.org/Graphics/SVG/1.1/DTD/svg11.dtd">
<svg width="100%" height="100%" viewBox="0 0 1920 705" version="1.1" xmlns="http://www.w3.org/2000/svg" xmlns:xlink="http://www.w3.org/1999/xlink" xml:space="preserve" xmlns:serif="http://www.serif.com/" style="fill-rule:evenodd;clip-rule:evenodd;stroke-linecap:round;stroke-miterlimit:10;">
    <path d="M1767.47,649.722L1767.47,672.87L1770.56,672.87L1770.56,649.722L1777.4,649.722L1777.4,647.13L1760.66,647.13L1760.66,649.722L1767.47,649.722Z" style="fill-rule:nonzero;"/>
    <rect x="1780.9" y="647.13" width="3.096" height="25.74" style="fill-rule:nonzero;"/>
    <path d="M1811.06,647.13L1806.6,647.13L1800.41,669.99L1794.22,647.13L1789.75,647.13L1789.75,672.87L1792.81,672.87L1792.81,652.026L1798.64,672.87L1802.17,672.87L1808,652.026L1808,672.87L1811.06,672.87L1811.06,647.13Z" style="fill-rule:nonzero;"/>
    <path d="M1816.46,647.13L1816.46,672.87L1830,672.87L1830,670.278L1819.56,670.278L1819.56,660.63L1828.85,660.63L1828.85,658.11L1819.56,658.11L1819.56,649.722L1830,649.722L1830,647.13L1816.46,647.13Z" style="fill-rule:nonzero;"/>
    <path d="M47.466,345.052L55.206,342.892L55.206,339.76L29.466,347.176L29.466,351.1L55.206,358.516L55.206,355.384L47.466,353.224L47.466,345.052ZM44.874,345.772L44.874,352.504L32.742,349.12L44.874,345.772Z" style="fill-rule:nonzero;"/>
    <path d="M29.466,315.388L29.466,319.852L52.326,326.044L29.466,332.236L29.466,336.7L55.206,336.7L55.206,333.64L34.362,333.64L55.206,327.808L55.206,324.28L34.362,318.448L55.206,318.448L55.206,315.388L29.466,315.388Z" style="fill-rule:nonzero;"/>
    <path d="M29.466,309.988L55.206,309.988L55.206,306.892L44.874,306.892L44.874,303.004C44.874,301.468 44.538,300.058 43.866,298.774C43.194,297.49 42.252,296.476 41.04,295.732C39.828,294.988 38.442,294.616 36.882,294.616C34.41,294.616 32.556,295.39 31.32,296.938C30.084,298.486 29.466,300.508 29.466,303.004L29.466,309.988ZM42.282,303.148L42.282,306.892L32.058,306.892L32.058,303.148C32.058,301.444 32.472,300.13 33.3,299.206C34.128,298.282 35.322,297.82 36.882,297.82C38.562,297.82 39.882,298.288 40.842,299.224C41.802,300.16 42.282,301.468 42.282,303.148Z" style="fill-rule:nonzero;"/>
    <path d="M29.466,290.656L55.206,290.656L55.206,278.56L52.614,278.56L52.614,287.56L29.466,287.56L29.466,290.656Z" style="fill-rule:nonzero;"/>
    <path d="M29.466,274.42L55.206,274.42L55.206,271.324L29.466,271.324L29.466,274.42Z" style="fill-rule:nonzero;"/>
    <path d="M32.058,261.028L55.206,261.028L55.206,257.932L32.058,257.932L32.058,251.092L29.466,251.092L29.466,267.832L32.058,267.832L32.058,261.028Z" style="fill-rule:nonzero;"/>
    <path d="M53.1,245.764C54.864,244.228 55.746,242.044 55.746,239.212C55.746,236.428 54.84,234.268 53.028,232.732C51.216,231.196 48.642,230.428 45.306,230.428L29.466,230.428L29.466,233.632L45.306,233.632C47.994,233.632 49.962,234.106 51.21,235.054C52.458,236.002 53.082,237.388 53.082,239.212C53.082,242.98 50.49,244.864 45.306,244.864L29.466,244.864L29.466,248.068L45.306,248.068C48.738,248.068 51.336,247.3 53.1,245.764Z" style="fill-rule:nonzero;"/>
    <path d="M29.466,225.136L55.206,225.136L55.206,220.096C55.206,217.672 54.654,215.548 53.55,213.724C52.446,211.9 50.922,210.496 48.978,209.512C47.034,208.528 44.826,208.036 42.354,208.036C39.882,208.036 37.668,208.528 35.712,209.512C33.756,210.496 32.226,211.9 31.122,213.724C30.018,215.548 29.466,217.672 29.466,220.096L29.466,225.136ZM52.614,220.096L52.614,222.04L32.058,222.04L32.058,220.096C32.058,218.272 32.484,216.694 33.336,215.362C34.188,214.03 35.388,213.01 36.936,212.302C38.484,211.594 40.278,211.24 42.318,211.24C44.358,211.24 46.152,211.594 47.7,212.302C49.248,213.01 50.454,214.03 51.318,215.362C52.182,216.694 52.614,218.272 52.614,220.096Z" style="fill-rule:nonzero;"/>
    <path d="M29.466,203.536L55.206,203.536L55.206,190L52.614,190L52.614,200.44L42.966,200.44L42.966,191.152L40.446,191.152L40.446,200.44L32.058,200.44L32.058,190L29.466,190L29.466,203.536Z" style="fill-rule:nonzero;"/>
    <path d="M76.5,101.404L90,92.404L103.5,101.404" style="fill:none;stroke:black;stroke-width:4px;"/>
    <path d="M90,615L90,92.404" style="fill:none;stroke:black;stroke-width:4px;stroke-linejoin:round;stroke-miterlimit:1.5;"/>
    <path d="M1818.6,601.5L1827.6,615L1818.6,628.5" style="fill:none;stroke:black;stroke-width:4px;"/>
    <path d="M90,615L1827.6,615" style="fill:none;stroke:black;stroke-width:4px;stroke-linejoin:round;stroke-miterlimit:1.5;"/>
    <path d="M90,404.5C88.896,404.5 88,403.604 88,402.5C88,401.396 88.896,400.5 90,400.5L94.009,400.5C95.113,400.5 96.009,401.396 96.009,402.5C96.009,403.604 95.113,404.5 94.009,404.5L90,404.5ZM114.055,404.5C112.951,404.5 112.055,403.604 112.055,402.5C112.055,401.396 112.951,400.5 114.055,400.5L122.074,400.5C123.178,400.5 124.074,401.396 124.074,402.5C124.074,403.604 123.178,404.5 122.074,404.5L114.055,404.5ZM142.12,404.5C141.016,404.5 140.12,403.604 140.12,402.5C140.12,401.396 141.016,400.5 142.12,400.5L150.138,400.5C151.242,400.5 152.138,401.396 152.138,402.5C152.138,403.604 151.242,404.5 150.138,404.5L142.12,404.5ZM170.183,404.5C169.08,404.5 168.183,403.604 168.183,402.5C168.183,401.396 169.08,400.5 170.183,400.5L178.202,400.5C179.306,400.5 180.202,401.396 180.202,402.5C180.202,403.604 179.306,404.5 178.202,404.5L170.183,404.5ZM198.248,404.5C197.144,404.5 196.248,403.604 196.248,402.5C196.248,401.396 197.144,400.5 198.248,400.5L206.266,400.5C207.37,400.5 208.266,401.396 208.266,402.5C208.266,403.604 207.37,404.5 206.266,404.5L198.248,404.5ZM226.312,404.5C225.209,404.5 224.312,403.604 224.312,402.5C224.312,401.396 225.209,400.5 226.312,400.5L234.33,400.5C235.434,400.5 236.33,401.396 236.33,402.5C236.33,403.604 235.434,404.5 234.33,404.5L226.312,404.5ZM254.379,404.5C253.275,404.5 252.379,403.604 252.379,402.5C252.379,401.396 253.275,400.5 254.379,400.5L262.397,400.5C263.501,400.5 264.397,401.396 264.397,402.5C264.397,403.604 263.501,404.5 262.397,404.5L254.379,404.5ZM282.442,404.5C281.338,404.5 280.442,403.604 280.442,402.5C280.442,401.396 281.338,400.5 282.442,400.5L290.46,400.5C291.564,400.5 292.46,401.396 292.46,402.5C292.46,403.604 291.564,404.5 290.46,404.5L282.442,404.5ZM310.508,404.5C309.405,404.5 308.508,403.604 308.508,402.5C308.508,401.396 309.405,400.5 310.508,400.5L318.526,400.5C319.63,400.5 320.526,401.396 320.526,402.5C320.526,403.604 319.63,404.5 318.526,404.5L310.508,404.5ZM338.572,404.5C337.468,404.5 336.572,403.604 336.572,402.5C336.572,401.396 337.468,400.5 338.572,400.5L346.589,400.5C347.693,400.5 348.589,401.396 348.589,402.5C348.589,403.604 347.693,404.5 346.589,404.5L338.572,404.5ZM366.638,404.5C365.534,404.5 364.638,403.604 364.638,402.5C364.638,401.396 365.534,400.5 366.638,400.5L374.656,400.5C375.76,400.5 376.656,401.396 376.656,402.5C376.656,403.604 375.76,404.5 374.656,404.5L366.638,404.5ZM394.7,404.5C393.597,404.5 392.7,403.604 392.7,402.5C392.7,401.396 393.597,400.5 394.7,400.5L402.718,400.5C403.822,400.5 404.718,401.396 404.718,402.5C404.718,403.604 403.822,404.5 402.718,404.5L394.7,404.5ZM422.766,404.5C421.662,404.5 420.766,403.604 420.766,402.5C420.766,401.396 421.662,400.5 422.766,400.5L430.783,400.5C431.887,400.5 432.783,401.396 432.783,402.5C432.783,403.604 431.887,404.5 430.783,404.5L422.766,404.5ZM450.828,404.5C449.724,404.5 448.828,403.604 448.828,402.5C448.828,401.396 449.724,400.5 450.828,400.5L458.847,400.5C459.951,400.5 460.847,401.396 460.847,402.5C460.847,403.604 459.951,404.5 458.847,404.5L450.828,404.5ZM478.893,404.5C477.789,404.5 476.893,403.604 476.893,402.5C476.893,401.396 477.789,400.5 478.893,400.5L486.912,400.5C488.015,400.5 488.912,401.396 488.912,402.5C488.912,403.604 488.015,404.5 486.912,404.5L478.893,404.5ZM506.957,404.5C505.853,404.5 504.957,403.604 504.957,402.5C504.957,401.396 505.853,400.5 506.957,400.5L514.976,400.5C516.08,400.5 516.976,401.396 516.976,402.5C516.976,403.604 516.08,404.5 514.976,404.5L506.957,404.5ZM535.025,404.5C533.921,404.5 533.025,403.604 533.025,402.5C533.025,401.396 533.921,400.5 535.025,400.5L543.044,400.5C544.148,400.5 545.044,401.396 545.044,402.5C545.044,403.604 544.148,404.5 543.044,404.5L535.025,404.5ZM563.086,404.5C561.982,404.5 561.086,403.604 561.086,402.5C561.086,401.396 561.982,400.5 563.086,400.5L571.105,400.5C572.209,400.5 573.105,401.396 573.105,402.5C573.105,403.604 572.209,404.5 571.105,404.5L563.086,404.5ZM591.153,404.5C590.049,404.5 589.153,403.604 589.153,402.5C589.153,401.396 590.049,400.5 591.153,400.5L599.172,400.5C600.275,400.5 601.172,401.396 601.172,402.5C601.172,403.604 600.275,404.5 599.172,404.5L591.153,404.5ZM619.216,404.5C618.112,404.5 617.216,403.604 617.216,402.5C617.216,401.396 618.112,400.5 619.216,400.5L627.235,400.5C628.339,400.5 629.235,401.396 629.235,402.5C629.235,403.604 628.339,404.5 627.235,404.5L619.216,404.5ZM647.28,404.5C646.176,404.5 645.28,403.604 645.28,402.5C645.28,401.396 646.176,400.5 647.28,400.5L655.298,400.5C656.402,400.5 657.298,401.396 657.298,402.5C657.298,403.604 656.402,404.5 655.298,404.5L647.28,404.5ZM675.345,404.5C674.241,404.5 673.345,403.604 673.345,402.5C673.345,401.396 674.241,400.5 675.345,400.5L683.362,400.5C684.466,400.5 685.362,401.396 685.362,402.5C685.362,403.604 684.466,404.5 683.362,404.5L675.345,404.5ZM703.409,404.5C702.305,404.5 701.409,403.604 701.409,402.5C701.409,401.396 702.305,400.5 703.409,400.5L711.427,400.5C712.531,400.5 713.427,401.396 713.427,402.5C713.427,403.604 712.531,404.5 711.427,404.5L703.409,404.5ZM731.475,404.5C730.372,404.5 729.475,403.604 729.475,402.5C729.475,401.396 730.372,400.5 731.475,400.5L739.494,400.5C740.598,400.5 741.494,401.396 741.494,402.5C741.494,403.604 740.598,404.5 739.494,404.5L731.475,404.5ZM759.538,404.5C758.435,404.5 757.538,403.604 757.538,402.5C757.538,401.396 758.435,400.5 759.538,400.5L767.558,400.5C768.661,400.5 769.558,401.396 769.558,402.5C769.558,403.604 768.661,404.5 767.558,404.5L759.538,404.5ZM787.603,404.5C786.5,404.5 785.603,403.604 785.603,402.5C785.603,401.396 786.5,400.5 787.603,400.5L795.622,400.5C796.726,400.5 797.622,401.396 797.622,402.5C797.622,403.604 796.726,404.5 795.622,404.5L787.603,404.5ZM815.669,404.5C814.565,404.5 813.669,403.604 813.669,402.5C813.669,401.396 814.565,400.5 815.669,400.5L823.687,400.5C824.79,400.5 825.687,401.396 825.687,402.5C825.687,403.604 824.79,404.5 823.687,404.5L815.669,404.5ZM843.734,404.5C842.63,404.5 841.734,403.604 841.734,402.5C841.734,401.396 842.63,400.5 843.734,400.5L851.752,400.5C852.856,400.5 853.752,401.396 853.752,402.5C853.752,403.604 852.856,404.5 851.752,404.5L843.734,404.5ZM871.8,404.5C870.696,404.5 869.8,403.604 869.8,402.5C869.8,401.396 870.696,400.5 871.8,400.5L879.817,400.5C880.921,400.5 881.817,401.396 881.817,402.5C881.817,403.604 880.921,404.5 879.817,404.5L871.8,404.5ZM899.864,404.5C898.76,404.5 897.864,403.604 897.864,402.5C897.864,401.396 898.76,400.5 899.864,400.5L907.883,400.5C908.987,400.5 909.883,401.396 909.883,402.5C909.883,403.604 908.987,404.5 907.883,404.5L899.864,404.5ZM927.925,404.5C926.821,404.5 925.925,403.604 925.925,402.5C925.925,401.396 926.821,400.5 927.925,400.5L935.943,400.5C937.047,400.5 937.943,401.396 937.943,402.5C937.943,403.604 937.047,404.5 935.943,404.5L927.925,404.5ZM955.99,404.5C954.886,404.5 953.99,403.604 953.99,402.5C953.99,401.396 954.886,400.5 955.99,400.5L964.008,400.5C965.112,400.5 966.008,401.396 966.008,402.5C966.008,403.604 965.112,404.5 964.008,404.5L955.99,404.5ZM984.054,404.5C982.95,404.5 982.054,403.604 982.054,402.5C982.054,401.396 982.95,400.5 984.054,400.5L992.073,400.5C993.177,400.5 994.073,401.396 994.073,402.5C994.073,403.604 993.177,404.5 992.073,404.5L984.054,404.5ZM1012.12,404.5C1011.02,404.5 1010.12,403.604 1010.12,402.5C1010.12,401.396 1011.02,400.5 1012.12,400.5L1020.14,400.5C1021.24,400.5 1022.14,401.396 1022.14,402.5C1022.14,403.604 1021.24,404.5 1020.14,404.5L1012.12,404.5ZM1040.18,404.5C1039.08,404.5 1038.18,403.604 1038.18,402.5C1038.18,401.396 1039.08,400.5 1040.18,400.5L1048.2,400.5C1049.31,400.5 1050.2,401.396 1050.2,402.5C1050.2,403.604 1049.31,404.5 1048.2,404.5L1040.18,404.5ZM1068.25,404.5C1067.14,404.5 1066.25,403.604 1066.25,402.5C1066.25,401.396 1067.14,400.5 1068.25,400.5L1076.27,400.5C1077.37,400.5 1078.27,401.396 1078.27,402.5C1078.27,403.604 1077.37,404.5 1076.27,404.5L1068.25,404.5ZM1096.31,404.5C1095.21,404.5 1094.31,403.604 1094.31,402.5C1094.31,401.396 1095.21,400.5 1096.31,400.5L1104.33,400.5C1105.43,400.5 1106.33,401.396 1106.33,402.5C1106.33,403.604 1105.43,404.5 1104.33,404.5L1096.31,404.5ZM1124.38,404.5C1123.28,404.5 1122.38,403.604 1122.38,402.5C1122.38,401.396 1123.28,400.5 1124.38,400.5L1132.4,400.5C1133.5,400.5 1134.4,401.396 1134.4,402.5C1134.4,403.604 1133.5,404.5 1132.4,404.5L1124.38,404.5ZM1152.44,404.5C1151.34,404.5 1150.44,403.604 1150.44,402.5C1150.44,401.396 1151.34,400.5 1152.44,400.5L1160.46,400.5C1161.56,400.5 1162.46,401.396 1162.46,402.5C1162.46,403.604 1161.56,404.5 1160.46,404.5L1152.44,404.5ZM1180.51,404.5C1179.4,404.5 1178.51,403.604 1178.51,402.5C1178.51,401.396 1179.4,400.5 1180.51,400.5L1188.53,400.5C1189.63,400.5 1190.53,401.396 1190.53,402.5C1190.53,403.604 1189.63,404.5 1188.53,404.5L1180.51,404.5ZM1208.57,404.5C1207.47,404.5 1206.57,403.604 1206.57,402.5C1206.57,401.396 1207.47,400.5 1208.57,400.5L1216.59,400.5C1217.69,400.5 1218.59,401.396 1218.59,402.5C1218.59,403.604 1217.69,404.5 1216.59,404.5L1208.57,404.5ZM1236.63,404.5C1235.53,404.5 1234.63,403.604 1234.63,402.5C1234.63,401.396 1235.53,400.5 1236.63,400.5L1244.65,400.5C1245.76,400.5 1246.65,401.396 1246.65,402.5C1246.65,403.604 1245.76,404.5 1244.65,404.5L1236.63,404.5ZM1264.7,404.5C1263.6,404.5 1262.7,403.604 1262.7,402.5C1262.7,401.396 1263.6,400.5 1264.7,400.5L1272.72,400.5C1273.82,400.5 1274.72,401.396 1274.72,402.5C1274.72,403.604 1273.82,404.5 1272.72,404.5L1264.7,404.5ZM1292.76,404.5C1291.66,404.5 1290.76,403.604 1290.76,402.5C1290.76,401.396 1291.66,400.5 1292.76,400.5L1300.78,400.5C1301.89,400.5 1302.78,401.396 1302.78,402.5C1302.78,403.604 1301.89,404.5 1300.78,404.5L1292.76,404.5ZM1320.83,404.5C1319.72,404.5 1318.83,403.604 1318.83,402.5C1318.83,401.396 1319.72,400.5 1320.83,400.5L1328.85,400.5C1329.95,400.5 1330.85,401.396 1330.85,402.5C1330.85,403.604 1329.95,404.5 1328.85,404.5L1320.83,404.5ZM1348.89,404.5C1347.79,404.5 1346.89,403.604 1346.89,402.5C1346.89,401.396 1347.79,400.5 1348.89,400.5L1356.91,400.5C1358.02,400.5 1358.91,401.396 1358.91,402.5C1358.91,403.604 1358.02,404.5 1356.91,404.5L1348.89,404.5ZM1376.96,404.5C1375.86,404.5 1374.96,403.604 1374.96,402.5C1374.96,401.396 1375.86,400.5 1376.96,400.5L1384.98,400.5C1386.08,400.5 1386.98,401.396 1386.98,402.5C1386.98,403.604 1386.08,404.5 1384.98,404.5L1376.96,404.5ZM1405.02,404.5C1403.92,404.5 1403.02,403.604 1403.02,402.5C1403.02,401.396 1403.92,400.5 1405.02,400.5L1413.04,400.5C1414.15,400.5 1415.04,401.396 1415.04,402.5C1415.04,403.604 1414.15,404.5 1413.04,404.5L1405.02,404.5ZM1433.09,404.5C1431.98,404.5 1431.09,403.604 1431.09,402.5C1431.09,401.396 1431.98,400.5 1433.09,400.5L1441.1,400.5C1442.21,400.5 1443.1,401.396 1443.1,402.5C1443.1,403.604 1442.21,404.5 1441.1,404.5L1433.09,404.5ZM1461.15,404.5C1460.05,404.5 1459.15,403.604 1459.15,402.5C1459.15,401.396 1460.05,400.5 1461.15,400.5L1469.17,400.5C1470.27,400.5 1471.17,401.396 1471.17,402.5C1471.17,403.604 1470.27,404.5 1469.17,404.5L1461.15,404.5ZM1489.22,404.5C1488.11,404.5 1487.22,403.604 1487.22,402.5C1487.22,401.396 1488.11,400.5 1489.22,400.5L1497.24,400.5C1498.34,400.5 1499.24,401.396 1499.24,402.5C1499.24,403.604 1498.34,404.5 1497.24,404.5L1489.22,404.5ZM1517.28,404.5C1516.18,404.5 1515.28,403.604 1515.28,402.5C1515.28,401.396 1516.18,400.5 1517.28,400.5L1525.3,400.5C1526.4,400.5 1527.3,401.396 1527.3,402.5C1527.3,403.604 1526.4,404.5 1525.3,404.5L1517.28,404.5ZM1545.35,404.5C1544.24,404.5 1543.35,403.604 1543.35,402.5C1543.35,401.396 1544.24,400.5 1545.35,400.5L1553.37,400.5C1554.47,400.5 1555.37,401.396 1555.37,402.5C1555.37,403.604 1554.47,404.5 1553.37,404.5L1545.35,404.5ZM1573.41,404.5C1572.31,404.5 1571.41,403.604 1571.41,402.5C1571.41,401.396 1572.31,400.5 1573.41,400.5L1581.43,400.5C1582.53,400.5 1583.43,401.396 1583.43,402.5C1583.43,403.604 1582.53,404.5 1581.43,404.5L1573.41,404.5ZM1601.48,404.5C1600.37,404.5 1599.48,403.604 1599.48,402.5C1599.48,401.396 1600.37,400.5 1601.48,400.5L1609.5,400.5C1610.6,400.5 1611.5,401.396 1611.5,402.5C1611.5,403.604 1610.6,404.5 1609.5,404.5L1601.48,404.5ZM1629.54,404.5C1628.43,404.5 1627.54,403.604 1627.54,402.5C1627.54,401.396 1628.43,400.5 1629.54,400.5L1637.56,400.5C1638.66,400.5 1639.56,401.396 1639.56,402.5C1639.56,403.604 1638.66,404.5 1637.56,404.5L1629.54,404.5ZM1657.6,404.5C1656.5,404.5 1655.6,403.604 1655.6,402.5C1655.6,401.396 1656.5,400.5 1657.6,400.5L1665.62,400.5C1666.73,400.5 1667.62,401.396 1667.62,402.5C1667.62,403.604 1666.73,404.5 1665.62,404.5L1657.6,404.5ZM1685.67,404.5C1684.57,404.5 1683.67,403.604 1683.67,402.5C1683.67,401.396 1684.57,400.5 1685.67,400.5L1693.69,400.5C1694.79,400.5 1695.69,401.396 1695.69,402.5C1695.69,403.604 1694.79,404.5 1693.69,404.5L1685.67,404.5ZM1713.73,404.5C1712.63,404.5 1711.73,403.604 1711.73,402.5C1711.73,401.396 1712.63,400.5 1713.73,400.5L1721.75,400.5C1722.85,400.5 1723.75,401.396 1723.75,402.5C1723.75,403.604 1722.85,404.5 1721.75,404.5L1713.73,404.5ZM1741.8,404.5C1740.69,404.5 1739.8,403.604 1739.8,402.5C1739.8,401.396 1740.69,400.5 1741.8,400.5L1749.82,400.5C1750.92,400.5 1751.82,401.396 1751.82,402.5C1751.82,403.604 1750.92,404.5 1749.82,404.5L1741.8,404.5ZM1769.86,404.5C1768.76,404.5 1767.86,403.604 1767.86,402.5C1767.86,401.396 1768.76,400.5 1769.86,400.5L1777.88,400.5C1778.98,400.5 1779.88,401.396 1779.88,402.5C1779.88,403.604 1778.98,404.5 1777.88,404.5L1769.86,404.5ZM1797.93,404.5C1796.82,404.5 1795.93,403.604 1795.93,402.5C1795.93,401.396 1796.82,400.5 1797.93,400.5L1805.94,400.5C1807.05,400.5 1807.94,401.396 1807.94,402.5C1807.94,403.604 1807.05,404.5 1805.94,404.5L1797.93,404.5ZM1825.99,404.5C1824.89,404.5 1823.99,403.604 1823.99,402.5C1823.99,401.396 1824.89,400.5 1825.99,400.5L1830,400.5C1831.1,400.5 1832,401.396 1832,402.5C1832,403.604 1831.1,404.5 1830,404.5L1825.99,404.5Z"/>
    <path d="M90,190L500,190L500,615L910,615L910,190L1320,190L1320,615L1730,615" style="fill:none;stroke:black;stroke-width:8px;stroke-linejoin:round;stroke-miterlimit:1.5;"/>
</svg>
