<?xml version="1.0" encoding="UTF-8" standalone="no"?>
<!DOCTYPE svg PUBLIC "-//W3C//DTD SVG 1.1//EN" "http://www.w3.org/Graphics/SVG/1.1/DTD/svg11.dtd">
<svg width="100%" height="100%" viewBox="0 0 372 774" version="1.1" xmlns="http://www.w3.org/2000/svg" xmlns:xlink="http://www.w3.org/1999/xlink" xml:space="preserve" xmlns:serif="http://www.serif.com/" style="fill-rule:evenodd;clip-rule:evenodd;stroke-miterlimit:10;">
    <rect x="0" y="519.687" width="371.458" height="253.95" style="fill:white;"/>
    <rect x="0" y="0" width="371.458" height="507.875" style="fill:white;"/>
    <path d="M127.461,364.526C188.532,398.989 265.978,377.426 300.44,316.355C334.907,255.289 313.34,177.843 252.274,143.376C191.203,108.914 113.757,130.48 79.295,191.547C44.828,252.614 66.395,330.06 127.461,364.526" style="fill:white;fill-rule:nonzero;"/>
    <path d="M127.462,364.527C188.49,398.97 266.001,377.386 300.444,316.358C334.886,255.33 313.303,177.82 252.275,143.377C191.247,108.934 113.736,130.517 79.293,191.545C44.85,252.573 66.434,330.084 127.462,364.527Z" style="fill:none;stroke:black;stroke-width:2.08px;"/>
    <path d="M149.574,312.789L102.862,285.939C100.891,284.805 99.432,282.96 98.787,280.785C98.328,279.243 97.907,277.693 97.528,276.13C85.187,225.297 116.391,174.085 167.224,161.747C218.057,149.405 269.27,180.61 281.607,231.443C293.949,282.272 262.745,333.485 211.912,345.826C209.707,346.364 207.382,346.03 205.412,344.901L159.766,318.651" style="fill:white;fill-rule:nonzero;stroke:black;stroke-width:2.08px;"/>
    <path d="M131.825,344.142C133.421,341.313 137.004,340.317 139.833,341.913C142.663,343.509 143.658,347.092 142.063,349.922L142.067,349.917L174.238,292.913C175.833,290.084 174.833,286.501 172.008,284.905C169.179,283.309 165.592,284.309 164,287.134L131.825,344.142Z" style="fill-rule:nonzero;stroke:black;stroke-width:2.08px;"/>
    <path d="M129.147,348.885L131.827,344.139C133.422,341.314 137.006,340.314 139.831,341.91C142.66,343.506 143.66,347.089 142.064,349.918L139.389,354.664C192.702,381.239 258.077,361.635 287.693,309.16C318.277,254.968 299.139,186.247 244.947,155.66C190.756,125.077 122.031,144.214 91.447,198.406C61.831,250.881 78.839,316.981 129.147,348.885Z" style="fill:none;fill-rule:nonzero;stroke:black;stroke-width:4.17px;stroke-linecap:round;stroke-linejoin:round;"/>
    <path d="M245.08,596.459L132.875,596.459C106.784,596.459 85.63,617.609 85.63,643.705C85.63,669.797 106.784,690.947 132.875,690.947L245.08,690.947C271.171,690.947 292.325,669.797 292.325,643.705C292.325,617.609 271.171,596.459 245.08,596.459Z" style="fill:none;fill-rule:nonzero;stroke:black;stroke-width:2.08px;"/>
    <path d="M224.385,643.701C224.385,624.145 208.507,608.267 188.951,608.267C169.395,608.267 153.518,624.145 153.518,643.701C153.518,663.257 169.395,679.134 188.951,679.134C208.507,679.134 224.385,663.257 224.385,643.701Z" style="fill:none;stroke:black;stroke-width:4.17px;"/>
    <path d="M194.857,661.417C194.857,664.68 192.211,667.322 188.953,667.322C185.69,667.322 183.045,664.68 183.045,661.417L183.045,625.984C183.045,622.722 185.69,620.08 188.953,620.08C192.211,620.08 194.857,622.722 194.857,625.984L194.857,661.417Z" style="fill-rule:nonzero;stroke:black;stroke-width:2.08px;"/>
    <path d="M90.376,726.174C93.317,726.174 95.005,724.39 95.005,721.482C95.005,718.732 93.317,717.29 90.376,717.29L87.122,717.29L87.122,726.174L90.376,726.174ZM84.434,715.036L90.501,715.036C94.538,715.036 97.759,716.945 97.788,721.42C97.822,725.645 94.538,728.428 90.501,728.428L87.122,728.428L87.122,737.403L84.434,737.403L84.434,715.036Z" style="fill-rule:nonzero;"/>
    <path d="M118.727,726.206C118.727,720.544 116.756,716.919 112.91,716.919C109.06,716.919 107.089,720.544 107.089,726.206C107.089,731.865 109.06,735.556 112.91,735.556C116.756,735.556 118.727,731.865 118.727,726.206M104.306,726.206C104.306,718.948 107.685,714.66 112.91,714.66C118.131,714.66 121.51,718.981 121.51,726.206C121.51,733.431 118.131,737.81 112.91,737.81C107.685,737.81 104.306,733.46 104.306,726.206" style="fill-rule:nonzero;"/>
    <path d="M135.503,725.612C138.349,725.612 139.849,723.796 139.849,721.483C139.849,718.758 138.161,717.292 135.345,717.292L131.965,717.292L131.965,725.612L135.503,725.612ZM129.278,715.037L135.782,715.037C139.757,715.037 142.57,717.167 142.603,720.921C142.632,724.112 140.724,725.767 139.132,726.454L139.132,726.55C141.103,727.208 142.195,728.429 142.195,731.212L142.195,733.867C142.195,735.75 142.54,736.683 142.761,737.404L139.945,737.404C139.724,736.654 139.382,735.717 139.382,733.808L139.382,731.712C139.382,729.55 138.661,727.833 135.411,727.833L131.965,727.833L131.965,737.404L129.278,737.404L129.278,715.037Z" style="fill-rule:nonzero;"/>
    <path d="M154.635,717.291L148.723,717.291L148.723,715.037L163.269,715.037L163.269,717.291L157.327,717.291L157.327,737.404L154.635,737.404L154.635,717.291Z" style="fill-rule:nonzero;"/>
    <path d="M177.312,728.428L174.404,717.886L171.462,728.428L177.312,728.428ZM177.937,730.678L170.837,730.678L168.958,737.403L166.237,737.403L172.683,715.036L176.091,715.036L182.533,737.403L179.816,737.403L177.937,730.678Z" style="fill-rule:nonzero;"/>
    <path d="M207.697,715.037L207.697,737.404L205.039,737.404L205.039,719.291L199.972,737.404L196.906,737.404L191.839,719.291L191.839,737.404L189.181,737.404L189.181,715.037L193.06,715.037L198.439,734.904L203.818,715.037L207.697,715.037Z" style="fill-rule:nonzero;"/>
    <path d="M216.283,715.037L228.046,715.037L228.046,717.291L218.975,717.291L218.975,724.579L227.046,724.579L227.046,726.766L218.975,726.766L218.975,735.15L228.046,735.15L228.046,737.404L216.283,737.404L216.283,715.037Z" style="fill-rule:nonzero;"/>
    <path d="M249.915,715.037L249.915,737.404L246.599,737.404L237.965,718.825L237.965,737.404L235.274,737.404L235.274,715.037L238.59,715.037L247.224,733.62L247.224,715.037L249.915,715.037Z" style="fill-rule:nonzero;"/>
    <path d="M262.505,717.291L256.592,717.291L256.592,715.037L271.138,715.037L271.138,717.291L265.197,717.291L265.197,737.404L262.505,737.404L262.505,717.291Z" style="fill-rule:nonzero;"/>
    <path d="M290.777,726.206C290.777,720.544 288.806,716.919 284.96,716.919C281.11,716.919 279.139,720.544 279.139,726.206C279.139,731.865 281.11,735.556 284.96,735.556C288.806,735.556 290.777,731.865 290.777,726.206M276.356,726.206C276.356,718.948 279.735,714.66 284.96,714.66C290.181,714.66 293.56,718.981 293.56,726.206C293.56,733.431 290.181,737.81 284.96,737.81C279.735,737.81 276.356,733.46 276.356,726.206" style="fill-rule:nonzero;"/>
    <path d="M53.307,561.55L50.399,551.008L47.457,561.55L53.307,561.55ZM53.932,563.8L46.832,563.8L44.957,570.525L42.236,570.525L48.678,548.158L52.09,548.158L58.532,570.525L55.811,570.525L53.932,563.8Z" style="fill-rule:nonzero;"/>
    <path d="M64.475,561.924L64.475,548.158L67.258,548.158L67.258,561.924C67.258,566.708 69.104,568.678 72.17,568.678C75.237,568.678 77.016,566.708 77.016,561.924L77.016,548.158L79.804,548.158L79.804,561.924C79.804,567.712 77.016,570.995 72.17,570.995C67.32,570.995 64.475,567.962 64.475,561.924" style="fill-rule:nonzero;"/>
    <path d="M92.343,550.413L86.435,550.413L86.435,548.159L100.976,548.159L100.976,550.413L95.035,550.413L95.035,570.525L92.343,570.525L92.343,550.413Z" style="fill-rule:nonzero;"/>
    <path d="M120.615,559.328C120.615,553.666 118.644,550.041 114.798,550.041C110.948,550.041 108.977,553.666 108.977,559.328C108.977,564.987 110.948,568.678 114.798,568.678C118.644,568.678 120.615,564.987 120.615,559.328M106.194,559.328C106.194,552.07 109.573,547.782 114.798,547.782C120.019,547.782 123.398,552.103 123.398,559.328C123.398,566.553 120.019,570.932 114.798,570.932C109.573,570.932 106.194,566.582 106.194,559.328" style="fill-rule:nonzero;"/>
    <path d="M284.179,559.328C284.179,553.666 282.208,550.041 278.362,550.041C274.512,550.041 272.541,553.666 272.541,559.328C272.541,564.987 274.512,568.678 278.362,568.678C282.208,568.678 284.179,564.987 284.179,559.328M269.758,559.328C269.758,552.07 273.137,547.782 278.362,547.782C283.583,547.782 286.962,552.103 286.962,559.328C286.962,566.553 283.583,570.932 278.362,570.932C273.137,570.932 269.758,566.582 269.758,559.328" style="fill-rule:nonzero;"/>
    <path d="M309.352,548.159L309.352,570.525L306.035,570.525L297.402,551.946L297.402,570.525L294.71,570.525L294.71,548.159L298.027,548.159L306.66,566.742L306.66,548.159L309.352,548.159Z" style="fill-rule:nonzero;"/>
    <path d="M175.951,559.328C175.951,553.666 173.98,550.041 170.135,550.041C166.285,550.041 164.314,553.666 164.314,559.328C164.314,564.987 166.285,568.678 170.135,568.678C173.98,568.678 175.951,564.987 175.951,559.328M161.53,559.328C161.53,552.07 164.91,547.782 170.135,547.782C175.355,547.782 178.735,552.103 178.735,559.328C178.735,566.553 175.355,570.932 170.135,570.932C164.91,570.932 161.53,566.582 161.53,559.328" style="fill-rule:nonzero;"/>
    <path d="M186.484,548.159L198.246,548.159L198.246,550.413L189.175,550.413L189.175,557.7L197.4,557.7L197.4,559.955L189.175,559.955L189.175,570.525L186.484,570.525L186.484,548.159Z" style="fill-rule:nonzero;"/>
    <path d="M205.227,548.159L216.99,548.159L216.99,550.413L207.919,550.413L207.919,557.7L216.144,557.7L216.144,559.955L207.919,559.955L207.919,570.525L205.227,570.525L205.227,548.159Z" style="fill-rule:nonzero;"/>
    <path d="M280.062,493.192L281.808,493.192L281.808,495.021L280.062,495.021L280.062,493.192ZM281.808,495.021L283.55,495.021L283.55,496.804L281.808,496.804L281.808,495.021ZM283.546,496.804L285.329,496.804L285.329,498.592L283.546,498.592L283.546,496.804ZM285.333,498.592L287.162,498.592L287.162,500.287L285.333,500.287L285.333,498.592ZM287.162,500.287L288.817,500.287L288.817,502.117L287.162,502.117L287.162,500.287ZM288.817,503.904L288.817,502.121L290.646,502.121L290.646,477.279L292.342,477.279L292.342,502.121L294.171,502.121L294.171,503.904L292.342,503.904L292.342,505.692L290.646,505.692L290.646,503.904L288.817,503.904ZM295.825,502.121L294.171,502.121L294.171,500.292L295.825,500.292L295.825,502.121ZM297.658,500.287L295.829,500.287L295.829,498.592L297.658,498.592L297.658,500.287ZM299.442,498.592L297.658,498.592L297.658,496.804L299.442,496.804L299.442,498.592ZM301.179,496.804L299.437,496.804L299.437,495.021L301.179,495.021L301.179,496.804ZM302.921,495.021L301.179,495.021L301.179,493.192L302.921,493.192L302.921,495.021Z" style="fill-rule:nonzero;stroke:black;stroke-width:0.59px;"/>
    <path d="M73.567,493.192L75.312,493.192L75.312,495.021L73.567,495.021L73.567,493.192ZM75.308,495.021L77.05,495.021L77.05,496.804L75.308,496.804L75.308,495.021ZM77.05,496.804L78.833,496.804L78.833,498.592L77.05,498.592L77.05,496.804ZM78.833,498.592L80.662,498.592L80.662,500.287L78.833,500.287L78.833,498.592ZM80.667,500.287L82.321,500.287L82.321,502.117L80.667,502.117L80.667,500.287ZM82.321,503.904L82.321,502.121L84.146,502.121L84.146,477.279L85.842,477.279L85.842,502.121L87.675,502.121L87.675,503.904L85.842,503.904L85.842,505.692L84.146,505.692L84.146,503.904L82.321,503.904ZM89.329,502.121L87.675,502.121L87.675,500.292L89.329,500.292L89.329,502.121ZM91.158,500.287L89.329,500.287L89.329,498.592L91.158,498.592L91.158,500.287ZM92.942,498.592L91.158,498.592L91.158,496.804L92.942,496.804L92.942,498.592ZM94.683,496.804L92.942,496.804L92.942,495.021L94.683,495.021L94.683,496.804ZM96.425,495.021L94.683,495.021L94.683,493.192L96.425,493.192L96.425,495.021Z" style="fill-rule:nonzero;stroke:black;stroke-width:0.59px;"/>
    <path d="M189.471,382.871L189.471,459.196" style="fill:none;fill-rule:nonzero;stroke:black;stroke-width:2.36px;"/>
    <path d="M84.995,484.225L84.995,459.195L291.491,459.195L291.491,484.225" style="fill:none;fill-rule:nonzero;stroke:black;stroke-width:2.36px;"/>
    <path d="M89.173,46.283C92.115,46.283 93.802,44.5 93.802,41.591C93.802,38.837 92.115,37.4 89.173,37.4L85.919,37.4L85.919,46.283L89.173,46.283ZM83.232,35.15L89.298,35.15C93.336,35.15 96.557,37.058 96.586,41.529C96.619,45.754 93.336,48.537 89.298,48.537L85.919,48.537L85.919,57.512L83.232,57.512L83.232,35.15Z" style="fill-rule:nonzero;"/>
    <path d="M117.524,46.315C117.524,40.653 115.553,37.024 111.707,37.024C107.857,37.024 105.887,40.653 105.887,46.315C105.887,51.978 107.857,55.67 111.707,55.67C115.553,55.67 117.524,51.978 117.524,46.315M103.103,46.315C103.103,39.057 106.482,34.77 111.707,34.77C116.928,34.77 120.307,39.09 120.307,46.315C120.307,53.54 116.928,57.92 111.707,57.92C106.482,57.92 103.103,53.574 103.103,46.315" style="fill-rule:nonzero;"/>
    <path d="M134.301,45.721C137.147,45.721 138.647,43.905 138.647,41.592C138.647,38.871 136.959,37.4 134.142,37.4L130.763,37.4L130.763,45.721L134.301,45.721ZM128.076,35.146L134.58,35.146C138.555,35.146 141.367,37.275 141.401,41.03C141.43,44.221 139.522,45.88 137.93,46.567L137.93,46.659C139.901,47.317 140.992,48.534 140.992,51.321L140.992,53.98C140.992,55.855 141.338,56.792 141.559,57.513L138.742,57.513C138.522,56.763 138.18,55.825 138.18,53.917L138.18,51.821C138.18,49.663 137.459,47.942 134.209,47.942L130.763,47.942L130.763,57.513L128.076,57.513L128.076,35.146Z" style="fill-rule:nonzero;"/>
    <path d="M153.433,37.4L147.521,37.4L147.521,35.146L162.067,35.146L162.067,37.4L156.125,37.4L156.125,57.513L153.433,57.513L153.433,37.4Z" style="fill-rule:nonzero;"/>
    <path d="M176.11,48.535L173.201,37.993L170.26,48.535L176.11,48.535ZM176.735,50.789L169.635,50.789L167.755,57.514L165.035,57.514L171.48,35.147L174.889,35.147L181.33,57.514L178.614,57.514L176.735,50.789Z" style="fill-rule:nonzero;"/>
    <path d="M206.495,35.148L206.495,57.515L203.837,57.515L203.837,39.402L198.77,57.515L195.703,57.515L190.637,39.402L190.637,57.515L187.978,57.515L187.978,35.148L191.857,35.148L197.237,55.01L202.616,35.148L206.495,35.148Z" style="fill-rule:nonzero;"/>
    <path d="M215.081,35.148L226.843,35.148L226.843,37.402L217.773,37.402L217.773,44.69L225.843,44.69L225.843,46.877L217.773,46.877L217.773,55.26L226.843,55.26L226.843,57.515L215.081,57.515L215.081,35.148Z" style="fill-rule:nonzero;"/>
    <path d="M248.713,35.148L248.713,57.515L245.397,57.515L236.763,38.931L236.763,57.515L234.072,57.515L234.072,35.148L237.388,35.148L246.022,53.727L246.022,35.148L248.713,35.148Z" style="fill-rule:nonzero;"/>
    <path d="M261.302,37.4L255.39,37.4L255.39,35.146L269.936,35.146L269.936,37.4L263.994,37.4L263.994,57.513L261.302,57.513L261.302,37.4Z" style="fill-rule:nonzero;"/>
    <path d="M289.574,46.315C289.574,40.653 287.603,37.024 283.757,37.024C279.907,37.024 277.937,40.653 277.937,46.315C277.937,51.978 279.907,55.67 283.757,55.67C287.603,55.67 289.574,51.978 289.574,46.315M275.153,46.315C275.153,39.057 278.532,34.77 283.757,34.77C288.978,34.77 292.357,39.09 292.357,46.315C292.357,53.54 288.978,57.92 283.757,57.92C278.532,57.92 275.153,53.574 275.153,46.315" style="fill-rule:nonzero;"/>
    <path d="M260.865,420.518L254.174,420.518L254.174,417.03L260.865,417.03L260.865,410.343L264.349,410.385L264.349,417.03L270.995,417.03L270.995,420.518L264.349,420.518L264.349,427.164L260.865,427.164L260.865,420.518Z" style="fill-rule:nonzero;"/>
    <rect x="108.192" y="416.942" width="11.092" height="3.575"/>
    <path d="M181.292,108.992C181.292,105.2 184.367,102.125 188.159,102.125C191.955,102.125 195.03,105.2 195.03,108.992C195.03,112.783 191.955,115.858 188.159,115.858C184.367,115.858 181.292,112.783 181.292,108.992" style="fill-rule:nonzero;"/>
    <path d="M258.957,126.781C260.174,124.673 262.87,123.952 264.974,125.169C267.082,126.385 267.803,129.081 266.586,131.185C265.37,133.294 262.678,134.015 260.57,132.798C258.461,131.581 257.74,128.89 258.957,126.781" style="fill-rule:nonzero;"/>
    <path d="M315.189,179.788C317.297,178.572 319.989,179.292 321.205,181.401C322.422,183.509 321.701,186.201 319.593,187.417C317.489,188.634 314.793,187.913 313.576,185.805C312.36,183.701 313.08,181.005 315.189,179.788" style="fill-rule:nonzero;"/>
    <path d="M337.383,253.809C339.817,253.809 341.787,255.78 341.787,258.213C341.787,260.647 339.817,262.617 337.383,262.617C334.95,262.617 332.979,260.647 332.979,258.213C332.979,255.78 334.95,253.809 337.383,253.809" style="fill-rule:nonzero;"/>
    <path d="M319.594,329.011C321.702,330.227 322.423,332.923 321.206,335.027C319.99,337.136 317.294,337.857 315.19,336.64C313.081,335.423 312.36,332.732 313.577,330.623C314.794,328.515 317.485,327.794 319.594,329.011" style="fill-rule:nonzero;"/>
    <path d="M109.735,131.186C108.518,129.078 109.239,126.386 111.347,125.17C113.455,123.953 116.147,124.674 117.364,126.782C118.58,128.886 117.86,131.582 115.751,132.799C113.647,134.015 110.951,133.295 109.735,131.186" style="fill-rule:nonzero;"/>
    <path d="M56.728,187.418C54.62,186.201 53.899,183.51 55.115,181.401C56.332,179.293 59.028,178.572 61.132,179.789C63.24,181.005 63.961,183.697 62.745,185.805C61.528,187.914 58.836,188.635 56.728,187.418" style="fill-rule:nonzero;"/>
    <path d="M38.938,262.619C36.505,262.619 34.534,260.648 34.534,258.215C34.534,255.782 36.505,253.811 38.938,253.811C41.372,253.811 43.342,255.782 43.342,258.215C43.342,260.648 41.372,262.619 38.938,262.619" style="fill-rule:nonzero;"/>
    <path d="M61.133,336.64C59.025,337.857 56.333,337.136 55.116,335.028C53.9,332.92 54.62,330.228 56.729,329.011C58.833,327.795 61.529,328.515 62.745,330.624C63.962,332.732 63.241,335.424 61.133,336.64" style="fill-rule:nonzero;"/>
    <path d="M106.681,387.445C106.681,383.653 109.756,380.578 113.548,380.578C117.344,380.578 120.419,383.653 120.419,387.445C120.419,391.236 117.344,394.311 113.548,394.311C109.756,394.311 106.681,391.236 106.681,387.445" style="fill-rule:nonzero;"/>
    <path d="M255.904,387.445C255.904,383.653 258.979,380.578 262.77,380.578C266.566,380.578 269.641,383.653 269.641,387.445C269.641,391.236 266.566,394.311 262.77,394.311C258.979,394.311 255.904,391.236 255.904,387.445" style="fill-rule:nonzero;"/>
</svg>
