<?xml version="1.0" encoding="UTF-8" standalone="no"?>
<!DOCTYPE svg PUBLIC "-//W3C//DTD SVG 1.1//EN" "http://www.w3.org/Graphics/SVG/1.1/DTD/svg11.dtd">
<svg width="100%" height="100%" viewBox="0 0 372 254" version="1.1" xmlns="http://www.w3.org/2000/svg" xmlns:xlink="http://www.w3.org/1999/xlink" xml:space="preserve" xmlns:serif="http://www.serif.com/" style="fill-rule:evenodd;clip-rule:evenodd;stroke-miterlimit:10;">
    <rect x="0" y="0" width="371.458" height="253.95" style="fill:white;"/>
    <path d="M245.08,82.689L132.875,82.689C106.784,82.689 85.63,103.839 85.63,129.935C85.63,156.027 106.784,177.177 132.875,177.177L245.08,177.177C271.171,177.177 292.325,156.027 292.325,129.935C292.325,103.839 271.171,82.689 245.08,82.689Z" style="fill:none;fill-rule:nonzero;stroke:black;stroke-width:2.08px;"/>
    <path d="M224.385,129.931C224.385,110.375 208.507,94.498 188.951,94.498C169.395,94.498 153.518,110.375 153.518,129.931C153.518,149.487 169.395,165.364 188.951,165.364C208.507,165.364 224.385,149.487 224.385,129.931Z" style="fill:none;stroke:black;stroke-width:4.17px;"/>
    <path d="M194.857,147.647C194.857,150.91 192.211,153.551 188.953,153.551C185.69,153.551 183.045,150.91 183.045,147.647L183.045,112.214C183.045,108.951 185.69,106.31 188.953,106.31C192.211,106.31 194.857,108.951 194.857,112.214L194.857,147.647Z" style="fill-rule:nonzero;stroke:black;stroke-width:2.08px;"/>
    <path d="M100.5,204.047L94.591,204.047L94.591,201.792L109.133,201.792L109.133,204.047L103.191,204.047L103.191,224.159L100.5,224.159L100.5,204.047Z" style="fill-rule:nonzero;"/>
    <path d="M122.037,212.367C124.882,212.367 126.382,210.551 126.382,208.238C126.382,205.513 124.695,204.047 121.878,204.047L118.499,204.047L118.499,212.367L122.037,212.367ZM115.812,201.792L122.316,201.792C126.291,201.792 129.107,203.922 129.137,207.676C129.166,210.867 127.257,212.522 125.666,213.209L125.666,213.305C127.637,213.963 128.728,215.184 128.728,217.967L128.728,220.622C128.728,222.505 129.074,223.438 129.295,224.159L126.478,224.159C126.257,223.409 125.916,222.472 125.916,220.563L125.916,218.467C125.916,216.305 125.195,214.588 121.945,214.588L118.499,214.588L118.499,224.159L115.812,224.159L115.812,201.792Z" style="fill-rule:nonzero;"/>
    <path d="M146.758,215.183L143.85,204.642L140.908,215.183L146.758,215.183ZM147.383,217.433L140.283,217.433L138.408,224.158L135.687,224.158L142.129,201.792L145.541,201.792L151.983,224.158L149.262,224.158L147.383,217.433Z" style="fill-rule:nonzero;"/>
    <path d="M173.267,201.792L173.267,224.159L169.951,224.159L161.317,205.58L161.317,224.159L158.626,224.159L158.626,201.792L161.942,201.792L170.576,220.376L170.576,201.792L173.267,201.792Z" style="fill-rule:nonzero;"/>
    <path d="M180.671,216.653L183.363,216.653C183.796,220.157 185.738,222.253 188.492,222.253C190.775,222.253 193.155,221.123 193.155,218.094C193.155,216.244 192.4,214.965 189.367,214.09L186.992,213.403C184.455,212.682 181.392,211.398 181.392,207.203C181.392,203.794 184.613,201.323 188.117,201.323C192.496,201.323 194.559,204.203 194.78,208.398L192.088,208.398C191.838,205.173 190.275,203.703 188.084,203.703C185.988,203.703 184.175,204.923 184.175,207.332C184.175,209.519 185.834,210.461 188.055,211.148L190.088,211.773C193.213,212.744 195.938,213.961 195.938,217.998C195.938,222.532 192.121,224.628 188.617,224.628C183.642,224.628 180.892,221.19 180.671,216.653" style="fill-rule:nonzero;"/>
    <path d="M209.339,212.929C212.281,212.929 213.968,211.146 213.968,208.238C213.968,205.488 212.281,204.046 209.339,204.046L206.085,204.046L206.085,212.929L209.339,212.929ZM203.397,201.792L209.464,201.792C213.502,201.792 216.722,203.7 216.752,208.175C216.785,212.4 213.502,215.183 209.464,215.183L206.085,215.183L206.085,224.158L203.397,224.158L203.397,201.792Z" style="fill-rule:nonzero;"/>
    <path d="M237.696,212.962C237.696,207.299 235.725,203.674 231.88,203.674C228.03,203.674 226.059,207.299 226.059,212.962C226.059,218.62 228.03,222.312 231.88,222.312C235.725,222.312 237.696,218.62 237.696,212.962M223.275,212.962C223.275,205.703 226.655,201.416 231.88,201.416C237.1,201.416 240.48,205.737 240.48,212.962C240.48,220.187 237.1,224.566 231.88,224.566C226.655,224.566 223.275,220.216 223.275,212.962" style="fill-rule:nonzero;"/>
    <path d="M247.11,216.653L249.802,216.653C250.235,220.157 252.177,222.253 254.931,222.253C257.214,222.253 259.593,221.123 259.593,218.094C259.593,216.244 258.839,214.965 255.806,214.09L253.431,213.403C250.893,212.682 247.831,211.398 247.831,207.203C247.831,203.794 251.052,201.323 254.556,201.323C258.935,201.323 260.998,204.203 261.218,208.398L258.527,208.398C258.277,205.173 256.714,203.703 254.523,203.703C252.427,203.703 250.614,204.923 250.614,207.332C250.614,209.519 252.273,210.461 254.493,211.148L256.527,211.773C259.652,212.744 262.377,213.961 262.377,217.998C262.377,222.532 258.56,224.628 255.056,224.628C250.081,224.628 247.331,221.19 247.11,216.653" style="fill-rule:nonzero;"/>
    <path d="M269.835,201.792L281.598,201.792L281.598,204.047L272.527,204.047L272.527,211.334L280.598,211.334L280.598,213.522L272.527,213.522L272.527,221.905L281.598,221.905L281.598,224.159L269.835,224.159L269.835,201.792Z" style="fill-rule:nonzero;"/>
    <path d="M78.893,38.3L81.585,38.3L81.585,58.412L89.401,58.412L89.401,60.666L78.893,60.666L78.893,38.3Z" style="fill-rule:nonzero;"/>
    <path d="M282.985,38.3L285.676,38.3L285.676,47.966L294.214,47.966L294.214,38.3L296.905,38.3L296.905,60.666L294.214,60.666L294.214,50.216L285.676,50.216L285.676,60.666L282.985,60.666L282.985,38.3Z" style="fill-rule:nonzero;"/>
    <path d="M197.649,38.3L197.649,60.666L194.991,60.666L194.991,42.554L189.924,60.666L186.857,60.666L181.791,42.554L181.791,60.666L179.132,60.666L179.132,38.3L183.012,38.3L188.391,58.166L193.77,38.3L197.649,38.3Z" style="fill-rule:nonzero;"/>
</svg>
