<?xml version="1.0" encoding="UTF-8" standalone="no"?>
<!DOCTYPE svg PUBLIC "-//W3C//DTD SVG 1.1//EN" "http://www.w3.org/Graphics/SVG/1.1/DTD/svg11.dtd">
<svg width="100%" height="100%" viewBox="0 0 249 898" version="1.1" xmlns="http://www.w3.org/2000/svg" xmlns:xlink="http://www.w3.org/1999/xlink" xml:space="preserve" xmlns:serif="http://www.serif.com/" style="fill-rule:evenodd;clip-rule:evenodd;stroke-miterlimit:10;">
    <rect x="0" y="0" width="248.033" height="897.637" style="fill:white;"/>
    <clipPath id="_clip1">
        <rect x="101.733" y="226.32" width="114.288" height="539.485" clip-rule="nonzero"/>
    </clipPath>
    <g clip-path="url(#_clip1)">
        <path d="M194.31,227.361L123.444,227.361C112.027,227.361 102.773,236.616 102.773,248.032L102.773,744.095C102.773,755.507 112.027,764.761 123.444,764.761L194.31,764.761C205.727,764.761 214.981,755.507 214.981,744.095L214.981,248.032C214.981,236.616 205.727,227.361 194.31,227.361Z" style="fill:none;fill-rule:nonzero;stroke:rgb(202,202,202);stroke-width:2.08px;"/>
    </g>
    <path d="M144.687,460.629L144.687,531.496C144.687,539.65 151.295,546.258 159.449,546.258C167.603,546.258 174.216,539.65 174.216,531.496L174.216,460.629C174.216,452.475 167.603,445.867 159.449,445.867C151.295,445.867 144.687,452.475 144.687,460.629" style="fill:rgb(200,200,200);fill-rule:nonzero;"/>
    <path d="M126.856,547.025C120.339,547.025 115.052,541.738 115.052,535.217L115.052,412.367C115.052,405.846 120.339,400.563 126.856,400.563L190.652,400.563C197.173,400.563 202.46,405.846 202.46,412.367L202.46,535.217C202.46,541.738 197.173,547.025 190.652,547.025L126.856,547.025Z" style="fill:white;fill-rule:nonzero;"/>
    <path d="M125.814,516.41L125.814,516.302C119.214,515.772 114.006,510.231 114.006,503.493L114.006,444.06C114.006,436.972 119.773,431.21 126.856,431.21L190.652,431.21C197.739,431.21 203.502,436.972 203.502,444.06L203.502,503.493C203.502,510.231 198.293,515.772 191.693,516.302L191.693,516.343L190.652,516.41L125.814,516.41Z" style="fill:white;fill-rule:nonzero;"/>
    <path d="M190.65,430.167L126.854,430.167C119.2,430.167 112.967,436.4 112.967,444.059L112.967,503.496C112.967,510.446 118.1,516.221 124.771,517.23L124.771,517.388L126.854,517.45L192.733,517.45L192.733,517.23C199.413,516.221 204.542,510.446 204.542,503.496L204.542,444.059C204.542,436.4 198.313,430.167 190.65,430.167M190.65,432.25C197.171,432.25 202.458,437.538 202.458,444.059L202.458,503.496C202.458,510.017 197.171,515.305 190.65,515.305L190.65,515.367L126.854,515.367L126.854,515.305C120.338,515.305 115.05,510.017 115.05,503.496L115.05,444.059C115.05,437.538 120.338,432.25 126.854,432.25L190.65,432.25Z" style="fill:rgb(149,149,149);fill-rule:nonzero;"/>
    <path d="M115.052,467.887L141.043,467.887C144.306,467.887 146.952,470.533 146.952,473.791C146.952,477.054 144.306,479.695 141.043,479.695L115.052,479.695L115.052,467.887Z" style="fill:rgb(200,200,200);fill-rule:nonzero;stroke:rgb(158,158,158);stroke-width:2.08px;"/>
    <path d="M190.65,396.395L126.854,396.395C118.05,396.395 110.883,403.561 110.883,412.365L110.883,535.215C110.883,544.028 118.05,551.19 126.854,551.19L190.65,551.19C199.458,551.19 206.625,544.028 206.625,535.215L206.625,412.365C206.625,403.561 199.458,396.395 190.65,396.395M190.65,400.561C197.171,400.561 202.458,405.849 202.458,412.365L202.458,535.215C202.458,541.74 197.171,547.024 190.65,547.024L126.854,547.024C120.338,547.024 115.05,541.74 115.05,535.215L115.05,412.365C115.05,405.849 120.338,400.561 126.854,400.561L190.65,400.561Z" style="fill:rgb(61,61,61);fill-rule:nonzero;"/>
    <path d="M39.119,29.89L33.048,52.257L29.64,52.257L23.573,29.89L26.323,29.89L31.361,49.345L36.365,29.89L39.119,29.89Z" style="fill:rgb(167,168,170);fill-rule:nonzero;"/>
    <path d="M45.935,41.058C45.935,33.8 49.031,29.512 54.414,29.512C58.668,29.512 61.202,32.708 61.985,37.52L59.202,37.52C58.827,34.55 57.197,31.766 54.443,31.766C50.535,31.766 48.722,35.395 48.722,41.058C48.722,46.72 50.439,50.412 54.443,50.412C57.26,50.412 59.168,47.533 59.481,44.5L62.264,44.5C61.356,50.004 58.327,52.662 54.443,52.662C49.064,52.662 45.935,48.316 45.935,41.058" style="fill:rgb(167,168,170);fill-rule:nonzero;"/>
    <path d="M80.245,43.278L77.337,32.736L74.399,43.278L80.245,43.278ZM80.87,45.532L73.77,45.532L71.895,52.257L69.174,52.257L75.62,29.89L79.024,29.89L85.47,52.257L82.749,52.257L80.87,45.532Z" style="fill:rgb(167,168,170);fill-rule:nonzero;"/>
    <path d="M23.259,68.245L224.046,68.245" style="fill:none;fill-rule:nonzero;stroke:rgb(167,168,170);stroke-width:2.36px;"/>
    <path d="M35.364,434.375L43.226,434.375L43.226,435.879L37.164,435.879L37.164,440.754L42.56,440.754L42.56,442.216L37.164,442.216L37.164,447.825L43.226,447.825L43.226,449.329L35.364,449.329L35.364,434.375Z" style="fill:rgb(167,168,170);fill-rule:nonzero;"/>
    <path d="M57.995,434.375L57.995,449.329L55.779,449.329L50.008,436.904L50.008,449.329L48.208,449.329L48.208,434.375L50.425,434.375L56.195,446.8L56.195,434.375L57.995,434.375Z" style="fill:rgb(167,168,170);fill-rule:nonzero;"/>
    <path d="M72.965,434.375L68.907,449.329L66.628,449.329L62.57,434.375L64.411,434.375L67.778,447.387L71.128,434.375L72.965,434.375Z" style="fill:rgb(167,168,170);fill-rule:nonzero;"/>
    <path d="M31.124,482.077L48.395,459.635L54.149,465.385L64.453,465.385L77.333,483.022" style="fill:none;fill-rule:nonzero;stroke:rgb(167,168,170);stroke-width:2.36px;"/>
    <path d="M77.329,561.085L65.454,561.085L65.454,538.627L65.454,561.085L65.454,538.627L42.995,538.627L42.995,561.085L31.12,561.085" style="fill:none;fill-rule:nonzero;stroke:rgb(167,168,170);stroke-width:2.36px;"/>
    <path d="M39.384,519.14L39.384,526.607L37.688,526.607L37.688,524.494C36.871,525.936 35.575,526.877 33.963,526.877C30.367,526.877 28.109,523.973 28.109,519.119C28.109,514.265 30.367,511.402 33.963,511.402C37.042,511.402 38.671,513.469 39.15,516.84L37.292,516.84C37.059,514.852 36.142,512.907 33.963,512.907C31.288,512.907 29.971,515.332 29.971,519.119C29.971,522.902 31.288,525.373 33.963,525.373C35.68,525.373 37.375,524.119 37.667,520.727L34.155,520.727L34.155,519.14L39.384,519.14Z" style="fill:rgb(167,168,170);fill-rule:nonzero;"/>
    <path d="M51.257,520.603L49.311,513.557L47.349,520.603L51.257,520.603ZM51.678,522.111L46.928,522.111L45.674,526.607L43.853,526.607L48.161,511.653L50.445,511.653L54.753,526.607L52.928,526.607L51.678,522.111Z" style="fill:rgb(167,168,170);fill-rule:nonzero;"/>
    <path d="M60.852,513.157L56.902,513.157L56.902,511.652L66.627,511.652L66.627,513.157L62.652,513.157L62.652,526.607L60.852,526.607L60.852,513.157Z" style="fill:rgb(167,168,170);fill-rule:nonzero;"/>
    <path d="M71.228,511.651L79.09,511.651L79.09,513.155L73.028,513.155L73.028,518.03L78.424,518.03L78.424,519.493L73.028,519.493L73.028,525.101L79.09,525.101L79.09,526.605L71.228,526.605L71.228,511.651Z" style="fill:rgb(167,168,170);fill-rule:nonzero;"/>
</svg>
