<?xml version="1.0" encoding="UTF-8" standalone="no"?>
<!DOCTYPE svg PUBLIC "-//W3C//DTD SVG 1.1//EN" "http://www.w3.org/Graphics/SVG/1.1/DTD/svg11.dtd">
<svg width="100%" height="100%" viewBox="0 0 1158 898" version="1.1" xmlns="http://www.w3.org/2000/svg" xmlns:xlink="http://www.w3.org/1999/xlink" xml:space="preserve" xmlns:serif="http://www.serif.com/" style="fill-rule:evenodd;clip-rule:evenodd;stroke-miterlimit:10;">
    <rect x="0" y="0" width="1157.48" height="897.637" style="fill:white;"/>
    <clipPath id="_clip1">
        <rect x="66.298" y="226.32" width="114.288" height="539.485" clip-rule="nonzero"/>
    </clipPath>
    <g clip-path="url(#_clip1)">
        <path d="M158.875,227.361L88.008,227.361C76.591,227.361 67.337,236.616 67.337,248.032L67.337,744.095C67.337,755.507 76.591,764.761 88.008,764.761L158.875,764.761C170.291,764.761 179.545,755.507 179.545,744.095L179.545,248.032C179.545,236.616 170.291,227.361 158.875,227.361Z" style="fill:none;fill-rule:nonzero;stroke:black;stroke-width:2.08px;"/>
    </g>
    <path d="M108.678,298.228L108.678,693.899C108.678,702.053 115.286,708.661 123.44,708.661C131.595,708.661 138.207,702.053 138.207,693.899L138.207,298.228C138.207,290.074 131.595,283.465 123.44,283.465C115.286,283.465 108.678,290.074 108.678,298.228" style="fill-rule:nonzero;"/>
    <clipPath id="_clip2">
        <rect x="692.282" y="226.32" width="114.288" height="539.485" clip-rule="nonzero"/>
    </clipPath>
    <g clip-path="url(#_clip2)">
        <path d="M784.859,227.361L713.992,227.361C702.575,227.361 693.321,236.616 693.321,248.032L693.321,744.095C693.321,755.507 702.575,764.761 713.992,764.761L784.859,764.761C796.275,764.761 805.53,755.507 805.53,744.095L805.53,248.032C805.53,236.616 796.275,227.361 784.859,227.361Z" style="fill:none;fill-rule:nonzero;stroke:black;stroke-width:2.08px;"/>
    </g>
    <path d="M734.662,298.228L734.662,693.899C734.662,702.053 741.27,708.661 749.425,708.661C757.579,708.661 764.191,702.053 764.191,693.899L764.191,298.228C764.191,290.074 757.579,283.465 749.425,283.465C741.27,283.465 734.662,290.074 734.662,298.228" style="fill-rule:nonzero;"/>
    <clipPath id="_clip3">
        <rect x="975.746" y="226.32" width="114.288" height="539.485" clip-rule="nonzero"/>
    </clipPath>
    <g clip-path="url(#_clip3)">
        <path d="M1068.32,227.361L997.457,227.361C986.04,227.361 976.786,236.616 976.786,248.032L976.786,744.095C976.786,755.507 986.04,764.761 997.457,764.761L1068.32,764.761C1079.74,764.761 1088.99,755.507 1088.99,744.095L1088.99,248.032C1088.99,236.616 1079.74,227.361 1068.32,227.361Z" style="fill:none;fill-rule:nonzero;stroke:black;stroke-width:2.08px;"/>
    </g>
    <path d="M1018.7,433.421L1018.7,552.371C1018.7,560.192 1025.31,566.53 1033.46,566.53C1041.62,566.53 1048.23,560.192 1048.23,552.371L1048.23,433.421C1048.23,425.6 1041.62,419.262 1033.46,419.262C1025.31,419.262 1018.7,425.6 1018.7,433.421" style="fill-rule:nonzero;"/>
    <path d="M338.929,408.518C290.445,459.176 292.208,539.547 342.862,588.035C393.525,636.522 473.895,634.76 522.383,584.101C570.87,533.439 569.108,453.068 518.445,404.585C467.787,356.097 387.416,357.86 338.929,408.518" style="fill:white;fill-rule:nonzero;"/>
    <path d="M338.929,408.518C290.475,459.143 292.239,539.583 342.864,588.037C393.49,636.49 473.93,634.727 522.383,584.101C570.837,533.475 569.074,453.035 518.448,404.582C467.823,356.128 387.383,357.892 338.929,408.518Z" style="fill:none;stroke:black;stroke-width:2.08px;"/>
    <path d="M383.598,442.726L421.161,404.097C422.744,402.468 424.89,401.51 427.161,401.418C428.765,401.355 430.373,401.335 431.977,401.351C484.286,401.955 526.198,444.843 525.598,497.151C524.998,549.455 482.107,591.372 429.798,590.768C377.494,590.168 335.582,547.276 336.182,494.972C336.207,492.701 337.107,490.526 338.69,488.901L375.402,451.155" style="fill:white;fill-rule:nonzero;stroke:black;stroke-width:2.08px;"/>
    <path d="M357.603,417.781C359.945,420.027 360.028,423.748 357.782,426.094C355.541,428.44 351.82,428.519 349.474,426.277L396.762,471.535C399.107,473.781 402.828,473.698 405.074,471.352C407.32,469.006 407.237,465.285 404.895,463.044L357.603,417.781Z" style="fill-rule:nonzero;stroke:black;stroke-width:2.08px;"/>
    <path d="M353.669,414.017L357.602,417.784C359.948,420.026 360.031,423.747 357.785,426.092C355.544,428.438 351.823,428.522 349.477,426.276L345.54,422.509C306.615,467.605 309.456,535.797 352.985,577.459C397.94,620.484 469.265,618.922 512.29,573.967C555.315,529.013 553.752,457.692 508.794,414.667C465.269,373.005 397.015,373.151 353.669,414.017Z" style="fill:none;fill-rule:nonzero;stroke:black;stroke-width:4.17px;stroke-linecap:round;stroke-linejoin:round;"/>
    <path d="M91.545,745.965C85.024,745.965 79.737,740.677 79.737,734.157L79.737,611.311C79.737,604.786 85.024,599.502 91.545,599.502L155.341,599.502C161.862,599.502 167.149,604.786 167.149,611.311L167.149,734.157C167.149,740.677 161.862,745.965 155.341,745.965L91.545,745.965Z" style="fill:white;fill-rule:nonzero;"/>
    <path d="M90.503,715.35L90.503,715.242C83.903,714.712 78.695,709.171 78.695,702.433L78.695,643C78.695,635.912 84.458,630.15 91.545,630.15L155.341,630.15C162.424,630.15 168.191,635.912 168.191,643L168.191,702.433C168.191,709.171 162.983,714.712 156.383,715.242L156.383,715.283L155.341,715.35L90.503,715.35Z" style="fill:white;fill-rule:nonzero;"/>
    <path d="M155.339,629.107L91.543,629.107C83.885,629.107 77.651,635.34 77.651,642.999L77.651,702.436C77.651,709.386 82.785,715.161 89.46,716.174L89.46,716.328L91.543,716.39L157.422,716.39L157.422,716.174C164.097,715.161 169.23,709.386 169.23,702.436L169.23,642.999C169.23,635.34 162.997,629.107 155.339,629.107M155.339,631.19C161.86,631.19 167.147,636.478 167.147,642.999L167.147,702.436C167.147,708.957 161.86,714.245 155.339,714.245L155.339,714.307L91.543,714.307L91.543,714.245C85.022,714.245 79.735,708.957 79.735,702.436L79.735,642.999C79.735,636.478 85.022,631.19 91.543,631.19L155.339,631.19Z" style="fill-rule:nonzero;"/>
    <path d="M79.737,666.829L105.733,666.829C108.995,666.829 111.641,669.471 111.641,672.733C111.641,675.996 108.995,678.637 105.733,678.637L79.737,678.637L79.737,666.829Z" style="fill-rule:nonzero;stroke:black;stroke-width:2.08px;"/>
    <path d="M155.339,595.335L91.543,595.335C82.739,595.335 75.568,602.501 75.568,611.31L75.568,734.155C75.568,742.968 82.739,750.13 91.543,750.13L155.339,750.13C164.147,750.13 171.314,742.968 171.314,734.155L171.314,611.31C171.314,602.501 164.147,595.335 155.339,595.335M155.339,599.501C161.86,599.501 167.147,604.789 167.147,611.31L167.147,734.155C167.147,740.68 161.86,745.964 155.339,745.964L91.543,745.964C85.022,745.964 79.735,740.68 79.735,734.155L79.735,611.31C79.735,604.789 85.022,599.501 91.543,599.501L155.339,599.501Z" style="fill-rule:nonzero;"/>
    <path d="M717.53,745.965C711.009,745.965 705.721,740.677 705.721,734.157L705.721,611.311C705.721,604.786 711.009,599.502 717.53,599.502L781.325,599.502C787.846,599.502 793.13,604.786 793.13,611.311L793.13,734.157C793.13,740.677 787.846,745.965 781.325,745.965L717.53,745.965Z" style="fill:white;fill-rule:nonzero;"/>
    <path d="M716.488,715.35L716.488,715.242C709.888,714.712 704.68,709.171 704.68,702.433L704.68,643C704.68,635.912 710.442,630.15 717.53,630.15L781.325,630.15C788.409,630.15 794.175,635.912 794.175,643L794.175,702.433C794.175,709.171 788.967,714.712 782.367,715.242L782.367,715.283L781.325,715.35L716.488,715.35Z" style="fill:white;fill-rule:nonzero;"/>
    <path d="M781.324,629.107L717.528,629.107C709.87,629.107 703.636,635.34 703.636,642.999L703.636,702.436C703.636,709.386 708.77,715.161 715.445,716.174L715.445,716.328L717.528,716.39L783.407,716.39L783.407,716.174C790.082,715.161 795.211,709.386 795.211,702.436L795.211,642.999C795.211,635.34 788.982,629.107 781.324,629.107M781.324,631.19C787.845,631.19 793.128,636.478 793.128,642.999L793.128,702.436C793.128,708.957 787.845,714.245 781.324,714.245L781.324,714.307L717.528,714.307L717.528,714.245C711.007,714.245 705.72,708.957 705.72,702.436L705.72,642.999C705.72,636.478 711.007,631.19 717.528,631.19L781.324,631.19Z" style="fill-rule:nonzero;"/>
    <path d="M705.721,666.829L731.717,666.829C734.98,666.829 737.625,669.471 737.625,672.733C737.625,675.996 734.98,678.637 731.717,678.637L705.721,678.637L705.721,666.829Z" style="fill-rule:nonzero;stroke:black;stroke-width:2.08px;"/>
    <path d="M781.324,595.335L717.528,595.335C708.72,595.335 701.553,602.501 701.553,611.31L701.553,734.155C701.553,742.968 708.72,750.13 717.528,750.13L781.324,750.13C790.132,750.13 797.295,742.968 797.295,734.155L797.295,611.31C797.295,602.501 790.132,595.335 781.324,595.335M781.324,599.501C787.845,599.501 793.128,604.789 793.128,611.31L793.128,734.155C793.128,740.68 787.845,745.964 781.324,745.964L717.528,745.964C711.007,745.964 705.72,740.68 705.72,734.155L705.72,611.31C705.72,604.789 711.007,599.501 717.528,599.501L781.324,599.501Z" style="fill-rule:nonzero;"/>
    <path d="M1000.99,522.182C994.472,522.182 989.189,516.894 989.189,510.373L989.189,387.527C989.189,381.002 994.472,375.719 1000.99,375.719L1064.79,375.719C1071.31,375.719 1076.6,381.002 1076.6,387.527L1076.6,510.373C1076.6,516.894 1071.31,522.182 1064.79,522.182L1000.99,522.182Z" style="fill:white;fill-rule:nonzero;"/>
    <path d="M999.952,491.567L999.952,491.458C993.352,490.929 988.143,485.388 988.143,478.65L988.143,419.217C988.143,412.129 993.906,406.367 1000.99,406.367L1064.79,406.367C1071.87,406.367 1077.64,412.129 1077.64,419.217L1077.64,478.65C1077.64,485.388 1072.43,490.929 1065.83,491.458L1065.83,491.5L1064.79,491.567L999.952,491.567Z" style="fill:white;fill-rule:nonzero;"/>
    <path d="M1064.79,405.324L1000.99,405.324C993.337,405.324 987.104,411.557 987.104,419.215L987.104,478.653C987.104,485.603 992.237,491.378 998.908,492.39L998.908,492.545L1000.99,492.607L1066.87,492.607L1066.87,492.39C1073.55,491.378 1078.68,485.603 1078.68,478.653L1078.68,419.215C1078.68,411.557 1072.44,405.324 1064.79,405.324M1064.79,407.407C1071.31,407.407 1076.6,412.695 1076.6,419.215L1076.6,478.653C1076.6,485.174 1071.31,490.461 1064.79,490.461L1064.79,490.524L1000.99,490.524L1000.99,490.461C994.475,490.461 989.187,485.174 989.187,478.653L989.187,419.215C989.187,412.695 994.475,407.407 1000.99,407.407L1064.79,407.407Z" style="fill-rule:nonzero;"/>
    <path d="M989.187,443.044L1015.18,443.044C1018.44,443.044 1021.09,445.69 1021.09,448.948C1021.09,452.21 1018.44,454.856 1015.18,454.856L989.187,454.856L989.187,443.044Z" style="fill-rule:nonzero;stroke:black;stroke-width:2.08px;"/>
    <path d="M1064.79,371.551L1000.99,371.551C992.187,371.551 985.02,378.718 985.02,387.526L985.02,510.372C985.02,519.185 992.187,526.347 1000.99,526.347L1064.79,526.347C1073.6,526.347 1080.76,519.185 1080.76,510.372L1080.76,387.526C1080.76,378.718 1073.6,371.551 1064.79,371.551M1064.79,375.718C1071.31,375.718 1076.6,381.005 1076.6,387.526L1076.6,510.372C1076.6,516.897 1071.31,522.18 1064.79,522.18L1000.99,522.18C994.475,522.18 989.187,516.897 989.187,510.372L989.187,387.526C989.187,381.005 994.475,375.718 1000.99,375.718L1064.79,375.718Z" style="fill-rule:nonzero;"/>
    <path d="M109.952,166.965L109.952,189.332L107.294,189.332L107.294,171.22L102.227,189.332L99.161,189.332L94.094,171.22L94.094,189.332L91.436,189.332L91.436,166.965L95.315,166.965L100.694,186.828L106.073,166.965L109.952,166.965Z" style="fill-rule:nonzero;"/>
    <path d="M132.173,178.133C132.173,172.47 130.202,168.841 126.357,168.841C122.507,168.841 120.536,172.47 120.536,178.133C120.536,183.795 122.507,187.487 126.357,187.487C130.202,187.487 132.173,183.795 132.173,178.133M117.752,178.133C117.752,170.875 121.132,166.587 126.357,166.587C131.577,166.587 134.957,170.908 134.957,178.133C134.957,185.358 131.577,189.737 126.357,189.737C121.132,189.737 117.752,185.391 117.752,178.133" style="fill-rule:nonzero;"/>
    <path d="M147.086,187.078C151.936,187.078 154.782,183.449 154.782,178.133C154.782,172.816 151.936,169.216 147.086,169.216L145.395,169.216L145.395,187.078L147.086,187.078ZM142.707,166.966L147.086,166.966C153.499,166.966 157.565,171.72 157.565,178.162C157.565,184.608 153.499,189.333 147.086,189.333L142.707,189.333L142.707,166.966Z" style="fill-rule:nonzero;"/>
    <path d="M38.708,29.89L32.637,52.257L29.233,52.257L23.162,29.89L25.917,29.89L30.95,49.345L35.954,29.89L38.708,29.89Z" style="fill-rule:nonzero;"/>
    <path d="M45.53,41.058C45.53,33.8 48.626,29.512 54.005,29.512C58.259,29.512 60.797,32.708 61.576,37.52L58.793,37.52C58.418,34.55 56.793,31.766 54.038,31.766C50.13,31.766 48.313,35.395 48.313,41.058C48.313,46.72 50.034,50.412 54.038,50.412C56.851,50.412 58.759,47.533 59.072,44.5L61.855,44.5C60.951,50.004 57.918,52.662 54.038,52.662C48.655,52.662 45.53,48.316 45.53,41.058" style="fill-rule:nonzero;"/>
    <path d="M84.658,41.058C84.658,35.395 82.687,31.766 78.841,31.766C74.991,31.766 73.02,35.395 73.02,41.058C73.02,46.72 74.991,50.412 78.841,50.412C82.687,50.412 84.658,46.72 84.658,41.058M70.237,41.058C70.237,33.8 73.616,29.512 78.841,29.512C84.062,29.512 87.441,33.833 87.441,41.058C87.441,48.283 84.062,52.662 78.841,52.662C73.616,52.662 70.237,48.316 70.237,41.058" style="fill-rule:nonzero;"/>
    <path d="M386.36,177.553C389.206,177.553 390.706,175.736 390.706,173.424C390.706,170.699 389.019,169.232 386.202,169.232L382.823,169.232L382.823,177.553L386.36,177.553ZM380.135,166.978L386.64,166.978C390.615,166.978 393.431,169.107 393.46,172.861C393.49,176.053 391.581,177.707 389.99,178.399L389.99,178.49C391.96,179.149 393.052,180.365 393.052,183.153L393.052,185.811C393.052,187.686 393.398,188.624 393.619,189.345L390.802,189.345C390.581,188.595 390.24,187.657 390.24,185.749L390.24,183.653C390.24,181.495 389.519,179.774 386.269,179.774L382.823,179.774L382.823,189.345L380.135,189.345L380.135,166.978Z" style="fill-rule:nonzero;"/>
    <path d="M411.082,180.367L408.173,169.825L405.232,180.367L411.082,180.367ZM411.707,182.621L404.607,182.621L402.732,189.346L400.011,189.346L406.452,166.979L409.865,166.979L416.307,189.346L413.586,189.346L411.707,182.621Z" style="fill-rule:nonzero;"/>
    <path d="M437.591,166.98L437.591,189.346L434.275,189.346L425.641,170.763L425.641,189.346L422.95,189.346L422.95,166.98L426.266,166.98L434.9,185.559L434.9,166.98L437.591,166.98Z" style="fill-rule:nonzero;"/>
    <path d="M462.231,178.177L462.231,189.344L459.698,189.344L459.698,186.186C458.477,188.344 456.54,189.752 454.131,189.752C448.748,189.752 445.373,185.402 445.373,178.148C445.373,170.89 448.748,166.602 454.131,166.602C458.727,166.602 461.169,169.698 461.885,174.736L459.102,174.736C458.76,171.765 457.381,168.857 454.131,168.857C450.127,168.857 448.156,172.486 448.156,178.148C448.156,183.811 450.127,187.498 454.131,187.498C456.694,187.498 459.227,185.623 459.665,180.557L454.41,180.557L454.41,178.177L462.231,178.177Z" style="fill-rule:nonzero;"/>
    <path d="M470.506,166.98L482.268,166.98L482.268,169.234L473.197,169.234L473.197,176.521L481.268,176.521L481.268,178.709L473.197,178.709L473.197,187.092L482.268,187.092L482.268,189.346L470.506,189.346L470.506,166.98Z" style="fill-rule:nonzero;"/>
    <path d="M474.825,311.61L474.825,299.285L467.787,311.61L474.825,311.61ZM480.8,311.61L480.8,313.865L477.517,313.865L477.517,318.181L474.825,318.181L474.825,313.865L465.254,313.865L465.254,311.173L474.075,295.815L477.517,295.815L477.517,311.61L480.8,311.61Z" style="fill-rule:nonzero;"/>
    <path d="M487.494,295.815L490.31,295.815L488.994,303.102L486.869,303.102L487.494,295.815Z" style="fill-rule:nonzero;"/>
    <path d="M383.665,301.29C383.665,298.881 381.848,297.66 380.007,297.66C378.161,297.66 376.344,298.881 376.344,301.29C376.344,303.698 378.098,305.169 380.007,305.169C381.915,305.169 383.665,303.698 383.665,301.29M384.727,311.831C384.727,309.106 382.852,307.419 380.007,307.419C377.157,307.419 375.282,309.106 375.282,311.831C375.282,314.552 377.157,316.335 380.007,316.335C382.852,316.335 384.727,314.552 384.727,311.831M372.498,311.894C372.498,308.515 375.219,306.544 377.469,306.169L377.469,306.073C375.657,305.481 373.561,303.823 373.594,300.881C373.623,297.66 376.407,295.344 380.007,295.344C383.602,295.344 386.386,297.66 386.419,300.881C386.448,303.823 384.352,305.481 382.536,306.073L382.536,306.169C384.79,306.544 387.511,308.515 387.511,311.894C387.511,315.927 384.54,318.652 380.007,318.652C375.469,318.652 372.498,315.927 372.498,311.894" style="fill-rule:nonzero;"/>
    <path d="M395.205,295.815L398.021,295.815L396.705,303.102L394.58,303.102L395.205,295.815Z" style="fill-rule:nonzero;"/>
    <path d="M279.045,345.005L279.045,367.372L276.42,367.372L276.42,349.384C275.511,351.167 274.074,352.451 272.382,352.73L272.382,350.009C274.445,349.384 275.574,347.226 275.79,345.005L279.045,345.005Z" style="fill-rule:nonzero;"/>
    <path d="M299.491,359.956C299.491,356.952 297.554,354.794 294.891,354.794C292.233,354.794 290.17,356.952 290.17,359.956C290.17,362.96 292.233,365.523 294.891,365.523C297.554,365.523 299.491,362.96 299.491,359.956M302.275,359.735C302.275,364.773 298.895,367.84 294.862,367.84C290.825,367.84 286.791,364.773 286.791,356.14C286.791,348.573 290.387,344.535 294.891,344.535C299.179,344.535 301.558,347.723 301.558,351.102L298.77,351.102C298.429,348.194 296.895,346.848 294.8,346.848C292.454,346.848 289.92,349.227 289.637,355.827C290.858,353.515 293.05,352.481 295.175,352.481C298.895,352.481 302.275,355.231 302.275,359.735" style="fill-rule:nonzero;"/>
    <path d="M310.036,345.005L312.853,345.005L311.536,352.292L309.411,352.292L310.036,345.005Z" style="fill-rule:nonzero;"/>
    <path d="M563.6,365.116L573.642,365.116L573.642,367.37L560.692,367.37L560.692,365.274C560.692,362.678 561.85,360.174 564.567,357.795L566.725,355.92C568.071,354.732 570.95,353.166 570.95,350.382C570.95,347.878 569.167,346.849 567.509,346.849C565.288,346.849 563.317,348.912 563.005,352.291L560.192,352.291C560.63,347.753 563.288,344.532 567.759,344.532C570.796,344.532 573.734,346.378 573.734,350.416C573.734,354.637 569.73,356.766 568.2,358.107L566.071,359.987C564.009,361.832 563.538,363.395 563.6,365.116" style="fill-rule:nonzero;"/>
    <path d="M581.978,345.003L584.795,345.003L583.478,352.29L581.353,352.29L581.978,345.003Z" style="fill-rule:nonzero;"/>
    <path d="M792.177,178.127C795.119,178.127 796.806,176.343 796.806,173.435C796.806,170.681 795.119,169.243 792.177,169.243L788.923,169.243L788.923,178.127L792.177,178.127ZM786.235,166.993L792.302,166.993C796.34,166.993 799.56,168.902 799.59,173.372C799.623,177.597 796.34,180.381 792.302,180.381L788.923,180.381L788.923,189.356L786.235,189.356L786.235,166.993Z" style="fill-rule:nonzero;"/>
    <path d="M806.604,180.755L806.604,166.992L809.387,166.992L809.387,180.755C809.387,185.538 811.233,187.513 814.3,187.513C817.366,187.513 819.145,185.538 819.145,180.755L819.145,166.992L821.933,166.992L821.933,180.755C821.933,186.542 819.145,189.826 814.3,189.826C809.45,189.826 806.604,186.792 806.604,180.755" style="fill-rule:nonzero;"/>
    <path d="M830.402,166.992L833.093,166.992L833.093,187.104L840.91,187.104L840.91,189.358L830.402,189.358L830.402,166.992Z" style="fill-rule:nonzero;"/>
    <path d="M846.62,181.85L849.312,181.85C849.745,185.354 851.687,187.45 854.441,187.45C856.725,187.45 859.104,186.325 859.104,183.287C859.104,181.441 858.35,180.162 855.316,179.283L852.941,178.595C850.404,177.875 847.341,176.595 847.341,172.404C847.341,168.995 850.562,166.52 854.066,166.52C858.445,166.52 860.508,169.4 860.729,173.591L858.037,173.591C857.787,170.37 856.225,168.9 854.033,168.9C851.937,168.9 850.125,170.12 850.125,172.529C850.125,174.716 851.783,175.658 854.004,176.345L856.037,176.97C859.162,177.941 861.887,179.158 861.887,183.195C861.887,187.729 858.07,189.829 854.566,189.829C849.591,189.829 846.841,186.383 846.62,181.85" style="fill-rule:nonzero;"/>
    <path d="M869.346,166.992L881.108,166.992L881.108,169.246L872.038,169.246L872.038,176.533L880.108,176.533L880.108,178.721L872.038,178.721L872.038,187.104L881.108,187.104L881.108,189.358L869.346,189.358L869.346,166.992Z" style="fill-rule:nonzero;"/>
    <path d="M919.787,166.992L915.187,189.358L911.717,189.358L908.429,172.183L905.146,189.358L901.675,189.358L897.075,166.992L899.767,166.992L903.487,186.354L907.117,166.992L909.746,166.992L913.404,186.354L917.096,166.992L919.787,166.992Z" style="fill-rule:nonzero;"/>
    <rect x="926.887" y="166.992" width="2.692" height="22.367"/>
    <path d="M942.651,187.105C947.501,187.105 950.347,183.476 950.347,178.159C950.347,172.843 947.501,169.243 942.651,169.243L940.96,169.243L940.96,187.105L942.651,187.105ZM938.272,166.993L942.651,166.993C949.064,166.993 953.13,171.747 953.13,178.188C953.13,184.634 949.064,189.359 942.651,189.359L938.272,189.359L938.272,166.993Z" style="fill-rule:nonzero;"/>
    <path d="M963.822,169.244L957.91,169.244L957.91,166.99L972.456,166.99L972.456,169.244L966.514,169.244L966.514,189.357L963.822,189.357L963.822,169.244Z" style="fill-rule:nonzero;"/>
    <path d="M979.134,166.992L981.826,166.992L981.826,176.658L990.363,176.658L990.363,166.992L993.055,166.992L993.055,189.358L990.363,189.358L990.363,178.908L981.826,178.908L981.826,189.358L979.134,189.358L979.134,166.992Z" style="fill-rule:nonzero;"/>
    <path d="M1133.49,68.245L23.255,68.245" style="fill:none;fill-rule:nonzero;stroke:black;stroke-width:2.36px;"/>
    <path d="M761.062,782.383L759.317,782.383L759.317,780.554L761.062,780.554L761.062,782.383ZM759.321,780.55L757.579,780.55L757.579,778.767L759.321,778.767L759.321,780.55ZM757.579,778.767L755.796,778.767L755.796,776.979L757.579,776.979L757.579,778.767ZM755.796,776.979L753.967,776.979L753.967,775.283L755.796,775.283L755.796,776.979ZM753.963,775.283L752.308,775.283L752.308,773.454L753.963,773.454L753.963,775.283ZM752.308,771.667L752.308,773.45L750.483,773.45L750.483,798.292L748.787,798.292L748.787,773.45L746.954,773.45L746.954,771.667L748.787,771.667L748.787,769.879L750.483,769.879L750.483,771.667L752.308,771.667ZM745.3,773.45L746.954,773.45L746.954,775.279L745.3,775.279L745.3,773.45ZM743.471,775.283L745.3,775.283L745.3,776.979L743.471,776.979L743.471,775.283ZM741.687,776.979L743.471,776.979L743.471,778.767L741.687,778.767L741.687,776.979ZM739.946,778.767L741.688,778.767L741.688,780.55L739.946,780.55L739.946,778.767ZM738.204,780.55L739.946,780.55L739.946,782.379L738.204,782.379L738.204,780.55Z" style="fill-rule:nonzero;stroke:black;stroke-width:0.59px;"/>
    <path d="M1033.1,769.88L1033.1,807.405L749.636,807.405L749.636,781.434" style="fill:none;fill-rule:nonzero;stroke:black;stroke-width:2.36px;"/>
    <path d="M881.234,488.301L881.234,503.255L879.455,503.255L879.455,491.147L876.067,503.255L874.017,503.255L870.63,491.147L870.63,503.255L868.85,503.255L868.85,488.301L871.442,488.301L875.042,501.585L878.638,488.301L881.234,488.301Z" style="fill-rule:nonzero;"/>
    <path d="M893.221,497.253L891.275,490.203L889.312,497.253L893.221,497.253ZM893.642,498.761L888.892,498.761L887.637,503.257L885.817,503.257L890.125,488.303L892.404,488.303L896.712,503.257L894.896,503.257L893.642,498.761Z" style="fill-rule:nonzero;"/>
    <path d="M911.092,488.301L911.092,503.255L908.875,503.255L903.1,490.83L903.1,503.255L901.3,503.255L901.3,488.301L903.521,488.301L909.292,500.726L909.292,488.301L911.092,488.301Z" style="fill-rule:nonzero;"/>
    <path d="M907.412,408.02L898.691,416.312L889.966,408.02L889.966,408.037L881.245,399.745L872.524,408.037" style="fill:none;fill-rule:nonzero;stroke:black;stroke-width:2.36px;"/>
    <path d="M872.58,626.421L885.342,609.834L890.292,614.784L897.905,614.784L906.726,627.121" style="fill:none;fill-rule:nonzero;stroke:black;stroke-width:2.36px;"/>
    <path d="M1055.19,149.733L1056.94,149.733L1056.94,151.563L1055.19,151.563L1055.19,149.733ZM1053.45,151.567L1055.19,151.567L1055.19,153.35L1053.45,153.35L1053.45,151.567ZM1051.67,153.35L1053.45,153.35L1053.45,155.137L1051.67,155.137L1051.67,153.35ZM1049.83,155.137L1051.66,155.137L1051.66,156.833L1049.83,156.833L1049.83,155.137ZM1048.18,156.833L1049.83,156.833L1049.83,158.662L1048.18,158.662L1048.18,156.833ZM1046.35,160.45L1046.35,162.238L1044.65,162.238L1044.65,160.45L1042.83,160.45L1042.83,158.667L1044.65,158.667L1044.65,145.846L1046.35,145.846L1046.35,158.667L1048.18,158.667L1048.18,160.45L1046.35,160.45ZM1041.17,156.833L1042.83,156.833L1042.83,158.662L1041.17,158.662L1041.17,156.833ZM1039.34,155.137L1041.17,155.137L1041.17,156.833L1039.34,156.833L1039.34,155.137ZM1037.56,153.35L1039.34,153.35L1039.34,155.137L1037.56,155.137L1037.56,153.35ZM1035.82,151.567L1037.56,151.567L1037.56,153.35L1035.82,153.35L1035.82,151.567ZM1034.08,149.733L1035.82,149.733L1035.82,151.563L1034.08,151.563L1034.08,149.733Z" style="fill-rule:nonzero;"/>
    <path d="M1056.64,167.682L1056.64,188.902L1034.19,188.902L1034.19,168.548L1034.19,188.902L1034.19,168.548L1011.73,168.548L1011.73,189.765" style="fill:none;fill-rule:nonzero;stroke:black;stroke-width:2.36px;"/>
    <path d="M1045.51,188.903L1045.51,184.736" style="fill:none;fill-rule:nonzero;stroke:black;stroke-width:2.36px;"/>
    <path d="M1045.51,180.44L1045.51,173.995" style="fill:none;fill-rule:nonzero;stroke:black;stroke-width:2.36px;stroke-dasharray:4.3,4.3;"/>
    <path d="M1045.51,171.848L1045.51,167.682" style="fill:none;fill-rule:nonzero;stroke:black;stroke-width:2.36px;"/>
    <path d="M1045.51,153.35L1045.51,135.904L1010.87,135.904" style="fill:none;fill-rule:nonzero;stroke:black;stroke-width:1.89px;"/>
    <path d="M653.404,293.273L653.404,308.003L651.675,308.003L651.675,296.157C651.075,297.332 650.129,298.173 649.016,298.361L649.016,296.569C650.375,296.157 651.116,294.736 651.262,293.273L653.404,293.273Z" style="fill-rule:nonzero;"/>
    <path d="M666.502,300.626C666.502,296.755 665.535,294.551 663.493,294.551C661.456,294.551 660.485,296.755 660.485,300.626C660.485,304.501 661.456,306.743 663.493,306.743C665.535,306.743 666.502,304.501 666.502,300.626M658.652,300.626C658.652,296.076 660.547,293.026 663.493,293.026C666.439,293.026 668.335,295.68 668.335,300.626C668.335,305.572 666.439,308.268 663.493,308.268C660.547,308.268 658.652,305.18 658.652,300.626" style="fill-rule:nonzero;"/>
    <path d="M657.483,691.609C657.483,687.738 656.516,685.534 654.475,685.534C652.437,685.534 651.466,687.738 651.466,691.609C651.466,695.484 652.437,697.726 654.475,697.726C656.516,697.726 657.483,695.484 657.483,691.609M649.633,691.609C649.633,687.059 651.529,684.009 654.475,684.009C657.42,684.009 659.316,686.663 659.316,691.609C659.316,696.555 657.42,699.251 654.475,699.251C651.529,699.251 649.633,696.163 649.633,691.609" style="fill-rule:nonzero;"/>
    <path d="M648.6,318.623L691.992,318.623" style="fill:none;fill-rule:nonzero;stroke:black;stroke-width:2.36px;"/>
    <path d="M648.6,496.199L691.992,496.199" style="fill:none;fill-rule:nonzero;stroke:black;stroke-width:2.36px;"/>
    <path d="M648.6,673.775L691.992,673.775" style="fill:none;fill-rule:nonzero;stroke:black;stroke-width:2.36px;"/>
    <path d="M670.297,638.26L691.993,638.26" style="fill:none;fill-rule:nonzero;stroke:black;stroke-width:2.36px;"/>
    <path d="M670.297,602.745L691.993,602.745" style="fill:none;fill-rule:nonzero;stroke:black;stroke-width:2.36px;"/>
    <path d="M670.297,567.23L691.993,567.23" style="fill:none;fill-rule:nonzero;stroke:black;stroke-width:2.36px;"/>
    <path d="M670.297,531.715L691.993,531.715" style="fill:none;fill-rule:nonzero;stroke:black;stroke-width:2.36px;"/>
    <path d="M670.297,460.684L691.993,460.684" style="fill:none;fill-rule:nonzero;stroke:black;stroke-width:2.36px;"/>
    <path d="M670.297,425.169L691.993,425.169" style="fill:none;fill-rule:nonzero;stroke:black;stroke-width:2.36px;"/>
    <path d="M670.297,389.654L691.993,389.654" style="fill:none;fill-rule:nonzero;stroke:black;stroke-width:2.36px;"/>
    <path d="M670.297,354.139L691.993,354.139" style="fill:none;fill-rule:nonzero;stroke:black;stroke-width:2.36px;"/>
    <path d="M27.989,293.273L27.989,308.003L26.26,308.003L26.26,296.157C25.66,297.332 24.714,298.173 23.601,298.361L23.601,296.569C24.96,296.157 25.701,294.736 25.847,293.273L27.989,293.273Z" style="fill-rule:nonzero;"/>
    <path d="M41.087,300.626C41.087,296.755 40.12,294.551 38.078,294.551C36.041,294.551 35.07,296.755 35.07,300.626C35.07,304.501 36.041,306.743 38.078,306.743C40.12,306.743 41.087,304.501 41.087,300.626M33.237,300.626C33.237,296.076 35.132,293.026 38.078,293.026C41.024,293.026 42.92,295.68 42.92,300.626C42.92,305.572 41.024,308.268 38.078,308.268C35.132,308.268 33.237,305.18 33.237,300.626" style="fill-rule:nonzero;"/>
    <path d="M32.068,691.609C32.068,687.738 31.101,685.534 29.06,685.534C27.022,685.534 26.051,687.738 26.051,691.609C26.051,695.484 27.022,697.726 29.06,697.726C31.101,697.726 32.068,695.484 32.068,691.609M24.218,691.609C24.218,687.059 26.114,684.009 29.06,684.009C32.005,684.009 33.901,686.663 33.901,691.609C33.901,696.555 32.005,699.251 29.06,699.251C26.114,699.251 24.218,696.163 24.218,691.609" style="fill-rule:nonzero;"/>
    <path d="M23.184,318.623L66.575,318.623" style="fill:none;fill-rule:nonzero;stroke:black;stroke-width:2.36px;"/>
    <path d="M23.184,496.199L66.575,496.199" style="fill:none;fill-rule:nonzero;stroke:black;stroke-width:2.36px;"/>
    <path d="M23.184,673.775L66.575,673.775" style="fill:none;fill-rule:nonzero;stroke:black;stroke-width:2.36px;"/>
    <path d="M44.881,638.26L66.577,638.26" style="fill:none;fill-rule:nonzero;stroke:black;stroke-width:2.36px;"/>
    <path d="M44.881,602.745L66.577,602.745" style="fill:none;fill-rule:nonzero;stroke:black;stroke-width:2.36px;"/>
    <path d="M44.881,567.23L66.577,567.23" style="fill:none;fill-rule:nonzero;stroke:black;stroke-width:2.36px;"/>
    <path d="M44.881,531.715L66.577,531.715" style="fill:none;fill-rule:nonzero;stroke:black;stroke-width:2.36px;"/>
    <path d="M44.881,460.684L66.577,460.684" style="fill:none;fill-rule:nonzero;stroke:black;stroke-width:2.36px;"/>
    <path d="M44.881,425.169L66.577,425.169" style="fill:none;fill-rule:nonzero;stroke:black;stroke-width:2.36px;"/>
    <path d="M44.881,389.654L66.577,389.654" style="fill:none;fill-rule:nonzero;stroke:black;stroke-width:2.36px;"/>
    <path d="M44.881,354.139L66.577,354.139" style="fill:none;fill-rule:nonzero;stroke:black;stroke-width:2.36px;"/>
    <path d="M872.18,367.61L873.98,367.61L873.98,381.06L879.209,381.06L879.209,382.565L872.18,382.565L872.18,367.61Z" style="fill-rule:nonzero;"/>
    <path d="M884.007,367.61L891.873,367.61L891.873,369.115L885.807,369.115L885.807,373.99L891.307,373.99L891.307,375.498L885.807,375.498L885.807,382.565L884.007,382.565L884.007,367.61Z" style="fill-rule:nonzero;"/>
    <path d="M905.792,375.077C905.792,371.29 904.475,368.865 901.9,368.865C899.33,368.865 898.009,371.29 898.009,375.077C898.009,378.865 899.33,381.331 901.9,381.331C904.475,381.331 905.792,378.865 905.792,375.077M896.15,375.077C896.15,370.223 898.409,367.36 901.9,367.36C905.392,367.36 907.655,370.244 907.655,375.077C907.655,379.91 905.392,382.84 901.9,382.84C898.409,382.84 896.15,379.931 896.15,375.077" style="fill-rule:nonzero;"/>
    <path d="M871.846,577.707L879.713,577.707L879.713,579.212L873.646,579.212L873.646,584.087L879.042,584.087L879.042,585.549L873.646,585.549L873.646,591.157L879.713,591.157L879.713,592.662L871.846,592.662L871.846,577.707Z" style="fill-rule:nonzero;"/>
    <path d="M894.482,577.707L894.482,592.662L892.265,592.662L886.49,580.237L886.49,592.662L884.69,592.662L884.69,577.707L886.911,577.707L892.682,590.132L892.682,577.707L894.482,577.707Z" style="fill-rule:nonzero;"/>
    <path d="M909.454,577.707L905.396,592.662L903.117,592.662L899.058,577.707L900.9,577.707L904.267,590.72L907.612,577.707L909.454,577.707Z" style="fill-rule:nonzero;"/>
    <path d="M962.067,507.629L960.237,507.629L960.237,505.883L962.067,505.883L962.067,507.629ZM963.85,505.887L962.067,505.887L962.067,504.146L963.85,504.146L963.85,505.887ZM965.637,504.146L963.85,504.146L963.85,502.362L965.637,502.362L965.637,504.146ZM967.337,502.362L965.642,502.362L965.642,500.533L967.337,500.533L967.337,502.362ZM969.167,500.529L967.337,500.529L967.337,498.875L969.167,498.875L969.167,500.529ZM970.95,498.875L969.167,498.875L969.167,497.05L956.346,497.05L956.346,495.354L969.167,495.354L969.167,493.521L970.95,493.521L970.95,495.354L972.737,495.354L972.737,497.05L970.95,497.05L970.95,498.875ZM969.167,493.521L967.337,493.521L967.337,491.867L969.167,491.867L969.167,493.521ZM967.337,491.867L965.642,491.867L965.642,490.037L967.337,490.037L967.337,491.867ZM965.637,490.037L963.85,490.037L963.85,488.254L965.637,488.254L965.637,490.037ZM963.85,488.254L962.067,488.254L962.067,486.512L963.85,486.512L963.85,488.254ZM962.067,486.512L960.237,486.512L960.237,484.771L962.067,484.771L962.067,486.512Z" style="fill-rule:nonzero;"/>
    <path d="M961.862,460.379L960.033,460.379L960.033,458.633L961.862,458.633L961.862,460.379ZM963.65,458.633L961.867,458.633L961.867,456.892L963.65,456.892L963.65,458.633ZM965.437,456.896L963.65,456.896L963.65,455.112L965.437,455.112L965.437,456.896ZM967.133,455.112L965.437,455.112L965.437,453.283L967.133,453.283L967.133,455.112ZM968.963,453.279L967.133,453.279L967.133,451.625L968.963,451.625L968.963,453.279ZM970.746,451.625L968.963,451.625L968.963,449.8L956.142,449.8L956.142,448.1L968.963,448.1L968.963,446.271L970.746,446.271L970.746,448.1L972.533,448.1L972.533,449.8L970.746,449.8L970.746,451.625ZM968.963,446.271L967.133,446.271L967.133,444.617L968.963,444.617L968.963,446.271ZM967.133,444.617L965.437,444.617L965.437,442.787L967.133,442.787L967.133,444.617ZM965.437,442.787L963.65,442.787L963.65,441.004L965.437,441.004L965.437,442.787ZM963.65,441L961.867,441L961.867,439.258L963.65,439.258L963.65,441ZM961.862,439.262L960.033,439.262L960.033,437.521L961.862,437.521L961.862,439.262Z" style="fill-rule:nonzero;"/>
    <path d="M961.862,533.758L960.033,533.758L960.033,532.017L961.862,532.017L961.862,533.758ZM963.65,535.5L961.867,535.5L961.867,533.758L963.65,533.758L963.65,535.5ZM965.437,537.283L963.65,537.283L963.65,535.5L965.437,535.5L965.437,537.283ZM967.133,539.113L965.437,539.113L965.437,537.283L967.133,537.283L967.133,539.113ZM968.963,540.767L967.133,540.767L967.133,539.112L968.963,539.112L968.963,540.767ZM970.746,542.596L972.533,542.596L972.533,544.292L970.746,544.292L970.746,546.121L968.963,546.121L968.963,544.292L956.142,544.292L956.142,542.596L968.963,542.596L968.963,540.767L970.746,540.767L970.746,542.596ZM967.133,546.121L968.962,546.121L968.962,547.775L967.133,547.775L967.133,546.121ZM965.437,547.775L967.133,547.775L967.133,549.604L965.437,549.604L965.437,547.775ZM963.65,549.608L965.437,549.608L965.437,551.392L963.65,551.392L963.65,549.608ZM961.862,551.392L963.646,551.392L963.646,553.133L961.862,553.133L961.862,551.392ZM960.033,553.133L961.862,553.133L961.862,554.875L960.033,554.875L960.033,553.133Z" style="fill-rule:nonzero;"/>
    <path d="M960.902,543.443L946.764,543.443L946.764,601.252L870.668,601.252" style="fill:none;fill-rule:nonzero;stroke:black;stroke-width:1.89px;"/>
    <path d="M918.574,496.199L962.345,496.199" style="fill:none;fill-rule:nonzero;stroke:black;stroke-width:1.89px;"/>
    <path d="M960.902,448.95L946.764,448.95L946.764,391.15L870.668,391.15" style="fill:none;fill-rule:nonzero;stroke:black;stroke-width:1.89px;"/>
    <path d="M464.092,353.406C462.197,350.122 463.322,345.922 466.605,344.027C469.888,342.131 474.088,343.256 475.984,346.539C477.884,349.822 476.759,354.022 473.472,355.918C470.188,357.814 465.988,356.689 464.092,353.406" style="fill-rule:nonzero;"/>
    <path d="M387.007,355.92C383.724,354.024 382.599,349.824 384.495,346.54C386.391,343.253 390.591,342.128 393.874,344.028C397.157,345.924 398.282,350.124 396.387,353.407C394.491,356.69 390.291,357.815 387.007,355.92" style="fill-rule:nonzero;"/>
    <path d="M533.028,390.549C533.028,386.757 536.103,383.682 539.895,383.682C543.69,383.682 546.765,386.757 546.765,390.549C546.765,394.341 543.69,397.416 539.895,397.416C536.103,397.416 533.028,394.341 533.028,390.549" style="fill-rule:nonzero;"/>
    <path d="M320.59,397.76C316.798,397.76 313.723,394.685 313.723,390.893C313.723,387.097 316.798,384.022 320.59,384.022C324.382,384.022 327.457,387.097 327.457,390.893C327.457,394.685 324.382,397.76 320.59,397.76" style="fill-rule:nonzero;"/>
</svg>
