<?xml version="1.0" encoding="UTF-8" standalone="no"?>
<!DOCTYPE svg PUBLIC "-//W3C//DTD SVG 1.1//EN" "http://www.w3.org/Graphics/SVG/1.1/DTD/svg11.dtd">
<svg width="100%" height="100%" viewBox="0 0 1158 898" version="1.1" xmlns="http://www.w3.org/2000/svg" xmlns:xlink="http://www.w3.org/1999/xlink" xml:space="preserve" xmlns:serif="http://www.serif.com/" style="fill-rule:evenodd;clip-rule:evenodd;stroke-miterlimit:10;">
<pattern id="diagonalHatch" width="4" height="10" patternTransform="rotate(45 0 0)" patternUnits="userSpaceOnUse">
  <line x1="0" y1="0" x2="0" y2="10" style="stroke:black; stroke-width:2.13px" />
</pattern>
    <rect x="0" y="0" width="1157.48" height="897.637" style="fill:white;"/>
    <clipPath id="_clip1">
        <rect x="66.297" y="226.32" width="114.288" height="539.485" clip-rule="nonzero"/>
    </clipPath>
    <g clip-path="url(#_clip1)">
        <path d="M158.874,227.361L88.008,227.361C76.591,227.361 67.337,236.616 67.337,248.032L67.337,744.095C67.337,755.507 76.591,764.761 88.008,764.761L158.874,764.761C170.291,764.761 179.545,755.507 179.545,744.095L179.545,248.032C179.545,236.616 170.291,227.361 158.874,227.361Z" style="fill:none;fill-rule:nonzero;stroke:black;stroke-width:2.08px;"/>
    </g>
    <path d="M108.678,298.228L108.678,693.899C108.678,702.053 115.286,708.661 123.44,708.661C131.594,708.661 138.207,702.053 138.207,693.899L138.207,298.228C138.207,290.074 131.594,283.465 123.44,283.465C115.286,283.465 108.678,290.074 108.678,298.228" style="fill:url(#diagonalHatch);fill-rule:nonzero;stroke:black;stroke-width:2.13px;stroke-linejoin:round;stroke-miterlimit:2;"/>
    <clipPath id="_clip2">
        <rect x="243.463" y="226.32" width="114.288" height="539.485" clip-rule="nonzero"/>
    </clipPath>
    <g clip-path="url(#_clip2)">
        <path d="M336.04,227.361L265.173,227.361C253.756,227.361 244.502,236.616 244.502,248.032L244.502,744.095C244.502,755.507 253.756,764.761 265.173,764.761L336.04,764.761C347.456,764.761 356.71,755.507 356.71,744.095L356.71,248.032C356.71,236.616 347.456,227.361 336.04,227.361Z" style="fill:none;fill-rule:nonzero;stroke:black;stroke-width:2.08px;"/>
    </g>
    <path d="M285.843,298.228L285.843,693.899C285.843,702.053 292.451,708.661 300.605,708.661C308.76,708.661 315.372,702.053 315.372,693.899L315.372,298.228C315.372,290.074 308.76,283.465 300.605,283.465C292.451,283.465 285.843,290.074 285.843,298.228" style="fill:url(#diagonalHatch);fill-rule:nonzero;stroke:black;stroke-width:2.13px;stroke-linejoin:round;stroke-miterlimit:2;"/>
    <clipPath id="_clip3">
        <rect x="420.628" y="226.32" width="114.288" height="539.485" clip-rule="nonzero"/>
    </clipPath>
    <g clip-path="url(#_clip3)">
        <path d="M513.205,227.361L442.338,227.361C430.922,227.361 421.668,236.616 421.668,248.032L421.668,744.095C421.668,755.507 430.922,764.761 442.338,764.761L513.205,764.761C524.622,764.761 533.876,755.507 533.876,744.095L533.876,248.032C533.876,236.616 524.622,227.361 513.205,227.361Z" style="fill:none;fill-rule:nonzero;stroke:black;stroke-width:2.08px;"/>
    </g>
    <path d="M463.008,298.228L463.008,693.899C463.008,702.053 469.617,708.661 477.771,708.661C485.925,708.661 492.538,702.053 492.538,693.899L492.538,298.228C492.538,290.074 485.925,283.465 477.771,283.465C469.617,283.465 463.008,290.074 463.008,298.228" style="fill:url(#diagonalHatch);fill-rule:nonzero;stroke:black;stroke-width:2.13px;stroke-linejoin:round;stroke-miterlimit:2;"/>
    <clipPath id="_clip4">
        <rect x="963.935" y="226.32" width="114.288" height="539.485" clip-rule="nonzero"/>
    </clipPath>
    <g clip-path="url(#_clip4)">
        <path d="M1056.51,227.361L985.645,227.361C974.229,227.361 964.975,236.616 964.975,248.032L964.975,744.095C964.975,755.507 974.229,764.761 985.645,764.761L1056.51,764.761C1067.93,764.761 1077.18,755.507 1077.18,744.095L1077.18,248.032C1077.18,236.616 1067.93,227.361 1056.51,227.361Z" style="fill:none;fill-rule:nonzero;stroke:black;stroke-width:2.08px;"/>
    </g>
    <path d="M1006.32,298.228L1006.32,693.899C1006.32,702.053 1012.92,708.661 1021.08,708.661C1029.23,708.661 1035.85,702.053 1035.85,693.899L1035.85,298.228C1035.85,290.074 1029.23,283.465 1021.08,283.465C1012.92,283.465 1006.32,290.074 1006.32,298.228" style="fill:url(#diagonalHatch);fill-rule:nonzero;stroke:black;stroke-width:2.13px;stroke-linejoin:round;stroke-miterlimit:2;"/>
    <clipPath id="_clip5">
        <rect x="704.093" y="226.32" width="114.288" height="539.485" clip-rule="nonzero"/>
    </clipPath>
    <g clip-path="url(#_clip5)">
        <path d="M796.67,227.361L725.803,227.361C714.386,227.361 705.132,236.616 705.132,248.032L705.132,744.095C705.132,755.507 714.386,764.761 725.803,764.761L796.67,764.761C808.086,764.761 817.34,755.507 817.34,744.095L817.34,248.032C817.34,236.616 808.086,227.361 796.67,227.361Z" style="fill:none;fill-rule:nonzero;stroke:black;stroke-width:2.08px;"/>
    </g>
    <path d="M747.046,434.054L747.046,558.071C747.046,566.225 753.654,572.834 761.808,572.834C769.963,572.834 776.575,566.225 776.575,558.071L776.575,434.054C776.575,425.9 769.963,419.292 761.808,419.292C753.654,419.292 747.046,425.9 747.046,434.054" style="fill-rule:nonzero;"/>
    <path d="M91.545,392.897C85.024,392.897 79.74,387.61 79.74,381.089L79.74,258.243C79.74,251.718 85.024,246.435 91.545,246.435L155.34,246.435C161.861,246.435 167.149,251.718 167.149,258.243L167.149,381.089C167.149,387.61 161.861,392.897 155.34,392.897L91.545,392.897Z" style="fill:white;fill-rule:nonzero;"/>
    <path d="M90.503,362.282L90.503,362.174C83.903,361.645 78.699,356.103 78.699,349.365L78.699,289.932C78.699,282.845 84.461,277.082 91.545,277.082L155.34,277.082C162.424,277.082 168.19,282.845 168.19,289.932L168.19,349.365C168.19,356.103 162.982,361.645 156.382,362.174L156.382,362.215L155.34,362.282L90.503,362.282Z" style="fill:white;fill-rule:nonzero;"/>
    <path d="M155.338,276.039L91.542,276.039C83.884,276.039 77.655,282.272 77.655,289.931L77.655,349.368C77.655,356.318 82.784,362.093 89.459,363.102L89.459,363.26L91.542,363.322L157.422,363.322L157.422,363.102C164.097,362.093 169.23,356.318 169.23,349.368L169.23,289.931C169.23,282.272 162.997,276.039 155.338,276.039M155.338,278.122C161.859,278.122 167.147,283.41 167.147,289.931L167.147,349.368C167.147,355.889 161.859,361.177 155.338,361.177L155.338,361.239L91.542,361.239L91.542,361.177C85.022,361.177 79.738,355.889 79.738,349.368L79.738,289.931C79.738,283.41 85.022,278.122 91.542,278.122L155.338,278.122Z" style="fill-rule:nonzero;"/>
    <path d="M79.738,313.759L105.734,313.759C108.992,313.759 111.638,316.405 111.638,319.663C111.638,322.925 108.992,325.571 105.734,325.571L79.738,325.571L79.738,313.759Z" style="fill:url(#diagonalHatch);fill-rule:nonzero;stroke:black;stroke-width:2.08px;"/>
    <path d="M155.338,242.266L91.542,242.266C82.738,242.266 75.572,249.433 75.572,258.241L75.572,381.087C75.572,389.9 82.738,397.062 91.542,397.062L155.338,397.062C164.147,397.062 171.313,389.9 171.313,381.087L171.313,258.241C171.313,249.433 164.147,242.266 155.338,242.266M155.338,246.433C161.859,246.433 167.147,251.72 167.147,258.241L167.147,381.087C167.147,387.612 161.859,392.895 155.338,392.895L91.542,392.895C85.022,392.895 79.738,387.612 79.738,381.087L79.738,258.241C79.738,251.72 85.022,246.433 91.542,246.433L155.338,246.433Z" style="fill-rule:nonzero;"/>
    <path d="M268.711,392.897C262.19,392.897 256.903,387.61 256.903,381.089L256.903,258.243C256.903,251.718 262.19,246.435 268.711,246.435L332.503,246.435C339.024,246.435 344.311,251.718 344.311,258.243L344.311,381.089C344.311,387.61 339.024,392.897 332.503,392.897L268.711,392.897Z" style="fill:white;fill-rule:nonzero;"/>
    <path d="M267.667,362.282L267.667,362.174C261.067,361.645 255.863,356.103 255.863,349.365L255.863,289.932C255.863,282.845 261.626,277.082 268.709,277.082L332.505,277.082C339.588,277.082 345.355,282.845 345.355,289.932L345.355,349.365C345.355,356.103 340.147,361.645 333.547,362.174L333.547,362.215L332.505,362.282L267.667,362.282Z" style="fill:white;fill-rule:nonzero;"/>
    <path d="M332.503,276.039L268.712,276.039C261.053,276.039 254.82,282.272 254.82,289.931L254.82,349.368C254.82,356.318 259.953,362.093 266.628,363.102L266.628,363.26L268.712,363.322L334.587,363.322L334.587,363.102C341.262,362.093 346.395,356.318 346.395,349.368L346.395,289.931C346.395,282.272 340.162,276.039 332.503,276.039M332.503,278.122C339.024,278.122 344.312,283.41 344.312,289.931L344.312,349.368C344.312,355.889 339.024,361.177 332.503,361.177L332.503,361.239L268.712,361.239L268.712,361.177C262.191,361.177 256.903,355.889 256.903,349.368L256.903,289.931C256.903,283.41 262.191,278.122 268.712,278.122L332.503,278.122Z" style="fill-rule:nonzero;"/>
    <path d="M256.903,313.759L282.899,313.759C286.161,313.759 288.803,316.405 288.803,319.663C288.803,322.925 286.161,325.571 282.899,325.571L256.903,325.571L256.903,313.759Z" style="fill:url(#diagonalHatch);fill-rule:nonzero;stroke:black;stroke-width:2.08px;"/>
    <path d="M332.503,242.266L268.712,242.266C259.903,242.266 252.737,249.433 252.737,258.241L252.737,381.087C252.737,389.9 259.903,397.062 268.712,397.062L332.503,397.062C341.312,397.062 348.478,389.9 348.478,381.087L348.478,258.241C348.478,249.433 341.312,242.266 332.503,242.266M332.503,246.433C339.024,246.433 344.312,251.72 344.312,258.241L344.312,381.087C344.312,387.612 339.024,392.895 332.503,392.895L268.712,392.895C262.191,392.895 256.903,387.612 256.903,381.087L256.903,258.241C256.903,251.72 262.191,246.433 268.712,246.433L332.503,246.433Z" style="fill-rule:nonzero;"/>
    <path d="M445.876,745.965C439.355,745.965 434.067,740.677 434.067,734.157L434.067,611.311C434.067,604.786 439.355,599.502 445.876,599.502L509.672,599.502C516.192,599.502 521.476,604.786 521.476,611.311L521.476,734.157C521.476,740.677 516.192,745.965 509.672,745.965L445.876,745.965Z" style="fill:white;fill-rule:nonzero;"/>
    <path d="M444.834,715.35L444.834,715.242C438.234,714.712 433.03,709.171 433.03,702.433L433.03,643C433.03,635.912 438.792,630.15 445.876,630.15L509.672,630.15C516.755,630.15 522.522,635.912 522.522,643L522.522,702.433C522.522,709.171 517.313,714.712 510.713,715.242L510.713,715.283L509.672,715.35L444.834,715.35Z" style="fill:white;fill-rule:nonzero;"/>
    <path d="M509.67,629.107L445.874,629.107C438.216,629.107 431.983,635.34 431.983,642.999L431.983,702.436C431.983,709.386 437.116,715.161 443.791,716.174L443.791,716.328L445.874,716.39L511.753,716.39L511.753,716.174C518.428,715.161 523.558,709.386 523.558,702.436L523.558,642.999C523.558,635.34 517.328,629.107 509.67,629.107M509.67,631.19C516.191,631.19 521.474,636.478 521.474,642.999L521.474,702.436C521.474,708.957 516.191,714.245 509.67,714.245L509.67,714.307L445.874,714.307L445.874,714.245C439.353,714.245 434.066,708.957 434.066,702.436L434.066,642.999C434.066,636.478 439.353,631.19 445.874,631.19L509.67,631.19Z" style="fill-rule:nonzero;"/>
    <path d="M434.067,666.829L460.063,666.829C463.326,666.829 465.967,669.471 465.967,672.733C465.967,675.996 463.326,678.637 460.063,678.637L434.067,678.637L434.067,666.829Z" style="fill:url(#diagonalHatch);fill-rule:nonzero;stroke:black;stroke-width:2.08px;"/>
    <path d="M509.67,595.335L445.874,595.335C437.066,595.335 429.899,602.501 429.899,611.31L429.899,734.155C429.899,742.968 437.066,750.13 445.874,750.13L509.67,750.13C518.478,750.13 525.641,742.968 525.641,734.155L525.641,611.31C525.641,602.501 518.478,595.335 509.67,595.335M509.67,599.501C516.191,599.501 521.474,604.789 521.474,611.31L521.474,734.155C521.474,740.68 516.191,745.964 509.67,745.964L445.874,745.964C439.353,745.964 434.066,740.68 434.066,734.155L434.066,611.31C434.066,604.789 439.353,599.501 445.874,599.501L509.67,599.501Z" style="fill-rule:nonzero;"/>
    <path d="M989.185,745.965C982.664,745.965 977.376,740.677 977.376,734.157L977.376,611.311C977.376,604.786 982.664,599.502 989.185,599.502L1052.98,599.502C1059.5,599.502 1064.79,604.786 1064.79,611.311L1064.79,734.157C1064.79,740.677 1059.5,745.965 1052.98,745.965L989.185,745.965Z" style="fill:white;fill-rule:nonzero;"/>
    <path d="M988.139,715.35L988.139,715.242C981.539,714.712 976.335,709.171 976.335,702.433L976.335,643C976.335,635.912 982.097,630.15 989.18,630.15L1052.98,630.15C1060.06,630.15 1065.83,635.912 1065.83,643L1065.83,702.433C1065.83,709.171 1060.62,714.712 1054.02,715.242L1054.02,715.283L1052.98,715.35L988.139,715.35Z" style="fill:white;fill-rule:nonzero;"/>
    <path d="M1052.97,629.107L989.183,629.107C981.524,629.107 975.291,635.34 975.291,642.999L975.291,702.436C975.291,709.386 980.424,715.161 987.099,716.174L987.099,716.328L989.183,716.39L1055.06,716.39L1055.06,716.174C1061.74,715.161 1066.87,709.386 1066.87,702.436L1066.87,642.999C1066.87,635.34 1060.64,629.107 1052.97,629.107M1052.97,631.19C1059.5,631.19 1064.78,636.478 1064.78,642.999L1064.78,702.436C1064.78,708.957 1059.5,714.245 1052.97,714.245L1052.97,714.307L989.183,714.307L989.183,714.245C982.662,714.245 977.374,708.957 977.374,702.436L977.374,642.999C977.374,636.478 982.662,631.19 989.183,631.19L1052.97,631.19Z" style="fill-rule:nonzero;"/>
    <path d="M977.376,666.829L1003.37,666.829C1006.63,666.829 1009.28,669.471 1009.28,672.733C1009.28,675.996 1006.63,678.637 1003.37,678.637L977.376,678.637L977.376,666.829Z" style="fill:url(#diagonalHatch);fill-rule:nonzero;stroke:black;stroke-width:2.08px;"/>
    <path d="M1052.97,595.335L989.183,595.335C980.374,595.335 973.208,602.501 973.208,611.31L973.208,734.155C973.208,742.968 980.374,750.13 989.183,750.13L1052.97,750.13C1061.78,750.13 1068.95,742.968 1068.95,734.155L1068.95,611.31C1068.95,602.501 1061.78,595.335 1052.97,595.335M1052.97,599.501C1059.5,599.501 1064.78,604.789 1064.78,611.31L1064.78,734.155C1064.78,740.68 1059.5,745.964 1052.97,745.964L989.183,745.964C982.662,745.964 977.374,740.68 977.374,734.155L977.374,611.31C977.374,604.789 982.662,599.501 989.183,599.501L1052.97,599.501Z" style="fill-rule:nonzero;"/>
    <path d="M729.342,568.253C722.821,568.253 717.533,562.966 717.533,556.445L717.533,433.595C717.533,427.074 722.821,421.791 729.342,421.791L793.137,421.791C799.654,421.791 804.942,427.074 804.942,433.595L804.942,556.445C804.942,562.966 799.654,568.253 793.137,568.253L729.342,568.253Z" style="fill:white;fill-rule:nonzero;"/>
    <path d="M728.3,537.638L728.3,537.53C721.7,537 716.492,531.459 716.492,524.721L716.492,465.288C716.492,458.2 722.254,452.438 729.342,452.438L793.137,452.438C800.221,452.438 805.987,458.2 805.987,465.288L805.987,524.721C805.987,531.459 800.779,537 794.179,537.53L794.179,537.571L793.137,537.638L728.3,537.638Z" style="fill:white;fill-rule:nonzero;"/>
    <path d="M793.135,451.395L729.34,451.395C721.681,451.395 715.448,457.629 715.448,465.287L715.448,524.725C715.448,531.675 720.581,537.45 727.256,538.458L727.256,538.616L729.34,538.679L795.219,538.679L795.219,538.458C801.894,537.45 807.023,531.675 807.023,524.725L807.023,465.287C807.023,457.629 800.794,451.395 793.135,451.395M793.135,453.479C799.652,453.479 804.94,458.766 804.94,465.287L804.94,524.725C804.94,531.245 799.652,536.533 793.135,536.533L793.135,536.595L729.34,536.595L729.34,536.533C722.819,536.533 717.531,531.245 717.531,524.725L717.531,465.287C717.531,458.766 722.819,453.479 729.34,453.479L793.135,453.479Z" style="fill-rule:nonzero;"/>
    <path d="M717.533,489.115L743.529,489.115C746.787,489.115 749.433,491.761 749.433,495.019C749.433,498.282 746.787,500.923 743.529,500.923L717.533,500.923L717.533,489.115Z" style="fill:url(#diagonalHatch);fill-rule:nonzero;stroke:black;stroke-width:2.08px;"/>
    <path d="M793.135,417.622L729.34,417.622C720.531,417.622 713.365,424.789 713.365,433.593L713.365,556.443C713.365,565.256 720.531,572.418 729.34,572.418L793.135,572.418C801.94,572.418 809.106,565.256 809.106,556.443L809.106,433.593C809.106,424.789 801.94,417.622 793.135,417.622M793.135,421.789C799.652,421.789 804.94,427.077 804.94,433.593L804.94,556.443C804.94,562.968 799.652,568.252 793.135,568.252L729.34,568.252C722.819,568.252 717.531,562.968 717.531,556.443L717.531,433.593C717.531,427.077 722.819,421.789 729.34,421.789L793.135,421.789Z" style="fill-rule:nonzero;"/>
    <path d="M548.553,181.799L551.245,181.799C551.678,185.303 553.62,187.399 556.374,187.399C558.657,187.399 561.036,186.274 561.036,183.236C561.036,181.39 560.282,180.111 557.249,179.232L554.874,178.545C552.336,177.824 549.274,176.545 549.274,172.353C549.274,168.945 552.495,166.47 555.999,166.47C560.378,166.47 562.44,169.349 562.661,173.54L559.97,173.54C559.72,170.32 558.157,168.849 555.965,168.849C553.87,168.849 552.057,170.07 552.057,172.478C552.057,174.665 553.715,175.607 555.936,176.295L557.97,176.92C561.095,177.89 563.82,179.107 563.82,183.145C563.82,187.678 560.003,189.778 556.499,189.778C551.524,189.778 548.774,186.332 548.553,181.799" style="fill-rule:nonzero;"/>
    <path d="M570.983,180.704L570.983,166.942L573.767,166.942L573.767,180.704C573.767,185.487 575.612,187.462 578.679,187.462C581.746,187.462 583.525,185.487 583.525,180.704L583.525,166.942L586.312,166.942L586.312,180.704C586.312,186.492 583.525,189.775 578.679,189.775C573.829,189.775 570.983,186.742 570.983,180.704" style="fill-rule:nonzero;"/>
    <path d="M601.07,187.054C603.761,187.054 605.886,185.617 605.886,182.675C605.886,180.079 603.978,178.421 601.195,178.421L597.474,178.421L597.474,187.054L601.07,187.054ZM601.007,176.229C603.478,176.229 604.795,174.637 604.795,172.571C604.795,170.567 603.511,169.192 600.665,169.192L597.474,169.192L597.474,176.229L601.007,176.229ZM594.782,166.942L601.382,166.942C604.795,166.942 607.515,168.912 607.545,172.162C607.578,174.7 605.67,176.479 604.04,177.108L604.04,177.2C605.857,177.608 608.674,179.233 608.674,182.8C608.674,186.396 605.92,189.308 601.445,189.308L594.782,189.308L594.782,166.942Z" style="fill-rule:nonzero;"/>
    <path d="M639.534,178.108C639.534,172.446 637.563,168.817 633.717,168.817C629.867,168.817 627.896,172.446 627.896,178.108C627.896,183.771 629.867,187.463 633.717,187.463C637.563,187.463 639.534,183.771 639.534,178.108M625.113,178.108C625.113,170.85 628.492,166.563 633.717,166.563C638.938,166.563 642.317,170.883 642.317,178.108C642.317,185.333 638.938,189.713 633.717,189.713C628.492,189.713 625.113,185.367 625.113,178.108" style="fill-rule:nonzero;"/>
    <path d="M648.948,181.799L651.639,181.799C652.073,185.303 654.014,187.399 656.764,187.399C659.052,187.399 661.431,186.274 661.431,183.236C661.431,181.39 660.677,180.111 657.643,179.232L655.264,178.545C652.735,177.824 649.668,176.545 649.668,172.353C649.668,168.945 652.889,166.47 656.393,166.47C660.768,166.47 662.835,169.349 663.056,173.54L660.364,173.54C660.114,170.32 658.552,168.849 656.36,168.849C654.264,168.849 652.448,170.07 652.448,172.478C652.448,174.665 654.11,175.607 656.331,176.295L658.36,176.92C661.489,177.89 664.214,179.107 664.214,183.145C664.214,187.678 660.398,189.778 656.893,189.778C651.918,189.778 649.168,186.332 648.948,181.799" style="fill-rule:nonzero;"/>
    <path d="M670.796,178.108C670.796,170.85 673.892,166.563 679.275,166.563C683.53,166.563 686.063,169.758 686.846,174.571L684.063,174.571C683.688,171.6 682.059,168.817 679.305,168.817C675.396,168.817 673.584,172.446 673.584,178.108C673.584,183.771 675.3,187.463 679.305,187.463C682.121,187.463 684.03,184.583 684.342,181.55L687.125,181.55C686.217,187.054 683.188,189.713 679.305,189.713C673.925,189.713 670.796,185.367 670.796,178.108" style="fill-rule:nonzero;"/>
    <path d="M990.392,167.004L990.392,189.371L987.076,189.371L978.447,170.787L978.447,189.371L975.755,189.371L975.755,167.004L979.067,167.004L987.701,185.583L987.701,167.004L990.392,167.004Z" style="fill-rule:nonzero;"/>
    <path d="M1012.59,178.171C1012.59,172.509 1010.62,168.88 1006.78,168.88C1002.93,168.88 1000.96,172.509 1000.96,178.171C1000.96,183.834 1002.93,187.525 1006.78,187.525C1010.62,187.525 1012.59,183.834 1012.59,178.171M998.172,178.171C998.172,170.913 1001.56,166.625 1006.78,166.625C1012,166.625 1015.38,170.946 1015.38,178.171C1015.38,185.396 1012,189.775 1006.78,189.775C1001.56,189.775 998.172,185.43 998.172,178.171" style="fill-rule:nonzero;"/>
    <rect x="1023.33" y="167.004" width="2.692" height="22.367"/>
    <path d="M1033.59,181.862L1036.29,181.862C1036.72,185.366 1038.66,187.462 1041.41,187.462C1043.7,187.462 1046.08,186.337 1046.08,183.3C1046.08,181.454 1045.32,180.175 1042.29,179.295L1039.91,178.608C1037.38,177.887 1034.31,176.608 1034.31,172.416C1034.31,169.008 1037.54,166.533 1041.04,166.533C1045.42,166.533 1047.49,169.412 1047.71,173.604L1045.01,173.604C1044.76,170.383 1043.2,168.912 1041.01,168.912C1038.91,168.912 1037.1,170.133 1037.1,172.541C1037.1,174.729 1038.76,175.67 1040.98,176.358L1043.01,176.983C1046.14,177.954 1048.86,179.17 1048.86,183.208C1048.86,187.741 1045.04,189.841 1041.54,189.841C1036.57,189.841 1033.81,186.395 1033.59,181.862" style="fill-rule:nonzero;"/>
    <path d="M1056.32,167.004L1068.08,167.004L1068.08,169.258L1059.01,169.258L1059.01,176.546L1067.08,176.546L1067.08,178.733L1059.01,178.733L1059.01,187.117L1068.08,187.117L1068.08,189.371L1056.32,189.371L1056.32,167.004Z" style="fill-rule:nonzero;"/>
    <path d="M24.067,44.748L26.759,44.748C27.197,48.253 29.134,50.348 31.888,50.348C34.172,50.348 36.551,49.223 36.551,46.186C36.551,44.34 35.797,43.061 32.763,42.182L30.388,41.494C27.851,40.773 24.788,39.494 24.788,35.303C24.788,31.894 28.009,29.419 31.513,29.419C35.892,29.419 37.955,32.298 38.176,36.49L35.484,36.49C35.234,33.269 33.672,31.798 31.48,31.798C29.384,31.798 27.572,33.019 27.572,35.428C27.572,37.619 29.23,38.557 31.447,39.244L33.484,39.869C36.609,40.84 39.334,42.057 39.334,46.094C39.334,50.632 35.517,52.728 32.013,52.728C27.038,52.728 24.288,49.282 24.067,44.748" style="fill-rule:nonzero;"/>
    <path d="M61.903,41.058C61.903,35.395 59.933,31.766 56.087,31.766C52.237,31.766 50.266,35.395 50.266,41.058C50.266,46.72 52.237,50.412 56.087,50.412C59.933,50.412 61.903,46.72 61.903,41.058M47.483,41.058C47.483,33.8 50.862,29.512 56.087,29.512C61.308,29.512 64.687,33.833 64.687,41.058C64.687,48.283 61.308,52.662 56.087,52.662C50.862,52.662 47.483,48.316 47.483,41.058" style="fill-rule:nonzero;"/>
    <path d="M73.84,43.654L73.84,29.891L76.623,29.891L76.623,43.654C76.623,48.437 78.469,50.412 81.535,50.412C84.602,50.412 86.381,48.437 86.381,43.654L86.381,29.891L89.169,29.891L89.169,43.654C89.169,49.441 86.381,52.725 81.535,52.725C76.685,52.725 73.84,49.691 73.84,43.654" style="fill-rule:nonzero;"/>
    <path d="M105.428,40.464C108.273,40.464 109.773,38.647 109.773,36.335C109.773,33.614 108.086,32.143 105.269,32.143L101.89,32.143L101.89,40.464L105.428,40.464ZM99.203,29.889L105.707,29.889C109.682,29.889 112.494,32.018 112.528,35.772C112.557,38.964 110.648,40.622 109.057,41.31L109.057,41.401C111.028,42.06 112.119,43.276 112.119,46.064L112.119,48.722C112.119,50.597 112.465,51.535 112.686,52.255L109.869,52.255C109.648,51.505 109.307,50.568 109.307,48.66L109.307,46.564C109.307,44.405 108.586,42.685 105.336,42.685L101.89,42.685L101.89,52.255L99.203,52.255L99.203,29.889Z" style="fill-rule:nonzero;"/>
    <path d="M121.315,41.058C121.315,33.8 124.411,29.512 129.79,29.512C134.044,29.512 136.582,32.708 137.361,37.52L134.577,37.52C134.202,34.55 132.577,31.766 129.823,31.766C125.915,31.766 124.098,35.395 124.098,41.058C124.098,46.72 125.819,50.412 129.823,50.412C132.636,50.412 134.544,47.533 134.857,44.5L137.64,44.5C136.736,50.004 133.702,52.662 129.823,52.662C124.44,52.662 121.315,48.316 121.315,41.058" style="fill-rule:nonzero;"/>
    <path d="M146.744,29.89L158.507,29.89L158.507,32.145L149.436,32.145L149.436,39.432L157.507,39.432L157.507,41.62L149.436,41.62L149.436,50.003L158.507,50.003L158.507,52.257L146.744,52.257L146.744,29.89Z" style="fill-rule:nonzero;"/>
    <path d="M197.688,29.89L197.688,52.257L195.03,52.257L195.03,34.145L189.963,52.257L186.897,52.257L181.83,34.145L181.83,52.257L179.172,52.257L179.172,29.89L183.051,29.89L188.43,49.753L193.809,29.89L197.688,29.89Z" style="fill-rule:nonzero;"/>
    <rect x="208" y="29.892" width="2.692" height="22.367"/>
    <path d="M230.732,52.256L226.387,42.968L222.066,52.256L219.032,52.256L224.978,40.339L219.97,29.889L223.007,29.889L226.507,37.743L229.92,29.889L232.953,29.889L227.916,40.402L233.766,52.256L230.732,52.256Z" style="fill-rule:nonzero;"/>
    <path d="M241.975,29.89L253.738,29.89L253.738,32.145L244.667,32.145L244.667,39.432L252.738,39.432L252.738,41.62L244.667,41.62L244.667,50.003L253.738,50.003L253.738,52.257L241.975,52.257L241.975,29.89Z" style="fill-rule:nonzero;"/>
    <path d="M268.755,40.464C271.601,40.464 273.101,38.647 273.101,36.335C273.101,33.614 271.414,32.143 268.597,32.143L265.218,32.143L265.218,40.464L268.755,40.464ZM262.53,29.889L269.035,29.889C273.01,29.889 275.826,32.018 275.855,35.772C275.885,38.964 273.976,40.622 272.385,41.31L272.385,41.401C274.355,42.06 275.447,43.276 275.447,46.064L275.447,48.722C275.447,50.597 275.793,51.535 276.014,52.255L273.197,52.255C272.976,51.505 272.635,50.568 272.635,48.66L272.635,46.564C272.635,44.405 271.914,42.685 268.664,42.685L265.218,42.685L265.218,52.255L262.53,52.255L262.53,29.889Z" style="fill-rule:nonzero;"/>
    <path d="M23.256,68.245L1133.49,68.245" style="fill:none;fill-rule:nonzero;stroke:black;stroke-width:2.36px;"/>
    <path d="M488.838,782.383L487.092,782.383L487.092,780.554L488.838,780.554L488.838,782.383ZM487.096,780.55L485.354,780.55L485.354,778.767L487.096,778.767L487.096,780.55ZM485.354,778.767L483.571,778.767L483.571,776.979L485.354,776.979L485.354,778.767ZM483.571,776.979L481.742,776.979L481.742,775.283L483.571,775.283L483.571,776.979ZM481.742,775.283L480.087,775.283L480.087,773.454L481.742,773.454L481.742,775.283ZM480.087,771.667L480.087,773.45L478.258,773.45L478.258,798.292L476.562,798.292L476.562,773.45L474.729,773.45L474.729,771.667L476.562,771.667L476.562,769.879L478.258,769.879L478.258,771.667L480.087,771.667ZM473.079,773.45L474.733,773.45L474.733,775.279L473.079,775.279L473.079,773.45ZM471.246,775.283L473.075,775.283L473.075,776.979L471.246,776.979L471.246,775.283ZM469.462,776.979L471.246,776.979L471.246,778.767L469.462,778.767L469.462,776.979ZM467.721,778.767L469.462,778.767L469.462,780.55L467.721,780.55L467.721,778.767ZM465.983,780.55L467.725,780.55L467.725,782.379L465.983,782.379L465.983,780.55Z" style="fill-rule:nonzero;stroke:black;stroke-width:0.59px;"/>
    <path d="M760.873,769.88L760.873,807.405L477.411,807.405L477.411,781.434" style="fill:none;fill-rule:nonzero;stroke:black;stroke-width:2.36px;"/>
    <path d="M617.685,400.122L617.685,416.705L601.102,416.705L601.102,400.122L601.102,416.705L601.102,400.122L584.514,400.122L584.514,416.705" style="fill:none;fill-rule:nonzero;stroke:black;stroke-width:2.36px;"/>
    <path d="M617.685,505.17L617.685,521.753L601.102,521.753L601.102,505.17L601.102,521.753L601.102,505.17L584.514,505.17L584.514,521.753" style="fill:none;fill-rule:nonzero;stroke:black;stroke-width:2.36px;"/>
    <path d="M617.685,610.22L617.685,626.808L594.931,626.808L594.931,610.22L594.931,626.808L594.931,610.22L584.514,610.22L584.514,626.808" style="fill:none;fill-rule:nonzero;stroke:black;stroke-width:2.36px;"/>
    <rect x="586.075" y="375.863" width="5.063" height="1.633"/>
    <path d="M599.363,367.997L599.363,382.951L597.604,382.951L597.604,370.926C597,372.117 596.038,372.976 594.908,373.163L594.908,371.342C596.288,370.926 597.038,369.48 597.188,367.997L599.363,367.997Z" style="fill-rule:nonzero;"/>
    <path d="M620.815,375.463C620.815,371.676 619.498,369.251 616.923,369.251C614.352,369.251 613.031,371.676 613.031,375.463C613.031,379.251 614.352,381.717 616.923,381.717C619.498,381.717 620.815,379.251 620.815,375.463M611.173,375.463C611.173,370.609 613.431,367.747 616.923,367.747C620.415,367.747 622.677,370.63 622.677,375.463C622.677,380.297 620.415,383.226 616.923,383.226C613.431,383.226 611.173,380.317 611.173,375.463" style="fill-rule:nonzero;"/>
    <path d="M627.477,375.463C627.477,370.609 629.548,367.747 633.144,367.747C635.99,367.747 637.686,369.88 638.207,373.101L636.344,373.101C636.094,371.113 635.007,369.251 633.169,369.251C630.552,369.251 629.34,371.676 629.34,375.463C629.34,379.251 630.49,381.717 633.169,381.717C635.048,381.717 636.327,379.797 636.536,377.763L638.398,377.763C637.79,381.447 635.761,383.226 633.169,383.226C629.569,383.226 627.477,380.317 627.477,375.463" style="fill-rule:nonzero;"/>
    <path d="M646.06,369.503L642.106,369.503L642.106,367.998L651.831,367.998L651.831,369.503L647.86,369.503L647.86,382.953L646.06,382.953L646.06,369.503Z" style="fill-rule:nonzero;"/>
    <rect x="583.721" y="480.908" width="5.063" height="1.633"/>
    <path d="M595.465,486.495L602.177,486.495L602.177,487.999L593.519,487.999L593.519,486.599C593.519,484.861 594.294,483.19 596.11,481.599L597.556,480.345C598.456,479.549 600.381,478.503 600.381,476.64C600.381,474.97 599.19,474.278 598.077,474.278C596.594,474.278 595.277,475.657 595.065,477.915L593.185,477.915C593.477,474.886 595.256,472.732 598.244,472.732C600.273,472.732 602.24,473.965 602.24,476.665C602.24,479.486 599.565,480.911 598.54,481.807L597.115,483.065C595.735,484.299 595.423,485.345 595.465,486.495" style="fill-rule:nonzero;"/>
    <path d="M623.168,480.511C623.168,476.724 621.852,474.299 619.277,474.299C616.706,474.299 615.385,476.724 615.385,480.511C615.385,484.299 616.706,486.765 619.277,486.765C621.852,486.765 623.168,484.299 623.168,480.511M613.527,480.511C613.527,475.657 615.785,472.795 619.277,472.795C622.768,472.795 625.031,475.678 625.031,480.511C625.031,485.345 622.768,488.274 619.277,488.274C615.785,488.274 613.527,485.365 613.527,480.511" style="fill-rule:nonzero;"/>
    <path d="M629.831,480.511C629.831,475.657 631.902,472.795 635.498,472.795C638.344,472.795 640.04,474.928 640.56,478.149L638.698,478.149C638.448,476.161 637.36,474.299 635.523,474.299C632.906,474.299 631.694,476.724 631.694,480.511C631.694,484.299 632.844,486.765 635.523,486.765C637.402,486.765 638.681,484.845 638.89,482.811L640.752,482.811C640.144,486.495 638.115,488.274 635.523,488.274C631.923,488.274 629.831,485.365 629.831,480.511" style="fill-rule:nonzero;"/>
    <path d="M648.415,474.55L644.46,474.55L644.46,473.046L654.185,473.046L654.185,474.55L650.215,474.55L650.215,488L648.415,488L648.415,474.55Z" style="fill-rule:nonzero;"/>
    <rect x="583.717" y="585.958" width="5.063" height="1.633"/>
    <path d="M595.46,591.544L602.173,591.544L602.173,593.048L593.515,593.048L593.515,591.648C593.515,589.911 594.29,588.24 596.106,586.648L597.552,585.394C598.452,584.598 600.377,583.553 600.377,581.69C600.377,580.019 599.185,579.328 598.073,579.328C596.59,579.328 595.273,580.707 595.06,582.965L593.181,582.965C593.473,579.936 595.252,577.782 598.24,577.782C600.269,577.782 602.235,579.015 602.235,581.715C602.235,584.536 599.56,585.961 598.535,586.857L597.11,588.115C595.731,589.348 595.419,590.394 595.46,591.544" style="fill-rule:nonzero;"/>
    <path d="M623.164,585.561C623.164,581.773 621.847,579.348 619.272,579.348C616.702,579.348 615.381,581.773 615.381,585.561C615.381,589.348 616.702,591.815 619.272,591.815C621.847,591.815 623.164,589.348 623.164,585.561M613.522,585.561C613.522,580.707 615.781,577.844 619.272,577.844C622.764,577.844 625.027,580.728 625.027,585.561C625.027,590.394 622.764,593.323 619.272,593.323C615.781,593.323 613.522,590.415 613.522,585.561" style="fill-rule:nonzero;"/>
    <path d="M629.827,585.561C629.827,580.707 631.898,577.844 635.494,577.844C638.34,577.844 640.035,579.978 640.556,583.198L638.694,583.198C638.444,581.211 637.356,579.348 635.519,579.348C632.902,579.348 631.69,581.773 631.69,585.561C631.69,589.348 632.84,591.815 635.519,591.815C637.398,591.815 638.677,589.894 638.885,587.861L640.748,587.861C640.14,591.544 638.11,593.323 635.519,593.323C631.919,593.323 629.827,590.415 629.827,585.561" style="fill-rule:nonzero;"/>
    <path d="M648.41,579.6L644.456,579.6L644.456,578.095L654.181,578.095L654.181,579.6L650.21,579.6L650.21,593.05L648.41,593.05L648.41,579.6Z" style="fill-rule:nonzero;"/>
    <path d="M690.496,508.017L688.667,508.017L688.667,506.271L690.496,506.271L690.496,508.017ZM692.279,506.271L690.496,506.271L690.496,504.529L692.279,504.529L692.279,506.271ZM694.067,504.529L692.279,504.529L692.279,502.746L694.067,502.746L694.067,504.529ZM695.762,502.746L694.067,502.746L694.067,500.917L695.762,500.917L695.762,502.746ZM697.596,500.917L695.767,500.917L695.767,499.262L697.596,499.262L697.596,500.917ZM699.379,499.262L697.596,499.262L697.596,497.433L684.775,497.433L684.775,495.738L697.596,495.738L697.596,493.908L699.379,493.908L699.379,495.738L701.167,495.738L701.167,497.433L699.379,497.433L699.379,499.262ZM697.596,493.908L695.767,493.908L695.767,492.254L697.596,492.254L697.596,493.908ZM695.762,492.254L694.067,492.254L694.067,490.425L695.762,490.425L695.762,492.254ZM694.067,490.421L692.279,490.421L692.279,488.637L694.067,488.637L694.067,490.421ZM692.279,488.637L690.496,488.637L690.496,486.896L692.279,486.896L692.279,488.637ZM690.496,486.896L688.667,486.896L688.667,485.154L690.496,485.154L690.496,486.896Z" style="fill-rule:nonzero;"/>
    <path d="M690.292,460.246L688.462,460.246L688.462,458.5L690.292,458.5L690.292,460.246ZM692.075,458.504L690.292,458.504L690.292,456.762L692.075,456.762L692.075,458.504ZM693.862,456.762L692.075,456.762L692.075,454.979L693.862,454.979L693.862,456.762ZM695.562,454.979L693.867,454.979L693.867,453.15L695.562,453.15L695.562,454.979ZM697.392,453.146L695.562,453.146L695.562,451.492L697.392,451.492L697.392,453.146ZM699.175,451.496L697.392,451.496L697.392,449.667L684.571,449.667L684.571,447.971L697.392,447.971L697.392,446.137L699.175,446.137L699.175,447.971L700.962,447.971L700.962,449.667L699.175,449.667L699.175,451.496ZM697.392,446.137L695.562,446.137L695.562,444.483L697.392,444.483L697.392,446.137ZM695.562,444.487L693.867,444.487L693.867,442.658L695.562,442.658L695.562,444.487ZM693.862,442.654L692.075,442.654L692.075,440.871L693.862,440.871L693.862,442.654ZM692.075,440.871L690.292,440.871L690.292,439.129L692.075,439.129L692.075,440.871ZM690.292,439.129L688.462,439.129L688.462,437.387L690.292,437.387L690.292,439.129Z" style="fill-rule:nonzero;"/>
    <path d="M690.292,533.758L688.462,533.758L688.462,532.017L690.292,532.017L690.292,533.758ZM692.075,535.5L690.292,535.5L690.292,533.758L692.075,533.758L692.075,535.5ZM693.862,537.283L692.075,537.283L692.075,535.5L693.862,535.5L693.862,537.283ZM695.562,539.113L693.867,539.113L693.867,537.283L695.562,537.283L695.562,539.113ZM697.392,540.767L695.562,540.767L695.562,539.112L697.392,539.112L697.392,540.767ZM699.175,542.596L700.962,542.596L700.962,544.292L699.175,544.292L699.175,546.121L697.392,546.121L697.392,544.292L684.571,544.292L684.571,542.596L697.392,542.596L697.392,540.767L699.175,540.767L699.175,542.596ZM695.562,546.121L697.392,546.121L697.392,547.775L695.562,547.775L695.562,546.121ZM693.862,547.775L695.558,547.775L695.558,549.604L693.862,549.604L693.862,547.775ZM692.075,549.608L693.862,549.608L693.862,551.392L692.075,551.392L692.075,549.608ZM690.292,551.392L692.075,551.392L692.075,553.133L690.292,553.133L690.292,551.392ZM688.462,553.133L690.292,553.133L690.292,554.875L688.462,554.875L688.462,553.133Z" style="fill-rule:nonzero;"/>
    <path d="M689.33,543.443L675.192,543.443L675.192,601.635L583.655,601.635" style="fill:none;fill-rule:nonzero;stroke:black;stroke-width:1.89px;"/>
    <path d="M583.656,496.584L688.46,496.584" style="fill:none;fill-rule:nonzero;stroke:black;stroke-width:1.89px;"/>
    <path d="M689.33,448.818L675.192,448.818L675.192,391.535L583.655,391.535" style="fill:none;fill-rule:nonzero;stroke:black;stroke-width:1.89px;"/>
    <path d="M146.117,149.733L147.862,149.733L147.862,151.563L146.117,151.563L146.117,149.733ZM144.379,151.567L146.121,151.567L146.121,153.35L144.379,153.35L144.379,151.567ZM142.592,153.35L144.375,153.35L144.375,155.137L142.592,155.137L142.592,153.35ZM140.762,155.137L142.592,155.137L142.592,156.833L140.762,156.833L140.762,155.137ZM139.108,156.833L140.762,156.833L140.762,158.662L139.108,158.662L139.108,156.833ZM137.283,160.45L137.283,162.238L135.583,162.238L135.583,160.45L133.754,160.45L133.754,158.667L135.583,158.667L135.583,145.846L137.283,145.846L137.283,158.667L139.108,158.667L139.108,160.45L137.283,160.45ZM132.1,156.833L133.754,156.833L133.754,158.662L132.1,158.662L132.1,156.833ZM130.271,155.137L132.1,155.137L132.1,156.833L130.271,156.833L130.271,155.137ZM128.483,153.35L130.267,153.35L130.267,155.137L128.483,155.137L128.483,153.35ZM126.746,151.567L128.487,151.567L128.487,153.35L126.746,153.35L126.746,151.567ZM125.004,149.733L126.746,149.733L126.746,151.563L125.004,151.563L125.004,149.733Z" style="fill-rule:nonzero;"/>
    <path d="M147.573,167.682L147.573,188.902L125.114,188.902L125.114,168.548L125.114,188.902L125.114,168.548L102.656,168.548L102.656,189.765" style="fill:none;fill-rule:nonzero;stroke:black;stroke-width:2.36px;"/>
    <path d="M136.433,188.903L136.433,184.736" style="fill:none;fill-rule:nonzero;stroke:black;stroke-width:2.36px;"/>
    <path d="M136.433,180.44L136.433,173.995" style="fill:none;fill-rule:nonzero;stroke:black;stroke-width:2.36px;stroke-dasharray:4.3,4.3;"/>
    <path d="M136.433,171.848L136.433,167.682" style="fill:none;fill-rule:nonzero;stroke:black;stroke-width:2.36px;"/>
    <path d="M136.433,153.35L136.433,135.904L101.795,135.904" style="fill:none;fill-rule:nonzero;stroke:black;stroke-width:1.89px;"/>
    <path d="M284.104,189.953L319.887,167.495L319.887,189.953" style="fill:none;fill-rule:nonzero;stroke:black;stroke-width:2.36px;"/>
    <path d="M28.027,293.273L28.027,308.003L26.297,308.003L26.297,296.157C25.697,297.332 24.752,298.173 23.639,298.361L23.639,296.569C24.997,296.157 25.739,294.736 25.885,293.273L28.027,293.273Z" style="fill-rule:nonzero;"/>
    <path d="M41.125,300.626C41.125,296.755 40.158,294.551 38.117,294.551C36.079,294.551 35.108,296.755 35.108,300.626C35.108,304.501 36.079,306.743 38.117,306.743C40.158,306.743 41.125,304.501 41.125,300.626M33.275,300.626C33.275,296.076 35.171,293.026 38.117,293.026C41.062,293.026 42.958,295.68 42.958,300.626C42.958,305.572 41.062,308.268 38.117,308.268C35.171,308.268 33.275,305.18 33.275,300.626" style="fill-rule:nonzero;"/>
    <path d="M32.106,691.609C32.106,687.738 31.139,685.534 29.097,685.534C27.06,685.534 26.089,687.738 26.089,691.609C26.089,695.484 27.06,697.726 29.097,697.726C31.139,697.726 32.106,695.484 32.106,691.609M24.256,691.609C24.256,687.059 26.152,684.009 29.097,684.009C32.043,684.009 33.939,686.663 33.939,691.609C33.939,696.555 32.043,699.251 29.097,699.251C26.152,699.251 24.256,696.163 24.256,691.609" style="fill-rule:nonzero;"/>
    <path d="M23.223,318.623L66.615,318.623" style="fill:none;fill-rule:nonzero;stroke:black;stroke-width:2.36px;"/>
    <path d="M23.223,496.199L66.615,496.199" style="fill:none;fill-rule:nonzero;stroke:black;stroke-width:2.36px;"/>
    <path d="M23.223,673.775L66.615,673.775" style="fill:none;fill-rule:nonzero;stroke:black;stroke-width:2.36px;"/>
    <path d="M44.92,638.26L66.616,638.26" style="fill:none;fill-rule:nonzero;stroke:black;stroke-width:2.36px;"/>
    <path d="M44.92,602.745L66.616,602.745" style="fill:none;fill-rule:nonzero;stroke:black;stroke-width:2.36px;"/>
    <path d="M44.92,567.23L66.616,567.23" style="fill:none;fill-rule:nonzero;stroke:black;stroke-width:2.36px;"/>
    <path d="M44.92,531.715L66.616,531.715" style="fill:none;fill-rule:nonzero;stroke:black;stroke-width:2.36px;"/>
    <path d="M44.92,460.684L66.616,460.684" style="fill:none;fill-rule:nonzero;stroke:black;stroke-width:2.36px;"/>
    <path d="M44.92,425.169L66.616,425.169" style="fill:none;fill-rule:nonzero;stroke:black;stroke-width:2.36px;"/>
    <path d="M44.92,389.654L66.616,389.654" style="fill:none;fill-rule:nonzero;stroke:black;stroke-width:2.36px;"/>
    <path d="M44.92,354.139L66.616,354.139" style="fill:none;fill-rule:nonzero;stroke:black;stroke-width:2.36px;"/>
    <path d="M923.746,293.273L923.746,308.003L922.013,308.003L922.013,296.157C921.413,297.332 920.471,298.173 919.355,298.361L919.355,296.569C920.713,296.157 921.459,294.736 921.6,293.273L923.746,293.273Z" style="fill-rule:nonzero;"/>
    <path d="M936.844,300.626C936.844,296.755 935.878,294.551 933.836,294.551C931.798,294.551 930.832,296.755 930.832,300.626C930.832,304.501 931.798,306.743 933.836,306.743C935.878,306.743 936.844,304.501 936.844,300.626M928.994,300.626C928.994,296.076 930.89,293.026 933.836,293.026C936.782,293.026 938.673,295.68 938.673,300.626C938.673,305.572 936.782,308.268 933.836,308.268C930.89,308.268 928.994,305.18 928.994,300.626" style="fill-rule:nonzero;"/>
    <path d="M927.823,691.609C927.823,687.738 926.857,685.534 924.815,685.534C922.777,685.534 921.811,687.738 921.811,691.609C921.811,695.484 922.777,697.726 924.815,697.726C926.857,697.726 927.823,695.484 927.823,691.609M919.973,691.609C919.973,687.059 921.869,684.009 924.815,684.009C927.761,684.009 929.657,686.663 929.657,691.609C929.657,696.555 927.761,699.251 924.815,699.251C921.869,699.251 919.973,696.163 919.973,691.609" style="fill-rule:nonzero;"/>
    <path d="M918.939,318.623L962.33,318.623" style="fill:none;fill-rule:nonzero;stroke:black;stroke-width:2.36px;"/>
    <path d="M918.939,496.199L962.33,496.199" style="fill:none;fill-rule:nonzero;stroke:black;stroke-width:2.36px;"/>
    <path d="M918.939,673.775L962.33,673.775" style="fill:none;fill-rule:nonzero;stroke:black;stroke-width:2.36px;"/>
    <path d="M940.635,638.26L962.331,638.26" style="fill:none;fill-rule:nonzero;stroke:black;stroke-width:2.36px;"/>
    <path d="M940.635,602.745L962.331,602.745" style="fill:none;fill-rule:nonzero;stroke:black;stroke-width:2.36px;"/>
    <path d="M940.635,567.23L962.331,567.23" style="fill:none;fill-rule:nonzero;stroke:black;stroke-width:2.36px;"/>
    <path d="M940.635,531.715L962.331,531.715" style="fill:none;fill-rule:nonzero;stroke:black;stroke-width:2.36px;"/>
    <path d="M940.635,460.684L962.331,460.684" style="fill:none;fill-rule:nonzero;stroke:black;stroke-width:2.36px;"/>
    <path d="M940.635,425.169L962.331,425.169" style="fill:none;fill-rule:nonzero;stroke:black;stroke-width:2.36px;"/>
    <path d="M940.635,389.654L962.331,389.654" style="fill:none;fill-rule:nonzero;stroke:black;stroke-width:2.36px;"/>
    <path d="M940.635,354.139L962.331,354.139" style="fill:none;fill-rule:nonzero;stroke:black;stroke-width:2.36px;"/>
    <path d="M181.795,318.623L243.803,318.623" style="fill:none;fill-rule:nonzero;stroke:black;stroke-width:2.36px;"/>
    <path d="M181.795,354.139L243.803,354.139" style="fill:none;fill-rule:nonzero;stroke:black;stroke-width:2.36px;"/>
    <path d="M181.795,389.654L243.803,389.654" style="fill:none;fill-rule:nonzero;stroke:black;stroke-width:2.36px;"/>
    <path d="M181.795,425.169L243.803,425.169" style="fill:none;fill-rule:nonzero;stroke:black;stroke-width:2.36px;"/>
    <path d="M181.795,460.684L243.803,460.684" style="fill:none;fill-rule:nonzero;stroke:black;stroke-width:2.36px;"/>
    <path d="M181.795,531.715L243.803,531.715" style="fill:none;fill-rule:nonzero;stroke:black;stroke-width:2.36px;"/>
    <path d="M181.795,602.745L243.803,602.745" style="fill:none;fill-rule:nonzero;stroke:black;stroke-width:2.36px;"/>
    <path d="M181.795,567.23L243.803,567.23" style="fill:none;fill-rule:nonzero;stroke:black;stroke-width:2.36px;"/>
    <path d="M181.795,638.26L243.803,638.26" style="fill:none;fill-rule:nonzero;stroke:black;stroke-width:2.36px;"/>
    <path d="M181.795,496.199L243.803,496.199" style="fill:none;fill-rule:nonzero;stroke:black;stroke-width:2.36px;"/>
    <path d="M181.795,673.775L243.803,673.775" style="fill:none;fill-rule:nonzero;stroke:black;stroke-width:2.36px;"/>
    <path d="M359.569,318.623L421.577,318.623" style="fill:none;fill-rule:nonzero;stroke:black;stroke-width:2.36px;"/>
    <path d="M359.569,354.139L421.577,354.139" style="fill:none;fill-rule:nonzero;stroke:black;stroke-width:2.36px;"/>
    <path d="M359.569,389.654L421.577,389.654" style="fill:none;fill-rule:nonzero;stroke:black;stroke-width:2.36px;"/>
    <path d="M359.569,425.169L421.577,425.169" style="fill:none;fill-rule:nonzero;stroke:black;stroke-width:2.36px;"/>
    <path d="M359.569,460.684L421.577,460.684" style="fill:none;fill-rule:nonzero;stroke:black;stroke-width:2.36px;"/>
    <path d="M359.569,531.715L421.577,531.715" style="fill:none;fill-rule:nonzero;stroke:black;stroke-width:2.36px;"/>
    <path d="M359.569,602.745L421.577,602.745" style="fill:none;fill-rule:nonzero;stroke:black;stroke-width:2.36px;"/>
    <path d="M359.569,567.23L421.577,567.23" style="fill:none;fill-rule:nonzero;stroke:black;stroke-width:2.36px;"/>
    <path d="M359.569,638.26L421.577,638.26" style="fill:none;fill-rule:nonzero;stroke:black;stroke-width:2.36px;"/>
    <path d="M359.569,496.199L421.577,496.199" style="fill:none;fill-rule:nonzero;stroke:black;stroke-width:2.36px;"/>
    <path d="M359.569,673.775L421.577,673.775" style="fill:none;fill-rule:nonzero;stroke:black;stroke-width:2.36px;"/>
</svg>
