<?xml version="1.0" encoding="UTF-8" standalone="no"?>
<!DOCTYPE svg PUBLIC "-//W3C//DTD SVG 1.1//EN" "http://www.w3.org/Graphics/SVG/1.1/DTD/svg11.dtd">
<svg width="100%" height="100%" viewBox="0 0 758 1076" version="1.1" xmlns="http://www.w3.org/2000/svg" xmlns:xlink="http://www.w3.org/1999/xlink" xml:space="preserve" xmlns:serif="http://www.serif.com/" style="fill-rule:evenodd;clip-rule:evenodd;stroke-miterlimit:10;">
	<pattern id="diagonalHatch" width="10" height="10" patternUnits="userSpaceOnUse" patternTransform="rotate(45)">
		<line x1="0" y1="0" x2="0" y2="10" stroke="black" stroke-width="1"/>
	</pattern>
    <path d="M8.267,1075.98C3.7,1075.98 0,1072.88 0,1069.05L0,0L374.408,0L374.408,1075.98L8.267,1075.98Z" style="fill:white;fill-rule:nonzero;"/>
    <path d="M386.219,1075.98L749.407,1075.98C753.973,1075.98 757.677,1073.29 757.677,1069.96L757.677,519.683L386.219,519.683L386.219,1075.98Z" style="fill:white;fill-rule:nonzero;"/>
    <path d="M575.195,944.882C526.275,944.882 486.612,905.224 486.612,856.299C486.612,807.378 526.275,767.715 575.195,767.715C624.12,767.715 663.779,807.378 663.779,856.299C663.779,905.224 624.12,944.882 575.195,944.882ZM575.195,738.19C509.966,738.19 457.087,791.07 457.087,856.299C457.087,921.528 509.966,974.411 575.195,974.411C640.425,974.411 693.304,921.528 693.304,856.299C693.304,791.07 640.425,738.19 575.195,738.19Z" style="fill:none;fill-rule:nonzero;stroke:black;stroke-width:2.08px;"/>
    <circle cx="575.195" cy="643.7" r="50.196" style="fill:none;stroke:black;stroke-width:2.08px;"/>
    <clipPath id="_clip1">
        <rect x="63.9" y="226.894" width="114.288" height="539.485" clip-rule="nonzero"/>
    </clipPath>
    <g clip-path="url(#_clip1)">
        <path d="M156.477,227.935L85.61,227.935C74.194,227.935 64.94,237.19 64.94,248.606L64.94,744.669C64.94,756.081 74.194,765.335 85.61,765.335L156.477,765.335C167.894,765.335 177.148,756.081 177.148,744.669L177.148,248.606C177.148,237.19 167.894,227.935 156.477,227.935Z" style="fill:none;fill-rule:nonzero;stroke:black;stroke-width:2.08px;"/>
    </g>
    <path d="M106.28,298.802L106.28,694.472C106.28,702.627 112.889,709.235 121.043,709.235C129.197,709.235 135.81,702.627 135.81,694.472L135.81,298.802C135.81,290.647 129.197,284.039 121.043,284.039C112.889,284.039 106.28,290.647 106.28,298.802" style="fill:url(#diagonalHatch);fill-rule:nonzero;stroke:black;stroke-width:2.13px;stroke-linejoin:round;stroke-miterlimit:2;"/>
    <clipPath id="_clip2">
        <rect x="228.109" y="226.894" width="114.288" height="539.485" clip-rule="nonzero"/>
    </clipPath>
    <g clip-path="url(#_clip2)">
        <path d="M320.686,227.935L249.819,227.935C238.402,227.935 229.148,237.19 229.148,248.606L229.148,744.669C229.148,756.081 238.402,765.335 249.819,765.335L320.686,765.335C332.102,765.335 341.356,756.081 341.356,744.669L341.356,248.606C341.356,237.19 332.102,227.935 320.686,227.935Z" style="fill:none;fill-rule:nonzero;stroke:black;stroke-width:2.08px;"/>
    </g>
    <path d="M270.489,298.802L270.489,694.472C270.489,702.627 277.097,709.235 285.251,709.235C293.406,709.235 300.018,702.627 300.018,694.472L300.018,298.802C300.018,290.647 293.406,284.039 285.251,284.039C277.097,284.039 270.489,290.647 270.489,298.802" style="fill:url(#diagonalHatch);fill-rule:nonzero;stroke:black;stroke-width:2.13px;stroke-linejoin:round;stroke-miterlimit:2;"/>
    <path d="M253.356,392.872C246.835,392.872 241.548,387.584 241.548,381.063L241.548,258.217C241.548,251.692 246.835,246.409 253.356,246.409L317.152,246.409C323.673,246.409 328.956,251.692 328.956,258.217L328.956,381.063C328.956,387.584 323.673,392.872 317.152,392.872L253.356,392.872Z" style="fill:white;fill-rule:nonzero;"/>
    <path d="M252.315,362.257L252.315,362.148C245.715,361.619 240.506,356.077 240.506,349.34L240.506,289.907C240.506,282.819 246.269,277.057 253.356,277.057L317.152,277.057C324.235,277.057 330.002,282.819 330.002,289.907L330.002,349.34C330.002,356.077 324.794,361.619 318.194,362.148L318.194,362.19L317.152,362.257L252.315,362.257Z" style="fill:white;fill-rule:nonzero;"/>
    <path d="M317.15,276.014L253.355,276.014C245.696,276.014 239.463,282.243 239.463,289.906L239.463,349.343C239.463,356.297 244.596,362.068 251.271,363.081L251.271,363.235L253.355,363.297L319.234,363.297L319.234,363.081C325.909,362.068 331.038,356.297 331.038,349.343L331.038,289.906C331.038,282.243 324.809,276.014 317.15,276.014M317.15,278.097C323.671,278.097 328.955,283.385 328.955,289.906L328.955,349.343C328.955,355.864 323.671,361.152 317.15,361.152L317.15,361.214L253.355,361.214L253.355,361.152C246.834,361.152 241.546,355.864 241.546,349.343L241.546,289.906C241.546,283.385 246.834,278.097 253.355,278.097L317.15,278.097Z" style="fill-rule:nonzero;"/>
    <path d="M241.548,313.734L267.544,313.734C270.806,313.734 273.452,316.38 273.452,319.638C273.452,322.9 270.806,325.546 267.544,325.546L241.548,325.546L241.548,313.734Z" style="fill:url(#diagonalHatch);fill-rule:nonzero;stroke:black;stroke-width:2.08px;"/>
    <path d="M317.15,242.241L253.355,242.241C244.546,242.241 237.38,249.408 237.38,258.216L237.38,381.062C237.38,389.875 244.546,397.037 253.355,397.037L317.15,397.037C325.959,397.037 333.121,389.875 333.121,381.062L333.121,258.216C333.121,249.408 325.959,242.241 317.15,242.241M317.15,246.408C323.671,246.408 328.955,251.695 328.955,258.216L328.955,381.062C328.955,387.587 323.671,392.87 317.15,392.87L253.355,392.87C246.834,392.87 241.546,387.587 241.546,381.062L241.546,258.216C241.546,251.695 246.834,246.408 253.355,246.408L317.15,246.408Z" style="fill-rule:nonzero;"/>
    <path d="M89.147,745.94C82.627,745.94 77.339,740.652 77.339,734.132L77.339,611.286C77.339,604.761 82.627,599.478 89.147,599.478L152.943,599.478C159.464,599.478 164.752,604.761 164.752,611.286L164.752,734.132C164.752,740.652 159.464,745.94 152.943,745.94L89.147,745.94Z" style="fill:white;fill-rule:nonzero;"/>
    <path d="M88.106,715.325L88.106,715.22C81.506,714.687 76.297,709.145 76.297,702.408L76.297,642.975C76.297,635.891 82.06,630.125 89.147,630.125L152.943,630.125C160.027,630.125 165.793,635.891 165.793,642.975L165.793,702.408C165.793,709.145 160.585,714.687 153.985,715.22L153.985,715.258L152.943,715.325L88.106,715.325Z" style="fill:white;fill-rule:nonzero;"/>
    <path d="M152.941,629.082L89.145,629.082C81.487,629.082 75.254,635.315 75.254,642.974L75.254,702.411C75.254,709.365 80.387,715.136 87.062,716.149L87.062,716.303L89.145,716.365L155.025,716.365L155.025,716.149C161.7,715.136 166.833,709.365 166.833,702.411L166.833,642.974C166.833,635.315 160.6,629.082 152.941,629.082M152.941,631.165C159.462,631.165 164.75,636.453 164.75,642.974L164.75,702.411C164.75,708.932 159.462,714.22 152.941,714.22L152.941,714.282L89.145,714.282L89.145,714.22C82.625,714.22 77.337,708.932 77.337,702.411L77.337,642.974C77.337,636.453 82.625,631.165 89.145,631.165L152.941,631.165Z" style="fill-rule:nonzero;"/>
    <path d="M77.339,666.802L103.335,666.802C106.597,666.802 109.243,669.447 109.243,672.71C109.243,675.968 106.597,678.614 103.335,678.614L77.339,678.614L77.339,666.802Z" style="fill:url(#diagonalHatch);fill-rule:nonzero;stroke:black;stroke-width:2.08px;"/>
    <path d="M152.941,595.309L89.145,595.309C80.341,595.309 73.17,602.476 73.17,611.284L73.17,734.13C73.17,742.942 80.341,750.105 89.145,750.105L152.941,750.105C161.75,750.105 168.916,742.942 168.916,734.13L168.916,611.284C168.916,602.476 161.75,595.309 152.941,595.309M152.941,599.476C159.462,599.476 164.75,604.763 164.75,611.284L164.75,734.13C164.75,740.655 159.462,745.938 152.941,745.938L89.145,745.938C82.625,745.938 77.337,740.655 77.337,734.13L77.337,611.284C77.337,604.763 82.625,599.476 89.145,599.476L152.941,599.476Z" style="fill-rule:nonzero;"/>
    <path d="M607.797,628.219C599.254,610.229 577.714,602.558 559.723,611.1C541.733,619.642 534.062,641.183 542.604,659.173C551.146,677.164 572.687,684.834 590.678,676.292C608.668,667.75 616.339,646.209 607.797,628.219Z" style="fill:none;stroke:black;stroke-width:4.17px;"/>
    <path d="M557.002,615.005L566.402,634.801L573.868,631.255L564.464,611.447C563.164,611.885 561.877,612.385 560.618,612.98C559.352,613.585 558.156,614.272 557.002,615.005" style="fill-rule:nonzero;"/>
    <path d="M575.195,944.882C526.275,944.882 486.612,905.224 486.612,856.299C486.612,807.378 526.275,767.715 575.195,767.715C624.12,767.715 663.779,807.378 663.779,856.299C663.779,905.224 624.12,944.882 575.195,944.882Z" style="fill:url(#diagonalHatch);fill-rule:nonzero;stroke:black;stroke-width:2.08px;"/>
    <path d="M575.194,814.99C552.365,814.99 533.856,833.498 533.856,856.327C533.856,879.16 552.365,897.669 575.194,897.669C598.023,897.669 616.531,879.16 616.531,856.327C616.531,833.498 598.023,814.99 575.194,814.99" style="fill:white;fill-rule:nonzero;"/>
    <path d="M575.194,814.99C552.365,814.99 533.856,833.498 533.856,856.327C533.856,879.16 552.365,897.669 575.194,897.669C598.023,897.669 616.531,879.16 616.531,856.327C616.531,833.498 598.023,814.99 575.194,814.99M575.194,819.156C595.69,819.156 612.365,835.831 612.365,856.327C612.365,876.827 595.69,893.502 575.194,893.502C554.698,893.502 538.023,876.827 538.023,856.327C538.023,835.831 554.698,819.156 575.194,819.156" style="fill:rgb(43,43,43);fill-rule:nonzero;"/>
    <path d="M104.446,167.046L98.375,189.412L94.967,189.412L88.9,167.046L91.655,167.046L96.688,186.504L101.692,167.046L104.446,167.046Z" style="fill-rule:nonzero;"/>
    <path d="M109.702,178.215C109.702,170.957 112.797,166.67 118.177,166.67C122.431,166.67 124.968,169.861 125.747,174.678L122.964,174.678C122.589,171.707 120.964,168.928 118.21,168.928C114.302,168.928 112.485,172.553 112.485,178.215C112.485,183.874 114.206,187.565 118.21,187.565C121.027,187.565 122.931,184.69 123.243,181.653L126.031,181.653C125.122,187.161 122.089,189.82 118.21,189.82C112.827,189.82 109.702,185.47 109.702,178.215" style="fill-rule:nonzero;"/>
    <path d="M147.265,178.215C147.265,172.553 145.294,168.928 141.448,168.928C137.598,168.928 135.627,172.553 135.627,178.215C135.627,183.874 137.598,187.565 141.448,187.565C145.294,187.565 147.265,183.874 147.265,178.215M132.844,178.215C132.844,170.957 136.223,166.67 141.448,166.67C146.669,166.67 150.048,170.99 150.048,178.215C150.048,185.44 146.669,189.82 141.448,189.82C136.223,189.82 132.844,185.47 132.844,178.215" style="fill-rule:nonzero;"/>
    <path d="M272.48,167.046L266.41,189.412L263.001,189.412L256.935,167.046L259.689,167.046L264.722,186.504L269.726,167.046L272.48,167.046Z" style="fill-rule:nonzero;"/>
    <path d="M277.735,178.215C277.735,170.957 280.831,166.67 286.21,166.67C290.465,166.67 293.002,169.861 293.781,174.678L290.998,174.678C290.623,171.707 288.998,168.928 286.244,168.928C282.335,168.928 280.519,172.553 280.519,178.215C280.519,183.874 282.24,187.565 286.244,187.565C289.06,187.565 290.965,184.69 291.277,181.653L294.065,181.653C293.156,187.161 290.123,189.82 286.244,189.82C280.86,189.82 277.735,185.47 277.735,178.215" style="fill-rule:nonzero;"/>
    <path d="M301.592,167.046L313.355,167.046L313.355,169.3L304.284,169.3L304.284,176.587L312.509,176.587L312.509,178.842L304.284,178.842L304.284,189.412L301.592,189.412L301.592,167.046Z" style="fill-rule:nonzero;"/>
    <path d="M149.641,910.629C152.332,910.629 154.457,909.187 154.457,906.246C154.457,903.65 152.549,901.996 149.766,901.996L146.041,901.996L146.041,910.629L149.641,910.629ZM149.578,899.804C152.049,899.804 153.362,898.212 153.362,896.142C153.362,894.142 152.078,892.767 149.232,892.767L146.041,892.767L146.041,899.804L149.578,899.804ZM143.353,890.512L149.953,890.512C153.362,890.512 156.082,892.487 156.116,895.737C156.149,898.271 154.241,900.054 152.612,900.679L152.612,900.775C154.424,901.179 157.241,902.808 157.241,906.375C157.241,909.971 154.491,912.879 150.016,912.879L143.353,912.879L143.353,890.512Z" style="fill-rule:nonzero;"/>
    <path d="M164.617,890.512L176.38,890.512L176.38,892.766L167.309,892.766L167.309,900.053L175.38,900.053L175.38,902.241L167.309,902.241L167.309,910.628L176.38,910.628L176.38,912.878L164.617,912.878L164.617,890.512Z" style="fill-rule:nonzero;"/>
    <path d="M198.249,890.512L198.249,912.878L194.932,912.878L186.299,894.299L186.299,912.878L183.607,912.878L183.607,890.512L186.924,890.512L195.557,909.095L195.557,890.512L198.249,890.512Z" style="fill-rule:nonzero;"/>
    <path d="M211.199,910.629C216.049,910.629 218.895,907 218.895,901.683C218.895,896.362 216.049,892.767 211.199,892.767L209.507,892.767L209.507,910.629L211.199,910.629ZM206.82,890.512L211.199,890.512C217.612,890.512 221.678,895.267 221.678,901.712C221.678,908.154 217.612,912.879 211.199,912.879L206.82,912.879L206.82,890.512Z" style="fill-rule:nonzero;"/>
    <path d="M229.304,890.512L241.067,890.512L241.067,892.766L231.996,892.766L231.996,900.053L240.067,900.053L240.067,902.241L231.996,902.241L231.996,910.628L241.067,910.628L241.067,912.878L229.304,912.878L229.304,890.512Z" style="fill-rule:nonzero;"/>
    <path d="M254.52,901.087C257.365,901.087 258.865,899.27 258.865,896.958C258.865,894.233 257.178,892.766 254.361,892.766L250.982,892.766L250.982,901.087L254.52,901.087ZM248.295,890.512L254.799,890.512C258.774,890.512 261.586,892.641 261.62,896.395C261.649,899.587 259.74,901.241 258.149,901.929L258.149,902.025C260.12,902.683 261.211,903.904 261.211,906.687L261.211,909.341C261.211,911.225 261.557,912.158 261.778,912.879L258.961,912.879C258.74,912.125 258.399,911.191 258.399,909.283L258.399,907.187C258.399,905.025 257.678,903.308 254.428,903.308L250.982,903.308L250.982,912.879L248.295,912.879L248.295,890.512Z" style="fill-rule:nonzero;"/>
    <path d="M449.682,548.259L452.373,548.259L452.373,568.376L460.19,568.376L460.19,570.626L449.682,570.626L449.682,548.259Z" style="fill-rule:nonzero;"/>
    <path d="M467.156,548.259L478.918,548.259L478.918,550.513L469.847,550.513L469.847,557.801L478.072,557.801L478.072,560.055L469.847,560.055L469.847,570.626L467.156,570.626L467.156,548.259Z" style="fill-rule:nonzero;"/>
    <path d="M499.521,559.429C499.521,553.766 497.55,550.141 493.704,550.141C489.854,550.141 487.883,553.766 487.883,559.429C487.883,565.087 489.854,568.779 493.704,568.779C497.55,568.779 499.521,565.087 499.521,559.429M485.1,559.429C485.1,552.17 488.479,547.883 493.704,547.883C498.925,547.883 502.304,552.204 502.304,559.429C502.304,566.654 498.925,571.033 493.704,571.033C488.479,571.033 485.1,566.683 485.1,559.429" style="fill-rule:nonzero;"/>
    <path d="M659.893,548.259L659.893,570.626L657.235,570.626L657.235,552.513L652.168,570.626L649.101,570.626L644.035,552.513L644.035,570.626L641.376,570.626L641.376,548.259L645.255,548.259L650.635,568.126L656.014,548.259L659.893,548.259Z" style="fill-rule:nonzero;"/>
    <path d="M682.114,559.429C682.114,553.766 680.143,550.141 676.297,550.141C672.447,550.141 670.476,553.766 670.476,559.429C670.476,565.087 672.447,568.779 676.297,568.779C680.143,568.779 682.114,565.087 682.114,559.429M667.693,559.429C667.693,552.17 671.072,547.883 676.297,547.883C681.518,547.883 684.897,552.204 684.897,559.429C684.897,566.654 681.518,571.033 676.297,571.033C671.072,571.033 667.693,566.683 667.693,559.429" style="fill-rule:nonzero;"/>
    <path d="M697.027,568.376C701.877,568.376 704.722,564.747 704.722,559.43C704.722,554.11 701.877,550.514 697.027,550.514L695.335,550.514L695.335,568.376L697.027,568.376ZM692.647,548.26L697.027,548.26C703.439,548.26 707.506,553.014 707.506,559.46C707.506,565.901 703.439,570.626 697.027,570.626L692.647,570.626L692.647,548.26Z" style="fill-rule:nonzero;"/>
    <path d="M131.397,783.571L129.652,783.571L129.652,781.742L131.397,781.742L131.397,783.571ZM129.652,781.742L127.91,781.742L127.91,779.959L129.652,779.959L129.652,781.742ZM127.914,779.959L126.131,779.959L126.131,778.171L127.914,778.171L127.914,779.959ZM126.127,778.171L124.297,778.171L124.297,776.475L126.127,776.475L126.127,778.171ZM124.297,776.471L122.643,776.471L122.643,774.642L124.297,774.642L124.297,776.471ZM122.643,772.859L122.643,774.642L120.818,774.642L120.818,799.484L119.118,799.484L119.118,774.642L117.289,774.642L117.289,772.859L119.118,772.859L119.118,771.071L120.818,771.071L120.818,772.859L122.643,772.859ZM115.635,774.642L117.289,774.642L117.289,776.471L115.635,776.471L115.635,774.642ZM113.806,776.471L115.635,776.471L115.635,778.167L113.806,778.167L113.806,776.471ZM112.018,778.171L113.802,778.171L113.802,779.959L112.018,779.959L112.018,778.171ZM110.281,779.959L112.022,779.959L112.022,781.742L110.281,781.742L110.281,779.959ZM108.539,781.742L110.281,781.742L110.281,783.571L108.539,783.571L108.539,781.742Z" style="fill-rule:nonzero;stroke:black;stroke-width:0.59px;"/>
    <path d="M296.835,783.571L295.089,783.571L295.089,781.742L296.835,781.742L296.835,783.571ZM295.089,781.742L293.347,781.742L293.347,779.959L295.089,779.959L295.089,781.742ZM293.347,779.959L291.564,779.959L291.564,778.171L293.347,778.171L293.347,779.959ZM291.564,778.171L289.735,778.171L289.735,776.475L291.564,776.475L291.564,778.171ZM289.735,776.471L288.081,776.471L288.081,774.642L289.735,774.642L289.735,776.471ZM288.081,772.859L288.081,774.642L286.252,774.642L286.252,799.484L284.556,799.484L284.556,774.642L282.727,774.642L282.727,772.859L284.556,772.859L284.556,771.071L286.252,771.071L286.252,772.859L288.081,772.859ZM281.072,774.642L282.727,774.642L282.727,776.471L281.072,776.471L281.072,774.642ZM279.239,776.471L281.068,776.471L281.068,778.167L279.239,778.167L279.239,776.471ZM277.456,778.171L279.239,778.171L279.239,779.959L277.456,779.959L277.456,778.171ZM275.718,779.959L277.46,779.959L277.46,781.742L275.718,781.742L275.718,779.959ZM273.977,781.742L275.718,781.742L275.718,783.571L273.977,783.571L273.977,781.742Z" style="fill-rule:nonzero;stroke:black;stroke-width:0.59px;"/>
    <path d="M585.889,710.638L584.143,710.638L584.143,708.809L585.889,708.809L585.889,710.638ZM584.143,708.809L582.402,708.809L582.402,707.025L584.143,707.025L584.143,708.809ZM582.406,707.021L580.622,707.021L580.622,705.234L582.406,705.234L582.406,707.021ZM580.622,705.234L578.793,705.234L578.793,703.538L580.622,703.538L580.622,705.234ZM578.789,703.538L577.135,703.538L577.135,701.709L578.789,701.709L578.789,703.538ZM577.135,699.925L577.135,701.709L575.31,701.709L575.31,726.546L573.61,726.546L573.61,701.709L571.781,701.709L571.781,699.925L573.61,699.925L573.61,698.138L575.31,698.138L575.31,699.925L577.135,699.925ZM570.127,701.709L571.781,701.709L571.781,703.538L570.127,703.538L570.127,701.709ZM568.297,703.538L570.127,703.538L570.127,705.234L568.297,705.234L568.297,703.538ZM566.514,705.234L568.297,705.234L568.297,707.021L566.514,707.021L566.514,705.234ZM564.772,707.021L566.514,707.021L566.514,708.805L564.772,708.805L564.772,707.021ZM563.031,708.809L564.772,708.809L564.772,710.638L563.031,710.638L563.031,708.809Z" style="fill-rule:nonzero;stroke:black;stroke-width:0.59px;"/>
    <path d="M550.725,557.164C553.692,552.31 556.655,547.456 562.588,547.456C574.455,547.456 574.455,566.872 586.325,566.872C592.259,566.872 595.23,562.018 598.196,557.164" style="fill:none;fill-rule:nonzero;stroke:black;stroke-width:2.36px;"/>
    <path d="M371.899,856.545L119.97,856.545L119.97,788.399" style="fill:none;fill-rule:nonzero;stroke:black;stroke-width:2.36px;"/>
    <path d="M574.462,738.326L574.462,708.026" style="fill:none;fill-rule:nonzero;stroke:black;stroke-width:2.36px;"/>
    <path d="M285.405,782.704L285.405,856.545" style="fill:none;fill-rule:nonzero;stroke:black;stroke-width:2.36px;"/>
    <path d="M387.894,856.545L456.719,856.545" style="fill:none;fill-rule:nonzero;stroke:black;stroke-width:2.36px;"/>
    <path d="M23.573,293.25L23.573,307.975L21.844,307.975L21.844,296.13C21.244,297.309 20.298,298.15 19.185,298.338L19.185,296.546C20.544,296.13 21.285,294.713 21.431,293.25L23.573,293.25Z" style="fill-rule:nonzero;"/>
    <path d="M36.671,300.603C36.671,296.728 35.704,294.524 33.662,294.524C31.625,294.524 30.654,296.728 30.654,300.603C30.654,304.478 31.625,306.72 33.662,306.72C35.704,306.72 36.671,304.478 36.671,300.603M28.821,300.603C28.821,296.049 30.717,293.003 33.662,293.003C36.608,293.003 38.504,295.657 38.504,300.603C38.504,305.549 36.608,308.245 33.662,308.245C30.717,308.245 28.821,305.157 28.821,300.603" style="fill-rule:nonzero;"/>
    <path d="M27.652,691.586C27.652,687.711 26.685,685.507 24.644,685.507C22.606,685.507 21.635,687.711 21.635,691.586C21.635,695.461 22.606,697.703 24.644,697.703C26.685,697.703 27.652,695.461 27.652,691.586M19.802,691.586C19.802,687.032 21.698,683.986 24.644,683.986C27.59,683.986 29.485,686.64 29.485,691.586C29.485,696.532 27.59,699.228 24.644,699.228C21.698,699.228 19.802,696.14 19.802,691.586" style="fill-rule:nonzero;"/>
    <path d="M18.77,318.598L62.162,318.598" style="fill:none;fill-rule:nonzero;stroke:black;stroke-width:2.36px;"/>
    <path d="M18.77,496.174L62.162,496.174" style="fill:none;fill-rule:nonzero;stroke:black;stroke-width:2.36px;"/>
    <path d="M18.77,673.75L62.162,673.75" style="fill:none;fill-rule:nonzero;stroke:black;stroke-width:2.36px;"/>
    <path d="M40.467,638.235L62.163,638.235" style="fill:none;fill-rule:nonzero;stroke:black;stroke-width:2.36px;"/>
    <path d="M40.467,602.72L62.163,602.72" style="fill:none;fill-rule:nonzero;stroke:black;stroke-width:2.36px;"/>
    <path d="M40.467,567.205L62.163,567.205" style="fill:none;fill-rule:nonzero;stroke:black;stroke-width:2.36px;"/>
    <path d="M40.467,531.689L62.163,531.689" style="fill:none;fill-rule:nonzero;stroke:black;stroke-width:2.36px;"/>
    <path d="M40.467,460.659L62.163,460.659" style="fill:none;fill-rule:nonzero;stroke:black;stroke-width:2.36px;"/>
    <path d="M40.467,425.144L62.163,425.144" style="fill:none;fill-rule:nonzero;stroke:black;stroke-width:2.36px;"/>
    <path d="M40.467,389.629L62.163,389.629" style="fill:none;fill-rule:nonzero;stroke:black;stroke-width:2.36px;"/>
    <path d="M40.467,354.113L62.163,354.113" style="fill:none;fill-rule:nonzero;stroke:black;stroke-width:2.36px;"/>
    <path d="M177.342,318.598L227.408,318.598" style="fill:none;fill-rule:nonzero;stroke:black;stroke-width:2.36px;"/>
    <path d="M177.342,354.113L227.408,354.113" style="fill:none;fill-rule:nonzero;stroke:black;stroke-width:2.36px;"/>
    <path d="M177.342,389.629L227.408,389.629" style="fill:none;fill-rule:nonzero;stroke:black;stroke-width:2.36px;"/>
    <path d="M177.342,425.144L227.408,425.144" style="fill:none;fill-rule:nonzero;stroke:black;stroke-width:2.36px;"/>
    <path d="M177.342,460.659L227.408,460.659" style="fill:none;fill-rule:nonzero;stroke:black;stroke-width:2.36px;"/>
    <path d="M177.342,531.689L227.408,531.689" style="fill:none;fill-rule:nonzero;stroke:black;stroke-width:2.36px;"/>
    <path d="M177.342,602.72L227.408,602.72" style="fill:none;fill-rule:nonzero;stroke:black;stroke-width:2.36px;"/>
    <path d="M177.342,567.205L227.408,567.205" style="fill:none;fill-rule:nonzero;stroke:black;stroke-width:2.36px;"/>
    <path d="M177.342,638.235L227.408,638.235" style="fill:none;fill-rule:nonzero;stroke:black;stroke-width:2.36px;"/>
    <path d="M177.342,496.174L227.408,496.174" style="fill:none;fill-rule:nonzero;stroke:black;stroke-width:2.36px;"/>
    <path d="M177.342,673.75L227.408,673.75" style="fill:none;fill-rule:nonzero;stroke:black;stroke-width:2.36px;"/>
</svg>
