<?xml version="1.0" encoding="UTF-8" standalone="no"?>
<!DOCTYPE svg PUBLIC "-//W3C//DTD SVG 1.1//EN" "http://www.w3.org/Graphics/SVG/1.1/DTD/svg11.dtd">
<svg width="100%" height="100%" viewBox="0 0 638 898" version="1.1" xmlns="http://www.w3.org/2000/svg" xmlns:xlink="http://www.w3.org/1999/xlink" xml:space="preserve" xmlns:serif="http://www.serif.com/" style="fill-rule:evenodd;clip-rule:evenodd;stroke-miterlimit:10;">
    <rect x="0" y="0" width="637.796" height="897.637" style="fill:white;"/>
    <clipPath id="_clip1">
        <rect x="66.873" y="226.32" width="114.288" height="539.485" clip-rule="nonzero"/>
    </clipPath>
    <g clip-path="url(#_clip1)">
        <path d="M159.45,227.361L88.583,227.361C77.166,227.361 67.912,236.616 67.912,248.032L67.912,744.095C67.912,755.507 77.166,764.761 88.583,764.761L159.45,764.761C170.866,764.761 180.12,755.507 180.12,744.095L180.12,248.032C180.12,236.616 170.866,227.361 159.45,227.361Z" style="fill:none;fill-rule:nonzero;stroke:rgb(202,202,202);stroke-width:2.08px;"/>
    </g>
    <path d="M109.253,298.228L109.253,693.899C109.253,702.053 115.861,708.661 124.015,708.661C132.17,708.661 138.782,702.053 138.782,693.899L138.782,298.228C138.782,290.074 132.17,283.465 124.015,283.465C115.861,283.465 109.253,290.074 109.253,298.228" style="fill:rgb(200,200,200);fill-rule:nonzero;"/>
    <path d="M339.141,408.518C290.654,459.176 292.42,539.547 343.075,588.035C393.737,636.522 474.108,634.76 522.595,584.101C571.079,533.439 569.32,453.068 518.658,404.585C468,356.097 387.629,357.86 339.141,408.518" style="fill:white;fill-rule:nonzero;"/>
    <path d="M339.14,408.516C290.687,459.142 292.45,539.582 343.076,588.036C393.702,636.49 474.142,634.727 522.596,584.101C571.05,533.475 569.286,453.035 518.66,404.581C468.034,356.127 387.594,357.89 339.14,408.516Z" style="fill:none;stroke:rgb(201,201,201);stroke-width:2.08px;"/>
    <path d="M383.811,442.726L421.373,404.097C422.957,402.468 425.103,401.51 427.373,401.418C428.978,401.355 430.586,401.335 432.19,401.351C484.498,401.955 526.411,444.843 525.811,497.151C525.211,549.455 482.319,591.372 430.011,590.768C377.707,590.168 335.794,547.276 336.394,494.972C336.419,492.701 337.319,490.526 338.903,488.901L375.615,451.155" style="fill:white;fill-rule:nonzero;stroke:rgb(158,158,158);stroke-width:2.08px;"/>
    <path d="M357.816,417.781C360.158,420.027 360.241,423.748 357.995,426.094C355.753,428.44 352.033,428.519 349.687,426.277L396.974,471.535C399.32,473.781 403.041,473.698 405.287,471.352C407.533,469.006 407.449,465.285 405.108,463.044L357.816,417.781Z" style="fill:rgb(200,200,200);fill-rule:nonzero;stroke:rgb(158,158,158);stroke-width:2.08px;"/>
    <path d="M353.881,414.017L357.815,417.784C360.16,420.026 360.244,423.747 357.998,426.092C355.756,428.438 352.035,428.522 349.69,426.276L345.752,422.509C306.827,467.605 309.669,535.797 353.198,577.459C398.152,620.484 469.477,618.922 512.502,573.967C555.527,529.013 553.965,457.692 509.006,414.667C465.477,373.005 397.227,373.151 353.881,414.017Z" style="fill:none;fill-rule:nonzero;stroke:rgb(61,61,61);stroke-width:4.17px;stroke-linecap:round;stroke-linejoin:round;"/>
    <ellipse cx="253.938" cy="177.165" rx="21.258" ry="21.26" style="fill:none;stroke:rgb(202,202,202);stroke-width:2.08px;"/>
    <path d="M92.12,533.917C85.599,533.917 80.315,528.629 80.315,522.108L80.315,399.258C80.315,392.737 85.599,387.454 92.12,387.454L155.915,387.454C162.436,387.454 167.724,392.737 167.724,399.258L167.724,522.108C167.724,528.629 162.436,533.917 155.915,533.917L92.12,533.917Z" style="fill:white;fill-rule:nonzero;"/>
    <path d="M91.078,503.302L91.078,503.193C84.478,502.664 79.274,497.122 79.274,490.385L79.274,430.952C79.274,423.864 85.036,418.102 92.12,418.102L155.915,418.102C162.999,418.102 168.765,423.864 168.765,430.952L168.765,490.385C168.765,497.122 163.557,502.664 156.957,503.193L156.957,503.235L155.915,503.302L91.078,503.302Z" style="fill:white;fill-rule:nonzero;"/>
    <path d="M155.914,417.059L92.118,417.059C84.46,417.059 78.23,423.292 78.23,430.946L78.23,490.388C78.23,497.338 83.36,503.113 90.035,504.121L90.035,504.28L92.118,504.342L157.997,504.342L157.997,504.121C164.672,503.113 169.805,497.338 169.805,490.388L169.805,430.946C169.805,423.292 163.572,417.059 155.914,417.059M155.914,419.142C162.435,419.142 167.722,424.43 167.722,430.946L167.722,490.388C167.722,496.909 162.435,502.196 155.914,502.196L155.914,502.259L92.118,502.259L92.118,502.196C85.597,502.196 80.314,496.909 80.314,490.388L80.314,430.946C80.314,424.43 85.597,419.142 92.118,419.142L155.914,419.142Z" style="fill:rgb(149,149,149);fill-rule:nonzero;"/>
    <path d="M80.313,454.779L106.309,454.779C109.568,454.779 112.213,457.425 112.213,460.683C112.213,463.945 109.568,466.587 106.309,466.587L80.313,466.587L80.313,454.779Z" style="fill:rgb(200,200,200);fill-rule:nonzero;stroke:rgb(158,158,158);stroke-width:2.08px;"/>
    <path d="M155.914,383.286L92.118,383.286C83.314,383.286 76.147,390.453 76.147,399.257L76.147,522.107C76.147,530.915 83.314,538.082 92.118,538.082L155.914,538.082C164.722,538.082 171.889,530.915 171.889,522.107L171.889,399.257C171.889,390.453 164.722,383.286 155.914,383.286M155.914,387.453C162.435,387.453 167.722,392.74 167.722,399.257L167.722,522.107C167.722,528.632 162.435,533.915 155.914,533.915L92.118,533.915C85.597,533.915 80.314,528.632 80.314,522.107L80.314,399.257C80.314,392.74 85.597,387.453 92.118,387.453L155.914,387.453Z" style="fill:rgb(61,61,61);fill-rule:nonzero;"/>
    <path d="M253.938,192.519C245.459,192.519 238.584,185.644 238.584,177.165C238.584,168.685 245.459,161.81 253.938,161.81C262.417,161.81 269.292,168.685 269.292,177.165C269.292,185.644 262.417,192.519 253.938,192.519Z" style="fill:none;fill-rule:nonzero;stroke:rgb(43,43,43);stroke-width:4.17px;"/>
    <path d="M367.217,166.953L362.617,189.32L359.146,189.32L355.863,172.145L352.575,189.32L349.105,189.32L344.505,166.953L347.196,166.953L350.917,186.315L354.546,166.953L357.175,166.953L360.834,186.315L364.525,166.953L367.217,166.953Z" style="fill:rgb(167,168,170);fill-rule:nonzero;"/>
    <path d="M382.527,180.34L379.618,169.798L376.677,180.34L382.527,180.34ZM383.152,182.594L376.052,182.594L374.177,189.319L371.456,189.319L377.898,166.952L381.31,166.952L387.752,189.319L385.031,189.319L383.152,182.594Z" style="fill:rgb(167,168,170);fill-rule:nonzero;"/>
    <path d="M406.88,166.953L400.809,189.32L397.405,189.32L391.334,166.953L394.088,166.953L399.121,186.407L404.125,166.953L406.88,166.953Z" style="fill:rgb(167,168,170);fill-rule:nonzero;"/>
    <path d="M413.524,166.953L425.287,166.953L425.287,169.207L416.216,169.207L416.216,176.495L424.287,176.495L424.287,178.682L416.216,178.682L416.216,187.065L425.287,187.065L425.287,189.32L413.524,189.32L413.524,166.953Z" style="fill:rgb(167,168,170);fill-rule:nonzero;"/>
    <path d="M432.515,166.953L444.277,166.953L444.277,169.207L435.206,169.207L435.206,176.495L443.431,176.495L443.431,178.745L435.206,178.745L435.206,189.32L432.515,189.32L432.515,166.953Z" style="fill:rgb(167,168,170);fill-rule:nonzero;"/>
    <path d="M464.869,178.12C464.869,172.458 462.898,168.829 459.053,168.829C455.203,168.829 453.232,172.458 453.232,178.12C453.232,183.783 455.203,187.475 459.053,187.475C462.898,187.475 464.869,183.783 464.869,178.12M450.448,178.12C450.448,170.862 453.828,166.575 459.053,166.575C464.273,166.575 467.653,170.895 467.653,178.12C467.653,185.345 464.273,189.725 459.053,189.725C453.828,189.725 450.448,185.379 450.448,178.12" style="fill:rgb(167,168,170);fill-rule:nonzero;"/>
    <path d="M481.628,177.526C484.473,177.526 485.973,175.71 485.973,173.397C485.973,170.676 484.286,169.205 481.469,169.205L478.09,169.205L478.09,177.526L481.628,177.526ZM475.403,166.951L481.907,166.951C485.882,166.951 488.694,169.08 488.728,172.835C488.757,176.026 486.848,177.685 485.257,178.372L485.257,178.464C487.228,179.122 488.319,180.339 488.319,183.126L488.319,185.785C488.319,187.66 488.665,188.597 488.886,189.318L486.069,189.318C485.848,188.568 485.507,187.63 485.507,185.722L485.507,183.626C485.507,181.468 484.786,179.747 481.536,179.747L478.09,179.747L478.09,189.318L475.403,189.318L475.403,166.951Z" style="fill:rgb(167,168,170);fill-rule:nonzero;"/>
    <path d="M515.394,166.953L515.394,189.32L512.736,189.32L512.736,171.207L507.669,189.32L504.603,189.32L499.536,171.207L499.536,189.32L496.878,189.32L496.878,166.953L500.757,166.953L506.136,186.815L511.515,166.953L515.394,166.953Z" style="fill:rgb(167,168,170);fill-rule:nonzero;"/>
    <path d="M60.957,128.719L63.648,128.719L63.648,148.831L71.465,148.831L71.465,151.085L60.957,151.085L60.957,128.719Z" style="fill:rgb(167,168,170);fill-rule:nonzero;"/>
    <path d="M78.431,128.719L90.194,128.719L90.194,130.973L81.123,130.973L81.123,138.26L89.348,138.26L89.348,140.51L81.123,140.51L81.123,151.085L78.431,151.085L78.431,128.719Z" style="fill:rgb(167,168,170);fill-rule:nonzero;"/>
    <path d="M110.796,139.886C110.796,134.224 108.825,130.595 104.98,130.595C101.13,130.595 99.159,134.224 99.159,139.886C99.159,145.549 101.13,149.24 104.98,149.24C108.825,149.24 110.796,145.549 110.796,139.886M96.375,139.886C96.375,132.628 99.755,128.34 104.98,128.34C110.2,128.34 113.58,132.661 113.58,139.886C113.58,147.111 110.2,151.49 104.98,151.49C99.755,151.49 96.375,147.145 96.375,139.886" style="fill:rgb(167,168,170);fill-rule:nonzero;"/>
    <path d="M125.239,128.719L127.648,128.719L120.956,154.215L118.548,154.215L125.239,128.719Z" style="fill:rgb(167,168,170);fill-rule:nonzero;"/>
    <path d="M132.997,139.886C132.997,132.628 136.093,128.34 141.472,128.34C145.726,128.34 148.263,131.536 149.043,136.349L146.259,136.349C145.884,133.378 144.259,130.595 141.505,130.595C137.597,130.595 135.78,134.224 135.78,139.886C135.78,145.549 137.501,149.24 141.505,149.24C144.318,149.24 146.226,146.361 146.538,143.328L149.322,143.328C148.418,148.832 145.384,151.49 141.505,151.49C136.122,151.49 132.997,147.145 132.997,139.886" style="fill:rgb(167,168,170);fill-rule:nonzero;"/>
    <path d="M156.851,128.719L159.543,128.719L159.543,148.831L167.36,148.831L167.36,151.085L156.851,151.085L156.851,128.719Z" style="fill:rgb(167,168,170);fill-rule:nonzero;"/>
    <path d="M178.704,141.982L177.012,144.419L177.012,151.086L174.325,151.086L174.325,128.719L177.012,128.719L177.012,140.232L184.895,128.719L188.025,128.719L180.329,139.698L188.37,151.086L185.212,151.086L178.704,141.982Z" style="fill:rgb(167,168,170);fill-rule:nonzero;"/>
    <path d="M94.28,177.067C97.126,177.067 98.626,175.25 98.626,172.937C98.626,170.217 96.938,168.746 94.122,168.746L90.743,168.746L90.743,177.067L94.28,177.067ZM88.055,166.492L94.559,166.492C98.534,166.492 101.351,168.621 101.38,172.375C101.409,175.567 99.501,177.225 97.909,177.912L97.909,178.004C99.88,178.662 100.972,179.879 100.972,182.667L100.972,185.325C100.972,187.2 101.318,188.137 101.538,188.858L98.722,188.858C98.501,188.108 98.159,187.171 98.159,185.262L98.159,183.167C98.159,181.008 97.438,179.287 94.188,179.287L90.743,179.287L90.743,188.858L88.055,188.858L88.055,166.492Z" style="fill:rgb(167,168,170);fill-rule:nonzero;"/>
    <path d="M119.001,179.88L116.093,169.339L113.151,179.88L119.001,179.88ZM119.626,182.135L112.526,182.135L110.651,188.86L107.93,188.86L114.372,166.493L117.785,166.493L124.226,188.86L121.505,188.86L119.626,182.135Z" style="fill:rgb(167,168,170);fill-rule:nonzero;"/>
    <path d="M133.106,168.745L127.198,168.745L127.198,166.491L141.74,166.491L141.74,168.745L135.798,168.745L135.798,188.858L133.106,188.858L133.106,168.745Z" style="fill:rgb(167,168,170);fill-rule:nonzero;"/>
    <path d="M148.418,166.493L160.181,166.493L160.181,168.747L151.11,168.747L151.11,176.035L159.181,176.035L159.181,178.222L151.11,178.222L151.11,186.606L160.181,186.606L160.181,188.86L148.418,188.86L148.418,166.493Z" style="fill:rgb(167,168,170);fill-rule:nonzero;"/>
    <path d="M44.361,28.71L44.361,51.077L41.703,51.077L41.703,32.965L36.636,51.077L33.57,51.077L28.503,32.965L28.503,51.077L25.845,51.077L25.845,28.71L29.724,28.71L35.103,48.573L40.482,28.71L44.361,28.71Z" style="fill:rgb(167,168,170);fill-rule:nonzero;"/>
    <path d="M68.147,39.878C68.147,34.215 66.176,30.586 62.33,30.586C58.48,30.586 56.509,34.215 56.509,39.878C56.509,45.54 58.48,49.232 62.33,49.232C66.176,49.232 68.147,45.54 68.147,39.878M53.726,39.878C53.726,32.62 57.105,28.332 62.33,28.332C67.551,28.332 70.93,32.653 70.93,39.878C70.93,47.103 67.551,51.482 62.33,51.482C57.105,51.482 53.726,47.136 53.726,39.878" style="fill:rgb(167,168,170);fill-rule:nonzero;"/>
    <path d="M84.624,48.824C89.474,48.824 92.32,45.195 92.32,39.878C92.32,34.561 89.474,30.961 84.624,30.961L82.933,30.961L82.933,48.824L84.624,48.824ZM80.245,28.711L84.624,28.711C91.037,28.711 95.103,33.465 95.103,39.907C95.103,46.353 91.037,51.078 84.624,51.078L80.245,51.078L80.245,28.711Z" style="fill:rgb(167,168,170);fill-rule:nonzero;"/>
    <path d="M104.129,42.474L104.129,28.711L106.913,28.711L106.913,42.474C106.913,47.257 108.758,49.232 111.825,49.232C114.892,49.232 116.671,47.257 116.671,42.474L116.671,28.711L119.458,28.711L119.458,42.474C119.458,48.261 116.671,51.545 111.825,51.545C106.975,51.545 104.129,48.511 104.129,42.474" style="fill:rgb(167,168,170);fill-rule:nonzero;"/>
    <path d="M129.491,28.71L132.183,28.71L132.183,48.823L140,48.823L140,51.077L129.491,51.077L129.491,28.71Z" style="fill:rgb(167,168,170);fill-rule:nonzero;"/>
    <path d="M158.511,42.097L155.603,31.556L152.661,42.097L158.511,42.097ZM159.136,44.352L152.036,44.352L150.161,51.077L147.44,51.077L153.882,28.71L157.295,28.71L163.736,51.077L161.015,51.077L159.136,44.352Z" style="fill:rgb(167,168,170);fill-rule:nonzero;"/>
    <path d="M174.181,30.963L168.269,30.963L168.269,28.709L182.815,28.709L182.815,30.963L176.873,30.963L176.873,51.075L174.181,51.075L174.181,30.963Z" style="fill:rgb(167,168,170);fill-rule:nonzero;"/>
    <path d="M204.017,39.878C204.017,34.215 202.046,30.586 198.2,30.586C194.35,30.586 192.38,34.215 192.38,39.878C192.38,45.54 194.35,49.232 198.2,49.232C202.046,49.232 204.017,45.54 204.017,39.878M189.596,39.878C189.596,32.62 192.975,28.332 198.2,28.332C203.421,28.332 206.8,32.653 206.8,39.878C206.8,47.103 203.421,51.482 198.2,51.482C192.975,51.482 189.596,47.136 189.596,39.878" style="fill:rgb(167,168,170);fill-rule:nonzero;"/>
    <path d="M222.342,39.284C225.188,39.284 226.688,37.467 226.688,35.155C226.688,32.434 225,30.963 222.184,30.963L218.805,30.963L218.805,39.284L222.342,39.284ZM216.117,28.709L222.621,28.709C226.596,28.709 229.409,30.838 229.442,34.592C229.471,37.784 227.563,39.442 225.971,40.13L225.971,40.221C227.942,40.88 229.034,42.096 229.034,44.884L229.034,47.542C229.034,49.417 229.38,50.355 229.6,51.075L226.784,51.075C226.563,50.325 226.221,49.388 226.221,47.48L226.221,45.384C226.221,43.225 225.5,41.505 222.25,41.505L218.805,41.505L218.805,51.075L216.117,51.075L216.117,28.709Z" style="fill:rgb(167,168,170);fill-rule:nonzero;"/>
    <path d="M179.315,177.165L214.749,177.165" style="fill:none;fill-rule:nonzero;stroke:rgb(167,168,170);stroke-width:2.36px;"/>
    <path d="M470.024,349.074L470.024,289.39L487.949,271.461" style="fill:none;fill-rule:nonzero;stroke:rgb(167,168,170);stroke-width:2.36px;"/>
    <path d="M539.88,387.787L539.88,336.579L557.805,318.654" style="fill:none;fill-rule:nonzero;stroke:rgb(167,168,170);stroke-width:2.36px;"/>
    <path d="M23.258,68.245L613.808,68.245" style="fill:none;fill-rule:nonzero;stroke:rgb(167,168,170);stroke-width:2.36px;"/>
    <path d="M475.546,246.307C478.392,246.307 479.892,244.49 479.892,242.178C479.892,239.457 478.205,237.986 475.388,237.986L472.009,237.986L472.009,246.307L475.546,246.307ZM469.321,235.732L475.825,235.732C479.8,235.732 482.613,237.861 482.646,241.615C482.675,244.807 480.767,246.465 479.175,247.153L479.175,247.245C481.146,247.903 482.238,249.12 482.238,251.907L482.238,254.565C482.238,256.44 482.584,257.378 482.805,258.099L479.988,258.099C479.767,257.349 479.425,256.411 479.425,254.503L479.425,252.407C479.425,250.249 478.705,248.528 475.455,248.528L472.009,248.528L472.009,258.099L469.321,258.099L469.321,235.732Z" style="fill:rgb(167,168,170);fill-rule:nonzero;"/>
    <path d="M500.27,249.121L497.361,238.579L494.42,249.121L500.27,249.121ZM500.895,251.375L493.795,251.375L491.915,258.1L489.195,258.1L495.64,235.733L499.049,235.733L505.49,258.1L502.774,258.1L500.895,251.375Z" style="fill:rgb(167,168,170);fill-rule:nonzero;"/>
    <path d="M526.777,235.734L526.777,258.1L523.46,258.1L514.827,239.517L514.827,258.1L512.135,258.1L512.135,235.734L515.452,235.734L524.085,254.313L524.085,235.734L526.777,235.734Z" style="fill:rgb(167,168,170);fill-rule:nonzero;"/>
    <path d="M539.729,255.847C544.579,255.847 547.425,252.217 547.425,246.901C547.425,241.584 544.579,237.984 539.729,237.984L538.037,237.984L538.037,255.847L539.729,255.847ZM535.35,235.734L539.729,235.734C546.141,235.734 550.208,240.488 550.208,246.93C550.208,253.376 546.141,258.101 539.729,258.101L535.35,258.101L535.35,235.734Z" style="fill:rgb(167,168,170);fill-rule:nonzero;"/>
    <path d="M571.524,246.901C571.524,241.238 569.553,237.609 565.708,237.609C561.858,237.609 559.887,241.238 559.887,246.901C559.887,252.563 561.858,256.255 565.708,256.255C569.553,256.255 571.524,252.563 571.524,246.901M557.103,246.901C557.103,239.642 560.483,235.355 565.708,235.355C570.928,235.355 574.308,239.676 574.308,246.901C574.308,254.126 570.928,258.505 565.708,258.505C560.483,258.505 557.103,254.159 557.103,246.901" style="fill:rgb(167,168,170);fill-rule:nonzero;"/>
    <path d="M600.577,235.734L600.577,258.1L597.918,258.1L597.918,239.988L592.852,258.1L589.785,258.1L584.718,239.988L584.718,258.1L582.06,258.1L582.06,235.734L585.939,235.734L591.318,255.596L596.698,235.734L600.577,235.734Z" style="fill:rgb(167,168,170);fill-rule:nonzero;"/>
    <path d="M537.125,283.325L537.125,305.691L533.808,305.691L525.175,287.108L525.175,305.691L522.483,305.691L522.483,283.325L525.8,283.325L534.433,301.904L534.433,283.325L537.125,283.325Z" style="fill:rgb(167,168,170);fill-rule:nonzero;"/>
    <path d="M559.325,294.492C559.325,288.83 557.354,285.2 553.508,285.2C549.658,285.2 547.688,288.83 547.688,294.492C547.688,300.155 549.658,303.846 553.508,303.846C557.354,303.846 559.325,300.155 559.325,294.492M544.904,294.492C544.904,287.234 548.283,282.946 553.508,282.946C558.729,282.946 562.108,287.267 562.108,294.492C562.108,301.717 558.729,306.096 553.508,306.096C548.283,306.096 544.904,301.75 544.904,294.492" style="fill:rgb(167,168,170);fill-rule:nonzero;"/>
    <rect x="570.058" y="283.325" width="2.692" height="22.367" style="fill:rgb(167,168,170);"/>
    <path d="M580.325,298.183L583.017,298.183C583.45,301.687 585.392,303.783 588.146,303.783C590.43,303.783 592.809,302.658 592.809,299.62C592.809,297.775 592.055,296.495 589.021,295.616L586.646,294.929C584.109,294.208 581.046,292.929 581.046,288.737C581.046,285.329 584.267,282.854 587.771,282.854C592.15,282.854 594.213,285.733 594.434,289.925L591.742,289.925C591.492,286.704 589.93,285.233 587.738,285.233C585.642,285.233 583.83,286.454 583.83,288.862C583.83,291.054 585.488,291.991 587.709,292.679L589.742,293.304C592.867,294.275 595.592,295.491 595.592,299.529C595.592,304.066 591.775,306.162 588.271,306.162C583.296,306.162 580.546,302.716 580.325,298.183" style="fill:rgb(167,168,170);fill-rule:nonzero;"/>
    <path d="M603.051,283.325L614.813,283.325L614.813,285.579L605.743,285.579L605.743,292.866L613.813,292.866L613.813,295.054L605.743,295.054L605.743,303.437L614.813,303.437L614.813,305.691L603.051,305.691L603.051,283.325Z" style="fill:rgb(167,168,170);fill-rule:nonzero;"/>
    <path d="M464.076,353.406C462.18,350.122 463.305,345.922 466.588,344.027C469.872,342.131 474.072,343.256 475.972,346.539C477.868,349.822 476.743,354.022 473.455,355.918C470.172,357.814 465.972,356.689 464.076,353.406" style="fill:rgb(167,168,170);fill-rule:nonzero;"/>
    <path d="M386.991,355.92C383.708,354.024 382.583,349.824 384.479,346.54C386.375,343.253 390.575,342.128 393.858,344.028C397.141,345.924 398.266,350.124 396.37,353.407C394.475,356.69 390.275,357.815 386.991,355.92" style="fill:rgb(167,168,170);fill-rule:nonzero;"/>
    <path d="M533.011,390.549C533.011,386.757 536.086,383.682 539.878,383.682C543.674,383.682 546.749,386.757 546.749,390.549C546.749,394.341 543.674,397.416 539.878,397.416C536.086,397.416 533.011,394.341 533.011,390.549" style="fill:rgb(167,168,170);fill-rule:nonzero;"/>
    <path d="M320.573,397.76C316.782,397.76 313.707,394.685 313.707,390.893C313.707,387.097 316.782,384.022 320.573,384.022C324.365,384.022 327.44,387.097 327.44,390.893C327.44,394.685 324.365,397.76 320.573,397.76" style="fill:rgb(167,168,170);fill-rule:nonzero;"/>
    <path d="M412.883,298.289L412.883,320.747L390.425,320.747L390.425,298.289L390.425,320.747L390.425,298.289L367.967,298.289L367.967,320.747" style="fill:none;fill-rule:nonzero;stroke:rgb(167,168,170);stroke-width:2.36px;"/>
    <path d="M307.696,358.697L296.483,370.764L285.271,358.697L285.271,358.722L274.058,346.652L262.85,358.722" style="fill:none;fill-rule:nonzero;stroke:rgb(167,168,170);stroke-width:2.36px;"/>
    <path d="M27.947,293.273L27.947,308.003L26.218,308.003L26.218,296.157C25.618,297.332 24.672,298.173 23.56,298.361L23.56,296.569C24.918,296.157 25.66,294.736 25.805,293.273L27.947,293.273Z" style="fill:rgb(167,168,170);fill-rule:nonzero;"/>
    <path d="M41.045,300.626C41.045,296.755 40.078,294.551 38.037,294.551C35.999,294.551 35.028,296.755 35.028,300.626C35.028,304.501 35.999,306.743 38.037,306.743C40.078,306.743 41.045,304.501 41.045,300.626M33.195,300.626C33.195,296.076 35.091,293.026 38.037,293.026C40.983,293.026 42.878,295.68 42.878,300.626C42.878,305.572 40.983,308.268 38.037,308.268C35.091,308.268 33.195,305.18 33.195,300.626" style="fill:rgb(167,168,170);fill-rule:nonzero;"/>
    <path d="M32.026,691.609C32.026,687.738 31.06,685.534 29.018,685.534C26.98,685.534 26.01,687.738 26.01,691.609C26.01,695.484 26.98,697.726 29.018,697.726C31.06,697.726 32.026,695.484 32.026,691.609M24.176,691.609C24.176,687.059 26.072,684.009 29.018,684.009C31.964,684.009 33.86,686.663 33.86,691.609C33.86,696.555 31.964,699.251 29.018,699.251C26.072,699.251 24.176,696.163 24.176,691.609" style="fill:rgb(167,168,170);fill-rule:nonzero;"/>
    <path d="M23.144,318.623L66.536,318.623" style="fill:none;fill-rule:nonzero;stroke:rgb(167,168,170);stroke-width:2.36px;"/>
    <path d="M23.144,496.199L66.536,496.199" style="fill:none;fill-rule:nonzero;stroke:rgb(167,168,170);stroke-width:2.36px;"/>
    <path d="M23.144,673.775L66.536,673.775" style="fill:none;fill-rule:nonzero;stroke:rgb(167,168,170);stroke-width:2.36px;"/>
    <path d="M44.841,638.26L66.537,638.26" style="fill:none;fill-rule:nonzero;stroke:rgb(167,168,170);stroke-width:2.36px;"/>
    <path d="M44.841,602.745L66.537,602.745" style="fill:none;fill-rule:nonzero;stroke:rgb(167,168,170);stroke-width:2.36px;"/>
    <path d="M44.841,567.23L66.537,567.23" style="fill:none;fill-rule:nonzero;stroke:rgb(167,168,170);stroke-width:2.36px;"/>
    <path d="M44.841,531.715L66.537,531.715" style="fill:none;fill-rule:nonzero;stroke:rgb(167,168,170);stroke-width:2.36px;"/>
    <path d="M44.841,460.684L66.537,460.684" style="fill:none;fill-rule:nonzero;stroke:rgb(167,168,170);stroke-width:2.36px;"/>
    <path d="M44.841,425.169L66.537,425.169" style="fill:none;fill-rule:nonzero;stroke:rgb(167,168,170);stroke-width:2.36px;"/>
    <path d="M44.841,389.654L66.537,389.654" style="fill:none;fill-rule:nonzero;stroke:rgb(167,168,170);stroke-width:2.36px;"/>
    <path d="M44.841,354.139L66.537,354.139" style="fill:none;fill-rule:nonzero;stroke:rgb(167,168,170);stroke-width:2.36px;"/>
</svg>
