<?xml version="1.0" encoding="UTF-8" standalone="no"?>
<!DOCTYPE svg PUBLIC "-//W3C//DTD SVG 1.1//EN" "http://www.w3.org/Graphics/SVG/1.1/DTD/svg11.dtd">
<svg width="100%" height="100%" viewBox="0 0 1028 898" version="1.1" xmlns="http://www.w3.org/2000/svg" xmlns:xlink="http://www.w3.org/1999/xlink" xml:space="preserve" xmlns:serif="http://www.serif.com/" style="fill-rule:evenodd;clip-rule:evenodd;stroke-miterlimit:10;">
	<pattern id="diagonalHatch" width="10" height="10" patternUnits="userSpaceOnUse" patternTransform="rotate(45)">
		<line x1="0" y1="0" x2="0" y2="10" stroke="black" stroke-width="1"/>
	</pattern>
    <rect x="0" y="0" width="1027.56" height="897.637" style="fill:white;"/>
    <clipPath id="_clip1">
        <rect x="66.297" y="226.32" width="114.288" height="539.485" clip-rule="nonzero"/>
    </clipPath>
    <g clip-path="url(#_clip1)">
        <path d="M158.874,227.361L88.007,227.361C76.591,227.361 67.336,236.616 67.336,248.032L67.336,744.095C67.336,755.507 76.591,764.761 88.007,764.761L158.874,764.761C170.291,764.761 179.545,755.507 179.545,744.095L179.545,248.032C179.545,236.616 170.291,227.361 158.874,227.361Z" style="fill:none;fill-rule:nonzero;stroke:black;stroke-width:2.08px;"/>
    </g>
    <path d="M108.677,298.228L108.677,693.899C108.677,702.053 115.286,708.661 123.44,708.661C131.594,708.661 138.206,702.053 138.206,693.899L138.206,298.228C138.206,290.074 131.594,283.465 123.44,283.465C115.286,283.465 108.677,290.074 108.677,298.228" style="fill:url(#diagonalHatch);fill-rule:nonzero;stroke:black;stroke-width:2.13px;stroke-linejoin:round;stroke-miterlimit:2;"/>
    <clipPath id="_clip2">
        <rect x="243.462" y="226.32" width="114.288" height="539.485" clip-rule="nonzero"/>
    </clipPath>
    <g clip-path="url(#_clip2)">
        <path d="M336.039,227.361L265.172,227.361C253.756,227.361 244.502,236.616 244.502,248.032L244.502,744.095C244.502,755.507 253.756,764.761 265.172,764.761L336.039,764.761C347.456,764.761 356.71,755.507 356.71,744.095L356.71,248.032C356.71,236.616 347.456,227.361 336.039,227.361Z" style="fill:none;fill-rule:nonzero;stroke:black;stroke-width:2.08px;"/>
    </g>
    <path d="M285.842,298.228L285.842,693.899C285.842,702.053 292.451,708.661 300.605,708.661C308.759,708.661 315.372,702.053 315.372,693.899L315.372,298.228C315.372,290.074 308.759,283.465 300.605,283.465C292.451,283.465 285.842,290.074 285.842,298.228" style="fill:url(#diagonalHatch);fill-rule:nonzero;stroke:black;stroke-width:2.13px;stroke-linejoin:round;stroke-miterlimit:2;"/>
    <clipPath id="_clip3">
        <rect x="491.494" y="226.32" width="114.288" height="539.485" clip-rule="nonzero"/>
    </clipPath>
    <g clip-path="url(#_clip3)">
        <path d="M584.071,227.361L513.204,227.361C501.787,227.361 492.533,236.616 492.533,248.032L492.533,744.095C492.533,755.507 501.787,764.761 513.204,764.761L584.071,764.761C595.487,764.761 604.742,755.507 604.742,744.095L604.742,248.032C604.742,236.616 595.487,227.361 584.071,227.361Z" style="fill:none;fill-rule:nonzero;stroke:black;stroke-width:2.08px;"/>
    </g>
    <path d="M533.874,298.228L533.874,693.899C533.874,702.053 540.482,708.661 548.637,708.661C556.791,708.661 563.403,702.053 563.403,693.899L563.403,298.228C563.403,290.074 556.791,283.465 548.637,283.465C540.482,283.465 533.874,290.074 533.874,298.228" style="fill:url(#diagonalHatch);fill-rule:nonzero;stroke:black;stroke-width:2.13px;stroke-linejoin:round;stroke-miterlimit:2;"/>
    <clipPath id="_clip4">
        <rect x="668.659" y="226.32" width="114.288" height="539.485" clip-rule="nonzero"/>
    </clipPath>
    <g clip-path="url(#_clip4)">
        <path d="M761.236,227.361L690.369,227.361C678.953,227.361 669.698,236.616 669.698,248.032L669.698,744.095C669.698,755.507 678.953,764.761 690.369,764.761L761.236,764.761C772.653,764.761 781.907,755.507 781.907,744.095L781.907,248.032C781.907,236.616 772.653,227.361 761.236,227.361Z" style="fill:none;fill-rule:nonzero;stroke:black;stroke-width:2.08px;"/>
    </g>
    <path d="M711.039,298.228L711.039,693.899C711.039,702.053 717.648,708.661 725.802,708.661C733.956,708.661 740.568,702.053 740.568,693.899L740.568,298.228C740.568,290.074 733.956,283.465 725.802,283.465C717.648,283.465 711.039,290.074 711.039,298.228" style="fill:url(#diagonalHatch);fill-rule:nonzero;stroke:black;stroke-width:2.13px;stroke-linejoin:round;stroke-miterlimit:2;"/>
    <clipPath id="_clip5">
        <rect x="845.825" y="226.32" width="114.288" height="539.485" clip-rule="nonzero"/>
    </clipPath>
    <g clip-path="url(#_clip5)">
        <path d="M938.402,227.361L867.535,227.361C856.118,227.361 846.864,236.616 846.864,248.032L846.864,744.095C846.864,755.507 856.118,764.761 867.535,764.761L938.402,764.761C949.818,764.761 959.073,755.507 959.073,744.095L959.073,248.032C959.073,236.616 949.818,227.361 938.402,227.361Z" style="fill:none;fill-rule:nonzero;stroke:black;stroke-width:2.08px;"/>
    </g>
    <path d="M888.205,298.228L888.205,693.899C888.205,702.053 894.813,708.661 902.968,708.661C911.122,708.661 917.734,702.053 917.734,693.899L917.734,298.228C917.734,290.074 911.122,283.465 902.968,283.465C894.813,283.465 888.205,290.074 888.205,298.228" style="fill:url(#diagonalHatch);fill-rule:nonzero;stroke:black;stroke-width:2.13px;stroke-linejoin:round;stroke-miterlimit:2;"/>
    <path d="M91.544,392.897C85.023,392.897 79.736,387.61 79.736,381.089L79.736,258.243C79.736,251.718 85.023,246.435 91.544,246.435L155.34,246.435C161.861,246.435 167.148,251.718 167.148,258.243L167.148,381.089C167.148,387.61 161.861,392.897 155.34,392.897L91.544,392.897Z" style="fill:white;fill-rule:nonzero;"/>
    <path d="M90.502,362.282L90.502,362.174C83.902,361.645 78.694,356.103 78.694,349.365L78.694,289.932C78.694,282.845 84.461,277.082 91.544,277.082L155.34,277.082C162.427,277.082 168.19,282.845 168.19,289.932L168.19,349.365C168.19,356.103 162.982,361.645 156.382,362.174L156.382,362.215L155.34,362.282L90.502,362.282Z" style="fill:white;fill-rule:nonzero;"/>
    <path d="M155.338,276.039L91.542,276.039C83.888,276.039 77.65,282.272 77.65,289.931L77.65,349.368C77.65,356.318 82.788,362.093 89.459,363.102L89.459,363.26L91.542,363.322L157.421,363.322L157.421,363.102C164.1,362.093 169.23,356.318 169.23,349.368L169.23,289.931C169.23,282.272 162.996,276.039 155.338,276.039M155.338,278.122C161.859,278.122 167.146,283.41 167.146,289.931L167.146,349.368C167.146,355.889 161.859,361.177 155.338,361.177L155.338,361.239L91.542,361.239L91.542,361.177C85.021,361.177 79.734,355.889 79.734,349.368L79.734,289.931C79.734,283.41 85.021,278.122 91.542,278.122L155.338,278.122Z" style="fill-rule:nonzero;"/>
    <path d="M79.736,313.759L105.732,313.759C108.994,313.759 111.636,316.405 111.636,319.663C111.636,322.925 108.994,325.571 105.732,325.571L79.736,325.571L79.736,313.759Z" style="fill:url(#diagonalHatch);fill-rule:nonzero;stroke:black;stroke-width:2.08px;"/>
    <path d="M155.338,242.266L91.542,242.266C82.734,242.266 75.567,249.433 75.567,258.241L75.567,381.087C75.567,389.9 82.734,397.062 91.542,397.062L155.338,397.062C164.146,397.062 171.313,389.9 171.313,381.087L171.313,258.241C171.313,249.433 164.146,242.266 155.338,242.266M155.338,246.433C161.859,246.433 167.146,251.72 167.146,258.241L167.146,381.087C167.146,387.612 161.859,392.895 155.338,392.895L91.542,392.895C85.021,392.895 79.734,387.612 79.734,381.087L79.734,258.241C79.734,251.72 85.021,246.433 91.542,246.433L155.338,246.433Z" style="fill-rule:nonzero;"/>
    <path d="M871.073,392.897C864.552,392.897 859.265,387.61 859.265,381.089L859.265,258.243C859.265,251.718 864.552,246.435 871.073,246.435L934.869,246.435C941.39,246.435 946.677,251.718 946.677,258.243L946.677,381.089C946.677,387.61 941.39,392.897 934.869,392.897L871.073,392.897Z" style="fill:white;fill-rule:nonzero;"/>
    <path d="M870.031,362.282L870.031,362.174C863.431,361.645 858.223,356.103 858.223,349.365L858.223,289.932C858.223,282.845 863.985,277.082 871.073,277.082L934.869,277.082C941.952,277.082 947.719,282.845 947.719,289.932L947.719,349.365C947.719,356.103 942.51,361.645 935.91,362.174L935.91,362.215L934.869,362.282L870.031,362.282Z" style="fill:white;fill-rule:nonzero;"/>
    <path d="M934.867,276.039L871.071,276.039C863.413,276.039 857.179,282.272 857.179,289.931L857.179,349.368C857.179,356.318 862.313,362.093 868.988,363.102L868.988,363.26L871.071,363.322L936.95,363.322L936.95,363.102C943.625,362.093 948.758,356.318 948.758,349.368L948.758,289.931C948.758,282.272 942.525,276.039 934.867,276.039M934.867,278.122C941.388,278.122 946.675,283.41 946.675,289.931L946.675,349.368C946.675,355.889 941.388,361.177 934.867,361.177L934.867,361.239L871.071,361.239L871.071,361.177C864.55,361.177 859.263,355.889 859.263,349.368L859.263,289.931C859.263,283.41 864.55,278.122 871.071,278.122L934.867,278.122Z" style="fill-rule:nonzero;"/>
    <path d="M859.265,313.759L885.26,313.759C888.519,313.759 891.165,316.405 891.165,319.663C891.165,322.925 888.519,325.571 885.26,325.571L859.265,325.571L859.265,313.759Z" style="fill:url(#diagonalHatch);fill-rule:nonzero;stroke:black;stroke-width:2.08px;"/>
    <path d="M934.867,242.266L871.071,242.266C862.263,242.266 855.096,249.433 855.096,258.241L855.096,381.087C855.096,389.9 862.263,397.062 871.071,397.062L934.867,397.062C943.671,397.062 950.842,389.9 950.842,381.087L950.842,258.241C950.842,249.433 943.671,242.266 934.867,242.266M934.867,246.433C941.388,246.433 946.675,251.72 946.675,258.241L946.675,381.087C946.675,387.612 941.388,392.895 934.867,392.895L871.071,392.895C864.55,392.895 859.263,387.612 859.263,381.087L859.263,258.241C859.263,251.72 864.55,246.433 871.071,246.433L934.867,246.433Z" style="fill-rule:nonzero;"/>
    <path d="M268.709,745.965C262.188,745.965 256.9,740.677 256.9,734.157L256.9,611.311C256.9,604.786 262.188,599.502 268.709,599.502L332.505,599.502C339.025,599.502 344.313,604.786 344.313,611.311L344.313,734.157C344.313,740.677 339.025,745.965 332.505,745.965L268.709,745.965Z" style="fill:white;fill-rule:nonzero;"/>
    <path d="M267.667,715.35L267.667,715.242C261.067,714.712 255.859,709.171 255.859,702.433L255.859,643C255.859,635.912 261.625,630.15 268.709,630.15L332.505,630.15C339.592,630.15 345.355,635.912 345.355,643L345.355,702.433C345.355,709.171 340.146,714.712 333.546,715.242L333.546,715.283L332.505,715.35L267.667,715.35Z" style="fill:white;fill-rule:nonzero;"/>
    <path d="M332.503,629.107L268.707,629.107C261.053,629.107 254.815,635.34 254.815,642.999L254.815,702.436C254.815,709.386 259.953,715.161 266.623,716.174L266.623,716.328L268.707,716.39L334.586,716.39L334.586,716.174C341.265,715.161 346.394,709.386 346.394,702.436L346.394,642.999C346.394,635.34 340.165,629.107 332.503,629.107M332.503,631.19C339.023,631.19 344.311,636.478 344.311,642.999L344.311,702.436C344.311,708.957 339.023,714.245 332.503,714.245L332.503,714.307L268.707,714.307L268.707,714.245C262.186,714.245 256.898,708.957 256.898,702.436L256.898,642.999C256.898,636.478 262.186,631.19 268.707,631.19L332.503,631.19Z" style="fill-rule:nonzero;"/>
    <path d="M256.9,666.829L282.896,666.829C286.159,666.829 288.805,669.471 288.805,672.733C288.805,675.996 286.159,678.637 282.896,678.637L256.9,678.637L256.9,666.829Z" style="fill:url(#diagonalHatch);fill-rule:nonzero;stroke:black;stroke-width:2.08px;"/>
    <path d="M332.503,595.335L268.707,595.335C259.903,595.335 252.732,602.501 252.732,611.31L252.732,734.155C252.732,742.968 259.903,750.13 268.707,750.13L332.503,750.13C341.311,750.13 348.478,742.968 348.478,734.155L348.478,611.31C348.478,602.501 341.311,595.335 332.503,595.335M332.503,599.501C339.023,599.501 344.311,604.789 344.311,611.31L344.311,734.155C344.311,740.68 339.023,745.964 332.503,745.964L268.707,745.964C262.186,745.964 256.898,740.68 256.898,734.155L256.898,611.31C256.898,604.789 262.186,599.501 268.707,599.501L332.503,599.501Z" style="fill-rule:nonzero;"/>
    <path d="M693.908,745.965C687.387,745.965 682.1,740.677 682.1,734.157L682.1,611.311C682.1,604.786 687.387,599.502 693.908,599.502L757.704,599.502C764.225,599.502 769.508,604.786 769.508,611.311L769.508,734.157C769.508,740.677 764.225,745.965 757.704,745.965L693.908,745.965Z" style="fill:white;fill-rule:nonzero;"/>
    <path d="M692.866,715.35L692.866,715.242C686.266,714.712 681.058,709.171 681.058,702.433L681.058,643C681.058,635.912 686.82,630.15 693.908,630.15L757.704,630.15C764.787,630.15 770.554,635.912 770.554,643L770.554,702.433C770.554,709.171 765.345,714.712 758.745,715.242L758.745,715.283L757.704,715.35L692.866,715.35Z" style="fill:white;fill-rule:nonzero;"/>
    <path d="M757.702,629.107L693.906,629.107C686.248,629.107 680.015,635.34 680.015,642.999L680.015,702.436C680.015,709.386 685.148,715.161 691.823,716.174L691.823,716.328L693.906,716.39L759.785,716.39L759.785,716.174C766.46,715.161 771.594,709.386 771.594,702.436L771.594,642.999C771.594,635.34 765.36,629.107 757.702,629.107M757.702,631.19C764.223,631.19 769.51,636.478 769.51,642.999L769.51,702.436C769.51,708.957 764.223,714.245 757.702,714.245L757.702,714.307L693.906,714.307L693.906,714.245C687.385,714.245 682.098,708.957 682.098,702.436L682.098,642.999C682.098,636.478 687.385,631.19 693.906,631.19L757.702,631.19Z" style="fill-rule:nonzero;"/>
    <path d="M682.1,666.829L708.096,666.829C711.354,666.829 714,669.471 714,672.733C714,675.996 711.354,678.637 708.096,678.637L682.1,678.637L682.1,666.829Z" style="fill:url(#diagonalHatch);fill-rule:nonzero;stroke:black;stroke-width:2.08px;"/>
    <path d="M757.702,595.335L693.906,595.335C685.098,595.335 677.931,602.501 677.931,611.31L677.931,734.155C677.931,742.968 685.098,750.13 693.906,750.13L757.702,750.13C766.506,750.13 773.677,742.968 773.677,734.155L773.677,611.31C773.677,602.501 766.506,595.335 757.702,595.335M757.702,599.501C764.223,599.501 769.51,604.789 769.51,611.31L769.51,734.155C769.51,740.68 764.223,745.964 757.702,745.964L693.906,745.964C687.385,745.964 682.098,740.68 682.098,734.155L682.098,611.31C682.098,604.789 687.385,599.501 693.906,599.501L757.702,599.501Z" style="fill-rule:nonzero;"/>
    <path d="M516.743,556.815C510.223,556.815 504.935,551.527 504.935,545.007L504.935,422.161C504.935,415.636 510.223,410.352 516.743,410.352L580.535,410.352C587.056,410.352 592.343,415.636 592.343,422.161L592.343,545.007C592.343,551.527 587.056,556.815 580.535,556.815L516.743,556.815Z" style="fill:white;fill-rule:nonzero;"/>
    <path d="M515.697,526.2L515.697,526.092C509.097,525.562 503.889,520.021 503.889,513.283L503.889,453.85C503.889,446.762 509.656,441 516.739,441L580.535,441C587.622,441 593.385,446.762 593.385,453.85L593.385,513.283C593.385,520.021 588.177,525.562 581.577,526.092L581.577,526.133L580.535,526.2L515.697,526.2Z" style="fill:white;fill-rule:nonzero;"/>
    <path d="M580.533,439.957L516.742,439.957C509.083,439.957 502.85,446.19 502.85,453.849L502.85,513.286C502.85,520.236 507.983,526.011 514.658,527.02L514.658,527.178L516.742,527.24L582.617,527.24L582.617,527.02C589.296,526.011 594.425,520.236 594.425,513.286L594.425,453.849C594.425,446.19 588.196,439.957 580.533,439.957M580.533,442.04C587.054,442.04 592.342,447.328 592.342,453.849L592.342,513.286C592.342,519.807 587.054,525.095 580.533,525.095L580.533,525.157L516.742,525.157L516.742,525.095C510.221,525.095 504.933,519.807 504.933,513.286L504.933,453.849C504.933,447.328 510.221,442.04 516.742,442.04L580.533,442.04Z" style="fill-rule:nonzero;"/>
    <path d="M504.935,477.677L530.927,477.677C534.189,477.677 536.835,480.323 536.835,483.581C536.835,486.844 534.189,489.49 530.927,489.49L504.935,489.49L504.935,477.677Z" style="fill:url(#diagonalHatch);fill-rule:nonzero;stroke:black;stroke-width:2.08px;"/>
    <path d="M580.533,406.185L516.742,406.185C507.933,406.185 500.767,413.351 500.767,422.16L500.767,545.005C500.767,553.818 507.933,560.98 516.742,560.98L580.533,560.98C589.342,560.98 596.508,553.818 596.508,545.005L596.508,422.16C596.508,413.351 589.342,406.185 580.533,406.185M580.533,410.351C587.054,410.351 592.342,415.639 592.342,422.16L592.342,545.005C592.342,551.53 587.054,556.814 580.533,556.814L516.742,556.814C510.221,556.814 504.933,551.53 504.933,545.005L504.933,422.16C504.933,415.639 510.221,410.351 516.742,410.351L580.533,410.351Z" style="fill-rule:nonzero;"/>
    <path d="M87.206,167.016L98.964,167.016L98.964,169.27L89.897,169.27L89.897,176.558L98.118,176.558L98.118,178.808L89.897,178.808L89.897,189.383L87.206,189.383L87.206,167.016Z" style="fill-rule:nonzero;"/>
    <path d="M112.169,177.59C115.019,177.59 116.519,175.773 116.519,173.46C116.519,170.735 114.832,169.269 112.015,169.269L108.636,169.269L108.636,177.59L112.169,177.59ZM105.948,167.015L112.452,167.015C116.423,167.015 119.24,169.144 119.269,172.898C119.302,176.09 117.394,177.744 115.798,178.435L115.798,178.527C117.769,179.185 118.861,180.402 118.861,183.19L118.861,185.848C118.861,187.723 119.207,188.66 119.427,189.381L116.611,189.381C116.394,188.631 116.052,187.694 116.052,185.785L116.052,183.69C116.052,181.531 115.332,179.81 112.077,179.81L108.636,179.81L108.636,189.381L105.948,189.381L105.948,167.015Z" style="fill-rule:nonzero;"/>
    <path d="M127.424,167.016L139.183,167.016L139.183,169.27L130.116,169.27L130.116,176.558L138.183,176.558L138.183,178.745L130.116,178.745L130.116,187.129L139.183,187.129L139.183,189.383L127.424,189.383L127.424,167.016Z" style="fill-rule:nonzero;"/>
    <path d="M159.935,178.184C159.935,172.521 157.965,168.892 154.119,168.892C150.273,168.892 148.302,172.521 148.302,178.184C148.302,183.846 150.273,187.538 154.119,187.538C157.965,187.538 159.935,183.846 159.935,178.184M155.465,189.696L155.465,194.7L152.773,194.7L152.773,189.696C148.331,189.009 145.515,184.784 145.515,178.184C145.515,170.925 148.898,166.638 154.119,166.638C159.34,166.638 162.719,170.959 162.719,178.184C162.719,184.784 159.906,188.975 155.465,189.696" style="fill-rule:nonzero;"/>
    <path d="M281.261,177.602C284.111,177.602 285.611,175.785 285.611,173.472C285.611,170.747 283.924,169.281 281.107,169.281L277.728,169.281L277.728,177.602L281.261,177.602ZM275.04,167.027L281.545,167.027C285.515,167.027 288.332,169.156 288.361,172.91C288.395,176.102 286.486,177.756 284.89,178.447L284.89,178.539C286.861,179.197 287.957,180.414 287.957,183.202L287.957,185.86C287.957,187.735 288.299,188.672 288.52,189.393L285.703,189.393C285.486,188.643 285.145,187.706 285.145,185.797L285.145,183.702C285.145,181.543 284.424,179.822 281.17,179.822L277.728,179.822L277.728,189.393L275.04,189.393L275.04,167.027Z" style="fill-rule:nonzero;"/>
    <path d="M296.516,167.028L308.274,167.028L308.274,169.282L299.208,169.282L299.208,176.57L307.274,176.57L307.274,178.757L299.208,178.757L299.208,187.141L308.274,187.141L308.274,189.395L296.516,189.395L296.516,167.028Z" style="fill-rule:nonzero;"/>
    <path d="M314.269,181.886L316.96,181.886C317.394,185.39 319.335,187.486 322.085,187.486C324.373,187.486 326.748,186.361 326.748,183.324C326.748,181.478 325.994,180.199 322.965,179.32L320.585,178.632C318.052,177.911 314.985,176.632 314.985,172.44C314.985,169.032 318.206,166.557 321.71,166.557C326.09,166.557 328.156,169.436 328.377,173.628L325.681,173.628C325.435,170.407 323.873,168.936 321.677,168.936C319.581,168.936 317.769,170.157 317.769,172.565C317.769,174.753 319.427,175.695 321.648,176.382L323.681,177.007C326.81,177.978 329.531,179.195 329.531,183.232C329.531,187.765 325.715,189.865 322.21,189.865C317.24,189.865 314.485,186.42 314.269,181.886" style="fill-rule:nonzero;"/>
    <path d="M522.875,167.04L534.633,167.04L534.633,169.295L525.567,169.295L525.567,176.582L533.633,176.582L533.633,178.77L525.567,178.77L525.567,187.153L534.633,187.153L534.633,189.407L522.875,189.407L522.875,167.04Z" style="fill-rule:nonzero;"/>
    <path d="M556.501,167.04L556.501,189.407L553.185,189.407L544.555,170.824L544.555,189.407L541.864,189.407L541.864,167.04L545.176,167.04L553.81,185.62L553.81,167.04L556.501,167.04Z" style="fill-rule:nonzero;"/>
    <path d="M578.697,167.04L572.627,189.407L569.218,189.407L563.152,167.04L565.902,167.04L570.939,186.495L575.943,167.04L578.697,167.04Z" style="fill-rule:nonzero;"/>
    <path d="M712.775,167.053L712.775,189.42L710.113,189.42L710.113,171.307L705.05,189.42L701.98,189.42L696.913,171.307L696.913,189.42L694.259,189.42L694.259,167.053L698.134,167.053L703.513,186.915L708.892,167.053L712.775,167.053Z" style="fill-rule:nonzero;"/>
    <path d="M734.988,178.22C734.988,172.557 733.017,168.928 729.172,168.928C725.326,168.928 723.355,172.557 723.355,178.22C723.355,183.882 725.326,187.574 729.172,187.574C733.017,187.574 734.988,183.882 734.988,178.22M720.567,178.22C720.567,170.962 723.951,166.674 729.172,166.674C734.392,166.674 737.776,170.995 737.776,178.22C737.776,185.445 734.392,189.824 729.172,189.824C723.951,189.824 720.567,185.478 720.567,178.22" style="fill-rule:nonzero;"/>
    <path d="M749.905,187.166C754.751,187.166 757.601,183.537 757.601,178.22C757.601,172.903 754.751,169.303 749.905,169.303L748.218,169.303L748.218,187.166L749.905,187.166ZM745.526,167.053L749.905,167.053C756.318,167.053 760.385,171.808 760.385,178.249C760.385,184.695 756.318,189.42 749.905,189.42L745.526,189.42L745.526,167.053Z" style="fill-rule:nonzero;"/>
    <path d="M870.58,180.33L868.892,182.767L868.892,189.434L866.201,189.434L866.201,167.067L868.892,167.067L868.892,178.58L876.772,167.067L879.901,167.067L872.209,178.047L880.242,189.434L877.088,189.434L870.58,180.33Z" style="fill-rule:nonzero;"/>
    <path d="M899.995,167.067L894.178,180.796L894.178,189.434L891.487,189.434L891.487,180.796L885.641,167.067L888.549,167.067L892.833,177.796L897.091,167.067L899.995,167.067Z" style="fill-rule:nonzero;"/>
    <path d="M912.926,187.18C915.618,187.18 917.743,185.742 917.743,182.801C917.743,180.205 915.835,178.547 913.047,178.547L909.33,178.547L909.33,187.18L912.926,187.18ZM912.86,176.355C915.335,176.355 916.651,174.763 916.651,172.697C916.651,170.692 915.364,169.317 912.518,169.317L909.33,169.317L909.33,176.355L912.86,176.355ZM906.639,167.067L913.239,167.067C916.651,167.067 919.368,169.038 919.401,172.288C919.435,174.826 917.526,176.605 915.897,177.234L915.897,177.326C917.71,177.734 920.526,179.359 920.526,182.926C920.526,186.522 917.772,189.434 913.301,189.434L906.639,189.434L906.639,167.067Z" style="fill-rule:nonzero;"/>
    <path d="M932.282,187.18C937.128,187.18 939.978,183.551 939.978,178.234C939.978,172.917 937.128,169.317 932.282,169.317L930.595,169.317L930.595,187.18L932.282,187.18ZM927.903,167.067L932.282,167.067C938.695,167.067 942.762,171.822 942.762,178.263C942.762,184.709 938.695,189.434 932.282,189.434L927.903,189.434L927.903,167.067Z" style="fill-rule:nonzero;"/>
    <path d="M39.114,29.89L33.043,52.257L29.635,52.257L23.568,29.89L26.318,29.89L31.356,49.345L36.36,29.89L39.114,29.89Z" style="fill-rule:nonzero;"/>
    <path d="M45.93,41.058C45.93,33.8 49.026,29.512 54.409,29.512C58.663,29.512 61.197,32.708 61.98,37.52L59.197,37.52C58.822,34.55 57.193,31.766 54.438,31.766C50.53,31.766 48.718,35.395 48.718,41.058C48.718,46.72 50.434,50.412 54.438,50.412C57.255,50.412 59.163,47.533 59.476,44.5L62.259,44.5C61.351,50.004 58.322,52.662 54.438,52.662C49.059,52.662 45.93,48.316 45.93,41.058" style="fill-rule:nonzero;"/>
    <path d="M71.353,29.89L83.111,29.89L83.111,32.145L74.045,32.145L74.045,39.432L82.265,39.432L82.265,41.682L74.045,41.682L74.045,52.257L71.353,52.257L71.353,29.89Z" style="fill-rule:nonzero;"/>
    <path d="M23.255,68.245L1003.57,68.245" style="fill:none;fill-rule:nonzero;stroke:black;stroke-width:2.36px;"/>
    <path d="M28.201,293.273L28.201,308.003L26.468,308.003L26.468,296.157C25.868,297.332 24.926,298.173 23.81,298.361L23.81,296.569C25.168,296.157 25.914,294.736 26.055,293.273L28.201,293.273Z" style="fill-rule:nonzero;"/>
    <path d="M41.299,300.626C41.299,296.755 40.333,294.551 38.291,294.551C36.253,294.551 35.287,296.755 35.287,300.626C35.287,304.501 36.253,306.743 38.291,306.743C40.333,306.743 41.299,304.501 41.299,300.626M33.449,300.626C33.449,296.076 35.345,293.026 38.291,293.026C41.237,293.026 43.128,295.68 43.128,300.626C43.128,305.572 41.237,308.268 38.291,308.268C35.345,308.268 33.449,305.18 33.449,300.626" style="fill-rule:nonzero;"/>
    <path d="M32.278,691.609C32.278,687.738 31.312,685.534 29.27,685.534C27.232,685.534 26.266,687.738 26.266,691.609C26.266,695.484 27.232,697.726 29.27,697.726C31.312,697.726 32.278,695.484 32.278,691.609M24.428,691.609C24.428,687.059 26.324,684.009 29.27,684.009C32.216,684.009 34.112,686.663 34.112,691.609C34.112,696.555 32.216,699.251 29.27,699.251C26.324,699.251 24.428,696.163 24.428,691.609" style="fill-rule:nonzero;"/>
    <path d="M23.396,318.623L66.792,318.623" style="fill:none;fill-rule:nonzero;stroke:black;stroke-width:2.36px;"/>
    <path d="M23.396,496.199L66.792,496.199" style="fill:none;fill-rule:nonzero;stroke:black;stroke-width:2.36px;"/>
    <path d="M23.396,673.775L66.792,673.775" style="fill:none;fill-rule:nonzero;stroke:black;stroke-width:2.36px;"/>
    <path d="M45.093,638.26L66.789,638.26" style="fill:none;fill-rule:nonzero;stroke:black;stroke-width:2.36px;"/>
    <path d="M45.093,602.745L66.789,602.745" style="fill:none;fill-rule:nonzero;stroke:black;stroke-width:2.36px;"/>
    <path d="M45.093,567.23L66.789,567.23" style="fill:none;fill-rule:nonzero;stroke:black;stroke-width:2.36px;"/>
    <path d="M45.093,531.715L66.789,531.715" style="fill:none;fill-rule:nonzero;stroke:black;stroke-width:2.36px;"/>
    <path d="M45.093,460.684L66.789,460.684" style="fill:none;fill-rule:nonzero;stroke:black;stroke-width:2.36px;"/>
    <path d="M45.093,425.169L66.789,425.169" style="fill:none;fill-rule:nonzero;stroke:black;stroke-width:2.36px;"/>
    <path d="M45.093,389.654L66.789,389.654" style="fill:none;fill-rule:nonzero;stroke:black;stroke-width:2.36px;"/>
    <path d="M45.093,354.139L66.789,354.139" style="fill:none;fill-rule:nonzero;stroke:black;stroke-width:2.36px;"/>
    <path d="M452.323,293.273L452.323,308.003L450.589,308.003L450.589,296.157C449.989,297.332 449.048,298.173 447.931,298.361L447.931,296.569C449.289,296.157 450.035,294.736 450.177,293.273L452.323,293.273Z" style="fill-rule:nonzero;"/>
    <path d="M465.42,300.626C465.42,296.755 464.454,294.551 462.412,294.551C460.375,294.551 459.408,296.755 459.408,300.626C459.408,304.501 460.375,306.743 462.412,306.743C464.454,306.743 465.42,304.501 465.42,300.626M457.57,300.626C457.57,296.076 459.466,293.026 462.412,293.026C465.358,293.026 467.25,295.68 467.25,300.626C467.25,305.572 465.358,308.268 462.412,308.268C459.466,308.268 457.57,305.18 457.57,300.626" style="fill-rule:nonzero;"/>
    <path d="M456.4,691.609C456.4,687.738 455.433,685.534 453.391,685.534C451.354,685.534 450.387,687.738 450.387,691.609C450.387,695.484 451.354,697.726 453.391,697.726C455.433,697.726 456.4,695.484 456.4,691.609M448.55,691.609C448.55,687.059 450.445,684.009 453.391,684.009C456.337,684.009 458.233,686.663 458.233,691.609C458.233,696.555 456.337,699.251 453.391,699.251C450.445,699.251 448.55,696.163 448.55,691.609" style="fill-rule:nonzero;"/>
    <path d="M447.523,318.623L490.918,318.623" style="fill:none;fill-rule:nonzero;stroke:black;stroke-width:2.36px;"/>
    <path d="M447.523,496.199L490.918,496.199" style="fill:none;fill-rule:nonzero;stroke:black;stroke-width:2.36px;"/>
    <path d="M447.523,673.775L490.918,673.775" style="fill:none;fill-rule:nonzero;stroke:black;stroke-width:2.36px;"/>
    <path d="M469.219,638.26L490.915,638.26" style="fill:none;fill-rule:nonzero;stroke:black;stroke-width:2.36px;"/>
    <path d="M469.219,602.745L490.915,602.745" style="fill:none;fill-rule:nonzero;stroke:black;stroke-width:2.36px;"/>
    <path d="M469.219,567.23L490.915,567.23" style="fill:none;fill-rule:nonzero;stroke:black;stroke-width:2.36px;"/>
    <path d="M469.219,531.715L490.915,531.715" style="fill:none;fill-rule:nonzero;stroke:black;stroke-width:2.36px;"/>
    <path d="M469.219,460.684L490.915,460.684" style="fill:none;fill-rule:nonzero;stroke:black;stroke-width:2.36px;"/>
    <path d="M469.219,425.169L490.915,425.169" style="fill:none;fill-rule:nonzero;stroke:black;stroke-width:2.36px;"/>
    <path d="M469.219,389.654L490.915,389.654" style="fill:none;fill-rule:nonzero;stroke:black;stroke-width:2.36px;"/>
    <path d="M469.219,354.139L490.915,354.139" style="fill:none;fill-rule:nonzero;stroke:black;stroke-width:2.36px;"/>
    <path d="M181.628,318.623L243.637,318.623" style="fill:none;fill-rule:nonzero;stroke:black;stroke-width:2.36px;"/>
    <path d="M181.628,354.139L243.637,354.139" style="fill:none;fill-rule:nonzero;stroke:black;stroke-width:2.36px;"/>
    <path d="M181.628,389.654L243.637,389.654" style="fill:none;fill-rule:nonzero;stroke:black;stroke-width:2.36px;"/>
    <path d="M181.628,425.169L243.637,425.169" style="fill:none;fill-rule:nonzero;stroke:black;stroke-width:2.36px;"/>
    <path d="M181.628,460.684L243.637,460.684" style="fill:none;fill-rule:nonzero;stroke:black;stroke-width:2.36px;"/>
    <path d="M181.628,531.715L243.637,531.715" style="fill:none;fill-rule:nonzero;stroke:black;stroke-width:2.36px;"/>
    <path d="M181.628,602.745L243.637,602.745" style="fill:none;fill-rule:nonzero;stroke:black;stroke-width:2.36px;"/>
    <path d="M181.628,567.23L243.637,567.23" style="fill:none;fill-rule:nonzero;stroke:black;stroke-width:2.36px;"/>
    <path d="M181.628,638.26L243.637,638.26" style="fill:none;fill-rule:nonzero;stroke:black;stroke-width:2.36px;"/>
    <path d="M181.628,496.199L243.637,496.199" style="fill:none;fill-rule:nonzero;stroke:black;stroke-width:2.36px;"/>
    <path d="M181.628,673.775L243.637,673.775" style="fill:none;fill-rule:nonzero;stroke:black;stroke-width:2.36px;"/>
    <path d="M607.347,318.623L669.355,318.623" style="fill:none;fill-rule:nonzero;stroke:black;stroke-width:2.36px;"/>
    <path d="M607.347,354.139L669.355,354.139" style="fill:none;fill-rule:nonzero;stroke:black;stroke-width:2.36px;"/>
    <path d="M607.347,389.654L669.355,389.654" style="fill:none;fill-rule:nonzero;stroke:black;stroke-width:2.36px;"/>
    <path d="M607.347,425.169L669.355,425.169" style="fill:none;fill-rule:nonzero;stroke:black;stroke-width:2.36px;"/>
    <path d="M607.347,460.684L669.355,460.684" style="fill:none;fill-rule:nonzero;stroke:black;stroke-width:2.36px;"/>
    <path d="M607.347,531.715L669.355,531.715" style="fill:none;fill-rule:nonzero;stroke:black;stroke-width:2.36px;"/>
    <path d="M607.347,602.745L669.355,602.745" style="fill:none;fill-rule:nonzero;stroke:black;stroke-width:2.36px;"/>
    <path d="M607.347,567.23L669.355,567.23" style="fill:none;fill-rule:nonzero;stroke:black;stroke-width:2.36px;"/>
    <path d="M607.347,638.26L669.355,638.26" style="fill:none;fill-rule:nonzero;stroke:black;stroke-width:2.36px;"/>
    <path d="M607.347,496.199L669.355,496.199" style="fill:none;fill-rule:nonzero;stroke:black;stroke-width:2.36px;"/>
    <path d="M607.347,673.775L669.355,673.775" style="fill:none;fill-rule:nonzero;stroke:black;stroke-width:2.36px;"/>
    <path d="M784.058,318.623L846.066,318.623" style="fill:none;fill-rule:nonzero;stroke:black;stroke-width:2.36px;"/>
    <path d="M784.058,354.139L846.066,354.139" style="fill:none;fill-rule:nonzero;stroke:black;stroke-width:2.36px;"/>
    <path d="M784.058,389.654L846.066,389.654" style="fill:none;fill-rule:nonzero;stroke:black;stroke-width:2.36px;"/>
    <path d="M784.058,425.169L846.066,425.169" style="fill:none;fill-rule:nonzero;stroke:black;stroke-width:2.36px;"/>
    <path d="M784.058,460.684L846.066,460.684" style="fill:none;fill-rule:nonzero;stroke:black;stroke-width:2.36px;"/>
    <path d="M784.058,531.715L846.066,531.715" style="fill:none;fill-rule:nonzero;stroke:black;stroke-width:2.36px;"/>
    <path d="M784.058,602.745L846.066,602.745" style="fill:none;fill-rule:nonzero;stroke:black;stroke-width:2.36px;"/>
    <path d="M784.058,567.23L846.066,567.23" style="fill:none;fill-rule:nonzero;stroke:black;stroke-width:2.36px;"/>
    <path d="M784.058,638.26L846.066,638.26" style="fill:none;fill-rule:nonzero;stroke:black;stroke-width:2.36px;"/>
    <path d="M784.058,496.199L846.066,496.199" style="fill:none;fill-rule:nonzero;stroke:black;stroke-width:2.36px;"/>
    <path d="M784.058,673.775L846.066,673.775" style="fill:none;fill-rule:nonzero;stroke:black;stroke-width:2.36px;"/>
</svg>
