<?xml version="1.0" encoding="UTF-8" standalone="no"?>
<!DOCTYPE svg PUBLIC "-//W3C//DTD SVG 1.1//EN" "http://www.w3.org/Graphics/SVG/1.1/DTD/svg11.dtd">
<svg width="100%" height="100%" viewBox="0 0 375 898" version="1.1" xmlns="http://www.w3.org/2000/svg" xmlns:xlink="http://www.w3.org/1999/xlink" xml:space="preserve" xmlns:serif="http://www.serif.com/" style="fill-rule:evenodd;clip-rule:evenodd;stroke-miterlimit:10;">
    <rect x="0" y="0" width="374.408" height="897.637" style="fill:white;"/>
    <ellipse cx="185.434" cy="177.165" rx="21.258" ry="21.26" style="fill:none;stroke:black;stroke-width:2.08px;"/>
    <path d="M185.093,369.093C114.972,369.093 58.126,425.939 58.126,496.064C58.126,566.185 114.972,623.031 185.093,623.031C255.218,623.031 312.064,566.185 312.064,496.064C312.064,425.939 255.218,369.093 185.093,369.093" style="fill:white;fill-rule:nonzero;"/>
    <circle cx="185.095" cy="496.062" r="126.969" style="fill:none;stroke:black;stroke-width:2.08px;"/>
    <path d="M191.266,425.018L245.145,425.443C247.416,425.46 249.595,426.351 251.228,427.926C252.383,429.043 253.512,430.189 254.608,431.36C290.341,469.564 288.337,529.501 250.133,565.235C211.928,600.968 151.991,598.964 116.262,560.76C80.528,522.555 82.533,462.618 120.737,426.885C122.395,425.335 124.587,424.48 126.858,424.497L179.512,424.922" style="fill:white;fill-rule:nonzero;stroke:black;stroke-width:2.08px;"/>
    <path d="M191.313,388.989C191.313,392.235 188.683,394.868 185.433,394.868C182.188,394.868 179.558,392.235 179.558,388.989L179.558,454.447C179.558,457.697 182.188,460.326 185.433,460.326C188.683,460.326 191.313,457.697 191.313,454.447L191.313,388.989Z" style="fill-rule:nonzero;stroke:black;stroke-width:2.08px;"/>
    <path d="M191.313,383.545L191.313,388.995C191.313,392.236 188.683,394.87 185.433,394.87C182.188,394.87 179.558,392.236 179.558,388.995L179.558,383.545C120.063,386.603 72.763,435.807 72.763,496.061C72.763,558.286 123.208,608.732 185.433,608.732C247.658,608.732 298.104,558.286 298.104,496.061C298.104,435.807 250.808,386.603 191.313,383.545Z" style="fill:none;fill-rule:nonzero;stroke:black;stroke-width:4.17px;stroke-linecap:round;stroke-linejoin:round;"/>
    <path d="M185.434,192.519C176.955,192.519 170.08,185.644 170.08,177.165C170.08,168.685 176.955,161.81 185.434,161.81C193.913,161.81 200.788,168.685 200.788,177.165C200.788,185.644 193.913,192.519 185.434,192.519Z" style="fill:none;fill-rule:nonzero;stroke:black;stroke-width:4.17px;"/>
    <path d="M150.492,285.577L144.583,285.577L144.583,283.323L159.125,283.323L159.125,285.577L153.183,285.577L153.183,305.69L150.492,305.69L150.492,285.577Z" style="fill-rule:nonzero;"/>
    <path d="M165.753,297.088L165.753,283.326L168.536,283.326L168.536,297.088C168.536,301.872 170.382,303.847 173.448,303.847C176.515,303.847 178.294,301.872 178.294,297.088L178.294,283.326L181.082,283.326L181.082,297.088C181.082,302.876 178.294,306.159 173.448,306.159C168.598,306.159 165.753,303.126 165.753,297.088" style="fill-rule:nonzero;"/>
    <path d="M204.193,283.325L204.193,305.691L200.876,305.691L192.243,287.108L192.243,305.691L189.551,305.691L189.551,283.325L192.868,283.325L201.501,301.904L201.501,283.325L204.193,283.325Z" style="fill-rule:nonzero;"/>
    <path d="M212.756,283.325L224.518,283.325L224.518,285.579L215.448,285.579L215.448,292.866L223.518,292.866L223.518,295.054L215.448,295.054L215.448,303.437L224.518,303.437L224.518,305.691L212.756,305.691L212.756,283.325Z" style="fill-rule:nonzero;"/>
    <path d="M257.798,661.411L251.106,661.411L251.106,657.928L257.798,657.928L257.798,651.236L261.281,651.282L261.281,657.928L267.927,657.928L267.927,661.411L261.281,661.411L261.281,668.057L257.798,668.057L257.798,661.411Z" style="fill-rule:nonzero;"/>
    <rect x="104.917" y="657.838" width="11.383" height="3.575"/>
    <path d="M178.225,350.331C178.225,346.54 181.3,343.465 185.092,343.465C188.888,343.465 191.963,346.54 191.963,350.331C191.963,354.123 188.888,357.198 185.092,357.198C181.3,357.198 178.225,354.123 178.225,350.331" style="fill-rule:nonzero;"/>
    <path d="M255.89,368.121C257.107,366.012 259.798,365.292 261.907,366.508C264.015,367.725 264.736,370.421 263.519,372.525C262.303,374.633 259.611,375.354 257.503,374.137C255.394,372.921 254.673,370.229 255.89,368.121" style="fill-rule:nonzero;"/>
    <path d="M312.121,421.128C314.23,419.911 316.921,420.632 318.138,422.74C319.355,424.849 318.634,427.54 316.525,428.757C314.421,429.974 311.725,429.253 310.509,427.145C309.292,425.036 310.013,422.345 312.121,421.128" style="fill-rule:nonzero;"/>
    <path d="M334.316,495.149C336.749,495.149 338.72,497.12 338.72,499.553C338.72,501.986 336.749,503.957 334.316,503.957C331.883,503.957 329.912,501.986 329.912,499.553C329.912,497.12 331.883,495.149 334.316,495.149" style="fill-rule:nonzero;"/>
    <path d="M316.526,570.35C318.635,571.567 319.355,574.259 318.139,576.367C316.922,578.475 314.226,579.196 312.122,577.98C310.014,576.763 309.293,574.071 310.51,571.963C311.726,569.855 314.418,569.134 316.526,570.35" style="fill-rule:nonzero;"/>
    <path d="M106.668,372.526C105.451,370.418 106.172,367.726 108.28,366.51C110.388,365.293 113.08,366.014 114.297,368.122C115.513,370.226 114.793,372.922 112.684,374.139C110.58,375.355 107.884,374.635 106.668,372.526" style="fill-rule:nonzero;"/>
    <path d="M53.66,428.758C51.552,427.541 50.831,424.849 52.048,422.741C53.265,420.633 55.96,419.912 58.065,421.128C60.173,422.345 60.894,425.037 59.677,427.145C58.46,429.253 55.769,429.974 53.66,428.758" style="fill-rule:nonzero;"/>
    <path d="M35.871,503.959C33.438,503.959 31.467,501.988 31.467,499.555C31.467,497.121 33.438,495.15 35.871,495.15C38.304,495.15 40.275,497.121 40.275,499.555C40.275,501.988 38.304,503.959 35.871,503.959" style="fill-rule:nonzero;"/>
    <path d="M58.065,577.98C55.957,579.197 53.265,578.476 52.049,576.368C50.832,574.259 51.553,571.568 53.661,570.351C55.765,569.134 58.461,569.855 59.678,571.963C60.895,574.068 60.174,576.763 58.065,577.98" style="fill-rule:nonzero;"/>
    <path d="M103.614,628.784C103.614,624.993 106.689,621.918 110.481,621.918C114.277,621.918 117.352,624.993 117.352,628.784C117.352,632.576 114.277,635.651 110.481,635.651C106.689,635.651 103.614,632.576 103.614,628.784" style="fill-rule:nonzero;"/>
    <path d="M252.837,628.784C252.837,624.993 255.912,621.918 259.703,621.918C263.499,621.918 266.574,624.993 266.574,628.784C266.574,632.576 263.499,635.651 259.703,635.651C255.912,635.651 252.837,632.576 252.837,628.784" style="fill-rule:nonzero;"/>
    <path d="M137.779,57.646L66.846,57.646L66.846,51.733L137.779,51.733L137.779,57.646ZM137.779,66.512L66.846,66.512L66.846,60.6L137.779,60.6L137.779,66.512ZM63.888,69.467L140.733,69.467L140.733,48.779L63.888,48.779L63.888,69.467Z" style="fill-rule:nonzero;"/>
    <path d="M100.835,22.178L100.835,39.911L63.889,39.911L63.889,42.865L103.789,42.865L103.789,25.132L140.735,25.132L140.735,22.178L100.835,22.178Z" style="fill-rule:nonzero;"/>
    <path d="M273.738,66.512L273.738,22.179L261.917,22.179C261.917,31.95 253.955,39.912 244.184,39.912L229.405,39.912L229.405,42.866L244.184,42.866C254.588,42.866 263.221,35.145 264.659,25.133L270.784,25.133L270.784,66.512L229.405,66.512L229.405,69.466L306.25,69.466L306.25,66.512L273.738,66.512Z" style="fill-rule:nonzero;"/>
    <path d="M149.604,25.133L220.537,25.133L220.537,66.512L149.604,66.512L149.604,25.133ZM146.646,69.467L223.492,69.467L223.492,22.175L146.646,22.175L146.646,69.467Z" style="fill-rule:nonzero;"/>
    <path d="M185.07,57.645C178.549,57.645 173.249,52.345 173.249,45.825C173.249,39.3 178.549,34 185.07,34C191.59,34 196.89,39.3 196.89,45.825C196.89,52.345 191.59,57.645 185.07,57.645M185.07,31.045C176.911,31.045 170.29,37.666 170.29,45.825C170.29,53.979 176.911,60.6 185.07,60.6C193.228,60.6 199.849,53.979 199.849,45.825C199.849,37.666 193.228,31.045 185.07,31.045" style="fill-rule:nonzero;"/>
</svg>
