<?xml version="1.0" encoding="UTF-8" standalone="no"?>
<!DOCTYPE svg PUBLIC "-//W3C//DTD SVG 1.1//EN" "http://www.w3.org/Graphics/SVG/1.1/DTD/svg11.dtd">
<svg width="100%" height="100%" viewBox="0 0 1025 898" version="1.1" xmlns="http://www.w3.org/2000/svg" xmlns:xlink="http://www.w3.org/1999/xlink" xml:space="preserve" xmlns:serif="http://www.serif.com/" style="fill-rule:evenodd;clip-rule:evenodd;stroke-miterlimit:10;">
    <rect x="0" y="0" width="1024.02" height="897.637" style="fill:white;"/>
    <clipPath id="_clip1">
        <rect x="302.521" y="226.32" width="114.288" height="539.485" clip-rule="nonzero"/>
    </clipPath>
    <g clip-path="url(#_clip1)">
        <path d="M395.098,227.361L324.232,227.361C312.815,227.361 303.561,236.616 303.561,248.032L303.561,744.095C303.561,755.507 312.815,764.761 324.232,764.761L395.098,764.761C406.515,764.761 415.769,755.507 415.769,744.095L415.769,248.032C415.769,236.616 406.515,227.361 395.098,227.361Z" style="fill:none;fill-rule:nonzero;stroke:rgb(202,202,202);stroke-width:2.08px;"/>
    </g>
    <path d="M344.902,298.228L344.902,693.899C344.902,702.053 351.51,708.661 359.664,708.661C367.818,708.661 374.431,702.053 374.431,693.899L374.431,298.228C374.431,290.074 367.818,283.465 359.664,283.465C351.51,283.465 344.902,290.074 344.902,298.228" style="fill:rgb(200,200,200);fill-rule:nonzero;"/>
    <clipPath id="_clip2">
        <rect x="479.687" y="226.32" width="114.288" height="539.485" clip-rule="nonzero"/>
    </clipPath>
    <g clip-path="url(#_clip2)">
        <path d="M572.264,227.361L501.398,227.361C489.981,227.361 480.727,236.616 480.727,248.032L480.727,744.095C480.727,755.507 489.981,764.761 501.398,764.761L572.264,764.761C583.681,764.761 592.935,755.507 592.935,744.095L592.935,248.032C592.935,236.616 583.681,227.361 572.264,227.361Z" style="fill:none;fill-rule:nonzero;stroke:rgb(202,202,202);stroke-width:2.08px;"/>
    </g>
    <path d="M522.068,298.228L522.068,693.899C522.068,702.053 528.676,708.661 536.83,708.661C544.984,708.661 551.597,702.053 551.597,693.899L551.597,298.228C551.597,290.074 544.984,283.465 536.83,283.465C528.676,283.465 522.068,290.074 522.068,298.228" style="fill:rgb(200,200,200);fill-rule:nonzero;"/>
    <clipPath id="_clip3">
        <rect x="656.852" y="226.32" width="114.288" height="539.485" clip-rule="nonzero"/>
    </clipPath>
    <g clip-path="url(#_clip3)">
        <path d="M749.429,227.361L678.563,227.361C667.146,227.361 657.892,236.616 657.892,248.032L657.892,744.095C657.892,755.507 667.146,764.761 678.563,764.761L749.429,764.761C760.846,764.761 770.1,755.507 770.1,744.095L770.1,248.032C770.1,236.616 760.846,227.361 749.429,227.361Z" style="fill:none;fill-rule:nonzero;stroke:rgb(202,202,202);stroke-width:2.08px;"/>
    </g>
    <path d="M699.233,298.228L699.233,693.899C699.233,702.053 705.841,708.661 713.995,708.661C722.149,708.661 728.762,702.053 728.762,693.899L728.762,298.228C728.762,290.074 722.149,283.465 713.995,283.465C705.841,283.465 699.233,290.074 699.233,298.228" style="fill:rgb(200,200,200);fill-rule:nonzero;"/>
    <clipPath id="_clip4">
        <rect x="834.018" y="226.32" width="114.288" height="539.485" clip-rule="nonzero"/>
    </clipPath>
    <g clip-path="url(#_clip4)">
        <path d="M926.595,227.361L855.728,227.361C844.311,227.361 835.057,236.616 835.057,248.032L835.057,744.095C835.057,755.507 844.311,764.761 855.728,764.761L926.595,764.761C938.011,764.761 947.266,755.507 947.266,744.095L947.266,248.032C947.266,236.616 938.011,227.361 926.595,227.361Z" style="fill:none;fill-rule:nonzero;stroke:rgb(202,202,202);stroke-width:2.08px;"/>
    </g>
    <path d="M876.398,298.228L876.398,693.899C876.398,702.053 883.006,708.661 891.161,708.661C899.315,708.661 905.927,702.053 905.927,693.899L905.927,298.228C905.927,290.074 899.315,283.465 891.161,283.465C883.006,283.465 876.398,290.074 876.398,298.228" style="fill:rgb(200,200,200);fill-rule:nonzero;"/>
    <clipPath id="_clip5">
        <rect x="101.734" y="226.32" width="114.288" height="539.485" clip-rule="nonzero"/>
    </clipPath>
    <g clip-path="url(#_clip5)">
        <path d="M194.311,227.361L123.444,227.361C112.028,227.361 102.774,236.616 102.774,248.032L102.774,744.095C102.774,755.507 112.028,764.761 123.444,764.761L194.311,764.761C205.728,764.761 214.982,755.507 214.982,744.095L214.982,248.032C214.982,236.616 205.728,227.361 194.311,227.361Z" style="fill:none;fill-rule:nonzero;stroke:rgb(202,202,202);stroke-width:2.08px;"/>
    </g>
    <path d="M144.688,434.054L144.688,558.071C144.688,566.225 151.296,572.834 159.45,572.834C167.604,572.834 174.217,566.225 174.217,558.071L174.217,434.054C174.217,425.9 167.604,419.292 159.45,419.292C151.296,419.292 144.688,425.9 144.688,434.054" style="fill:rgb(200,200,200);fill-rule:nonzero;"/>
    <path d="M504.933,392.897C498.412,392.897 493.125,387.61 493.125,381.089L493.125,258.243C493.125,251.718 498.412,246.435 504.933,246.435L568.729,246.435C575.25,246.435 580.537,251.718 580.537,258.243L580.537,381.089C580.537,387.61 575.25,392.897 568.729,392.897L504.933,392.897Z" style="fill:white;fill-rule:nonzero;"/>
    <path d="M503.892,362.282L503.892,362.174C497.292,361.645 492.083,356.103 492.083,349.365L492.083,289.932C492.083,282.845 497.85,277.082 504.933,277.082L568.729,277.082C575.817,277.082 581.579,282.845 581.579,289.932L581.579,349.365C581.579,356.103 576.371,361.645 569.771,362.174L569.771,362.215L568.729,362.282L503.892,362.282Z" style="fill:white;fill-rule:nonzero;"/>
    <path d="M568.727,276.039L504.931,276.039C497.277,276.039 491.04,282.272 491.04,289.931L491.04,349.368C491.04,356.318 496.177,362.093 502.848,363.102L502.848,363.26L504.931,363.322L570.81,363.322L570.81,363.102C577.49,362.093 582.619,356.318 582.619,349.368L582.619,289.931C582.619,282.272 576.39,276.039 568.727,276.039M568.727,278.122C575.248,278.122 580.535,283.41 580.535,289.931L580.535,349.368C580.535,355.889 575.248,361.177 568.727,361.177L568.727,361.239L504.931,361.239L504.931,361.177C498.41,361.177 493.123,355.889 493.123,349.368L493.123,289.931C493.123,283.41 498.41,278.122 504.931,278.122L568.727,278.122Z" style="fill:rgb(149,149,149);fill-rule:nonzero;"/>
    <path d="M493.125,313.759L519.121,313.759C522.383,313.759 525.029,316.405 525.029,319.663C525.029,322.925 522.383,325.571 519.121,325.571L493.125,325.571L493.125,313.759Z" style="fill:rgb(200,200,200);fill-rule:nonzero;stroke:rgb(158,158,158);stroke-width:2.08px;"/>
    <path d="M568.727,242.266L504.931,242.266C496.127,242.266 488.956,249.433 488.956,258.241L488.956,381.087C488.956,389.9 496.127,397.062 504.931,397.062L568.727,397.062C577.535,397.062 584.702,389.9 584.702,381.087L584.702,258.241C584.702,249.433 577.535,242.266 568.727,242.266M568.727,246.433C575.248,246.433 580.535,251.72 580.535,258.241L580.535,381.087C580.535,387.612 575.248,392.895 568.727,392.895L504.931,392.895C498.41,392.895 493.123,387.612 493.123,381.087L493.123,258.241C493.123,251.72 498.41,246.433 504.931,246.433L568.727,246.433Z" style="fill:rgb(61,61,61);fill-rule:nonzero;"/>
    <path d="M682.102,568.39C675.581,568.39 670.294,563.102 670.294,556.581L670.294,433.735C670.294,427.21 675.581,421.927 682.102,421.927L745.894,421.927C752.415,421.927 757.702,427.21 757.702,433.735L757.702,556.581C757.702,563.102 752.415,568.39 745.894,568.39L682.102,568.39Z" style="fill:white;fill-rule:nonzero;"/>
    <path d="M681.056,537.774L681.056,537.666C674.456,537.137 669.248,531.595 669.248,524.858L669.248,465.424C669.248,458.337 675.015,452.574 682.098,452.574L745.894,452.574C752.981,452.574 758.744,458.337 758.744,465.424L758.744,524.858C758.744,531.595 753.535,537.137 746.935,537.666L746.935,537.708L745.894,537.774L681.056,537.774Z" style="fill:white;fill-rule:nonzero;"/>
    <path d="M745.892,451.532L682.1,451.532C674.442,451.532 668.209,457.765 668.209,465.423L668.209,524.861C668.209,531.811 673.342,537.586 680.017,538.598L680.017,538.752L682.1,538.815L747.975,538.815L747.975,538.598C754.655,537.586 759.784,531.811 759.784,524.861L759.784,465.423C759.784,457.765 753.555,451.532 745.892,451.532M745.892,453.615C752.413,453.615 757.7,458.902 757.7,465.423L757.7,524.861C757.7,531.382 752.413,536.669 745.892,536.669L745.892,536.732L682.1,536.732L682.1,536.669C675.58,536.669 670.292,531.382 670.292,524.861L670.292,465.423C670.292,458.902 675.58,453.615 682.1,453.615L745.892,453.615Z" style="fill:rgb(149,149,149);fill-rule:nonzero;"/>
    <path d="M670.294,489.251L696.285,489.251C699.548,489.251 702.194,491.897 702.194,495.155C702.194,498.418 699.548,501.064 696.285,501.064L670.294,501.064L670.294,489.251Z" style="fill:rgb(200,200,200);fill-rule:nonzero;stroke:rgb(158,158,158);stroke-width:2.08px;"/>
    <path d="M745.892,417.759L682.1,417.759C673.292,417.759 666.125,424.925 666.125,433.734L666.125,556.58C666.125,565.392 673.292,572.555 682.1,572.555L745.892,572.555C754.7,572.555 761.867,565.392 761.867,556.58L761.867,433.734C761.867,424.925 754.7,417.759 745.892,417.759M745.892,421.925C752.413,421.925 757.7,427.213 757.7,433.734L757.7,556.58C757.7,563.105 752.413,568.388 745.892,568.388L682.1,568.388C675.58,568.388 670.292,563.105 670.292,556.58L670.292,433.734C670.292,427.213 675.58,421.925 682.1,421.925L745.892,421.925Z" style="fill:rgb(61,61,61);fill-rule:nonzero;"/>
    <path d="M126.983,523.091C120.462,523.091 115.175,517.804 115.175,511.287L115.175,388.437C115.175,381.912 120.462,376.629 126.983,376.629L190.779,376.629C197.3,376.629 202.583,381.912 202.583,388.437L202.583,511.287C202.583,517.804 197.3,523.091 190.779,523.091L126.983,523.091Z" style="fill:white;fill-rule:nonzero;"/>
    <path d="M125.942,492.476L125.942,492.368C119.342,491.838 114.133,486.297 114.133,479.559L114.133,420.126C114.133,413.038 119.896,407.276 126.983,407.276L190.779,407.276C197.862,407.276 203.629,413.038 203.629,420.126L203.629,479.559C203.629,486.297 198.421,491.838 191.821,492.368L191.821,492.409L190.779,492.476L125.942,492.476Z" style="fill:white;fill-rule:nonzero;"/>
    <path d="M190.777,406.233L126.981,406.233C119.323,406.233 113.09,412.467 113.09,420.125L113.09,479.563C113.09,486.513 118.223,492.288 124.898,493.3L124.898,493.454L126.981,493.517L192.86,493.517L192.86,493.3C199.535,492.288 204.665,486.513 204.665,479.563L204.665,420.125C204.665,412.467 198.435,406.233 190.777,406.233M190.777,408.317C197.298,408.317 202.581,413.604 202.581,420.125L202.581,479.563C202.581,486.083 197.298,491.371 190.777,491.371L190.777,491.433L126.981,491.433L126.981,491.371C120.46,491.371 115.173,486.083 115.173,479.563L115.173,420.125C115.173,413.604 120.46,408.317 126.981,408.317L190.777,408.317Z" style="fill:rgb(149,149,149);fill-rule:nonzero;"/>
    <path d="M115.175,443.955L141.171,443.955C144.429,443.955 147.075,446.597 147.075,449.859C147.075,453.122 144.429,455.763 141.171,455.763L115.175,455.763L115.175,443.955Z" style="fill:rgb(200,200,200);fill-rule:nonzero;stroke:rgb(158,158,158);stroke-width:2.08px;"/>
    <path d="M190.777,372.46L126.981,372.46C118.173,372.46 111.006,379.627 111.006,388.435L111.006,511.285C111.006,520.094 118.173,527.256 126.981,527.256L190.777,527.256C199.581,527.256 206.748,520.094 206.748,511.285L206.748,388.435C206.748,379.627 199.581,372.46 190.777,372.46M190.777,376.627C197.298,376.627 202.581,381.915 202.581,388.435L202.581,511.285C202.581,517.806 197.298,523.09 190.777,523.09L126.981,523.09C120.46,523.09 115.173,517.806 115.173,511.285L115.173,388.435C115.173,381.915 120.46,376.627 126.981,376.627L190.777,376.627Z" style="fill:rgb(61,61,61);fill-rule:nonzero;"/>
    <path d="M327.769,745.965C321.248,745.965 315.96,740.677 315.96,734.157L315.96,611.311C315.96,604.786 321.248,599.502 327.769,599.502L391.565,599.502C398.085,599.502 403.373,604.786 403.373,611.311L403.373,734.157C403.373,740.677 398.085,745.965 391.565,745.965L327.769,745.965Z" style="fill:white;fill-rule:nonzero;"/>
    <path d="M326.727,715.35L326.727,715.242C320.127,714.712 314.919,709.171 314.919,702.433L314.919,643C314.919,635.912 320.685,630.15 327.769,630.15L391.565,630.15C398.652,630.15 404.415,635.912 404.415,643L404.415,702.433C404.415,709.171 399.206,714.712 392.606,715.242L392.606,715.283L391.565,715.35L326.727,715.35Z" style="fill:white;fill-rule:nonzero;"/>
    <path d="M391.562,629.107L327.767,629.107C320.112,629.107 313.875,635.34 313.875,642.999L313.875,702.436C313.875,709.386 319.012,715.161 325.683,716.174L325.683,716.328L327.767,716.39L393.646,716.39L393.646,716.174C400.325,715.161 405.454,709.386 405.454,702.436L405.454,642.999C405.454,635.34 399.225,629.107 391.562,629.107M391.562,631.19C398.083,631.19 403.371,636.478 403.371,642.999L403.371,702.436C403.371,708.957 398.083,714.245 391.562,714.245L391.562,714.307L327.767,714.307L327.767,714.245C321.246,714.245 315.958,708.957 315.958,702.436L315.958,642.999C315.958,636.478 321.246,631.19 327.767,631.19L391.562,631.19Z" style="fill:rgb(149,149,149);fill-rule:nonzero;"/>
    <path d="M315.96,666.829L341.956,666.829C345.219,666.829 347.86,669.471 347.86,672.733C347.86,675.996 345.219,678.637 341.956,678.637L315.96,678.637L315.96,666.829Z" style="fill:rgb(200,200,200);fill-rule:nonzero;stroke:rgb(158,158,158);stroke-width:2.08px;"/>
    <path d="M391.562,595.335L327.767,595.335C318.958,595.335 311.792,602.501 311.792,611.31L311.792,734.155C311.792,742.968 318.958,750.13 327.767,750.13L391.562,750.13C400.371,750.13 407.537,742.968 407.537,734.155L407.537,611.31C407.537,602.501 400.371,595.335 391.562,595.335M391.562,599.501C398.083,599.501 403.371,604.789 403.371,611.31L403.371,734.155C403.371,740.68 398.083,745.964 391.562,745.964L327.767,745.964C321.246,745.964 315.958,740.68 315.958,734.155L315.958,611.31C315.958,604.789 321.246,599.501 327.767,599.501L391.562,599.501Z" style="fill:rgb(61,61,61);fill-rule:nonzero;"/>
    <path d="M861.557,745.965C855.037,745.965 849.749,740.677 849.749,734.157L849.749,611.311C849.749,604.786 855.037,599.502 861.557,599.502L925.353,599.502C931.874,599.502 937.162,604.786 937.162,611.311L937.162,734.157C937.162,740.677 931.874,745.965 925.353,745.965L861.557,745.965Z" style="fill:white;fill-rule:nonzero;"/>
    <path d="M860.516,715.35L860.516,715.242C853.916,714.712 848.707,709.171 848.707,702.433L848.707,643C848.707,635.912 854.47,630.15 861.557,630.15L925.353,630.15C932.437,630.15 938.203,635.912 938.203,643L938.203,702.433C938.203,709.171 932.995,714.712 926.395,715.242L926.395,715.283L925.353,715.35L860.516,715.35Z" style="fill:white;fill-rule:nonzero;"/>
    <path d="M925.352,629.107L861.556,629.107C853.902,629.107 847.664,635.34 847.664,642.999L847.664,702.436C847.664,709.386 852.802,715.161 859.472,716.174L859.472,716.328L861.556,716.39L927.435,716.39L927.435,716.174C934.11,715.161 939.243,709.386 939.243,702.436L939.243,642.999C939.243,635.34 933.01,629.107 925.352,629.107M925.352,631.19C931.872,631.19 937.16,636.478 937.16,642.999L937.16,702.436C937.16,708.957 931.872,714.245 925.352,714.245L925.352,714.307L861.556,714.307L861.556,714.245C855.035,714.245 849.747,708.957 849.747,702.436L849.747,642.999C849.747,636.478 855.035,631.19 861.556,631.19L925.352,631.19Z" style="fill:rgb(149,149,149);fill-rule:nonzero;"/>
    <path d="M849.75,666.829L875.745,666.829C879.004,666.829 881.65,669.471 881.65,672.733C881.65,675.996 879.004,678.637 875.745,678.637L849.75,678.637L849.75,666.829Z" style="fill:rgb(200,200,200);fill-rule:nonzero;stroke:rgb(158,158,158);stroke-width:2.08px;"/>
    <path d="M925.352,595.335L861.556,595.335C852.747,595.335 845.581,602.501 845.581,611.31L845.581,734.155C845.581,742.968 852.747,750.13 861.556,750.13L925.352,750.13C934.16,750.13 941.327,742.968 941.327,734.155L941.327,611.31C941.327,602.501 934.16,595.335 925.352,595.335M925.352,599.501C931.872,599.501 937.16,604.789 937.16,611.31L937.16,734.155C937.16,740.68 931.872,745.964 925.352,745.964L861.556,745.964C855.035,745.964 849.747,740.68 849.747,734.155L849.747,611.31C849.747,604.789 855.035,599.501 861.556,599.501L925.352,599.501Z" style="fill:rgb(61,61,61);fill-rule:nonzero;"/>
    <path d="M363.05,180.466L360.142,169.925L357.205,180.466L363.05,180.466ZM363.675,182.72L356.575,182.72L354.7,189.445L351.98,189.445L358.425,167.079L361.83,167.079L368.275,189.445L365.555,189.445L363.675,182.72Z" style="fill:rgb(167,168,170);fill-rule:nonzero;"/>
    <path d="M534.628,187.205C539.474,187.205 542.324,183.575 542.324,178.259C542.324,172.942 539.474,169.342 534.628,169.342L532.941,169.342L532.941,187.205L534.628,187.205ZM530.249,167.092L534.628,167.092C541.041,167.092 545.107,171.846 545.107,178.288C545.107,184.734 541.041,189.459 534.628,189.459L530.249,189.459L530.249,167.092Z" style="fill:rgb(167,168,170);fill-rule:nonzero;"/>
    <path d="M706.821,181.962L709.512,181.962C709.946,185.466 711.887,187.562 714.637,187.562C716.925,187.562 719.3,186.437 719.3,183.399C719.3,181.553 718.546,180.274 715.517,179.395L713.137,178.707C710.604,177.987 707.537,176.707 707.537,172.516C707.537,169.107 710.758,166.632 714.262,166.632C718.642,166.632 720.708,169.512 720.929,173.703L718.233,173.703C717.987,170.482 716.425,169.012 714.229,169.012C712.133,169.012 710.321,170.232 710.321,172.641C710.321,174.828 711.979,175.77 714.2,176.457L716.233,177.082C719.362,178.053 722.083,179.27 722.083,183.307C722.083,187.841 718.267,189.941 714.762,189.941C709.792,189.941 707.037,186.495 706.821,181.962" style="fill:rgb(167,168,170);fill-rule:nonzero;"/>
    <path d="M891.582,177.689C894.432,177.689 895.932,175.872 895.932,173.56C895.932,170.835 894.245,169.368 891.428,169.368L888.049,169.368L888.049,177.689L891.582,177.689ZM885.362,167.114L891.866,167.114C895.837,167.114 898.653,169.243 898.682,172.997C898.716,176.189 896.807,177.843 895.212,178.535L895.212,178.627C897.182,179.285 898.274,180.502 898.274,183.289L898.274,185.947C898.274,187.822 898.62,188.76 898.841,189.481L896.024,189.481C895.807,188.731 895.466,187.793 895.466,185.885L895.466,183.789C895.466,181.631 894.745,179.91 891.491,179.91L888.049,179.91L888.049,189.481L885.362,189.481L885.362,167.114Z" style="fill:rgb(167,168,170);fill-rule:nonzero;"/>
    <path d="M27.085,29.89L38.843,29.89L38.843,32.145L29.776,32.145L29.776,39.432L37.843,39.432L37.843,41.62L29.776,41.62L29.776,50.003L38.843,50.003L38.843,52.257L27.085,52.257L27.085,29.89Z" style="fill:rgb(167,168,170);fill-rule:nonzero;"/>
    <path d="M62.277,29.89L62.277,52.257L58.961,52.257L50.332,33.674L50.332,52.257L47.64,52.257L47.64,29.89L50.952,29.89L59.586,48.47L59.586,29.89L62.277,29.89Z" style="fill:rgb(167,168,170);fill-rule:nonzero;"/>
    <path d="M86.036,29.89L79.965,52.257L76.557,52.257L70.49,29.89L73.24,29.89L78.278,49.345L83.282,29.89L86.036,29.89Z" style="fill:rgb(167,168,170);fill-rule:nonzero;"/>
    <path d="M24.736,68.245L1005.05,68.245" style="fill:none;fill-rule:nonzero;stroke:rgb(167,168,170);stroke-width:2.36px;"/>
    <path d="M28.647,375.004L28.647,382.47L26.951,382.47L26.951,380.358C26.135,381.8 24.839,382.741 23.226,382.741C19.63,382.741 17.372,379.837 17.372,374.983C17.372,370.129 19.63,367.266 23.226,367.266C26.305,367.266 27.935,369.333 28.414,372.704L26.555,372.704C26.322,370.716 25.405,368.77 23.226,368.77C20.551,368.77 19.235,371.195 19.235,374.983C19.235,378.766 20.551,381.237 23.226,381.237C24.943,381.237 26.639,379.983 26.93,376.591L23.418,376.591L23.418,375.004L28.647,375.004Z" style="fill:rgb(167,168,170);fill-rule:nonzero;"/>
    <path d="M40.52,376.466L38.575,369.416L36.612,376.466L40.52,376.466ZM40.941,377.975L36.191,377.975L34.937,382.47L33.116,382.47L37.425,367.516L39.708,367.516L44.016,382.47L42.191,382.47L40.941,377.975Z" style="fill:rgb(167,168,170);fill-rule:nonzero;"/>
    <path d="M50.115,369.02L46.165,369.02L46.165,367.516L55.89,367.516L55.89,369.02L51.915,369.02L51.915,382.47L50.115,382.47L50.115,369.02Z" style="fill:rgb(167,168,170);fill-rule:nonzero;"/>
    <path d="M60.491,367.515L68.354,367.515L68.354,369.019L62.291,369.019L62.291,373.894L67.687,373.894L67.687,375.356L62.291,375.356L62.291,380.965L68.354,380.965L68.354,382.469L60.491,382.469L60.491,367.515Z" style="fill:rgb(167,168,170);fill-rule:nonzero;"/>
    <path d="M20.529,400.935L16.579,400.935L16.579,399.431L26.304,399.431L26.304,400.935L22.329,400.935L22.329,414.385L20.529,414.385L20.529,400.935Z" style="fill:rgb(167,168,170);fill-rule:nonzero;"/>
    <path d="M35.068,406.5C36.968,406.5 37.972,405.287 37.972,403.737C37.972,401.917 36.843,400.937 34.964,400.937L32.705,400.937L32.705,406.5L35.068,406.5ZM30.905,399.429L35.255,399.429C37.914,399.429 39.793,400.854 39.814,403.362C39.839,405.496 38.56,406.604 37.493,407.067L37.493,407.125C38.81,407.567 39.543,408.383 39.543,410.242L39.543,412.021C39.543,413.275 39.772,413.904 39.918,414.387L38.039,414.387C37.893,413.883 37.66,413.258 37.66,411.979L37.66,410.579C37.66,409.133 37.18,407.983 35.001,407.983L32.705,407.983L32.705,414.387L30.905,414.387L30.905,399.429Z" style="fill:rgb(167,168,170);fill-rule:nonzero;"/>
    <rect x="45.533" y="399.429" width="1.8" height="14.954" style="fill:rgb(167,168,170);"/>
    <path d="M64.019,406.919L64.019,414.385L62.323,414.385L62.323,412.273C61.506,413.715 60.21,414.656 58.598,414.656C55.002,414.656 52.744,411.752 52.744,406.898C52.744,402.044 55.002,399.181 58.598,399.181C61.677,399.181 63.306,401.248 63.785,404.619L61.927,404.619C61.694,402.631 60.777,400.685 58.598,400.685C55.923,400.685 54.606,403.11 54.606,406.898C54.606,410.681 55.923,413.152 58.598,413.152C60.315,413.152 62.01,411.898 62.302,408.506L58.79,408.506L58.79,406.919L64.019,406.919Z" style="fill:rgb(167,168,170);fill-rule:nonzero;"/>
    <path d="M28.647,496.368L28.647,503.835L26.951,503.835L26.951,501.722C26.135,503.164 24.839,504.105 23.226,504.105C19.63,504.105 17.372,501.201 17.372,496.347C17.372,491.493 19.63,488.63 23.226,488.63C26.305,488.63 27.935,490.697 28.414,494.068L26.555,494.068C26.322,492.08 25.405,490.135 23.226,490.135C20.551,490.135 19.235,492.56 19.235,496.347C19.235,500.13 20.551,502.601 23.226,502.601C24.943,502.601 26.639,501.347 26.93,497.955L23.418,497.955L23.418,496.368L28.647,496.368Z" style="fill:rgb(167,168,170);fill-rule:nonzero;"/>
    <path d="M40.52,497.831L38.575,490.785L36.612,497.831L40.52,497.831ZM40.941,499.339L36.191,499.339L34.937,503.835L33.116,503.835L37.425,488.881L39.708,488.881L44.016,503.835L42.191,503.835L40.941,499.339Z" style="fill:rgb(167,168,170);fill-rule:nonzero;"/>
    <path d="M50.115,490.385L46.165,490.385L46.165,488.88L55.89,488.88L55.89,490.385L51.915,490.385L51.915,503.835L50.115,503.835L50.115,490.385Z" style="fill:rgb(167,168,170);fill-rule:nonzero;"/>
    <path d="M60.491,488.879L68.354,488.879L68.354,490.383L62.291,490.383L62.291,495.258L67.687,495.258L67.687,496.721L62.291,496.721L62.291,502.329L68.354,502.329L68.354,503.833L60.491,503.833L60.491,488.879Z" style="fill:rgb(167,168,170);fill-rule:nonzero;"/>
    <path d="M17.892,577.612L19.692,577.612L19.692,591.062L24.922,591.062L24.922,592.566L17.892,592.566L17.892,577.612Z" style="fill:rgb(167,168,170);fill-rule:nonzero;"/>
    <path d="M29.721,577.612L37.584,577.612L37.584,579.116L31.521,579.116L31.521,583.991L37.021,583.991L37.021,585.5L31.521,585.5L31.521,592.566L29.721,592.566L29.721,577.612Z" style="fill:rgb(167,168,170);fill-rule:nonzero;"/>
    <path d="M51.502,585.078C51.502,581.291 50.186,578.866 47.611,578.866C45.036,578.866 43.723,581.291 43.723,585.078C43.723,588.866 45.036,591.333 47.611,591.333C50.186,591.333 51.502,588.866 51.502,585.078M41.861,585.078C41.861,580.224 44.119,577.362 47.611,577.362C51.102,577.362 53.361,580.245 53.361,585.078C53.361,589.912 51.102,592.841 47.611,592.841C44.119,592.841 41.861,589.933 41.861,585.078" style="fill:rgb(167,168,170);fill-rule:nonzero;"/>
    <path d="M88.646,507.533L86.817,507.533L86.817,505.792L88.646,505.792L88.646,507.533ZM90.429,505.792L88.646,505.792L88.646,504.05L90.429,504.05L90.429,505.792ZM92.217,504.05L90.429,504.05L90.429,502.267L92.217,502.267L92.217,504.05ZM93.912,502.267L92.217,502.267L92.217,500.437L93.912,500.437L93.912,502.267ZM95.746,500.433L93.917,500.433L93.917,498.779L95.746,498.779L95.746,500.433ZM97.529,498.779L95.746,498.779L95.746,496.954L82.925,496.954L82.925,495.254L95.746,495.254L95.746,493.425L97.529,493.425L97.529,495.254L99.317,495.254L99.317,496.954L97.529,496.954L97.529,498.779ZM95.746,493.425L93.917,493.425L93.917,491.771L95.746,491.771L95.746,493.425ZM93.912,491.771L92.217,491.771L92.217,489.942L93.912,489.942L93.912,491.771ZM92.217,489.942L90.429,489.942L90.429,488.158L92.217,488.158L92.217,489.942ZM90.429,488.158L88.646,488.158L88.646,486.417L90.429,486.417L90.429,488.158ZM88.646,486.417L86.817,486.417L86.817,484.675L88.646,484.675L88.646,486.417Z" style="fill:rgb(167,168,170);fill-rule:nonzero;"/>
    <path d="M88.442,460.283L86.612,460.283L86.612,458.537L88.442,458.537L88.442,460.283ZM90.225,458.537L88.442,458.537L88.442,456.796L90.225,456.796L90.225,458.537ZM92.012,456.796L90.225,456.796L90.225,455.012L92.012,455.012L92.012,456.796ZM93.708,455.012L92.012,455.012L92.012,453.183L93.708,453.183L93.708,455.012ZM95.542,453.183L93.712,453.183L93.712,451.529L95.542,451.529L95.542,453.183ZM97.325,451.529L95.542,451.529L95.542,449.7L82.721,449.7L82.721,448.004L95.542,448.004L95.542,446.175L97.325,446.175L97.325,448.004L99.112,448.004L99.112,449.7L97.325,449.7L97.325,451.529ZM95.542,446.175L93.712,446.175L93.712,444.521L95.542,444.521L95.542,446.175ZM93.708,444.521L92.012,444.521L92.012,442.692L93.708,442.692L93.708,444.521ZM92.012,442.692L90.225,442.692L90.225,440.908L92.012,440.908L92.012,442.692ZM90.225,440.904L88.442,440.904L88.442,439.162L90.225,439.162L90.225,440.904ZM88.442,439.167L86.612,439.167L86.612,437.425L88.442,437.425L88.442,439.167Z" style="fill:rgb(167,168,170);fill-rule:nonzero;"/>
    <path d="M88.442,533.758L86.612,533.758L86.612,532.017L88.442,532.017L88.442,533.758ZM90.225,535.5L88.442,535.5L88.442,533.758L90.225,533.758L90.225,535.5ZM92.012,537.283L90.225,537.283L90.225,535.5L92.012,535.5L92.012,537.283ZM93.708,539.113L92.012,539.113L92.012,537.283L93.708,537.283L93.708,539.113ZM95.542,540.767L93.712,540.767L93.712,539.112L95.542,539.112L95.542,540.767ZM97.325,542.596L99.112,542.596L99.112,544.292L97.325,544.292L97.325,546.121L95.542,546.121L95.542,544.292L82.721,544.292L82.721,542.596L95.542,542.596L95.542,540.767L97.325,540.767L97.325,542.596ZM93.708,546.121L95.537,546.121L95.537,547.775L93.708,547.775L93.708,546.121ZM92.012,547.775L93.708,547.775L93.708,549.604L92.012,549.604L92.012,547.775ZM90.225,549.608L92.012,549.608L92.012,551.392L90.225,551.392L90.225,549.608ZM88.442,551.392L90.225,551.392L90.225,553.133L88.442,553.133L88.442,551.392ZM86.612,553.133L88.442,553.133L88.442,554.875L86.612,554.875L86.612,553.133Z" style="fill:rgb(167,168,170);fill-rule:nonzero;"/>
    <path d="M87.479,543.443L73.345,543.443L73.345,601.152L16.325,601.152" style="fill:none;fill-rule:nonzero;stroke:rgb(167,168,170);stroke-width:1.89px;"/>
    <path d="M73.907,496.103L86.611,496.103" style="fill:none;fill-rule:nonzero;stroke:rgb(167,168,170);stroke-width:1.89px;"/>
    <path d="M87.479,448.854L73.345,448.854L73.345,391.054L16.325,391.054" style="fill:none;fill-rule:nonzero;stroke:rgb(167,168,170);stroke-width:1.89px;"/>
    <path d="M263.152,293.273L263.152,308.003L261.419,308.003L261.419,296.157C260.823,297.332 259.877,298.173 258.76,298.361L258.76,296.569C260.119,296.157 260.865,294.736 261.006,293.273L263.152,293.273Z" style="fill:rgb(167,168,170);fill-rule:nonzero;"/>
    <path d="M276.25,300.626C276.25,296.755 275.284,294.551 273.242,294.551C271.205,294.551 270.238,296.755 270.238,300.626C270.238,304.501 271.205,306.743 273.242,306.743C275.284,306.743 276.25,304.501 276.25,300.626M268.4,300.626C268.4,296.076 270.296,293.026 273.242,293.026C276.188,293.026 278.084,295.68 278.084,300.626C278.084,305.572 276.188,308.268 273.242,308.268C270.296,308.268 268.4,305.18 268.4,300.626" style="fill:rgb(167,168,170);fill-rule:nonzero;"/>
    <path d="M267.229,691.609C267.229,687.738 266.262,685.534 264.221,685.534C262.183,685.534 261.217,687.738 261.217,691.609C261.217,695.484 262.183,697.726 264.221,697.726C266.262,697.726 267.229,695.484 267.229,691.609M259.379,691.609C259.379,687.059 261.275,684.009 264.221,684.009C267.167,684.009 269.058,686.663 269.058,691.609C269.058,696.555 267.167,699.251 264.221,699.251C261.275,699.251 259.379,696.163 259.379,691.609" style="fill:rgb(167,168,170);fill-rule:nonzero;"/>
    <path d="M258.352,318.623L301.743,318.623" style="fill:none;fill-rule:nonzero;stroke:rgb(167,168,170);stroke-width:2.36px;"/>
    <path d="M258.352,496.199L301.743,496.199" style="fill:none;fill-rule:nonzero;stroke:rgb(167,168,170);stroke-width:2.36px;"/>
    <path d="M258.352,673.775L301.743,673.775" style="fill:none;fill-rule:nonzero;stroke:rgb(167,168,170);stroke-width:2.36px;"/>
    <path d="M280.049,638.26L301.745,638.26" style="fill:none;fill-rule:nonzero;stroke:rgb(167,168,170);stroke-width:2.36px;"/>
    <path d="M280.049,602.745L301.745,602.745" style="fill:none;fill-rule:nonzero;stroke:rgb(167,168,170);stroke-width:2.36px;"/>
    <path d="M280.049,567.23L301.745,567.23" style="fill:none;fill-rule:nonzero;stroke:rgb(167,168,170);stroke-width:2.36px;"/>
    <path d="M280.049,531.715L301.745,531.715" style="fill:none;fill-rule:nonzero;stroke:rgb(167,168,170);stroke-width:2.36px;"/>
    <path d="M280.049,460.684L301.745,460.684" style="fill:none;fill-rule:nonzero;stroke:rgb(167,168,170);stroke-width:2.36px;"/>
    <path d="M280.049,425.169L301.745,425.169" style="fill:none;fill-rule:nonzero;stroke:rgb(167,168,170);stroke-width:2.36px;"/>
    <path d="M280.049,389.654L301.745,389.654" style="fill:none;fill-rule:nonzero;stroke:rgb(167,168,170);stroke-width:2.36px;"/>
    <path d="M280.049,354.139L301.745,354.139" style="fill:none;fill-rule:nonzero;stroke:rgb(167,168,170);stroke-width:2.36px;"/>
    <path d="M417.166,318.623L479.174,318.623" style="fill:none;fill-rule:nonzero;stroke:rgb(167,168,170);stroke-width:2.36px;"/>
    <path d="M417.166,354.139L479.174,354.139" style="fill:none;fill-rule:nonzero;stroke:rgb(167,168,170);stroke-width:2.36px;"/>
    <path d="M417.166,389.654L479.174,389.654" style="fill:none;fill-rule:nonzero;stroke:rgb(167,168,170);stroke-width:2.36px;"/>
    <path d="M417.166,425.169L479.174,425.169" style="fill:none;fill-rule:nonzero;stroke:rgb(167,168,170);stroke-width:2.36px;"/>
    <path d="M417.166,460.684L479.174,460.684" style="fill:none;fill-rule:nonzero;stroke:rgb(167,168,170);stroke-width:2.36px;"/>
    <path d="M417.166,531.715L479.174,531.715" style="fill:none;fill-rule:nonzero;stroke:rgb(167,168,170);stroke-width:2.36px;"/>
    <path d="M417.166,602.745L479.174,602.745" style="fill:none;fill-rule:nonzero;stroke:rgb(167,168,170);stroke-width:2.36px;"/>
    <path d="M417.166,567.23L479.174,567.23" style="fill:none;fill-rule:nonzero;stroke:rgb(167,168,170);stroke-width:2.36px;"/>
    <path d="M417.166,638.26L479.174,638.26" style="fill:none;fill-rule:nonzero;stroke:rgb(167,168,170);stroke-width:2.36px;"/>
    <path d="M417.166,496.199L479.174,496.199" style="fill:none;fill-rule:nonzero;stroke:rgb(167,168,170);stroke-width:2.36px;"/>
    <path d="M417.166,673.775L479.174,673.775" style="fill:none;fill-rule:nonzero;stroke:rgb(167,168,170);stroke-width:2.36px;"/>
    <path d="M595.172,318.623L656.589,318.623" style="fill:none;fill-rule:nonzero;stroke:rgb(167,168,170);stroke-width:2.36px;"/>
    <path d="M595.172,354.139L656.589,354.139" style="fill:none;fill-rule:nonzero;stroke:rgb(167,168,170);stroke-width:2.36px;"/>
    <path d="M595.172,389.654L656.589,389.654" style="fill:none;fill-rule:nonzero;stroke:rgb(167,168,170);stroke-width:2.36px;"/>
    <path d="M595.172,425.169L656.589,425.169" style="fill:none;fill-rule:nonzero;stroke:rgb(167,168,170);stroke-width:2.36px;"/>
    <path d="M595.172,460.684L656.589,460.684" style="fill:none;fill-rule:nonzero;stroke:rgb(167,168,170);stroke-width:2.36px;"/>
    <path d="M595.172,531.715L656.589,531.715" style="fill:none;fill-rule:nonzero;stroke:rgb(167,168,170);stroke-width:2.36px;"/>
    <path d="M595.172,602.745L656.589,602.745" style="fill:none;fill-rule:nonzero;stroke:rgb(167,168,170);stroke-width:2.36px;"/>
    <path d="M595.172,567.23L656.589,567.23" style="fill:none;fill-rule:nonzero;stroke:rgb(167,168,170);stroke-width:2.36px;"/>
    <path d="M595.172,638.26L656.589,638.26" style="fill:none;fill-rule:nonzero;stroke:rgb(167,168,170);stroke-width:2.36px;"/>
    <path d="M595.172,496.199L656.589,496.199" style="fill:none;fill-rule:nonzero;stroke:rgb(167,168,170);stroke-width:2.36px;"/>
    <path d="M595.172,673.775L656.589,673.775" style="fill:none;fill-rule:nonzero;stroke:rgb(167,168,170);stroke-width:2.36px;"/>
    <path d="M772.337,318.623L833.754,318.623" style="fill:none;fill-rule:nonzero;stroke:rgb(167,168,170);stroke-width:2.36px;"/>
    <path d="M772.337,354.139L833.754,354.139" style="fill:none;fill-rule:nonzero;stroke:rgb(167,168,170);stroke-width:2.36px;"/>
    <path d="M772.337,389.654L833.754,389.654" style="fill:none;fill-rule:nonzero;stroke:rgb(167,168,170);stroke-width:2.36px;"/>
    <path d="M772.337,425.169L833.754,425.169" style="fill:none;fill-rule:nonzero;stroke:rgb(167,168,170);stroke-width:2.36px;"/>
    <path d="M772.337,460.684L833.754,460.684" style="fill:none;fill-rule:nonzero;stroke:rgb(167,168,170);stroke-width:2.36px;"/>
    <path d="M772.337,531.715L833.754,531.715" style="fill:none;fill-rule:nonzero;stroke:rgb(167,168,170);stroke-width:2.36px;"/>
    <path d="M772.337,602.745L833.754,602.745" style="fill:none;fill-rule:nonzero;stroke:rgb(167,168,170);stroke-width:2.36px;"/>
    <path d="M772.337,567.23L833.754,567.23" style="fill:none;fill-rule:nonzero;stroke:rgb(167,168,170);stroke-width:2.36px;"/>
    <path d="M772.337,638.26L833.754,638.26" style="fill:none;fill-rule:nonzero;stroke:rgb(167,168,170);stroke-width:2.36px;"/>
    <path d="M772.337,496.199L833.754,496.199" style="fill:none;fill-rule:nonzero;stroke:rgb(167,168,170);stroke-width:2.36px;"/>
    <path d="M772.337,673.775L833.754,673.775" style="fill:none;fill-rule:nonzero;stroke:rgb(167,168,170);stroke-width:2.36px;"/>
</svg>
